<svg xmlns="http://www.w3.org/2000/svg" width="132" height="132" fill="none" viewBox="0 0 132 132"><g clip-path="url(#a)"><circle cx="66" cy="66" r="66" fill="#fff"/><path fill="#fff" d="M107.453 28.352H28.81v48.296h78.643z"/><path fill="#B7BFF6" d="M75.058 28.924h-.022l-5.893 5.948-10.393 10.49-14.26 14.394a3582 3582 0 0 1 3.127 15.306l6.431.133q5.785-6.338 11.566-12.686 7.543-8.281 15.082-16.563 8.06-8.856 16.12-17.704zm-4.854 21.484H70.2c-2.245.132-3.945-1.81-4.055-3.479-.08-1.177.629-2.261.77-2.468.16-.238.454-.66.992-1.023a3.5 3.5 0 0 1 1.46-.557q.012.001.025-.006c.093-.013.177-.021.26-.025l.12-.007q.183-.006.301 0c1.745.093 3.763 1.582 3.746 3.812-.012 2.01-1.675 3.639-3.615 3.752M56.449 79.004c15.329-16.693 30.655-33.408 46.005-50.102 2.818.154 5.66.287 8.48.441a109553 109553 0 0 1-48.628 49.332c-1.938.11-3.898.22-5.857.308z"/><path fill="#101A5B" d="M79.947 100.146a56.2 56.2 0 0 0-10.24-.926c-4.053 0-7.422.418-10.153.926v-9.293c2.533.417 5.99.837 10.131.858 4.185 0 7.686-.418 10.241-.858v9.293z"/><path fill="#101A5B" d="M92.456 106.842c-15.042.133-30.084.287-45.103.417.264-.109.64-.308.991-.66.705-.683.903-1.498.992-1.829.044-1.651.065-3.303.133-4.934 14.293.154 28.586.308 42.88.486.043 2.181.109 4.36.153 6.541l-.044-.021zM48.85 82.66v8.191c17.333-.066 34.687-.11 51.997-.177l6.914-6.278v-9.205h-58.91v7.468999999999999M32.42 84.29c-2.29-1.915-1.938-5.064-1.915-5.241l-.33-20.13h-4.097c.177 10.901.331 18.875.352 22.773 0 1.365.021 4.756 2.29 6.497 1.697 1.32 3.964 1.166 5.198.991 4.405-.044 8.788-.11 13.193-.133v-3.833a1655 1655 0 0 0-10.836.243c-.418.044-2.247.177-3.81-1.145z"/><path fill="#101A5B" d="M109.656 28.11c-2.203-2.62-5.571-3.392-7.158-3.37-22.418.199-44.794.397-67.215.617-1.63.088-5.043.506-7.334 3.084-1.983 2.223-2.247 4.999-2.223 6.828.11 8.038.219 15.328.308 21.714h4.096c-.133-7.158-.243-14.315-.373-21.474-.045-.287-.397-2.445 1.166-4.271 1.608-1.871 3.877-1.83 4.162-1.806l67.435-.991c.947.133 2.598.506 3.72 1.87 1.123 1.321 1.146 2.93 1.167 4.648.021 4.007 0 7.334-.065 9.998-.066 16.253-.287 28.3-.264 33.035 0 1.08 0 3.634-1.673 5.748-1.365 1.717-3.084 2.312-3.765 2.51-5.683.133-11.363.243-17.046.374-.044 1.364-.11 2.752-.154 4.117 5.484 0 10.946-.021 16.43-.044 2.599 0 4.383-.507 5.769-1.279a9.3 9.3 0 0 0 2.268-1.805c2.466-2.643 2.708-5.99 2.731-7.202 0-15.944-.021-31.89-.021-47.81-.198-1.167-.639-2.907-1.938-4.45l-.021-.044z"/><path fill="#fff" d="M45.438 60.197H21.652v44.575h23.786z"/><path fill="#B7BFF6" d="m45.37 66.451-6.817 8.778q-1.363 1.755-2.726 3.507c-.236-1.016-1.23-1.672-2.105-1.719a2 2 0 0 0-.173 0l-.07.004q-.07.005-.15.015-.008.002-.014.002a2 2 0 0 0-.841.323c-.31.209-.48.451-.572.589-.08.12-.49.744-.443 1.421.063.96 1.034 2.072 2.318 2.006q-1.886 2.43-3.774 4.858l-7.16 9.22c-.332-2.356-.663-4.733-.992-7.091v-.022l5.391-8.167 5.042-7.632q4.026-6.1 8.043-12.192c.133-.044 2.445-.64 4.14.903 1.388 1.255 1.764 3.392.903 5.197M21.741 100.566c7.51-9.27 15.042-18.543 22.551-27.793.243 1.19.462 2.356.705 3.546-7.488 8.788-14.953 17.596-22.442 26.384-.287-.704-.55-1.409-.814-2.113v-.024"/><path fill="#101A5B" d="M47.572 103.296c.243-2.555.22-19.029-.11-41.58-.044-.397-.198-1.453-.99-2.38a4.01 4.01 0 0 0-2.732-1.387c-6.87.132-13.743.286-20.613.396-.243 0-1.673.044-2.776 1.32-1.013 1.19-.991 2.62-.991 2.907a21764 21764 0 0 1 .571 38.914c-.02.331-.154 2.51 1.365 4.162 1.122 1.211 2.466 1.409 2.886 1.476 6.54.021 13.082.066 19.623.089a3.8 3.8 0 0 0 2.753-1.321c.814-.947.926-2.113.991-2.598h.021zm-3.744-.066a2.27 2.27 0 0 1-1.829.572H26.1c-.198.021-1.21.133-2.093-.66-1.1-.992-.968-2.489-.947-2.62-.242-11.893-.485-23.806-.748-35.7-.22-.946.044-1.938.704-2.553.728-.684 1.607-.595 1.785-.595 1.915 0 3.81-.045 5.748-.045a3.26 3.26 0 0 0 2.95 1.717 3.21 3.21 0 0 0 2.777-1.87c2.18-.045 3.963-.066 5.57-.155.486-.02 1.255-.065 1.806.418.749.684.683 1.983.66 2.38-.088 2.29.089 17.001.331 37.548-.02.199-.132.992-.77 1.587l-.044-.021z"/><path fill="#fff" d="M32.729 61.011c0 .485.373.859.77.838.373 0 .727-.374.727-.815s-.352-.837-.748-.837c-.397 0-.75.352-.75.814M69.772 86.602a4.118 4.118 0 1 0 0-8.235 4.118 4.118 0 0 0 0 8.235"/><path fill="#B7BFF6" d="M60.457 58.524c1.145 1.74 2.731 3.129 4.602 4.097-.639-1.146-1.21-2.51-1.651-4.097z"/><path fill="#101A5B" d="M80.696 45.946a11.3 11.3 0 0 0-.985-4.041c-1.595-3.544-5.36-7.19-10.37-7.041l-.198.008c-4.93.245-8.47 4.088-9.796 7.824a11.2 11.2 0 0 0-.597 2.666c-.403 4.073 1.49 7.302 1.814 7.838l5.05 9.309 4.28 7.891 8.853-16.79c.209-.334 2.18-3.563 1.949-7.664m-11.33-3.065s.017 0 .026-.006c.093-.013.177-.021.26-.025l.12-.007q.183-.006.301 0c1.745.093 3.763 1.582 3.746 3.812-.012 2.01-1.675 3.639-3.615 3.752H70.2c-2.245.133-3.945-1.81-4.055-3.478-.08-1.177.629-2.261.77-2.468.16-.238.454-.66.992-1.023a3.5 3.5 0 0 1 1.46-.557"/><path fill="#101A5B" d="M70.029 70.26c-.669-1.742-1.61-3.385-2.477-5.036-.864-1.652-1.717-3.28-2.592-4.911-1.455-2.71-2.94-5.408-4.394-8.119-.177-.327-.335-.66-.483-1.002a14 14 0 0 1-.13-.308q-.034-.082-.064-.162c.053.133-.019-.055-.023-.068q-.15-.4-.27-.806a11.3 11.3 0 0 1-.513-3.588 10.2 10.2 0 0 1 .952-3.982 12.3 12.3 0 0 1 1.995-3.044c1.749-1.968 4.187-3.352 6.835-3.563 2.647-.21 5.395.77 7.462 2.559.93.804 1.755 1.8 2.365 2.854.688 1.19 1.232 2.643 1.437 3.822q.047.271.082.547.014.135.031.27c.034.295-.008-.205.007.09.019.378.031.751.023 1.13-.004.286.015-.21-.002.07-.007.085-.009.167-.015.25a13 13 0 0 1-.105.965c-.005.034-.049.294-.009.068a13 13 0 0 1-.253 1.164c-.034.127-.065.25-.103.371-.015.055-.034.11-.049.165-.01.038-.101.316-.034.114-.154.464-.33.926-.529 1.371q-.216.486-.468.956c-.015.03-.032.054-.047.084-.057.11.093-.16.034-.06q-.035.064-.072.128l-.1.166c-.478.806-.883 1.662-1.317 2.49-.435.826-.833 1.661-1.245 2.497a365 365 0 0 1-2.504 4.963c-.847 1.648-1.717 3.253-2.537 4.898-.4.806-.772 1.626-1.181 2.43-.104.207-.091.542.016.745.108.202.241.17.342-.009.45-.812.941-1.603 1.382-2.42q.66-1.225 1.314-2.455a690 690 0 0 1 2.67-4.927c.897-1.64 1.853-3.255 2.728-4.91l.641-1.212q.09-.165.18-.34s.086-.157.035-.069c-.03.05-.017.032-.01.017.014-.027.031-.05.046-.078q.23-.383.435-.78a15.3 15.3 0 0 0 1.685-7.149c-.021-1.753-.37-3.548-1.128-5.139a14 14 0 0 0-2.103-3.155c-1.827-2.09-4.285-3.637-7.065-3.995s-5.68.542-7.855 2.341a12.86 12.86 0 0 0-4.299 6.77c-.747 2.893-.403 5.967.715 8.715.249.61.546 1.192.873 1.76.922 1.6 1.772 3.248 2.656 4.872a591 591 0 0 0 6.128 10.97c.225.389.466.708.732 1.05.154.197.215-.296.183-.385l-.004.004zM39.276 76.475a7.3 7.3 0 0 0-.723-1.247c-1.118-1.565-2.96-2.877-5.253-2.81q-.526.017-1.016.125c-2.37.504-4.063 2.47-4.744 4.39a6.67 6.67 0 0 0-.298 3.242c.226 1.5.86 2.584 1 2.812q.879 1.624 1.761 3.248l3.616 6.666 5.102-9.678c.159-.251 2.07-3.386.555-6.748m-5.478 4.902h-.02c-1.285.066-2.256-1.046-2.32-2.006-.045-.677.364-1.301.444-1.421.093-.138.261-.38.572-.589.295-.2.596-.287.841-.323q.006 0 .015-.002.078-.01.15-.015l.07-.004a2 2 0 0 1 .172 0c.876.047 1.87.703 2.105 1.72q.058.228.055.478c-.008 1.158-.966 2.097-2.084 2.162"/><path fill="#101A5B" d="M33.697 92.82c-.386-1.003-.928-1.95-1.426-2.902-.498-.951-.99-1.89-1.493-2.83-.84-1.563-1.694-3.118-2.534-4.681a8 8 0 0 1-.278-.578l-.076-.177q-.02-.046-.036-.095l-.015-.04a8 8 0 0 1-.156-.464 6.5 6.5 0 0 1-.295-2.068 5.862 5.862 0 0 1 .549-2.295c.29-.639.683-1.23 1.149-1.755 1.008-1.134 2.413-1.932 3.938-2.054 1.525-.123 3.11.445 4.301 1.474a6.5 6.5 0 0 1 1.363 1.646c.396.685.709 1.523.827 2.204q.026.156.046.314.008.079.017.156c.019.171-.004-.118.004.053q.017.325.015.652c-.002.164.008-.123 0 .04q-.004.074-.008.143a6 6 0 0 1-.062.557c-.002.02-.027.169-.004.04q-.015.089-.032.173a10 10 0 0 1-.114.498q-.027.108-.059.215-.013.048-.027.095c-.006.021-.059.184-.019.066q-.132.403-.304.79a8 8 0 0 1-.278.566q-.022.035-.042.072l-.06.097c-.274.464-.508.957-.759 1.434-.25.477-.479.958-.717 1.439q-.713 1.435-1.443 2.86c-.487.95-.99 1.875-1.462 2.822-.232.464-.445.937-.68 1.4a.52.52 0 0 0 .01.43c.063.115.139.098.196-.005.26-.468.542-.924.795-1.394q.38-.706.757-1.416.764-1.422 1.54-2.839c.517-.945 1.067-1.875 1.572-2.83l.369-.699q.052-.097.103-.196s.049-.09.021-.04l-.006.01q.012-.022.027-.044.132-.221.251-.45c.65-1.26.99-2.701.97-4.119-.012-1.01-.212-2.044-.649-2.962a8 8 0 0 0-1.213-1.818c-1.053-1.204-2.468-2.096-4.071-2.303s-3.274.312-4.527 1.35a7.42 7.42 0 0 0-2.478 3.902c-.43 1.669-.232 3.44.413 5.025.144.352.315.687.504 1.014.532.922 1.021 1.873 1.532 2.81q1.546 2.84 3.145 5.647.192.338.388.677c.13.226.27.407.422.603.088.114.124-.17.105-.221h-.002z"/></g><defs><clipPath id="a"><rect width="132" height="132" fill="#fff" rx="66"/></clipPath></defs></svg>