<svg xmlns="http://www.w3.org/2000/svg" width="32" height="32" fill="none" viewBox="0 0 32 32"><path fill="#D8D8FF" d="M8 30.667H2.666a1.334 1.334 0 0 1-1.333-1.334V18.667a1.333 1.333 0 0 1 1.333-1.334H8a1.333 1.333 0 0 1 1.333 1.334v10.666A1.333 1.333 0 0 1 8 30.667Z"/><path fill="#6563FF" d="M18.667 30.667h-5.334A1.333 1.333 0 0 1 12 29.333V2.667a1.334 1.334 0 0 1 1.333-1.334h5.334A1.333 1.333 0 0 1 20 2.667v26.666a1.333 1.333 0 0 1-1.333 1.334Z"/><path fill="#B2B1FF" d="M29.334 30.667H24a1.333 1.333 0 0 1-1.333-1.334v-16A1.334 1.334 0 0 1 24 12h5.334a1.334 1.334 0 0 1 1.333 1.333v16a1.333 1.333 0 0 1-1.333 1.334Z"/></svg>