<svg xmlns="http://www.w3.org/2000/svg" width="229" height="248" fill="none" viewBox="0 0 229 248"><g clip-path="url(#a)"><path fill="#000" d="m224.803 217.691.183.071-.002-.175z"/><path fill="#fff" d="M224.985 217.761v.15l.115-.104zM179.854 39.573l.816-8.445-1.596-11.801-4.37-7.825L168.02 5.6l-4.564-2.25-6.455-1.614-3.944.048-1.254.507-1.854.224-2.689.448-5.229 1.7-4.573 2.617-5.037 4.767-3.912 6.21-1.272 3.668-1.125 4.78-.635 3.546-2.078.733-18.869 2.194-.428 1.06 4.209 1.987 8.933 2.413s5.183 1.304 10.442 1.765l1.639 11.21 3.708 14.436 7.53 15.21 6.848 7.135 5.624 1.619 2.934-.733 6.553-4.254-1.64 4.793-2.48 3.06-.716.1-2.329.628-7.06 1.808-2.249 1.043-3.939 3.911-4.523 10.787-3.816 11.074-4.158 12.482-3.742 10.726-2.398 5.994-.977 2.69-1.647.295-7.286 1.334-6.83.116-24.684-1.858-8.485.753.579-8.551-.549-1.199-14.998-69.282-3.667.099-16.58 1.32-21.905 4.858-7.289 5.608.418 75.926-8.87 2.833.113 12.772 70.33 37.589 43.953-24.243.04-1.199-1.171-3.929-.949-.758 11.24-3.179 22.171 3.219 73.097 28.865 1.559-16.139.4-19.644 2.151-23.931 3.254-22.778 1.922-16.023-.35-12.451-3-6.186-6.064-4.183-29.465-10.636-1.662-4.858-3.455-4.468-3.229-2.249-2.715-.178-1.687-9.931 4.402-2.118 2.055-4.206.033-3.71-1.108-2.843-4.468-2.511 1.76-6.9z"/><path fill="#DBDFFA" d="M141.815 144.49q.01-.03.022-.056c-.153-.199-.133-.526.179-.579a14.56 14.56 0 0 0 6.052-2.519l-1.113-.43c-.262-.101-.421-.547-.091-.69a23.5 23.5 0 0 0 7.025-4.712c.347-.34.884.194.533.534q-.072.069-.146.136c.038.04.066.09.076.148a5.7 5.7 0 0 1-.088 2.181 18 18 0 0 1-.37 1.285c.02.047.032.105.025.173q-.218 2.282-.494 4.556l-.136 1.106c-.04.317-.048.615-.312.831-.509.413-1.247.627-1.859.831-1.309.436-2.564.894-3.742 1.627-.562.348-1.048.753-1.743.501-.612-.221-1.053-.788-1.506-1.226a50 50 0 0 0-1.882-1.723c-.274-.239-.476-.461-.528-.833a2.6 2.6 0 0 1 .103-1.149zM130.305 49.932c1.098-1.406 3.226-1.176 4.657-.491 1.614.775 2.795 2.251 3.516 3.858.826 1.841 1.226 3.881 1.496 5.87.148 1.094.209 2.187.199 3.29-.011 1.075 0 2.136.108 3.206.058.577.116 1.156.116 1.738 0 .503-.033 1.007-.048 1.508-.03.97-.005 1.965.554 2.796.06.09.083.181.075.264.109.016.21.06.28.141.005.006.071.081.093.174.043.179-.083.4-.312.552a8.3 8.3 0 0 1-2.302-1.944c-3.685-4.546-.358-11.019-3.138-13.228-.773-.614-2.252-1.085-5.382 0-.121-.176-2.36-3.538-.897-6.054a3.7 3.7 0 0 1 .962-1.08c-.156-.185-.116-.421.026-.603zM83.97 169.186c1.052-1.73 2.16-3.503 3.714-4.83a9 9 0 0 1 2.73-1.61c1.066-.395 2.196-.584 3.322-.7 4.71-.476 9.445.297 14.089 1.038 4.641.738 9.361 1.501 14.068 1.012 2.289-.234 4.503-.849 6.443-2.115a16 16 0 0 0 2.578-2.076c.691-.695 1.257-1.516 1.406-2.503.264-1.771-.731-3.559-2.033-4.689-1.589-1.381-3.767-1.917-5.79-2.282-.08-.013-.158-.03-.239-.041-.196-.037-.398-.07-.597-.103q.154-.426.305-.854l.375.063a8.2 8.2 0 0 0 1.161-2.186 8 8 0 0 0 .348-1.377c.027-.169.166-.27.32-.308a.6.6 0 0 1 .231-.007c1.897.363 3.738.969 5.481 1.803 1.725.826 3.339 1.864 4.891 2.977a79 79 0 0 1 2.286 1.723c.348.269.711.526.985.876.277.353.418.763.481 1.204.126.929 0 1.922-.103 2.848-.106.947-.194 1.955-.532 2.854-.345.929-1.025 1.624-1.589 2.42-.597.844-.773 1.861-1.297 2.74a.46.46 0 0 1-.148.154c-.081.277-.242.667-.592.967-.443.378-.841.315-1.793.448-1.358.192-3.959.801-4.151.869a.4.4 0 0 1-.227.02.3.3 0 0 1-.078-.027.4.4 0 0 1-.09.03q-1.435.27-2.871.534a.5.5 0 0 1-.227-.008q-.072.01-.144.02a142 142 0 0 1-9.165.99c-.093.202-.309.277-.526.245-3.266-.474-6.495-1.164-9.706-1.92-1.589-.372-3.176-.763-4.763-1.151-.811-.196-1.624-.395-2.435-.589-.804-.191-1.61-.41-2.43-.519-1.665-.221-3.315.156-4.861.763-1.373.713-2.708 1.499-4.053 2.262-.76.433-1.516.869-2.261 1.322-.363.224-.718.469-1.086.685-.378.222-.77.048-.95-.312-.33.055-.704-.29-.48-.66z"/><path fill="#DBDFFA" d="M126.673 143.384q1.185-2.698 2.373-5.392-.05-.018-.101-.035c-.539-.197-.307-1.066.237-.867a7.26 7.26 0 0 0 4.578.156c1.378-.405 2.564-1.244 3.504-2.317 2.115-2.415 2.737-5.707 2.805-8.827.033-1.506-.221-3.284.577-4.624q.183-.313.453-.589c.031.486.071.972.129 1.458a3 3 0 0 0-.134.436l.174.136c.317 2.148.539 3.775.685 4.88.048.366.081.59.106.907.106 1.31.007 2.619-.088 3.932a45 45 0 0 1-.398 3.644 410 410 0 0 0-.776 10.96c.176.247.149.595.141.907l-.03 1.322-.061 2.74a.42.42 0 0 1-.279.398c-.156.169-.423.235-.63.021-1.146-1.187-2.259-2.418-3.455-3.554-.501-.476-1.053-.929-1.705-1.181-.751-.29-1.572-.315-2.35-.489-1.42-.317-2.68-1.1-4.082-1.468a5 5 0 0 0-1.013-.166c-.378-.018-.766-.033-1.005-.376-.438-.619.088-1.43.345-2.014z"/><path fill="#fff" d="M126.532 145.432h.048c.03.133.126.256.265.279.783.126 1.601.202 2.369.416s1.519.526 2.27.796c.08.027.148.027.209.012.682.27 1.425.348 2.072.713.746.418 1.451.922 2.144 1.42a34 34 0 0 1 2.11 1.65q.496.42.98.859.25.23.496.463l.247.234.08.078q.037.05.058.068c.026.167.144.323.358.333h.066c.277.305.856-.028.617-.418a12.7 12.7 0 0 0-2.179-2.675c-1.582-1.486-3.476-2.579-5.483-3.39a28 28 0 0 0-3.236-1.068c-1.128-.302-2.287-.523-3.458-.529-.486-.002-.521.754-.033.756z"/><path fill="#DBDFFA" d="M164.169 134.385s.955-4.551 1.531-8.087c.451-2.765.796-5.548.97-8.343.164-2.693.065-5.405.385-8.09.091-.758.212-1.514.386-2.257.153-.649.317-1.342.627-1.936.294-.562.836-.995 1.496-.872.161.031.312.094.443.179q.027.017.05.038.068.046.124.108l.015.023c.174.262.053.715-.358.715-.017 0-.03-.005-.048-.005a.41.41 0 0 1-.239.32c.043.237-.086.506-.378.534a.5.5 0 0 1-.048.355c-.02.186-.138.358-.357.385-.078.376-.151.751-.204 1.131-.129.914-.154 1.846-.146 2.768.012 1.884.189 3.768.078 5.649-.063 1.06-.219 2.118-.529 3.136-.091.294-.378.365-.602.279h-.005q-.037.38-.078.761c-.257 2.412-.627 4.805-1.053 7.19q-.12.678-.249 1.358c0 .01-.005.02-.005.03l-.028.138h.01q.022.007.048.018c.166.065.307.229.287.413-.091.866-.176 1.733-.199 2.604-.015.602-.04 1.209-.232 1.773v.013a59 59 0 0 0-.397 5.339c0 .071-.041.249-.051.494a3 3 0 0 0 .028.503c.035.24.096.439.154.59l-.011.07q-.056-.041-.12-.093a4.4 4.4 0 0 1-.95-.992c-1.249-1.796-.786-4.042-.35-6.239zm3.481-18.639c-.01.398-.026.801-.041 1.199q.038-.598.041-1.199M160.155 129.61c.231-2.297.622-4.573 1.09-6.833.977-4.734 1.287-4.848 1.441-6.575.181-2.053-.02-5.088-1.977-8.984.199-.028.425-.035.672 0 1.088.156 1.728 1.035 1.902 1.29a.6.6 0 0 1 .093-.081c.226-.134.471-.035.614.161.272.375.544.748.826 1.113.212.275.423.542.648.801-.874 4.891-1.791 9.782-2.607 14.678-.811 5.518-1.161 11.104-1.123 16.685l.503.056c-.09.234-.35.398-.622.221a1.6 1.6 0 0 1-.367-.332c-.499-.602-.602-1.531-.748-2.264a29 29 0 0 1-.454-3.332c-.173-2.199-.111-4.413.111-6.606zM148.506 188.073c1.313 1.007 2.879 1.581 4.41 2.16l5.229 1.977 18.609 7.042c3.005 1.136 5.997 2.325 9.077 3.242 1.234.367 2.481.685 3.747.934-.191.227-.12.572.212.71a66 66 0 0 0 2.848 1.116 64 64 0 0 0 5.77 1.793.41.41 0 0 0 .252.176c1.592.454 3.179.927 4.75 1.454 1.332.445 2.765.846 3.932 1.657.571.398 1.105.843 1.705 1.201.622.37 1.274.683 1.929.98 1.337.607 2.715 1.131 4.1 1.624 1.322.471 2.702 1.093 4.128 1.096.257 0 .43-.207.448-.449.141-1.909.265-3.825.373-5.737.101-1.823.191-3.647.096-5.47a.43.43 0 0 0 .186-.453c.468-.512.582-1.202.592-1.884.01-.725-.008-1.453-.015-2.176a.4.4 0 0 0 .317-.418 311 311 0 0 1 .443-20.385q.356-6.51.987-12.998a.3.3 0 0 0-.03-.176c.522-1.869.59-3.831.212-5.735-.071-.358-.511-.398-.748-.197-.786.66-1.917.555-2.849.361-1.03-.212-2.153-.617-3.181-.189-.226.093-.385.294-.314.551.015.061.05.119.095.172q-.237.581-.491 1.161c-1.936 4.43-4.432 8.643-7.512 12.376-3.035 3.682-6.644 6.91-10.79 9.288a32.8 32.8 0 0 1-6.709 2.916c-2.849.872-5.8 1.36-8.767 1.587-6.113.466-12.228-.149-18.31-.705-3.118-.287-6.241-.557-9.371-.66a61 61 0 0 0-2.337-.04c-.607 0-1.277.055-1.786.42a1.5 1.5 0 0 0-.62.982q-.08-.04-.161-.085c-.524-.28-.899.433-.453.773z"/><path fill="#fff" d="M220.12 204.297a24.5 24.5 0 0 1-5.717 3.475 24.7 24.7 0 0 1-9.64 2.018l-.786-1.234 11.514-2.705 4.627-2.632v1.075zM218.214 158.223c-2.715 8.689-6.223 15.172-8.855 19.393-4.385 7.029-7.012 11.24-12.331 13.899-4.543 2.272-9.006 2.113-17.937 1.794-7.281-.26-13.187-1.436-19.506-2.69a193 193 0 0 1-11.081-2.546q1.568-2.262 3.133-4.524l10.333-4.18 34.607-7.36 13.807-13.149 7.183-1.982q.323.673.647 1.345"/><path fill="#DBDFFA" d="M140.916 165.66a56 56 0 0 0 16.108-1.896 57.3 57.3 0 0 0 14.927-6.375 55 55 0 0 0 6.435-4.571c-3.705.026-7.535-.143-10.935-1.707a12.2 12.2 0 0 1-2.884-1.861c-.247-.214-.123-.685.199-.751a50.4 50.4 0 0 0 14.905-5.543 51.8 51.8 0 0 0 12.499-9.848 49.5 49.5 0 0 0 5.478-7.082.433.433 0 0 1 .546-.173c.224-.084.509-.016.59.282.4 1.468.264 2.989.012 4.467a47 47 0 0 1-1.027 4.506c-.816 2.959-1.776 5.893-2.766 8.797-.491 1.446-1.05 2.876-1.8 4.211a.42.42 0 0 1 .123.428c-.32 1.308-.927 2.514-1.483 3.73-.557 1.217-.983 2.418-1.114 3.755-.143 1.456-.894 2.766-1.498 4.075a77 77 0 0 1-1.955 3.987 38 38 0 0 1-2.573 4.219.55.55 0 0 1-.252.194.33.33 0 0 1-.008.204 3.9 3.9 0 0 1-.904 1.345.5.5 0 0 1-.108.075.45.45 0 0 1-.207.484c-.274.168-.635.088-.937.048-.32-.041-.627-.086-.914-.24a.34.34 0 0 1-.111-.093.5.5 0 0 1-.161-.028c-4.574-1.705-9.54-1.277-14.303-.874a266 266 0 0 1-15.735.884q-4.462.113-8.923.071a.5.5 0 0 1-.154-.028.5.5 0 0 1-.413-.219c-.343-.483-.375-1.103-.325-1.675.053-.602.096-1.191.05-1.795 0-.033 0-.066.008-.099q-.196-.001-.395-.007c-.577-.018-.58-.914 0-.897z"/><path fill="#DBDFFA" d="M189.813 87.609c.324-.997.4-1.977.262-3.017-.074-.542.516-1.01 1.009-1.01.021 0 .038.005.058.005a.98.98 0 0 1 .721.093c2.153 1.126 4.311 2.27 6.593 3.12 1.982.74 4.055 1.194 5.966 2.114.688.153 1.368.473 2.051.727q2.484.926 4.969 1.849c3.206 1.194 6.578 2.204 9.661 3.692 4.742 2.29 7.016 7.45 7.351 12.484.219.162.368.419.355.779-.639 16.572-2.659 32.992-5.631 49.3q-.002.016-.008.027c.134.912-1.282 1.572-1.899.62-.415-.64-1.458-.809-2.087-1.181-.731-.433-1.376-.97-2.156-1.323-1.663-.75-3.514-.979-5.241-1.521-1.846-.576-3.534-1.511-5.4-2.047-1.461-.421-2.934-.811-4.405-1.202-.201.368-.597.633-1.118.529-2.539-.503-3.763-3.347-4.319-5.613-.786-3.191 1.828-5.234 4.2-6.863 2.595-1.781 5.476-3.103 8.135-4.783 2.506-1.582 4.884-3.377 6.931-5.528 4.471-4.702 6.77-11.198 5.881-17.673-.841-6.105-4.402-11.522-9.52-14.907-6.359-4.206-14.053-5.41-21.448-6.498-.68-.1-.841-.695-.655-1.203-.249-.217-.382-.552-.246-.973z"/><path fill="#fff" d="M197.582 149.282c.428-.189.93-.156 1.388-.153q.74.006 1.481.058 1.48.104 2.939.377c3.465.645 6.785 1.907 9.973 3.39 1.612.751 3.252 1.514 4.778 2.428 1.559.932 2.926 2.189 4.332 3.335a.38.38 0 0 0 .41.053c.31.282.779-.225.489-.582-1.244-1.531-2.952-2.582-4.627-3.584-6.397-3.828-13.658-7.032-21.284-6.289-.226.023-.347.202-.36.383-.272.239.081.761.481.584"/><path fill="#DBDFFA" d="M132.929 182.877q.19-.662.381-1.322a1 1 0 0 1 .272-.461c-.396-.602-.136-1.617.79-1.587 13.502.448 20.894 3.189 20.894 3.189s9.384 3.314 21.357 2.095c12.897-1.312 27.978-9.14 28.993-18.798.3-2.866-.66-7.327-3.178-9.075-2.639-1.83-6.13-1.881-9.22-1.914-.837-.01-1.134-.851-.889-1.443a1.34 1.34 0 0 1-.068-.667 8.5 8.5 0 0 1 .916-2.735c.197-.37.512-.514.826-.501.129-.081.28-.141.456-.162 8.007-.926 16.184.902 23.057 5.103.7.428.595 1.294 0 1.743-.75.561-1 1.604-1.304 2.44a64 64 0 0 1-3.808 8.455c-1.877 3.448-4.1 6.689-6.591 9.721.06.285.012.6-.207.879-1.821 2.34-3.626 4.69-5.46 7.019-1.443 1.834-2.992 4.103-5.458 4.413-5.961.75-12.005.917-18.004.637a1.3 1.3 0 0 1-.247-.04.97.97 0 0 1-.552.002c-1.743-.461-3.511-.37-5.294-.312a38 38 0 0 1-4.944-.171c-3.578-.343-7.147-.816-10.701-1.363-7.14-1.098-14.222-2.549-21.314-3.906-.531-.101-.846-.751-.705-1.242z"/><path fill="#2740E3" d="m179.315 41.077 1.345-6.052v-8.072l-2.241-8.52-4.71-8.296-7.397-5.38-5.382-2.244-4.483-.896-5.135.785-1.368.111-2.689.451-4.486 1.345-5.604 2.914-6.054 6.727-2.242 3.586-1.569 3.81-.672 3.141-1.121 5.604v.672l17.6.786 19.395 3.201 15.131 5.768z"/><path fill="#2740E3" d="m126.102 40.294 1.423.113.448-2.69 2.566-.813.35-.31 4.597-1.458h11.21l12.778-.449 3.139-.448-2.018-.448-8.072-1.57-22.644-1.568-22.419 1.793-3.363 1.12v.673l2.018 1.12 7.847 2.466 5.831 1.345a56 56 0 0 0 6.311 1.124z"/><path fill="#DBDFFA" d="M175.218 56.034c.06-1.13.692-2.156 1.34-3.05.189-.262.395-.473.702-.587q.008.001.013-.005a.35.35 0 0 1 .222-.397 2.7 2.7 0 0 1 1.833-.02c.244.01.466.093.602.332a.3.3 0 0 1 .04.161.33.33 0 0 1 .227-.043.3.3 0 0 1 .166.086c.071.302.144.776.073 1.342-.184 1.501-1.294 2.957-2.758 3.365-.687.191-1.871.267-2.304-.355-.154-.22-.176-.443-.156-.831zM164.207 95.374c3.385-2.668 6.329-5.977 8.255-9.85a21 21 0 0 0 1.957-5.99c.421-2.578.257-5.218.202-7.817l-.197-9.147c-.121-.131 0-.41.23-.373.753.128 1.513.169 2.276.131.088-.005.202.073.217.164.793 5.007 1.924 10.071 4.181 14.645.153.312.317.622.529.899.209.275.465.504.687.763.373.438.65.992.486 1.574q.011.043.003.093c-.592 3.541-1.839 7.098-4.269 9.81-.632.708-1.36 1.315-2.033 1.982-.685.678-1.211 1.526-1.959 2.138-.793.65-1.758 1.108-2.647 1.615l-2.869 1.637c-.466.267-.947.521-1.251.98-.305.458-.489 1.004-.693 1.513a103 103 0 0 0-1.267 3.395c-.043.123-.204.227-.33.134-1.198-.882-1.128-2.761-.843-4.058.304-1.387 1.345-3.188.403-4.533q-.37.308-.751.61c-.224.176-.544-.14-.317-.318z"/><path fill="#000" d="M1.012 166.512c.148.168.325.299.511.415l.864.423c.123.061.26.098.38.161q.087.048.166.104c.046.03.121.075.154.088q.038.014.068.04c.08.003.154.048.191.121a.4.4 0 0 0 .066.015c.063.02.123.05.184.081.09.045.241.075.357.136.111.058.214.128.325.184q.138.066.265.118a.2.2 0 0 1 .13.018l1.655.805c.54.262 1.02.592 1.514.927a.22.22 0 0 1 .09.121q.087.054.172.108.514.322 1.048.605 1.116.594 2.304 1.025a.22.22 0 0 1 .146.184c.275.113.552.216.819.345.372.181.707.423 1.065.627.665.383 1.433.494 2.133.796.02 0 .04 0 .066.012.98.391 1.856.935 2.732 1.511.884.582 1.811 1.068 2.808 1.423a.3.3 0 0 1 .114 0c1.79.527 3.362 1.542 4.974 2.446.818.461 1.66.861 2.52 1.231.837.361 1.676.726 2.446 1.214.04-.002.08 0 .124.026a377 377 0 0 0 8.885 4.729q.063.035.088.089c.557.347 1.202.533 1.76.881.635.395 1.27.758 1.942 1.085a125 125 0 0 1 4.161 2.139 66 66 0 0 1 2.974 1.642c.904.526 1.902.833 2.824 1.314.022.003.045.005.068.018 1.16.547 2.2 1.317 3.367 1.851.531.242 1.07.398 1.521.778 0-.151.159-.302.332-.206l4.587 2.528c.717.396 1.433.796 2.153 1.187.365.196.738.355 1.118.519.33.141.617.352.937.508.846.34 1.64.811 2.44 1.244q.337.133.645.318a.2.2 0 0 1 .104.148l.01.018c.058.138-.008.287-.023.428-.015.144-.023.287-.035.428-.02.302-.033.605-.02.907.005.086-.05.159-.124.196l-.045 2.874c-.015.942-.068 1.891.025 2.831.045.453.1.901.093 1.36-.007.473-.06.944-.106 1.415l-.28 2.99c.031.168-.143.357-.326.241q-.26-.167-.52-.34c-.007-.002-.014 0-.025-.005-.929-.433-1.926-.813-2.78-1.39-.416-.282-.806-.592-1.244-.838a12 12 0 0 0-1.287-.612c-.874-.363-1.773-.685-2.59-1.169-.853-.506-1.611-1.164-2.442-1.705a22 22 0 0 0-2.385-1.353c-.023.116-.121.212-.262.154a22.7 22.7 0 0 1-4.825-2.642c-.781-.559-1.552-1.126-2.43-1.524-.862-.387-1.766-.677-2.63-1.067-1.75-.791-3.423-1.761-5.093-2.703-1.664-.939-3.32-1.891-5.001-2.8-1.92-1.038-3.871-2.02-5.891-2.854a.2.2 0 0 1-.149-.02l-14.94-7.911q-2.115-1.119-4.23-2.239c-.01-.005-.016-.015-.026-.02-.405-.269-.864-.453-1.3-.665a60 60 0 0 1-1.468-.738c-.975-.503-1.937-1.025-2.901-1.546a.2.2 0 0 1-.076-.065.25.25 0 0 1-.128-.051c-.272-.234-.66-.38-.977-.549q-.484-.26-.967-.519l-2.005-1.073a.2.2 0 0 1-.053-.04.2.2 0 0 1-.07-.038.2.2 0 0 1-.124-.068.2.2 0 0 1-.096-.052.2.2 0 0 1-.088-.048.2.2 0 0 1-.11-.061.22.22 0 0 1-.142-.063.3.3 0 0 1-.043-.065.2.2 0 0 1-.093-.028 2 2 0 0 1-.123-.096 1 1 0 0 1-.073-.07.15.15 0 0 1-.046-.073.2.2 0 0 1-.017-.078.3.3 0 0 1-.038-.111 10.4 10.4 0 0 1-.073-1.506c.013-.484.128-.99.06-1.473q-.001-.032 0-.063a.21.21 0 0 1-.085-.169c-.043-1.335.247-2.665.085-3.997a.18.18 0 0 1 .03-.129.2.2 0 0 1-.042-.12c-.03-.844-.06-1.688-.05-2.534.007-.811.065-1.63-.094-2.43-.04-.202.214-.401.376-.22z"/><path fill="#DBDFFA" d="M143.409 47.94c.952-1.617 3.161-.982 4.561-.438 1.796.7 3.717 1.506 4.71 3.306a.27.27 0 0 1-.023.313.98.98 0 0 1-.443.929c-.318.186-.703.184-1.058.161-.466-.032-.935-.103-1.37-.277-.801-.32-1.461-.894-2.217-1.3-.372-.198-.778-.367-1.201-.4-.516-.038-.962.184-1.44.33-.618.186-1.416.184-1.819-.428-.436-.662-.053-1.592.302-2.194z"/><path fill="#2740E3" d="M178.867 71.793s6.279-.225 10.089 8.744-3.027 16.479-3.027 16.479l-9.641 13.451s-2.69-8.072-8.072-12.33c2.244-.985 6.954-3.423 10.651-8.632a25.5 25.5 0 0 0 4.148-9.527l-4.148-8.183zM161.661 88.395l-5.662 8.061.448 2.69 8.631 11.321 1.131-6.007-.927-6.064 1.254-2.612z"/><path fill="#DBDFFA" d="M54.883 87.04 34.705 127.62l9.192-.897L57.35 97.801zM53.314 84.572l-19.506 38.563-1.345-6.5 19.231-32.064z"/><path fill="#000" d="m15.886 81.386.146.01.093.123c1.449-.889 3.164-1.128 4.783-1.564 10.573-2.866 21.259-4.707 32.265-4.939.14 0 .272-.058.425-.058 1.761-.012 3.511.215 5.26.378a40 40 0 0 1 1.087 3.66c1.151 4.78 2.166 9.608 3.226 14.41 3.491 15.829 6.785 31.704 10.213 47.545.327 1.506.65 2.851.892 4.38.032.214.166.37.16.647-.007.383-.236.73-.271 1.131-.204 2.332-.237 4.707-.378 7.044l-.018.31-.037.635-.207 3.379-.05.822-.557 9.205-.08.08-12.505 2.31-.879.161-27.442 5.067h-.053a28 28 0 0 0-2.478-1.69c-6.334-3.818-13.97-4.848-19.863-9.495l-.111-.214-.723-77.3 7.1-6.035zm45.283 9.666c-.786-3.753-1.725-7.636-2.365-11.404-.191-1.12-.345-2.257-.398-3.393-.075-.01-.156-.05-.234-.05-1.209 0-2.584.348-3.818.365l-5.483.217-4.034.322c-9.425.932-18.748 2.778-27.785 5.549l-.088.075c3.524 12.57 6.77 25.22 10.047 37.858 2.57 9.921 5.107 19.851 7.648 29.779l.076.089 38.241-5.136c-3.909-18.098-7.999-36.156-11.81-54.274zm-51.04-1.65c.34 23.027.174 46.079.486 69.103.128 1.758-.174 3.765-.005 5.491.01.09 0 .131.053.214.05.088.854.654 1.01.765 5.525 3.974 12.25 5.269 17.97 8.916.42.272.843.556 1.256.841.265.181.997.836 1.247.854l26.754-5.042.9-.172 12.385-2.334c.154-.058.181-.245.202-.391l.697-8.711.068-.816.237-2.982.05-.62.615-7.656c-.124 0-.154.106-.295.113-.16.01-.25-.093-.365-.095-.448-.013-1.95.375-2.546.458-11.502 1.677-23.042 3.095-34.554 4.695-.61.085-1.373.342-1.972.236-.625-.11-.723-.425-.703-1.02-4.707-17.788-9.223-35.627-13.764-53.458-1.256-4.944-2.72-9.847-3.55-14.892-.036-.098-.17-.08-.235-.143-.118-.116-.093-.602-.086-.784.005-.065.126-.407-.022-.345l-5.594 6.13c-.332.413-.252 1.119-.242 1.643z"/><path fill="#000" d="M33.251 172.196c.182-.091.23-.431.262-.625.109-.642.124-1.528.166-2.198.172-2.725.252-5.461.376-8.176.08-1.803.247-3.682.272-5.48a4.3 4.3 0 0 0-.111-1.105c-.355.443-.232 1.115-.27 1.639-.28 3.869-.473 7.752-.642 11.621-.043.992-.158 2.017-.166 3.007-.002.443.053.884.11 1.319zM53.772 83.763c-.128.106-2.846.242-3.291.287-7.843.778-15.937 1.71-23.702 3.02-.395.065-1.295.149-1.61.274-.367.147-.135 1.182-.203 1.522 2.956 12.028 5.553 24.16 8.64 36.155.144.557.265 1.124.421 1.678.131.461.353 1.317.537 1.72.027.06.042.133.115.156l27.243-3.659c.355-.061 1.134-.227 1.43-.398.185-.106.401-.758.429-.972.13-1.119-.756-4.247-1.053-5.498-1.445-6.12-2.964-12.233-4.463-18.34-1.108-4.518-2.13-9.092-3.364-13.575-.096-.347-.716-2.46-.98-2.516-.106-.02-.103.106-.149.144zm8.883 39.866-27.958 3.584-8.845-38.645 27.83-3.578c.418 2.785 1.113 5.518 1.742 8.258a2380 2380 0 0 0 6.236 26.512c.313 1.295.673 2.577.993 3.869zM64.343 130.958c-.109-.033-.25-.008-.366-.01-3.37.533-6.908.639-10.26 1.191-.222.035-.637.045-.625.335l1.151 2.833.19.081 10.947-1.156.131-.292-1.032-2.846c-.026-.063-.066-.116-.134-.136z"/><path fill="#fff" d="m76.63 154.299-6.711 1.343-1.887-.313-8.235 4.078-7.14 3.994-.912 7.264 8.11 5.112 6.346 5.302 14.69-9.294s1.394-5.613 1.37-6.17c-.022-.557.882-6.558-.578-7.145-1.461-.587-5.05-4.173-5.05-4.173z"/><path fill="#DBDFFA" d="M76.154 159.596a9.7 9.7 0 0 0 1.678-.464c.037-.015.075-.017.113-.02.013-.259.23-.516.554-.431 1.433.376 2.33 1.461 2.836 2.804.551 1.458.776 3.047.695 4.603-.02.363-.36.529-.675.388-.605-.272-1.015-.823-1.433-1.317-.491-.582-.995-1.153-1.468-1.75-.819-1.03-1.459-2.227-2.499-3.06-.254-.204-.118-.693.2-.751z"/><path fill="#fff" d="M91.525 181.26c.708-.31 1.153-.987 1.138-1.708-.02-.823-.64-1.327-.725-1.397-6.395-7.06-12.867-14.205-19.43-21.446a3.83 3.83 0 0 0-1.952-1.43 3.68 3.68 0 0 0-2.39.06q-6.36 2.89-12.814 5.826c-.618.143-1.101.596-1.265 1.183-.169.62.035 1.29.534 1.736 6.883 7.48 13.676 14.856 20.38 22.14.272.375.788.975 1.6 1.236 1.13.368 2.218-.11 2.782-.367 1.803-.826 6.261-2.917 12.145-5.838l-.006.005z"/><path fill="#000" d="M53.875 162.404c.111-.637.434-1.202.995-1.516.343-.194.75-.31 1.116-.474.499-.227 1-.448 1.496-.672 1.83-.826 3.664-1.645 5.49-2.469q1.391-.628 2.778-1.256c.826-.373 1.652-.814 2.509-1.111.876-.3 1.843-.237 2.684.121a3.5 3.5 0 0 1 .696.383q.148.103.284.216.022.02.048.041c.45.398.821.909 1.224 1.357l1.181 1.302.343.378.531.584.023.025q.304.337.61.673c1.153 1.272 2.301 2.544 3.457 3.81 1.937 2.136 3.874 4.277 5.81 6.413q.162.175.323.355a965 965 0 0 0 2.987 3.291q.303.337.607.673a211 211 0 0 1 2.36 2.647q.07.08.146.161.103.107.211.217c.297.299.602.612.786.972.262.514.297 1.113.133 1.664a2.1 2.1 0 0 1-1.072 1.28c-.026.07-.06.126-.109.148a166 166 0 0 1-4.586 2.318q-.957.464-1.914.921-1.249.6-2.5 1.192-.352.169-.706.335c-.176.085-.358.168-.537.254-.498.234-.994.466-1.496.698-1.148.528-2.37 1.017-3.601.418-.665-.328-1.073-.892-1.556-1.426-.673-.745-1.358-1.481-2.04-2.216q-2.016-2.19-4.035-4.38c-2.728-2.964-5.4-5.994-8.195-8.893-.192-.199-.38-.398-.572-.599a59 59 0 0 1-.516-.549c-1.038-1.108-2.053-2.237-3.083-3.357-.63-.685-1.358-1.353-1.92-2.093-.395-.519-.498-1.204-.392-1.841zm.358.488c.11.444.461.736.753 1.051q.942 1.018 1.884 2.037c1.103 1.201 2.221 2.393 3.31 3.609q.251.275.495.557l.01.01c2.461 2.8 5.055 5.493 7.579 8.24 2.382 2.594 4.74 5.216 7.132 7.8 1.45 1.569 3.367.796 5.042-.025q.217-.105.42-.209c.235-.113.46-.227.68-.33 1.653-.768 3.29-1.564 4.927-2.357l1.463-.706q.593-.283 1.184-.564c.8-.377 1.594-.758 2.395-1.133.053-.025.093 0 .124.048.75-.438 1.163-1.28.599-2.07-.227-.318-.521-.605-.809-.889a9 9 0 0 1-.221-.222q-.106-.105-.21-.214a170 170 0 0 1-2.422-2.64c-.07-.08-.146-.161-.22-.241.15-.099.296-.194.44-.297-.15.075-.298.151-.452.219-.012.007-.025.01-.037.017-.134-.151-.272-.297-.408-.448q-.316-.35-.635-.703-1.123-1.24-2.25-2.48-.157-.176-.317-.351a13100 13100 0 0 0-8.66-9.56q-.448-.497-.91-.987l-.501-.534-.008-.008q-.175-.192-.355-.377a42 42 0 0 1-1.868-2.123c-.446-.552-.998-.99-1.625-1.25a4 4 0 0 0-.38-.136 3.5 3.5 0 0 0-.607-.115 3.2 3.2 0 0 0-.718 0 3.4 3.4 0 0 0-.637.136c-.214.07-.416.153-.622.246l-.454.214s-.007 0-.01.005c-.858.398-1.725.794-2.586 1.187-1.705.778-3.403 1.561-5.108 2.342q-1.258.581-2.518 1.153-.605.285-1.214.557c-.35.161-.758.264-1.088.476-.358.222-.698.622-.587 1.068z"/><path fill="#000" d="M92.613 178.736a5.3 5.3 0 0 1 .838 3.635c.348-.199.812.032 1.005.382.194.351.184.774.17 1.172a58 58 0 0 1-.187 2.815c-.038.396-.083.816-.328 1.131-.224.295-.576.453-.914.602l-15.632 6.798c-.595.259-1.204.523-1.846.627-1.7.279-3.466-.627-4.466-2.03s-1.294-3.222-1.085-4.934a90 90 0 0 0-10.913-11.6c-.058.07-1.025 1.224-2.556 1.035-1.476-.182-2.146-1.448-2.196-1.549a5.62 5.62 0 0 1-5.561-.761c-1.56-1.224-2.388-3.322-2.08-5.279.206-1.324.873-2.531 1.596-3.662 1.877-2.956 4.41-5.807 7.82-6.601-1.156.046-2.168 1.139-2.12 2.297.042 1.033.785 1.887 1.486 2.642 6.467 7.007 12.935 14.008 19.402 21.012.592.645 1.302 1.335 2.176 1.307.42-.015.811-.199 1.189-.38l12.24-5.845c.577-.275 1.166-.559 1.577-1.046.413-.486.71-1.234.38-1.778v.008z"/><path fill="#fff" d="M91.339 184.489c-.748.403-1.486.818-2.244 1.203s-1.507.751-2.265 1.121c-1.513.738-3.04 1.453-4.586 2.131q-.636.277-1.272.544c-.453.186-.906.33-1.37.486-.02.008-.02-.068-.002-.076.395-.191.776-.405 1.186-.579l1.136-.491c.77-.335 1.539-.672 2.307-1.02a151 151 0 0 0 4.55-2.128c.85-.421 1.71-.819 2.557-1.252.018-.007.02.061 0 .071l.005-.008z"/><path fill="#DBDFFA" d="m74.391 163.366-4.367 12.708-1.063-1.131 4.493-12.554zM78.751 168.194l-3.987 12.897-3.445-3.977 4.271-12.164z"/><path fill="#000" d="M75.925 182.474c-.66-.517-1.219-1.184-1.793-1.788s-1.138-1.199-1.705-1.799q-1.705-1.803-3.41-3.606c-2.272-2.408-4.546-4.818-6.808-7.233a751 751 0 0 0-3.896-4.148c-.08-.086.015-.439.078-.376 4.581 4.866 9.2 9.684 13.782 14.545.64.677 1.279 1.352 1.916 2.035.635.68 1.35 1.367 1.91 2.138.035.043.002.295-.071.237zM85.244 177.759a17 17 0 0 0-.358.617c.189-.088.375-.174.562-.267q.338-.157.685-.33c.51-.249 1.037-.481 1.49-.826h.006c.027-.022.063-.191.005-.179-.502.091-.962.33-1.418.539l-.38.174-.595.272z"/><path fill="#000" d="M75.935 182.509c.232.015.469-.153.675-.252l.746-.347 1.496-.703 1.934-.907.96-.45q1.044-.492 2.085-.98c.166-.222.322-.451.478-.675l-1.037.484q-.744.35-1.486.7l-.849.398-.831.39-1.26.592-1.495.702-.748.356c-.235.11-.486.194-.67.382-.046.043-.101.298.007.308zM70.83 158.525c-.69.532-1.576.846-2.372 1.186s-1.637.706-2.458 1.056l-4.869 2.078-1.37.586q-.33.142-.665.285c-.206.088-.463.262-.687.211-.136-.03-.073-.319-.01-.387.28-.305.78-.421 1.158-.582.41-.174.819-.353 1.23-.527.818-.352 1.639-.7 2.457-1.052 1.622-.693 3.247-1.39 4.869-2.078q.68-.288 1.37-.569c.43-.177.874-.378 1.342-.418.068-.008.035.186.005.211M86.785 175.82l-.141.136q.113.123.234.244c.247.26.499.522.748.778l.005-.005c.07.071.151-.236.09-.309q-.297-.347-.604-.69-.111-.13-.224-.255c-.035.03-.07.066-.106.098z"/><path fill="#000" d="M70.775 158.566c.234.415.584.745.904 1.098.3.327.604.662.91.989q.904.99 1.817 1.975c2.197 2.375 4.37 4.737 6.574 7.145.74.808 1.478 1.624 2.216 2.44l.317.35c.844.93 1.688 1.854 2.544 2.768q.201.215.408.431.074-.065.154-.126l.116-.091q-.2-.222-.398-.438c-.748-.826-1.506-1.644-2.26-2.465q-.168-.181-.332-.363l-.32-.348c-1.974-2.153-3.951-4.306-5.918-6.472-1.103-1.212-2.217-2.421-3.32-3.637q-.818-.899-1.644-1.798c-.275-.308-.56-.615-.839-.917-.267-.285-.516-.637-.859-.826-.088-.048-.095.237-.07.287zM86.072 176.585q.117.13.234.257.196.213.39.426l.938-.521q-.312-.339-.622-.678-.111-.124-.227-.249a7 7 0 0 0-.713.765"/><path fill="#000" d="m69.921 158.931 12.771 13.962.325.356 2.42 2.644q.202.219.399.438.23-.227.468-.436.154-.132.31-.256l-.398-.439-2.574-2.803-.317-.347-12.507-13.628c-.298.171-.597.337-.89.509h-.007"/><path fill="#000" d="M59.247 164.754c3.854-1.648 7.705-3.302 11.558-4.949l-.438-1.02q-5.937 2.542-11.865 5.085c.25.294.496.586.745.884"/><path fill="#fff" d="m107.064 186.123-8.238-2.453-2.241 1.569-1.57 1.793-1.793 1.796-1.571.673-1.232.11-.554-.534-.118-.586.224-.673.224-.672.36-.504.76-1.065.935-1.869-.486.3-.448.224-.806.992-1.436 1.249-1.344 1.121-1.124.448-1.345.224-.896-.224-.448-.448-.225-.448.225-.449 1.793-1.569v-.448l-.673.448-1.569 1.345-.64.169h-.914l-.911-.393-.449-.224v-.506l.897-1.063 1.12-1.121.897-1.571.897-1.794.448-1.344.673-.673.672-1.121.897-1.12 1.347-.897.897-.672-.225-.225-.672.225-1.347.896-2.018 1.793-1.12 1.569-.897 1.121-1.12.448h-1.57l-.896-.448-.449-.224.449-.897 1.793-2.241 2.465-4.037 2.018-2.018 8.744-4.931h4.037l9.865 2.69 22.362 2.675 1.403 4.276-.672 6.276-3.159 2.715-5.137-.022-4.259.896-6.392 1.886z"/><path fill="#DBDFFA" d="M78.781 179.291c.025.173.119.34.27.445.133.099.254.126.39.194.113.051.224.096.343.136h.005q.427.013.838-.09a.47.47 0 0 0 .54.065q.058-.03.118-.058l.068-.03c.02-.01.07-.028.07-.028l.083-.03q.21-.07.426-.111c.02 0 .04-.007.06-.01.01 0 .05-.005.06-.007.074-.008.147-.01.22-.018a2 2 0 0 0 .453-.076 1.79 1.79 0 0 0 1.154-1.171.43.43 0 0 0-.096-.408c.222-.184.436-.375.632-.581.436-.469.786-1.008 1.196-1.494.736-.871 1.685-1.496 2.66-2.065q.082-.051.166-.098.518-.298 1.033-.6c.657-.385 1.3-.788 1.894-1.269a7.4 7.4 0 0 0 1.234-1.259c.133-.174.247-.361.36-.549q.056-.121.098-.25.329-.541.622-1.105a.5.5 0 0 0-.176-.232c-.156-.113-.378-.134-.552.05-.453.484-.712 1.093-1.113 1.615-.37.476-.826.891-1.31 1.251-1.808 1.35-4.06 2.113-5.548 3.876-.393.461-.725.97-1.133 1.421s-.89.816-1.378 1.171c-.896.645-1.972 1.463-3.135 1.108l-.043-.013c-.242-.08-.423.043-.504.22zM80.529 185.942c0 .257.207.423.448.448.34.033.688.063 1.033.058.38-.005.76-.05 1.123-.176h.008q.037-.01.07-.023c.635-.239 1.161-.665 1.655-1.116 1.901-1.74 3.518-3.755 5.238-5.666q.052-.058.109-.116.072-.102.153-.199a86 86 0 0 1 1.89-2.095 68 68 0 0 1 1.58-1.721l.034-.035q.085-.101.166-.199a21 21 0 0 0 1.458-1.977.4.4 0 0 0-.103-.161l-.028-.025c-.08-.081-.501-.015-.607.025-1.823.708-7.926 8.868-7.926 8.868-.216.287-.944 1.151-2.599 2.672-.398.365-.828.738-1.345.917-.612.214-1.277.141-1.909.08h-.05c-.222.01-.398.242-.398.451zM83.828 187.843c.277.242.602.429.952.542 1.11-.071 2.176-.474 3.136-1.033.952-.559 1.813-1.269 2.662-1.977.957-.924 1.828-1.851 2.5-2.465.552-.554 1.117-1.093 1.668-1.658 1.086-1.13 2.007-2.405 2.836-3.729 0-.008 0-.013-.008-.018a.4.4 0 0 0-.063-.131c-.095-.144-.267-.239-.435-.209-.126.023-.212.111-.237.136-.378.403-.617.045-2.277 1.889-1.103 1.224-1.783 2.251-2.69 3.362-.488.597-2.949 3.549-4.93 4.259-.527.189-2.388.71-2.69.687-.018 0-.096-.005-.182.031a.39.39 0 0 0-.242.317zM91.157 189.397s.02-.045.048-.09a19.3 19.3 0 0 1 3.868-4.609 19 19 0 0 1 2.242-1.678 17 17 0 0 1 1.375-.793c2.234-1.143 5.007-1.239 5.296-1.247 3.569-.095 4.295 1.338 7.848 1.794 2.896.372 5.294-.275 10.089-1.569 2.733-.738 4.304-1.398 7.385-1.789 0 0 2.742-.395 5.989 1.093 1.178.542.156 2.28-1.018 1.743-1.77-.811-3.931-.753-5.843-.871q-.574-.034-1.148-.063c.501.514.259 1.692-.71 1.785-4.488.424-8.77 2.003-13.245 2.514-4.378.501-8.772-.134-13.102-.766-.037-.007-.078-.01-.116-.017l-1.176-.763c-.677.365-1.322.79-1.919 1.287-.388.329-.755.682-1.113 1.045-.564.564-1.11 1.151-1.695 1.702-.826.766-1.768 1.655-2.967 1.748q-.091.001-.184-.005c.003-.126.026-.285.104-.448z"/><path fill="#000" d="m1.02 166.491 4.81-1.614c1.224-.418 2.445-.834 3.667-1.259q.534-.185 1.07-.373v-.018q-.536.144-1.07.295-1.884.519-3.763 1.053l-5.08 1.458a.27.27 0 0 0-.194.267 1413 1413 0 0 0 .005 25.311c.126 14.061.358 41.122.947 55.173.31-14.061.26-41.122.106-55.183-.096-8.369-.252-16.738-.496-25.105"/><path fill="#000" d="M1.186 166.743a1333 1333 0 0 0 69.952 35.65 1331 1331 0 0 0-69.952-35.65M71.362 202.615c-.451 2.332-.612 4.684-.7 7.046-.066 2.365-.053 4.723.251 7.077.454-2.332.615-4.684.7-7.046.063-2.365.05-4.723-.251-7.077M73.155 201.942a579 579 0 0 0 30.267-14.348 579 579 0 0 0-30.267 14.348M162.066 34.012c0-.105.461-.105.436-.11l-.567-.036-.156-.038a83 83 0 0 0-4.702-1.035c-5.047-.954-10.178-1.453-15.28-1.96-8.523-.767-17.166-1.168-25.686-.158-2.116.27-4.267.58-6.375.907-1.717.297-3.485.405-5.102 1.136-.962.445-1.297 1.34-.33 2.06.546.416 1.176.68 1.793.93 1.624.626 3.277 1.075 4.931 1.523 4.952 1.345 9.976 2.47 15.076 3.06-5.075-.745-10.054-1.992-14.947-3.513-1.627-.504-3.262-1.015-4.808-1.678-.559-.25-1.121-.508-1.584-.886-.151-.136-.282-.26-.282-.383-.003-.013 0-.02.007-.033a.4.4 0 0 1 .086-.106c.418-.342 1.05-.448 1.589-.526.813-.118 1.657-.143 2.496-.184 1.639-.108 5.865-.501 7.575-.624 11.853-1.212 23.833-.75 35.693.274 2.526.232 5.1.564 7.603 1.003l1.26.231.627.126.315.063.156.033.078.015c.025.008.053.005.103-.088zM179.65 40.294c.466.09.524.085.504.065.043-.179.124-.534.166-.72 2.37-10.087.537-21.48-6.198-29.555-2.659-3.136-6.218-5.47-10.094-6.818A29 29 0 0 0 158.11 1.9c-.063-.01-.131-.013-.207.055a.22.22 0 0 0 .176.123 29 29 0 0 1 5.695 1.834c14.252 6.498 18.287 21.015 15.531 35.514l-.073.377-.037.19-.018.092-.01.048c-.028.01.023.038.483.159zM151.403 2.402c-.031-.053-.056-.045-.081-.042l-.078.005-.154.007a29 29 0 0 0-4.614.622c-10.404 2.222-17.538 10.062-19.878 20.292-.378 1.614-.652 3.251-.756 4.898.199-.083.232-.183.237-.284.201-1.521.529-3.025.955-4.498 3.221-11.26 11.97-19.509 23.757-20.889l.307-.033.154-.015.075-.007c.025 0 .053 0 .073-.056z"/><path fill="#000" d="M148.486 3.747c-.055-.085-.068-.05-.123-.038-1.05.328-2.073.74-3.055 1.24-7.1 3.495-10.742 11.406-11.298 19.01l-.03.425-.013.212c.01.073-.076.136.174.226.378-.043.264-.12.292-.189.008-.113.055-.5.068-.624 1.05-8.546 5.165-16.837 13.615-20.045l.197-.076.098-.037.05-.018c.018-.003.03-.02.025-.088zM155.14 1.901c1.244 2.295 2.221 4.748 2.602 7.342.735 5.233.322 10.55-.073 15.806-.222 2.644-.524 5.281-.852 7.916a.162.162 0 0 0 .32.05c.26-1.307.476-2.62.688-3.936.776-5.277 1.337-10.611 1.163-15.958-.098-2.687-.448-5.427-1.455-7.943a24.4 24.4 0 0 0-1.799-3.622c-.231-.362-.8-.055-.594.343z"/><path fill="#000" d="m157.455 1.954-5.894.448c-.048-.297-.08-.79.177-1.234.627-1.085 2.551-1.133 3.81-.672.962.352 1.574 1.012 1.907 1.458M156.782 38.614c.287 1.584.685 3.795 2.242 5.83.926 1.214 1.317 1.123 4.034 4.035.544.581 1.131 1.231 1.569 2.241.529 1.217.242 1.564.673 2.466.604 1.267 2.128 2.586 3.81 2.465 1.403-.1 2.332-1.158 2.69-1.569 1.159-1.322.97-2.45 1.569-3.586.622-1.184 2.143-2.46 6.055-2.914a57 57 0 0 0 .672-7.397 88 88 0 0 0-11.882-4.707 81 81 0 0 0-5.702-1.572q-2.978.226-5.954.451a17 17 0 0 0 .224 4.26z"/><path fill="#000" d="M173.266 62.038c0 .056.038.106.091.119 1.085.398 2.281.501 3.458.347a8.447 8.447 0 0 0 2.886-.93c4.349-2.195 5.666-8.942 2.992-12.856-.998-1.468-2.768-2.002-4.448-1.539-.363.108-.247.615.121.574 1.01.018 1.909.124 2.639.582 2.295 1.597 2.678 5.362 1.922 7.913-.554 1.93-2.035 3.385-3.765 4.315a10 10 0 0 1-1.073.533 10 10 0 0 1-1.237.431c-1.108.31-2.276.438-3.463.398-.065 0-.121.05-.123.113"/><path fill="#000" d="M176.825 63.514c.09 2.363.622 4.69 1.178 6.979.786 2.964 1.645 5.994 3.242 8.669a27 27 0 0 0 1.652 2.485c.176-.798.31-1.601.393-2.407.012-.134.027-.262.037-.396a12 12 0 0 1-.408-.52 19.5 19.5 0 0 1-1.559-2.469c-1.501-2.768-2.44-5.853-2.868-8.976a46 46 0 0 1-.353-4.073l-.022-.579a26 26 0 0 1-.028-.793v-.338a10 10 0 0 1-1.237.431 14 14 0 0 0-.037.977c-.006.343 0 .685.01 1.01"/><path fill="#000" d="M176.437 109.727a219 219 0 0 0 6.669-9.349c2.216-3.405 4.707-6.783 6.15-10.59.682-1.894.932-3.932.483-5.914-.44-1.972-1.153-3.904-2.261-5.611-1.088-1.67-2.438-3.312-3.969-4.556-1.103-.826-2.4-1.237-3.735-1.461q-.114-.021-.235-.038a8 8 0 0 0-.71-.085.55.55 0 0 1-.357-.126q-.04-.035-.081-.073l-.154-.56c.207-.108.418-.13.63-.13.194 0 .393.01.587.022.599.04 1.194.136 1.778.297 2.113.502 3.695 2.179 5.017 3.776 2.062 2.397 3.43 5.331 4.077 8.422.486 2.06.287 4.273-.398 6.268-.659 2.007-1.664 3.853-2.702 5.647a133 133 0 0 1-6.795 10.389 145 145 0 0 1-3.775 4.928.464.464 0 0 1-.809-.141 31 31 0 0 0-2.571-5.891c-1.063-1.868-2.287-3.649-3.697-5.278-.234-.275.174-.635.418-.373 1.498 1.604 2.848 3.36 3.966 5.256a32 32 0 0 1 2.476 5.176M146.469 75.492c-.058-.143-.134-.153-.209-.171a11 11 0 0 1-1.524-.524c-1.08-.476-2.07-1.15-2.798-2.068-.758-.914-.886-2.072-1.015-3.236-.302-3.1-.39-6.226-.564-9.341-.078-1.26-.154-2.519-.401-3.763-.488-2.422-1.866-4.594-3.598-6.321l-.084-.083c-.027-.028-.055-.056-.115-.05-.016.093.073.145.115.21 1.486 1.84 2.685 4.028 3.121 6.355.534 3.68.468 7.46.526 11.18.035 2.856-.015 5.367 2.801 6.963 1.083.602 2.282.852 3.496.948.078.007.156.022.254-.096zM148.935 77.51c.022.063.05.037.088.045.05.007.214.007.267.012 3.616.126 6.188-2.36 7.104-5.711q.158-.515.267-1.04c.02-.119.066-.23.005-.366-.118.09-.133.207-.181.315q-.187.492-.421.962c-1.395 2.733-3.75 5.385-6.958 5.727l-.088.01-.043.005c-.015 0-.03.005-.043.046z"/><path fill="#000" d="M151.66 79.645c.209.121.539.068.783.091 1.373.04 2.705-.635 3.543-1.713 1.081-1.385 1.401-3.23 1.282-4.93-.103-.895-.219-1.824-.599-2.645.003.514.189 1.002.206 1.516.051.496.066 1.015.036 1.514-.124 3.198-1.887 5.86-5.254 6.167zM190.676 84.297c7.148 2.718 17.612 6.594 24.75 9.233 1.423.536 3.528 1.264 4.901 1.84 4.71 2.04 7.583 6.992 7.951 12.004.166 2.478-.058 5.327-.149 7.833-.345 6.115-.992 12.295-1.783 18.362-1.017 8.145-2.745 16.237-3.528 24.417-1.657 14.034-1.957 28.16-2.03 42.271a.226.226 0 0 0 .453.008c.106-4.7.207-9.399.36-14.094.242-10.552 1.295-21.098 2.657-31.562.484-3.481 1.116-6.944 1.736-10.407a477 477 0 0 0 2.654-21.006c.474-5.292 1.063-10.593.927-15.92-.32-5.483-3.528-10.96-8.689-13.162-2.828-1.126-7.077-2.591-9.956-3.672-4.941-1.785-14.927-5.407-19.881-7.165-.637-.204-1.07.703-.373 1.02"/><path fill="#000" d="M197.018 188.644a.21.21 0 0 0 .275-.017 99.5 99.5 0 0 0 19.314-29.412 87 87 0 0 0 1.423-3.533c.091-.227.174-.456.259-.685-.299-.166-.601-.33-.896-.494q-.147.348-.297.695c-4.425 10.316-10.062 20.098-16.877 29.026-1.045 1.403-2.138 2.768-3.234 4.136a.203.203 0 0 0 .031.284z"/><path fill="#000" d="M193.661 150.484c6.875-1.275 12.268-.121 18.619 2.538a68 68 0 0 1 4.4 1.967c.136.071.277.139.413.209q.467.238.935.481c1.322.693 2.616 1.441 3.747 2.401.227.216.884.803.569 1.057-.438.282-1.057.288-1.599.32-.791.03-1.594-.012-2.398-.073a45 45 0 0 1-1.745-.174q-.328-.037-.66-.078c-.199-.025-.239.277-.045.31.128.018.322.048.567.088 2.133.338 8.056 1.265 6.16-1.418-1.207-1.327-2.776-2.251-4.34-3.118-.299-.166-.601-.329-.896-.493l-.36-.199a68 68 0 0 0-4.4-2.113c-6.443-2.821-12.149-4.136-19.189-2.818-.725.156-.536 1.241.219 1.113zM143.018 186.106c.431.803 1.635 1.088 2.398 1.425l2.551 1.028c25.387 10.23 51.323 20.17 77.133 29.247a.18.18 0 0 0 .231-.113.185.185 0 0 0-.101-.227c-25.25-10.522-51.183-20.49-76.89-29.874l-2.584-.942c-.743-.242-1.891-.859-2.735-.544z"/><path fill="#000" d="M198.388 207.825c.786.781 1.856 1.068 2.914 1.159 2.038.242 4.11.101 6.125-.252 4.005-.695 8.006-1.834 11.469-4.012.434-.267.849-.562 1.265-.856.458-.32.861-.622.967-1.252-.622-.078-1.018.179-1.484.476-.418.259-.848.496-1.274.74-4.412 2.519-8.918 3.879-14.023 3.63-.975-.011-1.944-.056-2.919-.091-1.053-.061-2.03-.061-3.04.453zM68.36 155.644h.058a3.2 3.2 0 0 1 1.354-.136q.313.032.607.116.07-.011.134-.025.56-.103 1.126-.194a69 69 0 0 1 1.752-.27l.338-.045a69 69 0 0 1 12.774-.577c5.77.237 11.399 1.773 17.189 1.897 5.797.194 11.645-.433 17.242-1.894a.11.11 0 0 0 .08-.136.113.113 0 0 0-.131-.083c-6.795 1.209-13.716 1.581-20.566.828-4.574-.501-9.14-1.581-13.771-1.674-4.284-.139-8.568.241-12.78 1.004q-.164.027-.327.061a71 71 0 0 0-2.498.506c-.338.073-.672.151-1.01.229q-.79.187-1.576.388zM65.98 156.412q.222-.126.438-.244l-.053.015-.21.058-.105.03c-.033.005-.068.015-.07.141M74.606 159.518l.007.007q.25.27.501.534c.262.02.52-.012.771-.068.405-.091.806-.234 1.216-.312.386-.088.784-.166 1.149-.315.373-.201.665-.511.823-.929.013-.033-.01-.071-.047-.076a2.56 2.56 0 0 0-1.171.144c-.318.166-.625.357-.965.488-.524.232-1.086.207-1.637.3-.169.03-.335.068-.501.131a.3.3 0 0 0-.146.093zM195.771 188.76c-13.947 1.728-28.111 1.053-41.956-1.229-6.903-1.148-16.831-3.37-23.78-4.274-3.032-.367-6.183-.33-9.187.34-1.481.27-2.972.839-4.375 1.355-1.385.446-2.856.622-4.309.748-3.924.305-7.901-.35-11.63-1.675a.518.518 0 0 0-.351.972c3.826 1.403 7.951 2.134 12.064 1.857 1.547-.126 3.098-.315 4.589-.789 1.43-.516 2.758-1.04 4.259-1.312 4.873-1.093 9.809-.294 14.733.595 6.999 1.256 16.836 3.281 23.815 4.049 8.009.937 16.096 1.345 24.155.927 4.027-.221 8.039-.627 12.026-1.204a.182.182 0 0 0-.048-.36zM165.423 140.727c.013.378.033.75.058 1.128 0 .028.023.046.048.043.023 0 .04-.018.043-.038.189-1.569.358-3.133.529-4.694.33-2.783.687-6.619 1.053-9.349.382-2.717.863-5.46 1.151-8.198.251-3.14.601-6.301.491-9.464-.081-1.121.07-2.277.685-3.257l.088-.141c.196-.312.395-.624.589-.942q.287-.461.562-.927c.03-.045-.04-.095-.071-.052-.239.292-.468.559-.685.816-1.136 1.349-1.891 2.359-1.881 4.495l-.053 1.174c-.126 2.279-.194 4.777-.405 7.039a74 74 0 0 0-.283 2.335c-.37 3.228-.967 6.457-1.4 9.698 0 .011-.005.021-.005.031-.007.048-.01.093-.017.141-.29 2.176-.502 4.359-.522 6.55a52 52 0 0 0 .028 3.609z"/><path fill="#000" d="M161.248 141.812q-.001.138.005.275c0 .123.095.224.219.234l4.044.239a.13.13 0 0 0 .139-.126.13.13 0 0 0-.116-.138l-3.302-.375-.503-.056c-.038-5.581.312-11.167 1.123-16.685.816-4.896 1.733-9.787 2.607-14.678.455-2.541.896-5.077 1.312-7.621.249-1.133.637-2.254 1.07-3.327.086-.224.116-.347.267-.546.186-.303.72-.728.889-.824a34 34 0 0 0 3.113-1.68c4.11-2.38 7.382-6.14 9.316-10.46a23 23 0 0 0 1.471-4.401c.176-.799.31-1.602.393-2.408.012-.134.027-.262.037-.396.094-1.042.116-2.09.066-3.128a.153.153 0 0 0-.161-.148.155.155 0 0 0-.149.153 25 25 0 0 1-.164 2.605 22.4 22.4 0 0 1-.891 4.213c-.577 1.906-1.461 3.77-2.511 5.458-1.952 3.208-4.687 5.807-7.893 7.737a37 37 0 0 1-3.022 1.755c-.557.378-1.03.849-1.323 1.476-.435 1.244-.881 2.493-1.13 3.788-.318 1.884-.763 3.707-1.091 5.571-.08.458-.164.916-.247 1.382-.889 5.005-1.848 10.452-2.606 15.383-.756 5.544-1.053 11.14-.96 16.728zM142.21 130.645c.275.27.539.184.806.199h.798l1.6-.02c.534-.01 1.065-.007 1.601 0q.802.006 1.605.023c.534.012 1.068.01 1.584.078.514.073 1.035.216 1.579.289.541.068 1.085.099 1.635.101q.412 0 .821-.038.411-.042.816-.123l-.351-.325c-.047.325-.065.657-.09.985-.03.327-.083.655-.126.98l-.277 1.956c-.192 1.305-.385 2.61-.554 3.917-.043.327-.091.652-.124.982l-.085.985c-.058.657-.101 1.314-.149 1.972s-.088 1.314-.143 1.972l-.078.984c-.013.33-.094.653-.129.98l.179-.219a27 27 0 0 0-3.398 1.211 24 24 0 0 0-3.191 1.69h-.002a.4.4 0 0 0-.05.043.5.5 0 0 1-.227.131.4.4 0 0 1-.247-.012c-.174-.058-.4-.257-.607-.429-.42-.357-.821-.763-1.242-1.148-.418-.39-.843-.778-1.307-1.128-.455-.358-.974-.655-1.543-.789.46.353.909.675 1.322 1.053s.796.791 1.186 1.204c.388.416.776.834 1.206 1.232q.163.148.34.289c.114.091.262.199.439.265.173.07.4.09.591.04.194-.048.368-.149.507-.287l-.053.043a29 29 0 0 1 3.113-1.665 26 26 0 0 1 3.301-1.262.25.25 0 0 0 .177-.219c.027-.327.01-.66.06-.985l.113-.979c.074-.655.159-1.308.237-1.96s.164-1.304.232-1.959l.106-.98.123-.977c.166-1.305.307-2.612.451-3.919l.224-1.959c.04-.328.071-.655.126-.978.058-.324.123-.647.159-.972v-.017a.28.28 0 0 0-.353-.305 12 12 0 0 1-.761.169c-.254.053-.513.09-.773.121q-.39.046-.783.047a6 6 0 0 1-.783-.04c-.519-.055-1.035-.189-1.582-.254-.546-.063-1.083-.071-1.617-.083-1.07-.018-2.133-.071-3.206-.121a38 38 0 0 0-1.607-.03q-.401.001-.803.017c-.267.025-.539-.048-.798.234z"/><path fill="#000" d="M151.851 134.234c-1.365.015-2.718.083-4.078.086-.667 0-1.339.028-1.997-.103-.649-.149-1.322-.318-1.997-.431.952.383 1.919.856 2.964.904 1.713.088 3.443-.043 5.108-.456M127.384 39.52c.05 3.911.415 7.813 1.067 11.661.136.814.29 1.627.454 2.438 1.629 8.092 4.513 15.942 8.364 23.238 3.06 5.473 8.18 13.374 15.088 13.797 5.415.169 9.543-5.234 12.074-9.427.766-1.26 1.509-2.675 2.161-3.994l.146-.293c.06-.09.081-.201-.154-.438-.335-.045-.413.033-.453.134l-.154.28c-.682 1.284-1.453 2.659-2.244 3.875-2.47 3.773-6.366 8.88-11.323 8.674-8.671-.683-15.408-15.308-18.176-22.558-1.778-4.717-3.236-9.578-4.259-14.525a90 90 0 0 1-.491-2.581c-.705-4.037-1.113-8.122-1.156-12.227v-.32c-.007-.053 0-.109-.01-.16-.03-.052-.141-.11-.456-.165-.415.085-.481.073-.466.317a78 78 0 0 0-.01 2.272z"/><path fill="#000" d="M166.199 76.165c.035.398.337.536.534.823a7.4 7.4 0 0 1 1.33 2.478c1.077 3.499-1.116 7.04-4.224 8.601-.451.275-.609.902-.363 1.368.897 1.72 1.864 3.53 2.38 5.394.189 1.08-.219 2.141-.864 3.048a.4.4 0 0 0-.088.24c-.02 1.206.068 2.404.187 3.601.106 1.062.252 2.13.418 3.186.005.037.007.073.038.108.055.068.193.128.481.174.269-.101.392-.189.435-.267.036-.061.01-.159.01-.225-.115-2.213-.302-4.432-.765-6.603 0 0-.093.307-.086.292.892-.962 1.486-2.36 1.295-3.725-.262-1.297-.786-2.395-1.32-3.571a34 34 0 0 0-1.133-2.153c.005.017-.003-.008 0 0a.1.1 0 0 1-.013.027q-.012.014-.015.013c.002 0-.01.005.007-.005.328-.192.726-.433 1.036-.66 2.793-1.952 4.425-5.757 3.14-9.034a7.8 7.8 0 0 0-1.589-2.544c-.259-.234-.413-.569-.826-.571zM161.492 88.72c-.481-.091-.625.052-.731.219-.355.46-.73.962-1.055 1.44-1.337 1.97-2.523 4.043-4.055 5.873a.45.45 0 0 0-.093.393q.108.585.234 1.169.255 1.166.56 2.322c.098.385.186.773.43 1.138.214-.813.051-1.594.051-2.41a42 42 0 0 0-.172-2.377l-.093.393c.778-1.388 1.69-2.685 2.629-3.965.824-1.113 1.64-2.244 2.35-3.435.116-.161.199-.345-.058-.76z"/><path fill="#000" d="M122.503 154.382a8.1 8.1 0 0 1 3.009.152 8.8 8.8 0 0 1 2.798 1.224 8.7 8.7 0 0 0-2.742-1.431 8.4 8.4 0 0 0-2.786-.358 385 385 0 0 0 1.481-3.583q.496-1.208.982-2.421.133-.328.262-.66c.227-.561.448-1.12.668-1.685 2.307-5.84 4.472-11.736 6.427-17.705.705-2.14 1.44-4.546 2.08-6.724 1.327-4.322 3.382-8.404 4.664-12.789 1.297-4.846 3.75-9.883 8.251-12.45 3.34-1.05 6.737-1.933 10.082-2.974-3.441.791-6.904 1.507-10.311 2.418-.393.146-.766.38-1.083.602a17 17 0 0 0-2.748 2.3c-.843.848-1.554 1.843-2.196 2.848a26.7 26.7 0 0 0-3.007 6.936 49 49 0 0 1-.602 1.791c-1.602 4.352-3.662 8.683-4.858 13.219-2.672 8.878-5.78 17.61-8.906 26.336q-.15.428-.304.854-.687 1.921-1.373 3.841c-.05.131.068.282.209.257zM197.363 144.323c.096.154.232.086.395.089l.386-.016c7.445-.231 14.93 1.524 21.568 4.889.177.093.844.443 1.023.546l.169.094c.058.03.123.045.224.002-.01-.176-.166-.216-.277-.295-.189-.123-.794-.481-1-.604-6.513-3.881-14.177-5.626-21.725-4.891l-.388.035-.194.02c-.065.003-.128.013-.183.129z"/><path fill="#000" d="M221.579 98.585a.23.23 0 0 0-.159-.086l-.166-.028c-.328-.06-.675-.078-1.005-.103-6.853-.272-11.53 7.53-14.275 12.882-6.289 12.767-9.933 26.573-14.162 40.095-1.027 3.362-2.349 6.601-3.848 9.774-1.302 2.768-2.775 5.501-4.317 8.143l-.67 1.143a.26.26 0 0 0 .084.365.253.253 0 0 0 .334-.068 64 64 0 0 0 7.846-13.94c1.38-3.246 3.785-11.718 4.888-15.204 3.03-10.145 6.13-20.314 10.684-29.892 1.916-3.889 4.11-7.83 7.535-10.583 2.063-1.637 4.561-2.456 7.228-2.498z"/><path fill="#000" d="M199.051 130.069c.108-.048.226-.104.317-.172.073-.05.146-.141.118-.209-.027-.178-.085-.697-.108-.886-.514-4.589-.053-8.644 1.844-12.887a30 30 0 0 1 2.306-4.249.137.137 0 0 0-.226-.154 31 31 0 0 0-2.471 4.224c-1.962 4.259-3.163 9.112-2.372 13.806l.053.308c.002.052.03.1.11.138l.071.028c.108.035.239.048.358.055zM198.141 132.899c.038-.042.164-.158.194-.201.033-.04.086-.123.053-.149a13 13 0 0 1-.216-.382c-1.559-2.753-1.768-5.287-1.224-8.372l.027-.151c-.005-.053.063-.088-.06-.174-.149.015-.106.078-.134.126l-.045.149c-.859 2.939-.899 6.686.985 9.25.012.023.043.035.108.023l.053-.013c.045-.007.214-.09.259-.106M113.854 186.106c-4.009-.343-6.402-.877-9.18-3.997-.136-.159-.388.037-.264.209 1.987 2.735 6.026 5.543 9.444 3.79zM89.646 188.813c.01.224.07.526.277.683.335.231.728.332 1.131.35q.091.006.184.005c1.196-.094 2.14-.983 2.967-1.748.584-.552 1.13-1.136 1.695-1.703.357-.362.725-.715 1.113-1.045a11.6 11.6 0 0 1 1.919-1.287c1.602-.864 3.387-1.393 5.18-1.728a.126.126 0 0 0 .101-.148.126.126 0 0 0-.133-.103c-1.97.151-3.972.664-5.735 1.601a11 11 0 0 0-2.765 2.058q-.232.24-.451.501c-1.086 1.179-2.216 3.121-3.972 3.151h-.05c-.297 0-.6-.068-.874-.184-.126-.045-.176-.108-.227-.234-.325-.95.386-1.834.887-2.609.378-.542.765-1.086 1.098-1.673a8 8 0 0 1 .786-1.256c.48-.638 1.052-1.199 1.677-1.726a14 14 0 0 0 1.106-1.035q.055-.06.108-.121l.002-.005c.073-.08.149-.161.22-.247.569-.677 1.052-1.42 1.44-2.213q.137-.277.26-.562.048-.111.093-.222c.05-.113.093-.231.138-.347l.023-.058c0-.023.038-.03-.03-.078-.083-.01-.06.02-.073.035a18 18 0 0 1-.227.504c-.476 1-1.093 1.939-1.846 2.75-.89.99-2.055 1.67-2.914 2.705-.418.484-.809 1.025-1.08 1.609l-.036.076c-.297.577-.645 1.136-.99 1.702-.445.786-1.067 1.635-1.002 2.602M92.255 177.049c.428-.466.862-.927 1.277-1.37.114-.129.227-.254.338-.385l-.033.035a63 63 0 0 0-1.582 1.72"/><path fill="#000" d="M78.781 179.291c.025.173.119.34.27.445.133.099.254.126.39.194.113.051.224.096.343.136h.005q.155.056.317.101c.222.06.453.108.685.134.615.065 1.242-.011 1.793-.298.516-.259.907-.68 1.252-1.133.166-.222.322-.451.478-.675.119-.171.235-.337.358-.499a11 11 0 0 1 1.64-1.805c.05-.046.105-.091.156-.134q.074-.065.153-.126l.116-.091a7.4 7.4 0 0 1 1.562-.957c.012-.007.025-.01.037-.017q.23-.107.451-.219c-.143.1-.29.196-.438.297-.393.259-.793.521-1.174.828a5 5 0 0 0-.28.247l-.105.099q-.07.067-.14.136a7 7 0 0 0-.573.627 11 11 0 0 0-.826 1.173q-.184.303-.357.617c-.668 1.212-1.204 2.509-1.859 3.715-.708 1.282-1.677 2.39-2.69 3.438-.148.264-.073.473.096.642.214.212.58.358.846.474l.134.058c.15.062.325.113.48.163.542.164 1.132-.03 1.582-.244a8.4 8.4 0 0 0 1.698-1.196c-.448.455-.93.881-1.45 1.266-.48.33-.326.844.097 1.146a2.725 2.725 0 0 0 .962.549q.376.123.774.124c1.561-.03 3.415-1.579 5.024-3.136.957-.924 1.829-1.851 2.501-2.465.552-.554 1.116-1.093 1.667-1.658 1.086-1.13 2.007-2.405 2.836-3.729 0-.006.008-.011.01-.013q-.008.001-.015-.005c-.07-.018-.078.005-.09.025l-.04.061a21 21 0 0 1-2.864 3.495c-1.136 1.068-2.305 2.131-3.42 3.221-1.119 1.083-2.257 2.149-3.574 2.98-1.126.826-2.446 1.277-3.516.244a3 3 0 0 1-.177-.186.184.184 0 0 1 .028-.275l.174-.141c1.108-.849 2.012-1.884 2.84-2.979.34-.449.666-.909.99-1.375.504-.728.998-1.466 1.512-2.184q.373-.529.775-1.04.073-.102.154-.199a69 69 0 0 1 1.42-1.584c.154-.171.315-.34.471-.511a68 68 0 0 1 1.582-1.721l.033-.035q.085-.101.166-.199a21 21 0 0 0 1.458-1.977l.171-.264c.03-.051.018-.114-.03-.144a.106.106 0 0 0-.143.03q-.063.096-.126.192a21 21 0 0 1-2.015 2.581q-.391.412-.798.834-.002.006-.008.01a52 52 0 0 0-1.347 1.388 68 68 0 0 0-4.25 4.951q-.237.29-.483.584a20 20 0 0 1-1.44 1.59c-.534.523-1.113.989-1.76 1.345q-.061.03-.122.057h-.007c-.328.154-.683.242-.997.212q-.064-.016-.126-.033-.1-.027-.194-.058a4 4 0 0 1-.96-.428q-.052-.031-.108-.07l-.056-.041s-.01-.01-.012-.015q-.038-.062.023-.113.117-.115.226-.232c.947-.962 1.79-2.027 2.443-3.206.728-1.357 1.297-2.843 2.078-4.176q.184-.316.388-.622.22-.333.468-.644a8 8 0 0 1 .703-.776 1 1 0 0 1 .103-.093q.132-.13.272-.242c.363-.305.77-.572 1.176-.846q.257-.17.507-.355.215-.152.42-.323c.647-.514 1.214-1.123 1.735-1.748 0 0 .005 0 .005-.005.35-.38.673-.785.98-1.193.232-.371.557-.698.746-1.083q.056-.121.098-.25a20 20 0 0 0 1.068-2.015.13.13 0 0 0-.063-.171.13.13 0 0 0-.172.063q-.187.397-.39.786-.233.449-.494.886c-.617.318-.8.965-1.236 1.454-.66.884-1.406 1.702-2.302 2.327a7 7 0 0 1-.521.337 6 6 0 0 1-.481.265l-.194.095-.383.182a7 7 0 0 0-.72.383 8 8 0 0 0-.83.581l-.117.094-.162.133c-.178.151-.355.307-.521.463-.03.031-.065.063-.096.096-.456.453-.868.952-1.236 1.468-.33.439-.602.91-.93 1.32-.261.333-.559.627-.942.834-.438.229-.914.297-1.395.264a4.3 4.3 0 0 1-1.581-.461c-.066-.045-.089-.148-.046-.211l.018-.023c.028-.03.08-.091.118-.131.4-.441.784-.894 1.134-1.378.607-.818 1.035-1.77 1.48-2.664q.423-.868.955-1.665a11 11 0 0 1 .625-.851q.048-.06.1-.121.256-.317.54-.615.338-.38.72-.705.23-.205.476-.388a10.7 10.7 0 0 1 1.536-.962l.433-.257c1.592-.972 3.617-2.07 5.249-2.944 1.702-.886 3.725-1.299 5.593-.76 3.758 1.05 7.873 2.287 11.671 3.095 7.891 1.72 16.003 2.299 24.054 2.322 10.727.03 21.433-.713 32.132-1.33 1.332-.083 2.677-.181 4.002-.249a41.2 41.2 0 0 1 11.872 1.219c.083.02.169-.03.189-.113a.16.16 0 0 0-.108-.189 41 41 0 0 0-3.927-.925 41 41 0 0 0-8.049-.634c-12.028.423-24.067 1.156-36.1 1.075-8.009-.05-15.98-.783-23.833-2.317-3.798-.685-7.944-1.791-11.719-2.69-3.032-.7-5.276.484-7.795 1.982a97 97 0 0 0-3.463 2.03c-.561.355-1.201.655-1.737 1.053a8 8 0 0 0-.786.627c-.459.403-.877.849-1.262 1.322q-.051.061-.098.121c-.046.053-.088.111-.131.164a15 15 0 0 0-.532.728c-1.128 1.665-1.712 3.624-3.095 5.115-.221.277-.456.483-.687.778a.63.63 0 0 0-.096.459z"/><path fill="#000" d="M94.036 175.095c-.053.068-.112.134-.168.2l.079-.083.053-.059.03-.03s.008-.011.006-.028M89.437 180.386a89 89 0 0 1 2.818-3.337 87 87 0 0 0-1.888 2.095c-.32.403-.63.819-.93 1.24zM130.398 36.97c1.869-.89 3.932-1.401 5.997-1.404 1.584.111 3.541.131 5.253.149 4.848.065 9.687-.287 14.525-.547l.657-.068a.76.76 0 0 0 .632-.365.07.07 0 0 0-.007-.088c-.242-.26-.466-.297-.685-.282l-.658.018c-1.314.047-2.622.226-3.934.31-3.5.221-7.011.18-10.517.153-1.763-.02-3.526-.1-5.291-.136-2.166.128-4.292.871-6.017 2.184-.041.03 0 .1.048.075zM.961 179.522c20.133 11.198 40.617 22.201 60.959 33.033l8.751 4.639a.52.52 0 0 0 .49-.002c13.818-7.621 30.252-16.771 43.967-24.581a.1.1 0 0 0 .051-.073q.063-.685.035-1.368c-.06-1.334-.29-2.803-1.254-3.8 1.201 1.393 1.178 3.413 1.022 5.145l.051-.073-11.127 5.899a4874 4874 0 0 0-33.242 17.949l.489-.002-8.737-4.665C42.064 200.804 21.497 189.969.959 179.525zM143.779 114.673a225.2 225.2 0 0 0-3.047 55.317c.068.722 1.146.71 1.161-.053a499 499 0 0 1 1.886-55.267z"/><path fill="#000" d="M140.644 121.478c-.008.524.007 1.05.037 1.574.101 1.473.255 2.977.718 4.39.114.34.252.71.378 1.053.048.166.118.209.279.211.063.005.142 0 .235-.005.196-.136.282-.232.312-.305s-.013-.121-.023-.181l-.093-.345c-.453-1.559-.912-3.11-1.156-4.72-.01-.05-.015-.095-.023-.146v-.012q-.045-.322-.08-.643a26 26 0 0 1-.129-1.458 28 28 0 0 1-.052-2.236c0-.486.027-.97.045-1.461a21.4 21.4 0 0 0-.443 4.284zM139.52 145.444a19.4 19.4 0 0 0-9.416-4.707 50.6 50.6 0 0 1 9.416 4.707M141.006 153.866c.126-.161.164-.254.159-.312-.008-.056-.048-.081-.073-.124l-.169-.226c-3.501-4.735-9.19-7.775-15.048-8.198a.45.45 0 0 0-.474.416.443.443 0 0 0 .358.465 27.4 27.4 0 0 1 14.22 7.407c.191.187.395.391.581.582.124.146.179.109.444-.007zM141.006 158.228c-.108-.048-.247-.116-.358-.148-.032-.013-.093-.026-.103 0l-.02.03c-.879 1.186-1.529 2.513-2.199 3.823-.697 1.355-1.375 2.717-1.944 4.138.967-1.184 1.834-2.436 2.682-3.702.824-1.219 1.67-2.431 2.282-3.776l.015-.032c.025-.048-.09-.121-.123-.154-.051-.053-.171-.128-.232-.179M124.946 168.312c1.755.149 3.546-.09 5.231-.602a33 33 0 0 1 3.42-.881q.688-.144 1.388-.262.135-.026.274-.05h-.123c-1.721-.038-3.441.272-5.083.778a24 24 0 0 1-3.364.776q-.864.14-1.743.241M180.844 53.02c-.599-1.202-2.158-2.07-3.445-1.366-1.665.968-2.615 3.224-2.259 5.088.03.179.078.368.128.541.013.026-.018.058.123.05.129-.06.089-.075.089-.1-.008-.045-.033-.179-.038-.224-.345-1.962 1.002-5.02 3.266-4.949.716.05 1.406.509 1.995 1.07.068.073.194-.022.141-.105zM149.653 58.825c-.37-1.051-.391-2.001-.047-2.123.344-.12.922.633 1.292 1.684s.392 2.001.048 2.122-.922-.633-1.293-1.684M135.999 61.11c-.287-1.005-.252-1.896.077-1.99.329-.093.828.645 1.114 1.65s.252 1.895-.077 1.989c-.33.093-.828-.645-1.114-1.65M144.562 48.134c2.657.221 5.262.753 7.523 2.254.318.216.63.456.917.712l.03.026c.005.012.073-.02.088-.028a.4.4 0 0 0 .136-.1c.01-.016.066-.064.053-.076-.03-.063-.09-.192-.123-.257-.761-1.519-1.887-2.876-3.418-3.685-1.632-.876-3.649-1.199-5.43-.624-.944.32-.76 1.707.224 1.78zM128.451 51.181c.136.814.29 1.627.454 2.438q.492-.653 1.07-1.234a16 16 0 0 1 2.232-1.869c.609-.425 1.259-.8 1.929-1.214.828-.514.37-1.8-.59-1.685-1.554.202-2.992 1.04-4.059 2.184a7 7 0 0 0-.585.697c-.163.22-.315.446-.446.68zM133.242 184.232a14.1 14.1 0 0 0 1.793-4.259c.997-4.231-.285-7.767-.897-9.193l-6.246-.44c.408.864.834 1.992 1.088 3.354a14 14 0 0 1-.224 6.055l-.448.448a1.7 1.7 0 0 0-.897.224c-.128.076-.486.313-.896 1.345a8 8 0 0 0-.484 1.849l7.208.617zM217.879 155.42l3.765 2.143 1.078 1.141-.262.695-1.108.282h-1.851l-2.201-.209-1.197-.158zM166.647 76.837l-1.793 3.138-5.158 6.951a39.424 39.424 0 0 1 6.166 10.203l.438-2.292-2.169-5.35.501-1.248 1.94-1.577 1.851-3.229v-3.486l-.778-2.042zM165.222 109.115l-2.766-4.002a13 13 0 0 0-.869-1.126l-4.901-5.717-.03-.04-.204-.325c-.194-.31-.675-.126-.609.234l1.1 6.291a9.4 9.4 0 0 1 .134 2.007l-.154 3.841a.332.332 0 0 0 .547.267l3.422-2.881a.33.33 0 0 1 .474.045l2.982 3.697a.333.333 0 0 0 .587-.151l.337-1.889a.34.34 0 0 0-.053-.246z"/><path fill="#BEC5F6" d="M83.277 164.726a72.4 72.4 0 0 0 11.545-11.847c5.024-6.513 8.918-13.862 11.532-21.69 8.399-1.617 14.743-9.006 14.743-17.874 0-10.054-8.15-18.206-18.206-18.206s-18.207 8.15-18.207 18.206c0 8.301 5.556 15.308 13.157 17.494a67.2 67.2 0 0 1-3.903 15.36c-2.567 6.697-6.166 12.923-10.661 18.554z"/><path fill="#fff" d="M87.868 124.696h28.641c1.03 0 1.863-.833 1.863-1.863v-19.347a1.86 1.86 0 0 0-1.863-1.864H87.868c-1.03 0-1.864.833-1.864 1.864v19.347c0 1.03.834 1.863 1.864 1.863"/><path fill="#000" d="M87.868 125.074c6.458.078 13.769.257 20.191.051 2.617-.078 5.813-.159 8.412-.184.952.02 1.856-.69 2.07-1.62.096-.249.043-.629.063-.889l.005-1.682.02-6.729c.008-2.592.091-8.226.081-10.762-.091-1.103-1.086-2.015-2.199-2.002l-13.459-.053c-1.058.02-14.433.06-15.144.073-.997-.028-1.959.715-2.18 1.692-.071.262-.069.645-.066.917-.023 4.138-.04 10.993-.066 15.144l-.015 3.365c-.128 1.476.74 2.694 2.292 2.679zm0-.647c-.871.063-1.47-.347-1.67-1.229-.053-.206-.025-.589-.027-.806.022-2.118.158-7.9.211-10.094.066-2.783.111-5.624.121-8.412.015-.171-.018-.549.045-.718a1.4 1.4 0 0 1 1.358-1.052l1.682-.023c1.932-.035 4.765-.139 6.73-.212 6.404-.272 13.748-.11 20.191-.022.876-.005 1.642.768 1.622 1.644v.421l.01 3.365c0 4.155.045 10.998.048 15.143v.419c.007.911-.801 1.71-1.721 1.679-8.487.114-20.007.008-28.602-.103z"/><path fill="#2740E3" d="M86.324 106.43v11.348h32.048v-11.263"/><path fill="#000" d="M115.967 120.138c-2.911-.408-5.825-.055-8.742 0-2.571-.048-5.142-.199-7.714 0a.23.23 0 0 0 0 .461c1.373.01 2.743.043 4.113.086 1.196.05 2.4.156 3.599.148 1.541-.005 3.088-.118 4.629-.179q2.057-.076 4.113-.057c.302 0 .312-.454 0-.461z"/><path fill="#fff" d="M115.967 109.636h-11.056c-.161-.005-.209.239-.055.292.473.191.959.285 1.438.342 1.38.136 2.762.043 4.145.031.922-.01 1.844.055 2.765.015.935-.035 1.872-.134 2.804-.378.168-.043.141-.305-.038-.302zM115.967 112.454c-2.737.118-5.49.023-8.228.003l-4.112.057c-1.371.026-2.743.028-4.113-.06a.22.22 0 0 0-.234.207.22.22 0 0 0 .178.231c.36.068.723.124 1.083.156 1.018.121 2.066.114 3.086.131 2.742-.007 5.485-.09 8.228-.173l4.112-.101c.297.005.31-.451 0-.448zM103.153 109.57c-1.206.109-2.403-.042-3.607-.078-1.204-.02-2.407.114-3.606-.083a.21.21 0 0 0-.242.171c-.028.159.108.23.232.277.594.275 1.196.285 1.795.318 1.204.02 2.408-.038 3.61-.096.614-.03 1.226-.04 1.841-.063.297-.015.277-.463-.026-.448z"/><path fill="#000" d="m34.327 151.637-.93 23.715-1.382.471-6.264-3.627-15.486-7.135-.224-1.121-.449-76.452 6.28-6.055.447.225.449 1.344z"/></g><defs><clipPath id="a"><path fill="#fff" d="M229 0H0v248h229z"/></clipPath></defs></svg>