<?xml version="1.0" encoding="utf-8"?>
<!-- Generator: Adobe Illustrator 26.5.3, SVG Export Plug-In . SVG Version: 6.00 Build 0)  -->
<svg version="1.1" id="Layer_1" xmlns="http://www.w3.org/2000/svg" xmlns:xlink="http://www.w3.org/1999/xlink" x="0px" y="0px"
	 viewBox="0 0 244.81 95.16" style="enable-background:new 0 0 244.81 95.16;" xml:space="preserve">
<style type="text/css">
	.st0{fill:#DAA973;}
	.st1{fill:#FFFFFF;}
	.st2{fill:#6E4C1E;}
	.st3{fill:#DCAA72;}
	.st4{fill:#AE802E;}
	.st5{fill:#E1B58E;}
	.st6{fill:#215630;}
	.st7{fill:#AD7F2D;}
</style>
<g>
	<g>
		<g>
			<g>
				<g>
					<g>
						<path class="st6" d="M146.51,39.94c-0.72,0-1.32-0.24-1.85-0.68s-0.76-1.08-0.76-1.93c0-0.68,0.24-1.28,0.72-1.81
							c0.48-0.52,1.08-0.76,1.81-0.76s1.32,0.24,1.85,0.76c0.52,0.48,0.76,1.12,0.76,1.81c0,0.8-0.24,1.44-0.76,1.93
							C147.8,39.7,147.2,39.94,146.51,39.94z"/>
						<path class="st6" d="M37.33,32.12H23.29c0.12,1.12,0.44,1.97,0.92,2.49c0.68,0.8,1.56,1.2,2.65,1.2
							c0.68,0,1.32-0.16,1.97-0.52c0.36-0.2,0.8-0.6,1.2-1.16l6.9,0.64c-1.04,1.85-2.33,3.17-3.81,3.93
							c-1.48,0.76-3.61,1.2-6.42,1.2c-2.41,0-4.33-0.36-5.7-1.04c-1.4-0.68-2.53-1.76-3.45-3.25c-0.92-1.48-1.36-3.25-1.36-5.21
							c0-2.85,0.92-5.17,2.73-6.94c1.85-1.76,4.33-2.65,7.58-2.65c2.61,0,4.69,0.4,6.18,1.2c1.48,0.8,2.65,1.93,3.45,3.45
							c0.8,1.52,1.2,3.45,1.2,5.86V32.12L37.33,32.12z M30.23,28.79c-0.12-1.36-0.48-2.33-1.08-2.89c-0.6-0.56-1.36-0.88-2.33-0.88
							c-1.12,0-2.01,0.44-2.65,1.32c-0.44,0.56-0.68,1.36-0.8,2.45L30.23,28.79L30.23,28.79z"/>
						<path class="st6" d="M38.81,14.35h10.23l3.93,15.32l3.93-15.32h10.23v25.19h-6.38V20.33l-4.89,19.21h-5.78l-4.89-19.21v19.21
							h-6.38L38.81,14.35L38.81,14.35z"/>
						<path class="st6" d="M85.5,35.37h-8.82l-1.24,4.17h-7.94l9.47-25.19h8.5l9.47,25.19h-8.14L85.5,35.37z M83.86,29.92
							l-2.77-9.07l-2.77,9.07H83.86z"/>
						<path class="st6" d="M109.97,29.19l6.82,2.05c-0.44,1.93-1.16,3.53-2.17,4.77s-2.21,2.25-3.65,2.89
							c-1.44,0.64-3.33,0.96-5.58,0.96c-2.73,0-4.97-0.4-6.7-1.2c-1.72-0.8-3.25-2.21-4.49-4.21c-1.24-2.01-1.89-4.57-1.89-7.7
							c0-4.17,1.12-7.38,3.33-9.59c2.21-2.25,5.33-3.37,9.43-3.37c3.17,0,5.66,0.64,7.5,1.93s3.17,3.25,4.05,5.9l-6.86,1.52
							c-0.24-0.76-0.48-1.32-0.76-1.68c-0.44-0.6-0.96-1.04-1.6-1.36c-0.64-0.32-1.32-0.48-2.13-0.48c-1.76,0-3.13,0.72-4.05,2.13
							c-0.72,1.04-1.08,2.73-1.08,4.97c0,2.81,0.44,4.69,1.28,5.74c0.84,1.04,2.05,1.56,3.57,1.56c1.48,0,2.61-0.4,3.37-1.24
							C109.09,32,109.65,30.8,109.97,29.19z"/>
						<path class="st6" d="M117.79,14.35h7.78v8.82h8.5v-8.82h7.82v25.19h-7.82V29.35h-8.5v10.19h-7.78V14.35z"/>
						<path class="st6" d="M158.39,27.19l-6.7-0.72c0.24-1.16,0.6-2.09,1.08-2.77s1.16-1.24,2.05-1.76
							c0.64-0.36,1.52-0.64,2.65-0.84c1.12-0.2,2.33-0.28,3.65-0.28c2.09,0,3.77,0.12,5.05,0.36c1.28,0.24,2.33,0.72,3.17,1.48
							c0.6,0.52,1.08,1.24,1.4,2.21c0.36,0.96,0.52,1.85,0.52,2.73v8.06c0,0.84,0.04,1.52,0.16,2.01s0.36,1.12,0.72,1.85h-6.58
							c-0.28-0.48-0.44-0.84-0.52-1.08c-0.08-0.24-0.16-0.64-0.24-1.16c-0.92,0.88-1.85,1.52-2.73,1.89
							c-1.24,0.52-2.69,0.76-4.33,0.76c-2.17,0-3.81-0.52-4.97-1.52c-1.12-1-1.68-2.25-1.68-3.73c0-1.4,0.4-2.53,1.2-3.41
							c0.8-0.88,2.33-1.56,4.49-2.01c2.61-0.52,4.33-0.88,5.09-1.12s1.6-0.48,2.49-0.84c0-0.84-0.16-1.44-0.52-1.81
							c-0.36-0.36-0.96-0.52-1.89-0.52c-1.16,0-2.01,0.2-2.57,0.56C159.03,25.86,158.67,26.39,158.39,27.19z M164.44,30.88
							c-0.96,0.36-1.97,0.64-3.01,0.92c-1.4,0.36-2.33,0.76-2.69,1.12c-0.4,0.36-0.6,0.8-0.6,1.28c0,0.56,0.2,1,0.56,1.36
							c0.36,0.36,0.96,0.52,1.68,0.52c0.76,0,1.52-0.2,2.17-0.56c0.64-0.36,1.16-0.84,1.44-1.36c0.28-0.52,0.4-1.24,0.4-2.13v-1.16
							L164.44,30.88L164.44,30.88z"/>
						<path class="st6" d="M173.63,14.35h6.98v4.77h-6.98V14.35z M173.63,21.25h6.98V39.5h-6.98V21.25z"/>
					</g>
				</g>
			</g>
		</g>
		<g>
			<path class="st7" d="M17.22,80V47.17h13.95c3.51,0,6.06,0.29,7.65,0.88s2.86,1.64,3.82,3.15c0.96,1.51,1.43,3.23,1.43,5.17
				c0,2.46-0.72,4.5-2.17,6.1c-1.45,1.61-3.61,2.62-6.5,3.04c1.43,0.84,2.62,1.75,3.55,2.75c0.93,1,2.19,2.78,3.77,5.33L46.74,80
				h-7.93l-4.79-7.14c-1.7-2.55-2.87-4.16-3.49-4.83c-0.63-0.66-1.29-1.12-1.99-1.37c-0.7-0.25-1.81-0.37-3.34-0.37h-1.34V80H17.22z
				 M23.85,61.05h4.91c3.18,0,5.17-0.13,5.96-0.4s1.41-0.73,1.86-1.39c0.45-0.66,0.67-1.48,0.67-2.46c0-1.1-0.29-2-0.88-2.68
				c-0.59-0.68-1.42-1.11-2.5-1.29c-0.54-0.08-2.15-0.11-4.84-0.11h-5.17V61.05z"/>
			<path class="st7" d="M64.06,72.43l6.27,1.05c-0.81,2.3-2.08,4.05-3.82,5.25c-1.74,1.2-3.92,1.8-6.53,1.8
				c-4.14,0-7.2-1.35-9.18-4.05c-1.57-2.17-2.35-4.9-2.35-8.2c0-3.94,1.03-7.03,3.09-9.26s4.67-3.35,7.82-3.35
				c3.54,0,6.33,1.17,8.38,3.51c2.05,2.34,3.02,5.92,2.93,10.74H54.89c0.04,1.87,0.55,3.32,1.52,4.36s2.18,1.56,3.63,1.56
				c0.99,0,1.81-0.27,2.49-0.81C63.2,74.49,63.71,73.63,64.06,72.43z M64.41,66.07c-0.04-1.82-0.52-3.21-1.41-4.15
				c-0.9-0.95-1.99-1.42-3.27-1.42c-1.37,0-2.51,0.5-3.4,1.5c-0.9,1-1.34,2.36-1.32,4.08H64.41z"/>
			<path class="st7" d="M86.7,56.22v5.02h-4.3v9.59c0,1.94,0.04,3.07,0.12,3.39c0.08,0.32,0.27,0.59,0.56,0.79
				c0.29,0.21,0.65,0.31,1.06,0.31c0.58,0,1.43-0.2,2.53-0.61l0.54,4.88c-1.46,0.63-3.12,0.94-4.97,0.94
				c-1.14,0-2.16-0.19-3.07-0.57c-0.91-0.38-1.58-0.87-2-1.48s-0.72-1.42-0.88-2.45c-0.13-0.73-0.2-2.21-0.2-4.43V61.23h-2.89v-5.02
				h2.89v-4.73l6.32-3.67v8.4H86.7z"/>
			<path class="st7" d="M95.77,63.47l-5.71-1.03c0.64-2.3,1.75-4,3.31-5.11c1.57-1.11,3.9-1.66,6.99-1.66c2.81,0,4.9,0.33,6.27,1
				c1.37,0.66,2.34,1.51,2.9,2.53c0.56,1.02,0.84,2.9,0.84,5.63l-0.07,7.35c0,2.09,0.1,3.63,0.3,4.62s0.58,2.06,1.13,3.19h-6.23
				c-0.16-0.42-0.37-1.04-0.6-1.86c-0.1-0.37-0.18-0.62-0.22-0.74c-1.08,1.04-2.23,1.83-3.45,2.35c-1.22,0.52-2.53,0.78-3.92,0.78
				c-2.45,0-4.38-0.66-5.79-1.99c-1.41-1.33-2.12-3.01-2.12-5.04c0-1.34,0.32-2.54,0.96-3.59c0.64-1.05,1.54-1.86,2.7-2.42
				c1.16-0.56,2.83-1.05,5.01-1.47c2.94-0.55,4.98-1.07,6.11-1.54v-0.63c0-1.21-0.3-2.07-0.9-2.59c-0.6-0.52-1.72-0.77-3.38-0.77
				c-1.12,0-1.99,0.22-2.62,0.66S96.16,62.37,95.77,63.47z M104.19,68.58c-0.81,0.27-2.08,0.59-3.83,0.96
				c-1.75,0.37-2.89,0.74-3.43,1.1c-0.82,0.58-1.23,1.32-1.23,2.22c0,0.88,0.33,1.64,0.99,2.28c0.66,0.64,1.49,0.96,2.51,0.96
				c1.13,0,2.22-0.37,3.25-1.12c0.76-0.57,1.26-1.26,1.5-2.08c0.16-0.54,0.25-1.56,0.25-3.07V68.58z"/>
			<path class="st7" d="M116.58,52.99v-5.82h6.29v5.82H116.58z M116.58,80V56.22h6.29V80H116.58z"/>
			<path class="st7" d="M129.32,80V47.17h6.29V80H129.32z"/>
		</g>
	</g>
	<g>
		<path class="st7" d="M170.21,47.28l-8.24,10.44h0.34c2.84,0,5.27,1.03,7.3,3.09c2.03,2.06,3.04,4.76,3.04,8.12
			c0,3.67-1.25,6.66-3.76,8.98c-2.51,2.31-5.61,3.47-9.31,3.47c-3.73,0-6.87-1.17-9.41-3.52c-2.54-2.35-3.81-5.26-3.81-8.74
			c0-3.57,1.66-7.6,4.98-12.07l7.13-9.77H170.21z M162.31,66.19c-0.73-0.73-1.66-1.1-2.78-1.1c-1.12,0-2.04,0.36-2.75,1.08
			c-0.72,0.72-1.08,1.65-1.08,2.8c0,1.12,0.36,2.03,1.08,2.73c0.72,0.7,1.64,1.05,2.75,1.05c1.12,0,2.04-0.35,2.78-1.05
			c0.73-0.7,1.1-1.61,1.1-2.73C163.41,67.85,163.04,66.93,162.31,66.19z"/>
		<path class="st7" d="M205.11,56.31c-0.74-1.71-1.77-3.22-3.08-4.53c-3.02-3-7.13-4.5-12.33-4.5h-16.04V80.8h16.04
			c5.17,0,9.27-1.5,12.31-4.5c1.51-1.5,2.65-3.26,3.41-5.3h-10.19L205.11,56.31z M189.37,71.84h-5.51V56.23h5.51
			c2.04,0,3.65,0.7,4.84,2.11c1.18,1.41,1.77,3.3,1.77,5.7c0,2.39-0.59,4.29-1.77,5.7C193.02,71.14,191.41,71.84,189.37,71.84z"/>
		<g>
			<polygon class="st2" points="219.76,55.94 228.62,69.16 210.65,52.16 			"/>
			<polygon class="st3" points="228.62,69.16 217.17,69.16 213.66,62.99 210.65,52.16 			"/>
			<polygon class="st4" points="228.25,43.3 219.76,55.94 210.65,52.16 213.66,49.29 			"/>
			<polygon class="st5" points="228.25,43.3 213.66,49.29 216.8,43.3 			"/>
			<polygon class="st3" points="210.48,43.3 213.66,49.29 210.65,52.16 199.03,43.3 			"/>
			<polygon class="st4" points="210.65,52.16 213.66,62.99 198.66,69.16 207.56,55.94 			"/>
			<polygon class="st2" points="213.66,62.99 210.11,69.16 198.66,69.16 			"/>
			<polygon class="st2" points="210.65,52.16 207.56,55.94 199.03,43.3 			"/>
		</g>
	</g>
</g>
</svg>
