<svg xmlns="http://www.w3.org/2000/svg" viewBox="0 0 382.2 358.7"><path fill="#50295F" d="M167 358.7c-54.9 0-101.9-39.1-111.8-93l8.6-1.6C73 313.9 116.4 350 167.1 350c20 0 39.4-5.6 56.2-16.3l4.7 7.4c-18.4 11.6-39.4 17.6-61 17.6zM305.6 91.9C295.4 43.7 252.2 8.8 202.9 8.8c-26.7 0-52.2 10.1-71.7 28.3l-6-6.4C146.3 10.9 173.9 0 202.9 0c53.4 0 100.2 37.9 111.3 90l-8.6 1.9z"/><path fill="#F76E7F" d="M0 61.3h227.6v175.1H0z"/><path fill="#50295F" d="M227.6 236.4l.1-110.5h154.5V301H154.6z"/><path fill="#E92A48" d="M227.6 236.4l-73 64.6v-64.6z"/><path fill="#FFF" d="M227.6 105.9v85.8c-6.3 3.1-13.4 4.8-20.9 4.8-26.4 0-47.7-21.4-47.7-47.7s21.4-47.7 47.7-47.7c7.6 0 14.6 1.7 20.9 4.8z"/><path fill="#FFF" d="M227.5 165.8c25.9.5 46.7 21.7 46.7 47.7 0 26.4-21.4 47.7-47.7 47.7-7.5 0-14.6-1.7-20.9-4.8l22.1-20-.2-70.6z"/><path fill="#50295F" d="M311.9 97l-36-16.9 3.7-7.9 28.2 13.2 13.1-28.2 7.9 3.7zM46.2 298.1l-7.7-4.2L57.7 259l34.9 19.2-4.2 7.6-27.3-14.9z"/></svg>