<svg xmlns="http://www.w3.org/2000/svg" viewBox="0 0 504.4 465"><circle fill="#50295F" cx="253" cy="232.5" r="155.9"/><path fill="#F76E7F" d="M209.9 325.4h-28.4c-4.1 0-7.4-3.3-7.4-7.4v-6.7c0-4.1 3.3-7.4 7.4-7.4h28.4c4.1 0 7.4 3.3 7.4 7.4v6.7c0 4.1-3.3 7.4-7.4 7.4z"/><path fill="#E92A48" d="M450.5 205.5h53.9v53.9h-53.9zM0 205.5h53.9v53.9H0z"/><path fill="#50295F" d="M253 465c-112.2 0-208.4-80-228.7-190.2l8.6-1.6C52.4 379.3 145 456.3 253 456.3c42.6 0 84-12 119.7-34.7l4.7 7.4c-37.2 23.6-80.2 36-124.4 36zm219-279.1c-10.5-49.4-37.9-94.4-77.2-126.6C355 26.6 304.6 8.7 253 8.7c-57 0-111.3 21.4-152.9 60.4l-6-6.4C137.3 22.3 193.7 0 253 0c53.6 0 105.9 18.7 147.3 52.6 40.8 33.5 69.3 80.2 80.2 131.5l-8.5 1.8z"/><path fill="#FFF" d="M473.1 205.5h8.7v20.2h-8.7zm-450.5 0h8.7v20.2h-8.7z"/><path fill="#F76E7F" d="M408.9 232.5c0 21.7-4.4 42.3-12.4 61.1h-27.3c-2.6 0-5.1-1.1-6.8-2.8-1.7-1.7-2.8-4.1-2.8-6.8 0-5.3-4.3-9.6-9.6-9.6h-13.1c-3.9 0-7.5-1.6-10.1-4.2s-4.2-6.1-4.2-10c0-7.8 6.4-14.2 14.2-14.2h31c6.8 0 12.3-5.5 12.3-12.3v-4.6c0-3.4-1.4-6.4-3.6-8.7-2.2-2.2-5.3-3.6-8.7-3.6-6.8 0-12.3-5.5-12.3-12.3V176c0-3.9-1.6-7.4-4.1-10-2.6-2.6-6.1-4.1-10-4.1h-7c-6.3 0-12-2.6-16.2-6.7-4.2-4.1-6.7-9.9-6.7-16.2 0-12.7 10.3-22.9 22.9-22.9h22.3c32 28.6 52.2 70.2 52.2 116.4zm-129.2-7.4c0 6.3-2.5 12-6.6 16.2s-9.7 6.8-16 6.9l-12 .2c-9.4.2-17 7.9-17 17.3 0 4.8-1.9 9.1-5.1 12.2-3.1 3.1-7.4 5.1-12.2 5.1H105.5c-5.4-15.8-8.4-32.8-8.4-50.5 0-42.3 16.9-80.7 44.2-108.8h73.4c12.2 0 22.1 9.9 22.1 22.1 0 6.1-2.5 11.6-6.5 15.6s-9.5 6.5-15.6 6.5H208c-9.4 0-17 7.6-17 17 0 4.7 1.9 9 5 12.1s7.4 5 12.1 5h48.5c12.8 0 23.1 10.3 23.1 23.1z"/></svg>