<svg xmlns="http://www.w3.org/2000/svg" width="550" height="577" fill="none" viewBox="0 0 550 577"><path fill="#fff" d="m192.33 471.907.577-.025 7.109 1.405 4.031 1.694 1.341-11.176 10.747 5.296 1.918-11.202 8.824 5.068 2.622-8.808 6.185 5.248 2.639-6.362 6.987 22.78 5.965 17.665-2.833.812-33.862 9.355-2.896-3.722z"/><path fill="#fff" d="m242.626 473.917 159.356-38.851 30.037 29.257-234.193 62.805 9.769-40.537z"/><path stroke="#fff" stroke-linecap="round" stroke-linejoin="round" stroke-width="7" d="M416.043 325.477c.732 2.036.363 4.81.161 6.842-.122 2.829-.602 5.629-1.191 8.457-2.018 8.892-6.149 17.254-11.623 24.895-2.156 3.095-4.697 6.051-7.429 8.704-1.766 1.832-3.865 4.213-6.424 5.191l-.11.027-.58.492a6569 6569 0 0 0 8.806 27.816c.027.11.269 1.1-.036 1.758s-1.295.901-1.295.901c-5.391 1.322-10.728 2.865-16.008 4.16l6.355 22.585 14.963-3.67s.193-.164.33-.081l.22-.054c.22-.054.411.249.656.773 2.244 2.015 4.321 4.305 6.345 6.375 2.325 2.345 4.733 4.554 7.141 6.763 4.953 4.5 10.154 8.59 15.08 12.98.328.386.656.773.901 1.296.301.276.654 1.239.679 1.816l.135.55L444.902 514c.216.88-.282 1.702-1.162 1.918l-227.733 55.855a1.59 1.59 0 0 1-1.864-.943c-2.609-6.358-12.977-34.841-16.207-43.729-.11.027-.274-.166-.411-.249a3.46 3.46 0 0 1-.621-2.531c.658-5.877 2.277-11.639 4.034-17.318 1.451-5.022 2.846-9.796 4.16-14.901-.874-1.185-1.638-2.397-2.512-3.582-1.856-2.811-3.822-5.595-5.787-8.379l-2.784-4.216c-.955-1.515-1.579-3.111-2.314-4.681l-.054-.22c.328.386.739.635 1.04.912l-.054-.22c2.005.091 3.817.346 5.683.822.988.224 1.866.475 2.771.836.795.388 1.7.75 2.634.754-.047-1.621.125-3.297.324-4.862.175-2.142.486-4.201.798-6.26.139-.384.305-.658.716-.409 3.261 1.883 6.688 3.491 10.115 5.1.51-3.624 1.048-7.138 1.559-10.763.139-.384.305-.658.716-.409 2.794 1.881 5.644 3.515 8.604 5.121.426-3.02 1.262-5.791 2.593-8.45-.054-.22.276-.301.55-.135 2.082 1.356 4.025 3.095 5.664 5.026l2.417-5.842c.278-.768.176-2.609 1.013.802.836 3.41 2.14 6.823 3.196 10.18s2.086 6.603 3.143 9.959c4.401-1.079 8.691-2.131 13.038-3.431l-.216-.88c-1.258-1.324-1.688-3.552-2.092-5.202-.65-2.173-1.437-4.43-1.976-6.63-1.3-4.347-2.709-8.667-3.953-13.261-1.133-4.62-2.569-9.05-3.923-13.617l-.081-.33-14.412 3.535c-.55.135-1.098-.198-1.123-.775l-6.702-31.131c-9.339 5.673-19.361 10.464-29.706 13.934-6.55 2.307-13.344 4.089-20.245 5.432-3.411.837-6.846 1.096-10.255 1.466-3.875.367-7.558.57-11.402.114l-2.088.045.162.66c.027.11-.193.164-.193.164.054.22-.166.274-.22.054-2.363-6.302-2.964-13.036-2.933-20.042a64.5 64.5 0 0 1 3.388-20.426c2.032-5.98 4.859-11.572 8.371-16.75 4.065-5.779 8.868-10.922 13.206-16.535 8.401-10.925 15.104-23.066 19.997-35.93 2.418-6.309 4.782-12.837 8.488-18.178s8.093-9.8 13.386-13.897c5.294-4.098 11.324-7.093 17.381-9.978 6.387-2.967 13.019-5.41 19.678-7.743l-2.213-9.021c-1.295-5.281-3.443-10.236-5.261-15.272-3.535-2.049-6.794-4.399-9.887-7.023-5.447-4.613-9.845-10.182-13.638-16.134-.355-.496-.6-1.019-.955-1.515-.28 1.235-1.602 2.026-3.032 2.377-2.311.566-4.617.199-6.811-.663-3.784-1.638-7.481-4.347-10.188-7.298-2.707-2.952-4.448-6.724-4.622-10.764-.067-3.599.859-7.909 4.984-8.687 1.787-.322 3.9.21 5.654 1.179-8.6-12.237-17.337-24.557-24.724-37.558-.982-1.626-1.854-3.278-1.956-5.119-.261-2.969 1.4-5.709 3.004-8.202 4.343-6.547 9.013-12.708 14.122-18.51 7.207-8.182 13.646-16.643 19.265-26.07 3.83 3.727 8.847 6.112 14.063 6.932a19.66 19.66 0 0 1-5.787-8.378c5.993 5.412 13.837 8.387 21.659 10.317 7.821 1.931 15.894 2.984 23.632 5.051.741.169 2.36.588 3.921 1.721 3.45 2.653 3.98 7.189 4.245 9.223 3.753 33.371 3.747 34.773 3.799 35.46-.015 3.269.049 7.336.056 12.116.942-1.864 2.542-3.423 4.577-3.688 3.491-.507 6.115 2.582 7.31 5.555 1.495 3.715 1.916 7.811 1.597 11.738-.318 3.461-1.163 8.1-3.839 10.506-1.71 1.586-5.316 3.054-7.481 1.835.507 3.492.876 6.9 1.163 10.446.471 5.249-.102 10.522-1.086 15.545-.59 2.828-1.152 5.765-2.126 8.453 1.034 2.313 1.655 4.843 2.495 7.32 1.005 2.669 1.9 5.366 3.014 8.008 1.115 2.643 2.283 5.505 3.591 7.984.49 1.046 1.2 2.038 1.717 3.195 2.258-1.254 4.816-1.765 7.29-2.138 2.804-.455 5.773-.716 8.658-.841 5.524-.305 11.047-.61 16.569-.448 4.834.214 9.64.785 14.221 2.344 4.17 1.31 8.145 3.251 11.871 5.603 7.89 5.063 14.84 11.523 21.652 17.9a950 950 0 0 1 22.624 21.861 867 867 0 0 1 10.993 11.534c3.637 3.89 7.493 7.726 10.661 12.081.027.11.297 1.211.241 1.458zm0 0 .11-.027"/><path fill="#DBDFFA" d="M313.24 65.162c-.759-2.147-1.106-4.51-1.646-6.711-.539-2.2-1.106-4.511-1.316-6.792-.585-4.289-.84-8.659-.655-13.136.367-8.488 2.19-16.75 4.89-24.76 1.476-4.445 3.336-8.75 5.47-12.89-4.127 7.428-7.375 15.106-9.308 23.395s-2.414 17.738-1.3 26.562c.374 2.475.721 4.84 1.424 7.233.621 2.53 1.655 4.843 2.578 7.182l-.11.027zM322.992 59.271c-2.982-15.014-1.045-30.42 4.485-44.489 1.556-4.114 3.497-8.09 5.602-11.871l-.054-.22c-4.479 6.464-7.697 13.318-9.681 20.92-1.985 7.601-2.842 15.043-2.465 22.765q.384 6.554 1.756 12.866c.108.44.492.58.44-.108zM77.284 79.878c8.39 3.774 16.116 8.644 23.593 13.925s14.1 10.888 20.336 17.29c3.419 3.478 6.755 7.092 9.98 10.733l-.054-.22c-5.324-7.442-11.641-14.174-18.592-20.167-6.952-5.993-14.018-11.025-21.939-15.264-4.413-2.3-9.019-4.437-13.598-6.463zM86.764 73.354c3.782 2.105 7.535 4.567 11.178 7.056 3.643 2.49 7.012 4.812 10.352 7.492 6.706 5.47 12.751 11.569 18.326 18.133 3.143 3.778 6.176 7.583 8.795 11.606-4.444-7.658-9.687-14.77-15.896-21.062-6.208-6.292-12.805-11.789-20.147-16.52-4.027-2.628-8.359-4.598-12.691-6.568z"/><path fill="#fff" d="M464.473 246.649c1.499 2.781 4.417 7.547 9.976 11.666 4.573 3.427 9.044 5.013 11.898 5.713a34.8 34.8 0 0 0-7.435 10.105c-3.467 7.265-3.579 13.941-3.347 17.266-2.019-3.003-5.324-7.441-10.526-11.531-5.038-3.896-9.864-5.979-13.21-7.257 2.29-2.078 5.41-5.526 8.013-10.13a39 39 0 0 0 4.851-15.886z"/><path fill="#000" d="M464.5 246.759c3.668 9.248 12.62 16.266 22.171 18.589l-.648-2.64c-1.656 1.806-3.477 3.418-4.832 5.501-1.825 2.546-3.238 5.343-4.268 8.278a34.7 34.7 0 0 0-1.96 14.36l.991-.243c-1.31-2.011-2.483-3.94-4.069-5.65-1.941-2.207-4.075-4.249-6.485-5.991-2.409-1.742-4.518-3.207-7.234-4.291-2.194-.861-4.498-1.696-6.526-2.832l.378 1.541c1.928-1.173 3.475-2.952 4.911-4.704 1.769-2.3 3.347-4.903 4.677-7.562 2.08-4.359 3.255-9.08 3.606-13.831.002-.467-.077-1.264-.405-1.65-.301-.277-.548-.333-.66.161a43 43 0 0 1-3.575 13.007c-1.22 2.633-2.688 5.209-4.566 7.536-1.41 1.862-3.093 3.557-4.476 5.529-.276.301-.006 1.402.378 1.541 2.086.421 4.334 1.503 6.115 2.582 2.356 1.522 4.876 3.237 7.066 5.032 2.19 1.796 4.324 3.838 6.128 5.962 1.449 1.628 2.897 3.255 4.043 5.073.382.607 1.069.555.99-.242-.199-4.617.453-9.092 1.983-13.317 1.029-2.935 2.47-5.621 4.185-8.141 1.299-1.835 2.792-3.834 4.446-5.173.579-.492-.044-2.555-.648-2.64-4.637-1.312-9.133-3.475-12.911-6.515-3.477-2.763-6.181-6.182-8.693-9.764-.218-.414-.249.411-.222.521z"/><path fill="#fff" d="M379.496 141.755c-.297-1.21-1.542-5.337-5.65-8.295-3.998-2.985-8.201-3.004-9.466-2.927 1.296-.901 3.199-2.651 4.64-5.337 2.742-4.988 1.885-9.91 1.507-11.45 1.42 1.985 3.826 4.66 7.469 7.149 3.478 2.296 6.715 3.602 8.965 4.217-1.296.901-4.162 3.003-6.02 6.841-2.08 4.36-1.796 8.372-1.528 9.939l.11-.027z"/><path fill="#000" d="M379.743 141.811c-.479-3.381-2.553-6.605-5.181-8.76s-3.78-2.572-6.003-3.076c-1.372-.363-2.746-.26-4.174-.376l.431 1.76c3.031-1.909 5.246-5.718 6.141-9.204.699-2.854.685-5.766.093-8.654l-.498.822c2.103 2.867 4.427 5.213 7.358 7.176 1.534 1.024 3.124 1.8 4.798 2.44a48 48 0 0 1 4.471 1.586l-.27-1.1c-3.11 1.112-5.462 4.838-6.601 7.8s-1.484 6.313-1.086 9.364c.162.66.791 1.323.658.305-.398-3.051.137-6.098 1.414-8.977a15.7 15.7 0 0 1 3.263-4.766c.938-.93 1.903-1.75 2.842-2.68.193-.164-.023-1.044-.27-1.1-1.428-.117-2.991-.783-4.197-1.42-1.754-.97-3.535-2.049-5.123-3.293-2.547-1.825-4.982-4.143-6.894-6.707-.355-.496-.66.162-.552.602.621 2.53.444 5.14-.226 7.637-.559 2.003-1.418 3.73-2.661 5.318-.885 1.15-2.043 2.134-3.091 3.091-.386.328-.009 1.868.541 1.733 1.101-.269 2.363.121 3.461.318 1.976.448 3.786 1.171 5.457 2.277 2.794 1.881 4.65 4.692 5.872 7.774.054.22.274.166.22-.054l-.22.054z"/><path fill="#fff" d="M73.794 407.086c-1.12-1.708-2.95-3.942-5.66-5.96-3.15-2.377-6.166-3.736-8.196-4.405 1.241-1.121 2.842-2.68 4.28-4.899 2.85-4.548 3.145-9.052 3.072-11.251.351 1.431 1.792 4.926 5.406 7.772 3.203 2.597 6.607 3.162 8.035 3.278-1.353 1.615-3.012 3.888-4.345 7.014-1.525 3.291-2.198 6.255-2.592 8.451"/><path fill="#000" d="M73.877 406.949c-1.499-2.782-3.824-5.127-6.288-7.089-2.273-1.659-4.903-3.346-7.73-3.936l.378 1.54c1.407-1.395 2.649-2.516 3.782-4.076.94-1.398 1.744-2.878 2.3-4.414.974-2.688 1.26-5.324 1.41-8.043l-.769-.279c.756 3.081 2.585 5.782 5.049 7.743 1.478 1.271 3.068 2.047 4.96 2.633 1.263.39 2.635.753 3.897 1.143l-.297-1.21c-2.096 1.914-3.593 4.847-4.73 7.342s-1.948 5.377-2.29 8.26c.08.33.404 1.65.683.882.506-2.69 1.26-5.324 2.397-7.819 1.194-2.742 2.99-4.932 4.457-7.509.166-.274.033-1.291-.297-1.21-2.941.372-5.926-1.812-8.116-3.608-2.217-1.905-3.882-4.413-4.913-7.193-.108-.44-.766-.745-.714-.058.153 2.529-.49 5.136-1.435 7.467-1.14 2.962-3.242 6.277-5.779 8.299-.386.328.104 1.374.378 1.54 2.605 1.111 5.21 2.222 7.51 3.99s4.187 3.755 6.21 5.825c.055.22-.08-.33-.08-.33z"/><path fill="#fff" d="M85.68 193.524c-.87-2.12-3.538-7.764-9.92-11.914-6.11-3.983-12.235-4.231-14.57-4.241 2.372-2.215 5.795-5.854 8.593-11.089 3.382-6.661 4.123-12.675 4.194-16.191.896 2.229 3.59 7.983 9.753 12.187 5.478 3.789 10.888 4.445 13.387 4.648-2.15 1.694-6.234 5.495-8.926 11.637-2.858 6.416-2.856 12.131-2.622 14.99z"/><path fill="#000" d="M85.68 193.523c-1.599-5.089-5.15-9.584-9.506-12.598-2.684-1.908-5.727-3.377-8.938-4.106a21.3 21.3 0 0 0-3.624-.511c-.934-.004-1.841.102-2.692-.039l.54 2.2c1.984-1.42 3.586-3.446 4.996-5.308 1.768-2.3 3.236-4.876 4.457-7.508 2.219-4.743 2.983-9.713 3.583-14.875l-1.016-.334c1.71 4.596 4.824 8.731 8.712 11.743a21.7 21.7 0 0 0 8.719 4.16 42 42 0 0 0 3.458.785c.988.224 1.922.228 2.8.479l-.35-1.43c-1.763.899-3.144 2.404-4.414 3.882-2.016 2.244-3.593 4.847-4.787 7.589-2.192 4.853-2.985 10.18-2.624 15.456.081.33.16 1.128.571 1.377s.44-.108.47-.465c-.308-5.057.676-10.081 2.702-14.66 1.22-2.632 2.715-5.098 4.62-7.315 1.271-1.478 2.678-2.873 4.059-4.378.276-.301-.02-1.511-.35-1.43-1.815.212-4.148-.266-5.821-.905-2.852-1.167-5.702-2.801-8.25-4.625-3.75-2.929-6.563-6.788-8.55-11.083-.271-.633-1.093-1.132-1.043.023.006 4.78-1.472 9.692-3.415 14.134a33.7 33.7 0 0 1-4.65 7.672c-1.437 1.752-2.927 3.284-4.5 4.953-.36.438-.01 2.335.786 2.256 1.815-.212 3.928.32 5.657.712 2.964.673 5.926 1.813 8.556 3.5 4.274 2.684 7.444 6.573 9.814 11.007.108.44.33-.081.276-.301l-.22.054z"/><path fill="#DBDFFA" d="M-.343 255.562c12.286-1.264 24.834.44 36.69 3.598 11.854 3.158 23.536 7.99 34.776 13.398 6.334 2.996 12.584 6.128 18.778 9.508.137.083.056-.247-.081-.33-5.507-3.432-10.877-6.78-16.633-9.801s-11.458-5.82-17.52-8.183c-11.408-4.667-23.593-7.743-35.869-8.815-6.783-.552-13.598-.28-20.388.569l.08.33zM23.892 242.619c19.85 2.946 38.854 10.999 55.204 22.502 4.382 3.124 8.791 6.358 12.924 9.893-7.055-7.367-15.078-13.447-23.875-18.405-8.66-4.874-17.902-8.789-27.48-11.222-5.487-1.453-11.088-2.413-16.744-3.125l.108.44zM418.767 188.693c2.288-20.157 9.381-39.742 19.98-56.921 2.989-4.932 6.389-9.615 9.98-13.995-13.393 15.298-22.954 33.856-27.438 53.618-1.289 5.681-2.084 11.475-2.632 17.325l.027.11zM426.209 201.914c5.133-23.77 15.757-46.554 30.651-65.72 4.255-5.476 8.895-10.813 13.862-15.764l-.027-.11c-18.234 16.486-32.092 37.497-39.751 60.954-2.201 6.721-3.687 13.501-4.789 20.42l.027.11zM552.214 409.416c-13.712-24.047-38.744-41.935-66.366-45.657-7.963-1.08-15.711-.812-23.574.417l.054.22c7.007-.436 14.314-.129 21.316.837 7.001.965 13.644 2.368 20.172 4.733 12.728 4.343 24.647 11.567 34.221 21.116 5.442 5.547 10.223 11.723 14.314 18.417l-.11.027z"/><path fill="#DBDFFA" d="M526.935 403.836c-14.658-15.067-33.787-26.005-54.372-30.52-5.681-1.29-11.531-1.838-17.382-1.919l.081.33c20.896 2.456 41.143 8.921 58.26 21.169 4.683 3.4 9.173 6.964 13.33 11.077-.027-.11.11-.027.11-.027zM76.684 529.196c.83-13.733 4.544-27.124 11.274-39.156s16.143-22.154 27.087-30.32c6.312-4.698 13.337-8.87 20.604-12.052l-.054-.22c-6.906 2.277-13.293 5.243-19.301 9.282-5.814 3.876-11.082 8.55-15.775 13.667-9.443 10.481-16.065 22.952-20.109 36.424-2.175 7.299-3.473 14.849-3.726 22.375"/><path fill="#DBDFFA" d="M96.539 512.663c6.462-19.78 18.821-37.391 34.514-50.921 4.523-3.909 9.127-7.487 14.032-10.79l-.081-.33c-18.395 9.644-32.811 26.476-42.042 44.953-2.745 5.455-4.858 11.106-6.56 17.005l.027.11z"/><path fill="#000" d="M419.786 453.443c6.159-1.044 12.322-3.022 18.483-4.533s12.268-3.242 18.291-4.836c12.268-3.242 24.453-6.347 36.64-9.919 6.877-1.92 13.756-4.307 20.633-6.227-6.188 1.401-12.43 2.582-18.618 3.983l-18.482 4.533c-12.322 3.022-24.453 6.347-36.721 9.589-6.904 1.81-13.972 3.427-20.741 5.787-.33.081.021 1.511.378 1.54zM106.01 532.734c3.243-.095 6.543-.904 9.624-1.66l9.241-2.267c6.161-1.511 12.212-2.995 18.319-4.726 12.268-3.242 24.508-6.594 36.778-10.303a334 334 0 0 0 20.388-6.75l-.107-.44c-12.376 2.802-24.563 6.374-36.887 9.863-12.214 3.462-24.482 6.704-36.859 9.973-3.521.864-6.931 1.7-10.398 2.784s-7.041 1.727-10.263 3.333l.054.22z"/><path fill="#fff" d="m291.444 172.216.54 2.2c.724 3.905 1.008 7.917-.189 11.594-1.31 4.17-5.31 7.834-9.541 7.705-.22.054-.577.025-.824-.031 2.348 9.571 2.055 19.791-.762 29.229-.363 1.373-.946 2.799-1.063 4.227.027.11.054.22-.002.467-.085.604.077 1.264.129 1.951.16 1.127.54 2.201.81 3.301 2.272 7.84 5.535 15.438 9.488 22.516.054.22.245.524.409.717.436.826.817 1.432 1.226 2.148.054.22.218.413.382.606.054.22.218.413.382.606l.189.771c2.746 6.441-.56 14.833-5.584 20.031-.11.027-.276.301-.386.328l-.22.054c-1.71 1.586-3.695 3.006-5.924 3.902-.22.054-.44.108-.633.272-1.157.517-2.367.814-3.467 1.084-3.52.863-7.284.737-10.713-.405-7.352-2.396-13.202-9.126-14.157-16.823-.107-.44-.132-1.017-.13-1.484l-.081-.33c-.108-.44-.106-.907-.104-1.375l-.075-1.731-.108-.44c-.108-.44.005-.934-.13-1.484-.104-1.374-.235-2.858-.586-4.289-.992-5.472-3.111-10.784-5.204-15.986-.134-.55-.489-1.046-.734-1.569-.299-.743-.681-1.349-1.2-2.039-.054-.22-.301-.276-.465-.469 0 0-.164-.193-.274-.166-.766-.745-1.752-1.436-2.711-2.018a76.3 76.3 0 0 1-21.088-21.304c-.027-.11-.19-.303-.327-.386.026.11-.057.247-.14.384-.527 1.179-2.177 1.583-3.605 1.467-3.681-.264-7.108-1.872-10.369-3.755-3.288-1.993-6.547-4.343-8.537-7.704s-2.273-7.84.131-10.879 7.763-3.537 9.947-.34l-.432-1.761c-.652-1.706-1.304-3.412-1.818-5.036-1.277-3.302-2.008-5.806-3.367-8.971l.166-.274c-2.964-6.855-5.185-14.008-6.746-21.324-.432-1.76-.891-3.63-.498-5.359.398-3.131 2.553-5.759 4.816-7.946 3.946-3.884 8.494-7.216 13.314-9.914 5.673-3.025 11.809-5.113 17.862-7.064 6.356-2.142 12.822-4.311 19.205-6.343 3.246-1.03 6.576-2.196 9.982-2.099 3.406.098 6.973 1.323 8.965 4.217 1.501 2.314 1.736 5.173 1.916 7.811a158.5 158.5 0 0 0 5.744 30.55c.242.99.485 1.98.838 2.944 1.057 3.356 2.086 6.603 3.253 9.932l.189.771c.251-.878.502-1.757.89-2.552.527-1.179 1.192-2.275 2.157-3.095 1.627-1.448 4.021-2.152 6.022-1.127 2.028 1.136 2.758 3.639 3.188 5.867z"/><path fill="#DBDFFA" d="M250.81 264.761c.243.991.293 2.145.673 3.218.323 1.32 1.17 2.395 1.934 3.608 1.966 2.783 4.262 5.486 6.697 7.805 1.969 1.85 4.132 3.535 6.517 4.7 4.744 2.219 10.238 2.271 15.486 2.267-4.169-1.777-7.091-5.609-9.464-9.576-6.192-10.028-10.397-21.944-8.807-33.531-.17 1.208-10.765-1.092-11.78-1.426-1.893-.586-3.703-1.308-5.457-2.278-1.343-.72-2.711-2.017-4.083-2.381.297 1.21 1.198 2.506 1.825 3.635 1.033 2.313 1.764 4.816 2.468 7.209 1.706 5.53 3.302 11.087 4.128 16.833z"/><path fill="#fff" d="m416.016 325.367-.561 8.652-4.388 16.822-10.406 17.016-11.261 11.626-.553.602-4.554 4.733-.654-7.421-1.888-20.065-.079-.797-.341-3.766.43-3.954.965-7.002.032-.824.17-1.208.029-.357 1.193-8.924-6.75-14.207-.054-.22-.054-.22-.191-.303-.272-.634-1.66-3.441 4.799-4.21 10.012-8.637.772-.656 3.91 4.056 1.094 1.131.164.193 19.417 20.199.272.633z"/><path fill="#2C49E6" d="M386.91 438.762c-11.933-41.045-23.893-82.201-35.716-123.273l19.439 15.06c.785-3.458 3.238-11.525 10.605-18.58 5.657-5.47 11.739-7.778 15.012-8.698-15.2-16.8-29.353-28.375-39.595-35.894-13.089-9.619-19.287-12.065-23.925-13.377-17.121-5.132-32.772-.943-41.137 2.042 3.161 11.938-1.889 23.208-10.203 26.88-9.91 4.296-20.477-4.076-21.764-5.043-5.804-4.642-7.948-10.531-8.733-13.255-5.97 1.815-14.225 4.772-23.315 10.034-7.548 4.418-17.353 10.089-25.202 20.411-8.264 11.008-6.45 16.978-14.047 32.605-5.713 11.899-12.785 20.631-18.306 26.651l-.054-.22c3.24.372 10.762 1.559 18.183 7.087 6.736 5.113 9.978 11.2 11.311 14.255 7.379-9.858 14.786-19.605 22.165-29.463 12.236 40.854 24.711 83.633 36.948 124.488z"/><path fill="#DBDFFA" d="M192.802 365.884c3.062 3.448 5.079 6.919 6.441 9.617-9.615-.208-19.539 1.177-27.94 5.92-1.845 1.036-3.554 2.155-5.071 3.576-1.407 1.395-2.624 3.093-3.73 4.764-2.655 3.917-4.789 8.057-7.334 11.947.394-2.197.928-4.777 1.874-7.575s1.864-5.239 2.89-7.241c.724-2.277 2.113-5.65 5.094-8.714 3.975-4.241 7.604-4.664 13.088-8.458 2.37-1.748 5.762-4.563 9.189-9.136 1.725 1.327 3.695 3.176 5.609 5.273z"/><path fill="#223ABD" d="m351.847 316.728-.22.054c.11-.027.247.056.384.139 0 0-.053-.22-.164-.193m30.664-6.704c-.301-.276-.492-.579-.793-.856-.629-.662-1.258-1.324-1.75-1.903-11.622-12.196-27.641-24.246-48.498-29.395-1.756-.502-3.595-.868-5.297-1.15.612 4.399 1.527 14.788-3.961 25.699-6.375 12.527-17.474 18.632-25.206 21.345-7.043 2.194-24.368 5.743-44.783.019-15.668-4.438-26.208-12.7-31.626-17.67-5.439 12.065-12.503 25.111-21.684 38.56-3.761 5.588-7.631 10.736-11.361 15.5.164.193.438.359.712.525 1.752 1.437 3.859 3.369 5.854 5.796 2.487 3.006 4.205 5.734 5.376 8.129l.054.22.162.66c.166-.274.442-.575.718-.876l20.482-27.767.249-.411.189.77 3.736 12.38-.5 1.289 1.625 5.2.648 2.64.921 2.807 3.602 11.83 2.545 8.474.485 1.98 10.75 35.271.189.77 11.915 39.067.432 1.76 128.718-31.57-.405-1.65-6.355-22.585-.837-3.411c-.11.027-.706-1.926-.706-1.926l-1.106-4.511-.11.027-1.542-5.337-1.758-6.217-.243-.99-7.736-27.262-.54-2.201-2.082-7.537-.77.189c-.44.108-1.017.133-1.484.131-15.392 1.442-29.976.47-43.483-1.816 0 0-.22.054-.357-.029-16.802-2.877-31.971-8.138-44.968-14.048 2.915-.481 6.435-1.345 9.987-3.032.164.193.411.249.658.305a178 178 0 0 0 20.589 3.581l1.101-.27c10.47-.585 20.591-3.067 30.742-5.907 2.75-.674 5.337-1.542 8.033-2.437 1.403-.461 2.779-1.031 4.156-1.602.274.166.768.278 1.181.06 1.596-.625 3.246-1.029 4.897-1.434l2.2-.54c2.64-.647 5.335-1.075 7.919-1.476.55-.135 1.21-.296 1.787-.321l1.43-.351c1.321-.324 3.189-.316 4.291-1.052l.11-.027c.882-.683 1.355-2.082 1.854-2.904.886-1.618 1.772-3.235 2.549-4.825.305-.658.72-1.343 1.025-2.001.166-.274.305-.658.444-1.042.276-.301.663-.629.939-.93 1.158-.984 2.399-2.105 3.668-3.115.22-.054.276-.301.496-.355l.55-.135zm-27.975 13.859c-.33.081-.524.245-.827.436-.33.081-.633.272-.936.463-.22.054-.44.108-.633.272-.189-.77-.405-1.65-.347-2.364l-.477-3.849-.32-2.254s.11-.027.247.056c0 0 .11-.027.247.056.11-.027.247.056.384.139a9 9 0 0 1 2.276 1.191c1.644.997 3.038 2.404 4.13 4.003l-.44.108c-1.156.517-2.285 1.143-3.441 1.66z"/><path fill="#fff" d="m293.894 362.434-.88.216c.027.11-2.726 1.252-2.726 1.252l-8.174 3.288-21.661 8.695-2.424 1.527-.607.382-6.171 3.847-1.212.764-3.664 2.181-4.876 2.946-.606.382-1.322.79-1.019.6-3.444 2.128-.606.382-.11.027-11.351 6.983-12.589 7.636-7.218 4.337-2.121 1.336-2.971.729-7.205 1.534-31.516 7.03-4.071.998-3.325.233-2.061.155-.22.054c-.806-4.234-1.474-8.386-2.252-12.511-.048-1.621-.123-3.352-.031-5.358.076-4.917.791-11.041 2.881-17.735 2.593-8.451 6.275-14.836 9.233-18.944l10.609-13.333.277-.301.166-.274.878.251 1.015.335 7.682 2.314.22-.054c.054.22.301.276.438.359 1.754.97 3.919 2.189 6.055 3.764.986.691 1.862 1.41 2.765 2.238 1.204 1.104 2.408 2.209 3.365 3.257l.054.22c1.914 2.097 3.47 4.164 4.643 6.093.546.799.955 1.515 1.364 2.231l.054.22c-.166.274-.332.548-.635.739l.88-.216c.027.11 6.074-.44 6.074-.44l19.786-7.302 1.019-.6.11-.027.909-.573 6.695-4.091 20.909-12.71 12.533-1.208 17.605 7.58.905.361 1.287.967 6.051 4.698z"/><path fill="#000" d="M257.634 188.44c.081.33.519.689.876.718.33-.081.606-.382.745-.766.195-.631.06-1.181-.102-1.841s-.541-1.733-.95-2.45c-.245-.523-.816-1.899-1.586-1.71s-.772.656-.664 1.096l.485 1.98c.243.99.733 2.037 1.196 2.973M249.034 219.475c1.949.339 3.709-.093 5.498-.882 3.166-1.36 5.702-3.381 7.666-6.312a18.6 18.6 0 0 0 2.94-12.268l-.472.932c4.735 4.087 7.286 11.159 5.144 17.167-.778 2.057-2.188 3.919-4.307 4.789s-4.841 1.187-7.174.709c-1.592-.309-3.265-.948-4.608-1.669-1.617-.886-3.207-1.662-4.631-2.713-.137-.083-.029.357.081.33 2.542 2.759 5.446 4.613 8.959 5.618 2.744.726 5.544 1.206 8.296.064 5.725-2.337 6.172-10.028 5.014-15.226-1.08-4.401-3.591-7.984-6.709-11.185-.328-.386-.496.355-.552.602.311 4.123-.642 8.322-2.965 11.691-1.797 2.657-4.28 4.899-7.226 6.205-1.569.735-3.275 1.386-4.844 2.121z"/><path fill="#000" d="M262.08 220.358c1.322-.791 2.37-1.748 3.365-2.925.911-1.04 1.658-2.273 2.268-3.589 1.194-2.742 1.73-5.789 1.221-8.814-.081-.33-.27-1.1-.627-1.129s-.332.548-.278.768c.689 5.663-1.453 11.67-6.03 15.359zM292.786 259.482s.081.33-.139.384c0 0-.247-.057-.274-.167-.137-.083-.411-.249-.575-.442-.465-.469-.874-1.185-1.229-1.681a33 33 0 0 1-2.372-3.967c-1.335-2.589-2.477-5.341-3.645-8.204-1.169-2.862-2.144-5.889-3.093-8.806-.623-2.063-1.409-4.319-1.949-6.52s-.351-1.43-.43-2.227c-.108-.44.141-.851.442-.575l.054.22c.081.33.272.633.436.826 1.034 2.313 1.655 4.843 2.495 7.32 1.005 2.669 1.9 5.366 3.014 8.008 1.115 2.643 2.283 5.505 3.591 7.984.49 1.046 1.2 2.038 1.717 3.195.245.523.463.936.708 1.459l.054.22c.463.936.842 2.009 1.085 2.999zM204.98 191.556l-.054-.22s.054.22.164.193zM276.179 120.44c3.753 33.372 3.747 34.773 3.799 35.46-.015 3.269.049 7.336.056 12.116-.032.824.047 1.622.016 2.446.108.44-.004.934-.006 1.401q.019 5.069.199 10.798c.054.22.108.44.052.687.108.44-.004.935-.006 1.402l-.162-.661c-1.453-6.875-3.07-13.943-5.181-21.123-.486-1.981-.945-3.851-1.623-5.667-.054-.22-.328-.386-.465-.469-4.868-5.105-9.679-10.457-14.437-15.588.654-4.943 1.445-9.802 2.099-14.745-4.235.806-9.406 2.074-15.048 4.274a88.5 88.5 0 0 0-14.704 7.572 65 65 0 0 0-10.444.696c-9.347 1.359-16.834 4.595-22.094 7.401 2.983 2.651 5.773 5.466 8.452 8.308-1.038 4.803-2.186 9.634-3.196 14.547-.617 2.718-1.234 5.435-1.877 8.042l.162.66c.921 2.807 1.897 5.833 3.23 8.889a135 135 0 0 0 5.795 12.692c-.737-1.103-1.447-2.095-2.047-3.114a32 32 0 0 0-1.091-1.599c-.737-1.102-1.42-1.984-1.966-2.783-.218-.413-.519-.689-.71-.993l-.054-.22c-8.6-12.237-17.337-24.557-24.724-37.558-.982-1.625-1.854-3.278-1.955-5.119-.262-2.969 1.399-5.709 3.003-8.202 4.343-6.547 9.013-12.708 14.122-18.509 7.207-8.183 13.646-16.644 19.265-26.07 3.83 3.726 8.847 6.111 14.064 6.931a19.65 19.65 0 0 1-5.788-8.378c5.993 5.412 13.837 8.387 21.659 10.318s15.894 2.983 23.632 5.051c.741.168 2.36.587 3.921 1.72 3.45 2.653 3.98 7.189 4.245 9.223l-.22.054z"/><path fill="#DBDFFA" d="M223.018 181.883c2.992.783 5.316 3.129 6.788 5.8 1.472 2.672 2.2 5.643 2.929 8.613.729 2.971.782 3.191 1.407 4.787 2.418 6.055 9.104 10.014 15.591 9.356-3.483-1.362-6.659-3.849-8.595-6.989-4.146-6.915-2.265-15.891-4.951-23.513-.814-2.367-2.15-4.488-3.377-6.637-1.337-2.121-2.701-4.353-4.534-6.119s-4.244-3.042-6.717-3.135c-.934-.004-1.841.102-2.64.647-.909.573-1.517 1.422-2.016 2.244-1.272 1.945-2.354 4.194-3.105 6.361-.612 1.783-1.667 4.141-1.675 6.009.072 2.198 1.965 2.784 3.89 2.545 2.391-.236 4.865-.61 7.225-.022zM247.278 169.518c1.727.86 2.835-1.278 8.527-2.324 4.125-.779 6.898-.409 7.261-1.781.278-.768-.458-1.871-1.361-2.699-2.188-2.263-10.672-9.746-14.944-6.715-3.666 2.648-2.717 11.747.463 13.299z"/><path fill="#000" d="M227.861 198.775c.218.413.546.799 1.013.801.44-.108.716-.409.745-.766.195-.631.006-1.401-.155-2.061-.243-.99-.706-1.927-1.142-2.753-.245-.523-.98-2.092-1.75-1.903-.77.188-.855.793-.747 1.233l.539 2.2c.27 1.1.787 2.256 1.387 3.276zM218.541 163.153c-.88.216-1.596.625-1.789.789-6.039 4.864-5.439 12.065-5.439 12.065.26 3.435 1.866 6.657 2.416 6.522s.198-1.098.231-2.389c.185-4.478 2.262-8.37 4.257-12.125 1.109-2.138 2.381-4.083 1.752-4.745-.328-.387-1.098-.198-1.345-.254l-.11.027z"/><path fill="#000" d="M219.691 164.038c2.367-.814 4.395.321 6.256 1.731 1.561 1.133 3.039 2.404 4.324 3.838 2.624 3.089 4.366 6.861 5.557 10.768 1.216 4.484 1.636 9.046 2.302 13.665.504 3.959 1.117 8.357 3.767 11.556 2.186 2.73 5.555 5.053 9.129 4.409l-.054-.22c-3.62-1.444-7.321-3.219-9.035-6.881-1.933-4.075-2.159-8.802-2.991-13.146-1.339-7.837-3.253-16.115-9.023-22.048-2.462-2.429-6.543-5.277-10.149-3.809l-.11.027zM247.181 154.379c.799-.546 1.596-.624 1.87-.458 7.695-.488 12.12 5.192 12.12 5.192 2.186 2.729 3.132 6.113 2.746 6.441-.22.054-.849-.608-1.779-1.547-3.2-3.064-7.315-4.621-11.265-5.985-2.304-.834-4.417-1.365-4.413-2.3-.108-.44.581-.959.801-1.013l-.053-.22z"/><path fill="#DBDFFA" d="M283.232 177.729c.498-.822 1.217-1.698 2.234-1.831.66-.162 1.235.281 1.482.337 1.781 1.079 2.648 3.666 2.584 5.781-.017 3.736-2.856 5.949-3.049 6.113-2.537 2.022-5.283 1.762-5.887 1.677-.293-2.144-.12-3.819.05-5.027.085-.605.649-4.009 2.559-7.16z"/><path fill="#000" d="M280.77 187.664c.33-.081.308-1.125.364-1.372.058-.714.143-1.318.311-2.059.253-1.346.726-2.745 1.337-4.061.61-1.316.72-1.343 1.162-1.918.332-.548.857-1.26 1.491-1.532 1.43-.35 2.661.864 3.481 1.829-.625-1.596-1.441-3.495-3.446-3.587-.934-.004-1.486.598-2.039 1.2-.552.602-.967 1.287-1.355 2.082-.803 1.48-1.443 3.153-1.725 4.855-.141.851-.282 1.702-.203 2.5.051.687.047 1.621.539 2.2l.11-.027z"/><path fill="#000" d="M293.518 181.621c-.318 3.461-1.163 8.1-3.839 10.506-1.71 1.586-5.316 3.053-7.481 1.835a3.1 3.1 0 0 1-1.121-1.241c-.027-.11-.377-1.541.198-1.099.274.167.438.36.685.416 3.234 1.772 7.261-1.781 8.537-4.66 1.555-3.648 2.068-7.739 1.674-11.725-.081-.33-.162-.66-.133-1.017-.162-.66-.214-1.347-.486-1.98-.729-2.971-2.638-6.001-5.964-5.769-1.841.102-3.275 1.387-4.216 2.784a16.6 16.6 0 0 0-1.247 2.522c-.168.741-.336 1.482-.806 1.947l-.053-.22c-.11.027-.191-.303-.191-.303-.081-.33-.162-.66-.133-1.017.006-1.402.425-3.021 1.146-4.364.942-1.864 2.542-3.423 4.577-3.688 3.491-.507 6.115 2.582 7.31 5.555 1.495 3.715 1.916 7.811 1.597 11.738z"/><path fill="#DBDFFA" d="M206.935 209.039c4.027 2.628 8.621 1.385 9.501 1.169-2.584-5.781-5.841-8.598-7.84-10.091-1.26-.857-4.081-2.848-5.596-1.893-.607.382-.858 1.26-.86 1.727-.618 3.184 1.727 7.041 4.905 9.061z"/><path fill="#000" d="m218.674 213.625.161.66c.054.22.081.33-.085.604-.28 1.235-1.602 2.026-3.032 2.377-2.311.566-4.617.199-6.811-.663-3.784-1.637-7.481-4.347-10.188-7.298-2.707-2.952-4.448-6.724-4.622-10.764-.067-3.599.859-7.909 4.984-8.687 1.787-.322 3.9.21 5.654 1.179.137.083.411.249.575.443a7.4 7.4 0 0 1 1.779 1.546c.355.496.71.992.955 1.515l.108.44-.33.081c-.604-.085-1.123-.774-1.561-1.133a9.7 9.7 0 0 0-2.603-1.578c-1.727-.859-3.706-.84-5.468.058-2.175 1.117-2.763 3.477-2.8 5.703a11.96 11.96 0 0 0 1.646 6.711c2.154 3.554 6.098 6.319 9.743 8.341 1.864.942 3.922 1.721 6.091 2.005 1.208.17 2.472.093 3.545-.286.88-.216 1.185-.874 1.627-1.449l.25-.411c.276-.301.629.662.629.662l-.22.054z"/><path fill="#000" d="M202.103 202.176c-.102-1.841.566-3.871 2.79-3.367 1.976.449 3.672 2.132 4.957 3.567 1.284 1.434 2.513 3.116 3.605 4.714.683.882 1.283 1.901 1.966 2.784.492.579 1.146 1.818 1.97 1.849.11-.027.056-.247.056-.247-.324-1.32-1.088-2.532-1.962-3.718-.737-1.102-1.447-2.094-2.183-3.196-1.283-1.902-2.676-3.776-4.428-5.213-1.451-1.16-4.162-3.178-6.09-2.005-1.626.982-1.169 3.319-.681 4.832M250.538 257.946l1.43 5.831c.405 1.651.727 3.438.692 5.196.08.33-.059.714-.088 1.071.054.22-.029.357-.112.494-.299-.743-.571-1.376-.759-2.146l-.891-3.631-2.428-9.901c-1.296-5.281-3.444-10.236-5.262-15.272l-.216-.88-.11.026c-.054-.22-.135-.55.058-.714 0 0-.027-.11.083-.137 0 0 .22-.054.301.277l.054.22c.382.606.654 1.239 1.036 1.845.925 1.872 1.631 3.799 2.447 5.698 1.115 2.643 2.009 5.339 2.848 8.283zM271.491 253.974c5.343-2.944 8.239-11.585 5.42-20.225-.749 1.7-3.408 6.552-9.025 9.329-9.499 4.546-18.732-1.238-19.417-1.653 4.122 12.052 16.357 16.283 23.022 12.549"/><path fill="#000" d="m280.27 182.771.486 1.981c.189.77.378 1.54.346 2.364.216.88.322 1.787.428 2.694.162.661.241 1.458.293 2.145.162.66.186 1.237.238 1.924.507 3.492.903 7.01 1.163 10.446.471 5.249-.102 10.522-1.086 15.545-.59 2.828-1.152 5.765-2.126 8.453-.139.384-.251.878-.5 1.289.027.11-.166.274-.139.384-.556 1.536-1.25 2.989-2.053 4.469 0 0 .027.11-.056.247-2.769 4.879-6.441 8.928-12.409 10.276l-1.21.296c-5.059.774-10.19-.65-14.796-2.786a8 8 0 0 0-1.316-.61c-.932-.471-2.001-1.026-2.96-1.607l-.274-.166c-.137-.083-.274-.166-.521-.222s-.411-.249-.685-.415c-3.535-2.049-6.794-4.399-9.887-7.023-5.447-4.613-9.845-10.182-13.638-16.134-.355-.496-.6-1.019-.955-1.515-.054-.22-.218-.413-.382-.606l-.573-.909c-.408-.717-.79-1.323-1.199-2.039-.191-.303-.409-.716-.6-1.019-1.391-2.342-2.672-4.71-3.952-7.079-.245-.523-.49-1.046-.818-1.432q-.192-.303 0 0c-.899-1.762-1.771-3.415-2.56-5.204l-.734-1.57c-.272-.633-.571-1.376-.953-1.982a111 111 0 0 1-5.239-14.228c-.081-.33-.135-.55-.052-.687.166-.274.496-.355.631.195 2.443 6.633 5.133 13.321 8.429 19.627 3.596 7.05 7.438 14.156 12.025 20.495 4.069 5.651 8.882 10.535 14.524 14.517 4.328 2.904 8.793 5.891 13.675 7.726 5.403 2.058 11.417 2.799 16.787-.035 4.847-2.588 7.836-7.52 9.781-12.429 1.723-4.389 2.788-9.082 3.523-13.695.82-5.216.569-10.52-.013-15.743-1.668-13.937-4.437-27.604-8.113-41.165l-.162-.661c-.054-.22-.025-.577.305-.658.55-.134.766.746.847 1.076.189.77.488 1.513.786 2.256.243.99.596 1.954.839 2.944l.243.99a191 191 0 0 1 4.365 19.224l.22-.054zM267.363 391.219c.558 4.179 2.518 8.364 4.673 11.917 2.235 3.884 5.05 7.276 8.251 10.34 3.037 2.871 6.513 5.634 10.657 6.834 1.262.391 3.896 1.144 4.672-.446.388-.795.067-2.582-1.034-2.312-1.1.269.108.44.108.44.166-.274.276-.301 0 0l-.166.274c-.496.355-.99.242-1.43.35-.824-.031-1.592-.309-2.443-.45-1.646-.529-3.209-1.196-4.716-2.109a36.6 36.6 0 0 1-7.828-6.712c-2.269-2.592-4.481-5.432-6.144-8.407s-2.939-6.277-4.436-9.526l-.054-.22zM416.204 332.319c-.122 2.829-.602 5.629-1.191 8.457-2.018 8.892-6.149 17.254-11.623 24.895-2.156 3.095-4.697 6.051-7.429 8.703-1.766 1.833-3.865 4.214-6.424 5.192l-.11.027-.054-.22c1.88-2.794 4.583-5.09 6.792-7.498 5.521-6.02 10.14-12.868 13.386-20.079 2.08-4.359 3.475-9.133 4.54-13.827.451-2.443.818-4.749 1.159-7.166.199-1.565-.067-3.599.683-5.299.732 2.036.363 4.81.161 6.842zM169.666 354.296c1.042.444 2.36.587 3.485.895 1.345.253 2.717.616 4.006 1.117 3.292 1.058 6.499 2.721 9.32 4.712 4.519 3.207 8.21 7.317 10.991 12.001l1.308 2.478c.054.22.625 1.596 1.038 1.378.936-.462-1.329-3.989-1.601-4.622-2.644-4.601-6.115-8.765-10.36-11.806a37.3 37.3 0 0 0-9.895-5.154c-1.536-.557-3.018-.893-4.61-1.202-1.208-.171-2.58-.534-3.79-.237-1.211.297.108.44.108.44"/><path fill="#DBDFFA" d="M156.069 415.366c2.223.505 4.56.048 6.897-.408 8.773-1.802 17.304-5.061 25.535-8.596 19.323-8.238 37.968-18.293 54.646-31.132 2.302 1.302 4.272 3.152 5.636 5.383-12.751 13.158-28.457 23.309-45.549 30.184-16.982 6.847-35.186 10.612-53.461 11.712-.687.052-2.024-8.251-2.13-9.158-.344-2.832-.797-6.103-.344-9.014 1.422 1.518 1.189 4.374 2.335 6.193 1.391 2.341 3.691 4.11 6.408 4.726z"/><path fill="#000" d="M249.686 381.442s-.11.026-.193.164l-3.145 2.87c-1.71 1.586-3.448 3.062-5.185 4.538-.772.656-1.544 1.312-2.344 1.858-1.075.847-2.04 1.667-3.142 2.403-.193.164-.497.355-.69.519-1.185.874-2.37 1.748-3.665 2.649-2.481 1.775-5.125 3.357-7.633 5.021-9.339 5.673-19.361 10.464-29.706 13.935-6.549 2.306-13.343 4.089-20.245 5.432-3.411.836-6.846 1.095-10.255 1.465-3.875.367-7.558.571-11.402.114 2.42-.594 4.812-.83 7.313-1.094 1.814-.212 3.628-.423 5.416-.745 3.794-.698 7.616-1.285 11.356-2.202 4.978-1.105 9.902-2.429 14.744-4.083a164 164 0 0 0 19.625-7.963 151 151 0 0 0 12.751-6.976c3.857-2.346 7.55-4.884 11.216-7.533l.11-.027c.22-.054.386-.328.606-.382 1.075-.847 2.26-1.721 3.336-2.568.799-.546 1.461-1.174 2.233-1.83a138 138 0 0 0 7.668-6.78l.579-.492c.386-.328 1.092 1.599.706 1.927z"/><path fill="#DBDFFA" d="M398.824 323.751c-7.159 3.623-12.685 10.577-14.615 18.398-4.818-3.95-9.553-8.038-14.371-11.988 1.003-3.045 2.587-7.049 5.381-11.351a48.5 48.5 0 0 1 7.402-8.813c-.112.494-.936 6.644 3.769 11.089 3.311 3.037 8.004 4.102 12.461 2.776z"/><path fill="#000" d="M370.579 330.329c.249-.411.361-.905.5-1.289.169-.741.364-1.372.559-2.003.39-1.262 1.027-2.468 1.555-3.647 1.247-2.522 2.495-5.044 4.153-7.317 2.958-4.108 6.792-7.498 11.199-9.979 1.239-.653 2.479-1.307 3.772-1.741.66-.162 1.266-.544 1.926-.706l.99-.243c.44-.108.55-.135.909-.573.083-.137-.051-.687-.188-.77-.384-.139-.521-.222-.962-.114l-.77.189c-.66.162-1.32.324-1.926.706a21.7 21.7 0 0 0-3.469 1.55c-2.285 1.144-4.379 2.591-6.31 4.231-1.93 1.64-3.78 3.609-5.245 5.718-1.659 2.273-2.907 4.796-4.154 7.318a48 48 0 0 0-1.833 4.415c-.473 1.399-.947 2.798-.706 4.255"/><path fill="#DBDFFA" d="M265.08 398.077c-.173 1.676-.094 2.473-.013 2.803.459 1.87 1.771 3.415 3.029 4.739 3.854 4.303 7.074 9.346 8.203 14.9.135.551.297 1.211.708 1.46s1.181.06 1.54-.378.444-1.042.556-1.536c.121-2.362-1.106-4.511-2.223-6.686-.791-1.323-1.498-2.782-2.482-3.94-1.667-2.041-4.05-3.673-5.194-5.958-.708-1.459-.865-3.054-1.133-4.621-.131-1.484.394-2.196.374-3.707-.075-1.732-.509-3.025-.972-3.961-1.633 2.85-2.084 5.293-2.42 6.775zM273.873 391.605c-.063 1.648.205 3.216.583 4.756 2.51 10.232 10.19 19.195 20.093 22.482-6.893-6.707-12.6-14.756-16.709-23.428-.517-1.157-1.061-2.423-1.578-3.579s-.702-2.861-1.605-3.689c-.554 1.069-.697 2.387-.784 3.458M283.536 368.707c1.268-1.011 3.134-.536 4.504.295 2.329 1.411 4.16 3.645 6.711 4.536 3.182 1.085 6.568-.328 9.295-2.047a14.1 14.1 0 0 1-10.312-4.002c-1.368-1.298-2.46-2.896-3.911-4.057-3.012-2.293-7.049-2.586-10.615-3.811-2.03-.668-4.249-2.107-6.418-2.392 3.499 3.808 7.192 7.451 10.609 11.395l.11-.027z"/><path fill="#000" d="M154.942 403.163c1.824-2.547 3.128-5.317 4.705-7.92 1.578-2.603 3.32-5.013 5.335-7.257 4.501-4.952 10.475-7.701 17.074-8.853 7.065-1.149 14.289-.705 21.355-1.855s14.302-3.508 20.828-6.858c6.223-3.159 11.901-7.118 17.742-10.883a145 145 0 0 1 8.953-5.345c3.084-1.69 6.416-3.323 9.964-4.077 6.544-1.372 12.217 1.786 18.003 4.449 2.906 1.387 6.034 2.253 8.884 3.886 2.549 1.358 4.463 3.455 6.487 5.524s4.02 4.03 6.681 4.893c.631.195 1.345.253 1.977.449.357.029.631.195 1.015.334l.166-.274c-.083.137-.249.411-.443.575-.994 1.177-2.426 1.995-3.912 2.592-2.78 1.032-6.074.44-8.347-1.218-2.273-1.659-5.086-5.518-8.118-3.141-.22.054.187 1.237.27 1.1 3.58-2.045 6.252 2.666 8.745 4.27 2.192 1.329 4.828 1.615 7.385 1.105 1.871-.459 5.366-1.9 5.377-4.235.004-.934-.403-2.117-1.252-2.725-1.123-.775-2.607-.644-3.896-1.144-5.183-2.112-7.878-7.866-12.812-10.388-2.933-1.497-6.171-2.335-9.187-3.695s-5.839-2.884-8.884-3.886c-3.209-1.196-6.533-1.431-9.86-.731-3.658.78-6.989 2.414-10.157 4.24-6.472 3.571-12.509 7.967-18.79 11.84s-12.971 7.031-20.179 9.032c-3.85.944-7.591 1.862-11.603 2.146-3.656.313-7.338.517-10.993.83-4.096.421-8.164.953-11.99 2.474-3.413 1.304-6.416 3.323-8.928 5.922-5.077 4.978-9.256 11.718-11.566 18.467 0 0 .189.77.272.633z"/><path fill="#000" d="M243.805 375.536c2.271 2.125 4.515 4.141 6.234 6.869 1.528 2.424 2.642 5.067 3.757 7.709 1.25 3.193 2.416 6.523 3.556 9.742.487 1.514.975 3.027 1.876 4.322.874 1.186 1.914 2.097 3.091 3.091 4.872 4.171 9.081 8.97 12.519 14.425.6 1.02 1.253 2.259 2.323 2.813 1.069.554 2.225.038 2.642-1.114.89-2.552-.083-6.045-1.117-8.358-1.386-3.275-3.902-5.924-6.418-8.573-1.422-1.518-2.954-3.008-3.356-5.125-.403-2.118-.229-4.26-.274-6.348 0 0-.189-.77-.355-.496-.891 2.551-.876 5.463.101 8.023 1.059 2.889 3.303 4.905 5.354 7.085 2.104 2.399 4.234 5.376 4.907 8.594.243.99.417 5.029-1.719 3.454-.548-.332-.847-1.076-1.119-1.709-.409-.716-.818-1.432-1.337-2.121a61.2 61.2 0 0 0-12.029-13.379c-1.15-.884-2.3-1.769-2.87-3.145-.735-1.569-1.167-3.33-1.792-4.926-1.058-2.89-2.007-5.806-3.286-8.642s-2.586-5.314-4.334-7.685c-1.53-1.957-3.607-4.247-6.104-4.917-.11.027.054.22.08.33z"/><path fill="#DBDFFA" d="M389.674 342.558c-5.32 16.351-3.654 30.756-2.122 38.428-3.776-3.506-10.835-9.939-12.834-11.432-.438-.359-1.15-.884-1.453-.693-.22.054-.031.824.27 1.1.548.332 1.924-.239 6.009-4.507a99 99 0 0 1 2.356-17.023c.926-4.31 2.128-8.92 4.675-13.277 1.468-2.576 4.924-7.506 12.359-11.43-3.18 4.63-6.642 10.961-9.26 18.834"/><path fill="#000" d="M379.874 365.373c.579-.492.529-1.646.724-2.277.198-1.098.505-2.223.565-3.404.312-2.059.65-4.008.961-6.068.567-3.871 1.271-7.659 2.331-11.419 1.061-3.759 2.863-7.35 5.377-10.416 1.243-1.588 2.678-2.873 4.222-4.185 1.654-1.339 3.172-2.761 4.853-3.989l-.081-.331c-1.679.762-3.385 1.414-4.984 2.506-1.708 1.119-3.142 2.404-4.66 3.825-2.815 2.79-5 6.242-6.171 10.029s-1.875 7.574-2.441 11.446c-.258 2.279-.542 4.448-.8 6.727-.257 2.28-.791 4.86-.361 7.087 0 0 .162.66.355.496z"/><path fill="#DBDFFA" d="M378.282 395.973c-.455 3.378.355 6.678.477 10.031a28.8 28.8 0 0 1-.529 7.827c1.801-3.591 3.055-7.514 4.226-11.3.307-1.125.724-2.277 1.032-3.402.697-2.388 1.478-4.912 2.175-7.299.056-.247.112-.494.058-.714s-.328-.386-.602-.552c-1.37-.831-3.535-2.049-4.751-.351s-1.831 3.948-2.059 5.87z"/><path fill="#000" d="M366.753 418.396c.581-.959 1.189-1.808 1.496-2.933.225-.988.449-1.976.536-3.047.23-2.39.077-4.918.197-7.28s.654-4.943 1.846-7.218c1.274-2.412 3.537-4.6 5.687-6.294-2.503.731-4.652 1.958-6.2 4.204-1.383 1.972-2.08 4.359-2.31 6.748-.314 2.526-.16 5.055-.117 7.61-.033 1.291-.066 2.582-.236 3.791-.117 1.428-.289 3.103-.899 4.419M377.08 412.947c1.089-4.116.257-8.461.166-12.637s.129-4.231.797-6.261a11.3 11.3 0 0 1 1.497-2.933l1.077-1.314c.469-.465.471-.932.776-1.59l-.054-.22c-.658-.305-.739-.635-1.372-.364-.44.108-.799.546-1.075.847-.745.766-1.216 1.698-1.661 2.74-.888 2.084-1.145 4.364-1.21 6.479-.16 5.055 1.082 10.116.922 15.17l.11-.027zM251.887 263.447l.081.33c-.22.054-.55.135-.743.299l-.44.108c-.743.299-1.569.735-2.312 1.034-6.304 2.829-12.608 5.658-18.668 9.011-6.609 3.487-12.975 7.964-18.63 12.967-4.689 4.183-8.776 8.917-11.877 14.344-3.407 6.084-5.277 12.724-7.916 19.087-.139.384-.305.658-.444 1.042-1.721 3.921-3.551 7.869-5.546 11.624a139 139 0 0 1-13.526 20.463s-.166.274-.276.301l-.22.054c.027.11-.166.274-.139.384-4.117 5.092-8.7 10.182-12.461 15.77-3.32 5.013-5.79 10.634-7.629 16.451-1.839 5.816-2.8 11.884-2.91 18.093.054.22.025.577-.031.824.002 5.714.857 11.103 1.849 16.575l.162.66c.027.11-.193.164-.193.164.054.22-.166.274-.22.054-2.362-6.302-2.964-13.036-2.933-20.042a64.5 64.5 0 0 1 3.388-20.426c2.032-5.98 4.859-11.573 8.371-16.75 4.065-5.779 8.868-10.922 13.207-16.535 8.4-10.925 15.103-23.066 19.996-35.93 2.418-6.309 4.782-12.837 8.488-18.178s8.093-9.8 13.386-13.897c5.294-4.098 11.324-7.093 17.381-9.978 6.387-2.967 13.019-5.41 19.678-7.743l1.21-.297zM342.2 286.902c1.295 5.281 2.92 10.481 4.545 15.681.758 2.614 1.516 5.227 2.383 7.814.324 1.32.648 2.64 1.192 3.906.216.88.542 1.734 1.17 2.396.285-2.169-.886-4.565-1.592-6.491-.784-2.724-1.679-5.42-2.436-8.034-1.626-5.2-3.224-10.29-4.959-15.463-.108-.44-.384-.139-.33.081z"/><path fill="#000" d="M349.234 292.758c.459 1.871 1.385 3.743 1.844 5.613.458 1.871.888 4.098 1.044 6.159a24.4 24.4 0 0 1-.274 6.016c-.256 1.812-1.061 3.759-.712 5.657.054.22.134.55.381.606.825.031.831-1.37 1.026-2.001.307-1.125.477-2.333.565-3.405.257-2.279.184-4.477.002-6.648a32 32 0 0 0-1.235-6.463c-.459-1.87-1.192-3.906-2.504-5.451l-.11.027z"/><path fill="#000" d="M350.972 316.01c1.282 8.083 3.719 16.117 5.909 24.094.971 3.961 2.163 7.867 3.381 11.884.486 1.981 1.082 3.934 1.678 5.887.539 2.201 1.106 4.511 2.059 6.493.218.414.737 1.103 1.37.831s.473-1.399.365-1.839c-.156-2.062-.998-4.071-1.484-6.051s-1.082-3.934-1.677-5.887c-1.109-4.044-2.217-8.088-3.436-12.105-2.383-7.813-4.352-15.845-7.478-23.359-.135-.55-.685-.415-.55.135l-.11.027zM198.965 376.269c2.424-1.527 4.141-4.514 5.799-6.787 1.935-2.574 3.897-5.038 5.721-7.585s3.897-5.038 5.968-7.529c1.879-2.327 3.894-4.571 5.362-7.147l-.901-1.296c1.343 6.903 3.236 13.67 5.349 20.383.108.44.542 1.733 1.258 1.325s.145-1.786.065-2.116c-2.28-6.439-4.009-13.013-5.738-19.587-.081-.33-.598-1.487-.903-.829-1.33 2.659-3.456 4.93-5.334 7.257-2.072 2.491-4.007 5.065-5.968 7.529s-3.65 5.094-5.474 7.641-4.063 5.312-5.148 8.494l.054.22z"/><path fill="#000" d="m214.976 322.188 3.238 13.203c.512 2.09 1.052 4.29 1.675 6.354.432 1.76.807 3.767 1.872 5.256.145-1.785-.67-3.685-1.102-5.445s-1.162-4.264-1.785-6.327a274 274 0 0 0-3.898-13.041c-.054-.22-.164-.193-.11.027z"/><path fill="#000" d="M212.464 330.969c-.143 1.318-.314 2.526-.21 3.9.32 2.255 1.107 4.511 2.472 6.276a17 17 0 0 0 4.048 4.139 9 9 0 0 0 1.781 1.079c.384.139.959.582 1.372.364.44-.108.06-1.181-.104-1.374-.629-.663-1.754-.97-2.576-1.468a14.6 14.6 0 0 1-3.721-3.286c-1.339-1.655-2.155-3.554-2.558-5.671-.297-1.211-.62-2.531-.477-3.849l-.054-.22zM351.001 315.653c2.102 2.866 5.087 5.05 7.852 7.288s5.53 4.476 8.268 6.604c5.393 4.392 10.813 8.895 16.481 12.986.575.442.744-.299.746-.766.058-.714-.351-1.43-.816-1.899-5.31-4.53-10.896-8.758-16.509-13.097-2.711-2.018-5.338-4.172-8.049-6.19-1.424-1.051-2.765-2.238-4.189-3.288-1.123-.775-2.437-1.852-3.892-2.078-.11.027.081.33.081.33zM258.252 469.151s-.164-.193-.301-.276c-1.258-1.324-1.578-3.578-1.982-5.229-.65-2.173-1.437-4.43-1.976-6.63-1.3-4.347-2.709-8.667-3.953-13.26-1.133-4.621-2.569-9.051-3.923-13.618l-.269-1.1c-.459-1.87-1.111-3.577-1.543-5.337s-1.409-4.32-1.619-6.601c0 0 .056-.247.193-.164 1.063 1.955 1.466 4.073 2.088 6.136.76 2.146 1.41 4.32 2.06 6.493 1.409 4.32 2.708 8.667 4.062 13.234 1.353 4.566 2.679 9.023 4.033 13.59.539 2.201 1.382 4.21 1.922 6.41.596 1.954 1.739 4.239 1.291 6.215zM253.826 272.303c1.393 1.875 2.593 3.913 4.289 5.597a31 31 0 0 0 5.118 4.226c3.479 2.296 7.567 3.743 11.77 3.762s7.975-1.723 11.01-4.567c2.842-2.68 4.782-6.655 5.87-10.304 1.393-4.307 1.966-9.58-.627-13.493 2.248 7.263-1.388 15.737-6.713 20.659-5.683 5.359-14.254 5.129-20.859 1.5a26.7 26.7 0 0 1-5.094-3.65c-.766-.745-1.505-1.38-2.271-2.125-.876-.719-1.725-1.327-2.408-2.209-.328-.386-.249.411-.085.604M415.609 324.184c.027.11-.193.164-.33.081-2.053-1.713-3.83-3.727-5.854-5.796-1.914-2.097-3.911-4.056-5.934-6.126a506 506 0 0 0-8.534-8.638l-.054-.22c-.438-.359-.793-.855-1.231-1.214-.766-.746-1.559-1.601-2.325-2.346-.465-.469-.793-.855-1.257-1.324-6.811-6.845-13.952-13.608-21.148-20.124-6.649-6.184-13.434-12.451-21.243-17.184s-7.922-4.239-12.312-5.495c-4.747-1.285-9.415-1.773-14.443-1.823-5.027-.05-10.001.12-14.947.4-2.639.181-5.167.334-7.751.735-2.145.293-4.318.942-6.489 1.125-.44.108-.907.106-1.264.077l-.22.054c-.027-.11-.409-.717-.189-.771.276-.301.689-.518.992-.709 2.258-1.254 4.816-1.765 7.29-2.138 2.804-.455 5.773-.716 8.658-.841 5.524-.305 11.047-.61 16.569-.448 4.834.214 9.64.785 14.221 2.344 4.17 1.31 8.145 3.251 11.871 5.603 7.89 5.063 14.84 11.523 21.652 17.9a950 950 0 0 1 22.624 21.861 867 867 0 0 1 10.993 11.534c3.637 3.89 7.493 7.726 10.661 12.081.027.11.297 1.211.241 1.458l-.22.054z"/><path fill="#223ABD" d="M284.034 312.249c7.641-.708 12.362-11.896 10.394-14.213-.847-1.075-4.424.035-11.44 2.339-6.383 2.032-9.629 3.062-9.829 4.627-.562 2.937 5.323 7.909 10.902 7.357z"/><path fill="#000" d="M259.377 469.459c.135.55.16 1.127.185 1.704.261 2.968-.164 5.989-.37 8.955-.29 3.57-.471 7.114-.652 10.657-.415 6.867-.94 13.761-1.712 20.599-.104-7.556-.044-14.919.373-22.253.181-3.544.389-6.977.679-10.547s.318-3.461.463-5.246.143-1.318.229-1.922c.085-.604.17-1.208.392-1.729l.44-.108zM209.208 494.594c1.965 2.783 3.904 5.457 5.264 8.623l-.22.054.135.55c.027.11-.057.247-.221.054-2.353-1.989-4.099-4.827-5.874-7.307-.683-.883-1.256-1.792-1.939-2.674-.382-.606-.873-1.185-1.282-1.901-.874-1.186-1.638-2.398-2.512-3.583-1.856-2.811-3.821-5.595-5.787-8.379l-2.784-4.216c-.955-1.515-1.579-3.111-2.314-4.681l-.054-.22c.328.386.739.636 1.04.912.739.635 1.368 1.297 1.914 2.096 1.01 1.269 2.048 2.647 2.976 4.052l5.733 8.158 5.898 8.352z"/><path fill="#000" d="m206.526 492.219-.256 1.812c-.82 5.217-2.381 10.265-3.805 15.396-1.368 4.885-2.736 9.769-3.637 14.656-.141.851-.309 1.592-.45 2.443 0 0 .054.22-.056.247-.056.247-.276.301-.523.245-.11.027-.274-.166-.411-.249a3.46 3.46 0 0 1-.621-2.531c.658-5.876 2.277-11.639 4.034-17.318 1.451-5.022 2.846-9.796 4.16-14.901.085-.604.307-1.125.419-1.619.222-.521.66-.162.741.169.328.386.49 1.046.378 1.54z"/><path fill="#000" d="M432.764 463.557c.081.33-.085.604-.195.631l-.881.216c-3.771 1.741-7.952 2.767-11.912 3.738s-8.584 2.572-12.874 3.624c-8.638 2.352-17.138 4.787-25.775 7.138-30.369 8.382-60.764 16.653-91.214 24.705-15.238 3.97-30.422 8.161-45.714 11.912-7.648 2.109-15.459 4.024-23.16 5.913-7.454 1.945-15.128 3.944-22.717 5.339l-.55.135c-.577.024-1.117-2.176-.567-2.311l1.65-.405c.551-.134 1.101-.269 1.624-.514 7.456-2.412 14.964-4.137 22.528-6.109 8.691-2.132 17.219-4.456 25.856-6.808 2.64-.648 5.254-1.405 7.867-2.163l.33-.081c27.699-7.377 55.452-14.533 83.097-22.13 15.212-4.081 30.396-8.272 45.58-12.462 7.647-2.109 15.404-4.245 23.052-6.354s7.454-1.945 11.36-3.136c2.834-.812 5.613-1.843 8.501-2.435 1.1-.27 2.227-.43 3.271-.453l.22-.053c.301.276.654 1.239.679 1.816l.054.22zM322.084 454.545c-1.76.432-3.494.974-5.117 1.489-.77.189-1.65.404-2.393.703l-1.43.351-7.841 2.273c-15.047 4.274-30.312 8.134-45.658 11.665l-1.1.27c-4.401 1.079-8.746 1.911-13.063 2.854l-.33.081c-.22.054-.6-1.019-.27-1.1l.22-.054c4.401-1.08 8.691-2.132 13.038-3.431l3.63-.891c16.999-4.402 33.889-9.245 50.726-14.307 2.943-.839 5.97-1.814 8.913-2.653.55-.135 1.198 2.506.648 2.64zM402.692 436.058l-14.412 3.535c-4.51 1.106-9.268 2.156-13.972 3.427l-22.003 5.396c-.88.216-1.76.432-2.804.455-1.264.076-2.693-.04-3.903.257-.027-.11.083-.137.193-.164 1.157-.517 2.396-1.171 3.525-1.798.936-.462 1.183-.406 2.366-.813l1.101-.27c2.256-.787 4.566-1.353 6.877-1.92l42.356-10.389c.22-.053.411.25.656.773.189.77.404 1.65-.036 1.758l-.054-.22z"/><path fill="#000" d="M432.436 463.171c-.029.357-.224.988-.417 1.152l-.331.081s-.22.054-.384-.139c-.438-.359-.986-.691-1.451-1.161l-1.313-1.077c-4.297-3.728-8.428-7.731-12.422-11.65-2.462-2.429-4.84-4.994-7.275-7.313-2.298-2.236-4.733-4.555-6.728-6.981-.054-.22-.301-.276-.355-.496-.081-.33-.463-.937-.35-1.431-.027-.11.029-.357.112-.494 0 0 .193-.164.33-.081.274.166.465.47.739.636 2.244 2.015 4.321 4.305 6.345 6.375 2.325 2.345 4.733 4.554 7.141 6.763 4.953 4.5 10.154 8.59 15.08 12.98.328.386.656.773.901 1.296l.351 1.43z"/><path fill="#000" d="m433.009 464.08 11.783 49.947c.216.88-.282 1.702-1.162 1.918L215.897 571.8a1.59 1.59 0 0 1-1.864-.943c-2.609-6.358-12.977-34.84-16.207-43.729l-.243-.99c-.162-.661.033-1.292.529-1.647.22-.053.386-.327.717-.408l1.76-.432 56.415-14.887.33-.081 172.877-45.549 1.21-.297c.55-.135 1.044-.023 1.345.253.027.11.274.166.328.386l.135.55zM240.596 399.067c2.591 10.562 6.254 20.744 9.681 28.535.135.55-.06 1.181-.61 1.316l-18.153 4.452c-.55.135-1.098-.197-1.123-.774l-6.702-31.132-.648-2.64-1.911-8.746-3.23-15.07c-.135-.55.224-.988.664-1.096l16.613-4.075c.55-.135 1.125.308 1.15.885q.186 4.327.784 8.905c.372 2.941.743 5.883 1.306 9.127l.512 2.091c.538 2.667 1.076 5.335 1.777 8.195zM397.617 409.66c-.415.685-1.295.9-1.295.9-5.391 1.323-10.728 2.865-16.008 4.16l-.33.081c-4.401 1.079-8.775 2.269-13.148 3.458q-2.971.729 0 0l-18.402 4.863c-2.634-13.117-5.405-26.317-8.149-39.407-15.292 3.75-30.638 7.281-45.931 11.032l10.867 40.024c-15.735 4.325-31.386 8.514-47.12 12.84-.22.054-.77.189-1.482-.337-.712-.525-1.04-.911-1.094-1.131l-14.362-57.129-9.525-38.837c-.27-1.1.284-2.169 1.384-2.439l133.559-32.757c.55-.135 1.154-.05 1.565.199 0 0 .658.305.957 1.048l-.22.054c.081.33 1.111 3.577 2.846 8.75l.243.99c.432 1.76 1.138 3.687 1.76 5.75.162.66.324 1.32.596 1.953.162.661.324 1.321.623 2.064 1.625 5.2 3.495 10.923 5.336 17.003l.324 1.32c.216.88.432 1.761.895 2.697l.108.44c1.517 4.76 3.061 9.63 4.579 14.39.921 2.806 1.733 5.64 2.628 8.336a6472 6472 0 0 0 8.805 27.816c.027.11.27 1.101-.036 1.759z"/><path fill="#DBDFFA" d="M202.019 480.027c2.082 1.356 4.137 2.601 6.329 3.93-.463-.936-.348-1.897-.261-2.968.23-2.39.488-4.669.608-7.031 2.958 2.074 5.889 4.037 8.847 6.111.704-3.788 1.627-7.63 2.715-11.28 2.711 2.018 5.339 4.173 7.691 6.629 1.308-3.704 2.642-7.297 3.84-10.973 2.161 2.152 4.046 4.606 5.71 7.114l3.085-7.872c3.61 9.962 7.026 20.088 10.113 30.295-7.23.957-14.192 3.481-21.424 4.905-1.76.432-3.575.643-5.335 1.075s-2.916.949-4.403 1.546c-1.046.49-2.424 1.528-3.632 1.358-1.922-.229-3.089-3.558-4.017-4.964a568 568 0 0 1-10.003-17.958z"/><path fill="#000" d="M251.551 493.189q.121.495-.168.741c-.22.054-.33.081-.438-.359l-.108-.44c-2.389-6.412-4.421-12.795-6.59-19.261-1.167-3.33-2.169-6.467-3.253-9.933-.949-2.917-1.677-5.887-2.626-8.804-.668 2.03-1.364 3.95-2.196 5.787-.249.411-.633.272-.824-.031-1.667-2.04-3.39-3.834-5.472-5.19-1.357 2.55-2.084 5.294-2.399 8.287.027.11-.195.631-.469.465-2.96-1.607-5.921-3.213-8.824-5.067-.511 3.624-.939 7.112-1.476 10.626 0 0-.196.631-.47.465a131 131 0 0 1-10.225-5.074 79 79 0 0 0-.654 4.943c-.255 1.812-.099 3.873-.602 5.629.054.22-.195.631-.496.355-1.532-1.49-3.919-2.188-5.812-2.773s-3.786-1.171-5.762-1.619l-.054-.22c2.005.091 3.817.346 5.683.822.988.224 1.866.475 2.771.836.795.389 1.7.75 2.635.754-.048-1.621.124-3.296.323-4.862.175-2.142.486-4.201.798-6.26.139-.384.305-.658.716-.409 3.261 1.883 6.688 3.492 10.115 5.1.51-3.624 1.048-7.138 1.559-10.763.139-.384.305-.658.716-.409 2.794 1.881 5.644 3.515 8.604 5.122.426-3.021 1.262-5.792 2.593-8.451-.054-.22.276-.301.55-.135 2.082 1.356 4.025 3.095 5.664 5.026l2.417-5.842c.278-.768.176-2.609 1.013.802.836 3.41 2.14 6.823 3.196 10.18s2.086 6.603 3.143 9.96l.27 1.1c2.005 6.273 4.01 12.546 6.042 18.929z"/><path fill="#000" d="M214.277 503.848c.548.332.988.224 1.648.062l5.61-1.376c2.421-.594 4.951-1.214 7.318-2.028 4.84-1.187 9.6-2.705 14.524-4.029l6.051-1.484c.66-.162 1.43-.351 1.899-.816.193-.164-.106-.907-.243-.99-.631-.195-1.044.023-1.594.158l-1.98.486c-1.211.296-2.421.593-3.604 1-2.42.594-4.924 1.324-7.317 2.028-4.924 1.324-9.82 2.759-14.744 4.083-1.32.324-2.724.784-4.017 1.218l-1.98.486c-.66.162-1.32.324-1.625.982l.107.44z"/><path fill="#fff" d="M316.642 350.09c1.86 8.058 3.5 16.17 5.36 24.229.054.22.216.88.546.799 15.4-3.311 30.636-6.814 45.982-10.345.33-.081.141-.851.087-1.071-2.709-8.667-5.747-17.252-8.346-25.946-.027-.11-.162-.66-.382-.606-7.261 1.781-14.551 3.919-21.758 5.92l-10.811 3.001c-3.604 1.001-7.535 1.615-10.649 3.662-.11.027-.002.467.135.55 3.764.126 7.452-1.478 11.056-2.479 3.603-1 7.207-2.001 10.783-3.111 7.207-2.001 14.525-4.029 21.651-6.36l-.328-.386c2.792 8.53 5.39 17.223 8.099 25.89l.087-1.071c-15.4 3.31-30.636 6.814-45.955 10.455l.546.799-5.91-24.094c-.054-.22-.164-.193-.11.027zM299.81 354.218l5.909 24.094.114-.961c-15.265 3.861-30.366 7.915-45.577 11.995l.546.8c-1.831-8.416-3.662-16.831-5.63-25.33l-.085.604a786 786 0 0 0 22.524-5.174l16.503-4.048c2.09-.512 3.96-.971 5.806-2.007.11-.027-.108-.44-.135-.55-3.79-.237-7.753 1.202-11.384 2.092l-11.221 2.753c-7.481 1.834-14.962 3.669-22.416 5.614-.111.027-.14.384-.113.494 1.748 8.553 3.579 16.968 5.437 25.493.054.22.215.881.546.8 15.265-3.861 30.366-7.915 45.55-12.105.33-.081.141-.852.114-.962-1.969-8.031-4.269-15.981-6.459-23.959-.054-.22-.164-.193-.11.027z"/><path fill="#DBDFFA" d="M399.643 460.717 283.24 490.666c-1.1.27-2.14-.642-2.08-1.823l1.304-15.132c.058-.715.61-1.316 1.27-1.478l103.635-25.418c.55-.135 1.208.17 1.536.556l11.327 10.518c.93.939.621 2.531-.699 2.855z"/><path fill="#000" d="m337.24 388.894-38.066 9.336a.453.453 0 0 0-.332.548l17.864 72.833a.453.453 0 0 0 .548.332l38.065-9.336a.454.454 0 0 0 .332-.549l-17.863-72.832a.453.453 0 0 0-.548-.332M370.855 385.664c.209 2.282 1.079 4.401 1.619 6.601.539 2.201 1.272 4.237 1.812 6.438 1.353 4.566 2.68 9.023 3.923 13.617s2.653 8.914 3.952 13.261c.54 2.2 1.326 4.456 1.976 6.63.432 1.76.805 4.235 2.283 5.505l.11-.027c.449-1.976-.695-4.262-1.291-6.215-.539-2.2-1.272-4.237-1.922-6.41-1.353-4.567-2.679-9.024-4.033-13.591-1.353-4.567-2.653-8.913-4.062-13.233-.65-2.174-1.326-4.457-2.086-6.603-.623-2.064-1.025-4.181-2.061-6.027-.081-.33-.357-.029-.303.191z"/></svg>