<svg xmlns="http://www.w3.org/2000/svg" width="32" height="32" fill="none" viewBox="0 0 32 32"><path fill="#6563FF" d="M17.334 14.667h-2.667a1.333 1.333 0 0 1 0-2.667H20a1.333 1.333 0 0 0 0-2.667h-2.666V8a1.333 1.333 0 0 0-2.667 0v1.333a4 4 0 1 0 0 8h2.667a1.333 1.333 0 1 1 0 2.667H12a1.334 1.334 0 0 0 0 2.667h2.667V24a1.333 1.333 0 0 0 2.667 0v-1.333a4 4 0 0 0 0-8Z"/><path fill="#B2B1FF" d="M25.334 2.667H6.667a4.004 4.004 0 0 0-4 4v18.666a4.004 4.004 0 0 0 4 4h18.667a4.004 4.004 0 0 0 4-4V6.667a4.004 4.004 0 0 0-4-4Zm-10.667 12h2.667a4 4 0 0 1 0 8V24a1.333 1.333 0 1 1-2.667 0v-1.333H12A1.334 1.334 0 0 1 12 20h5.334a1.334 1.334 0 0 0 0-2.667h-2.667a4 4 0 0 1 0-8V8a1.334 1.334 0 0 1 2.667 0v1.333H20A1.333 1.333 0 1 1 20 12h-5.333a1.333 1.333 0 0 0 0 2.667Z"/></svg>