<svg xmlns="http://www.w3.org/2000/svg" width="132" height="132" fill="none" viewBox="0 0 132 132"><circle cx="66" cy="66" r="66" fill="#fff"/><g clip-path="url(#a)"><path fill="#fff" d="M51.775 28.63c-4.19.148-8.374.294-12.563.435-1.888-.232-5.082-.31-7.427 1.64-2.858 2.37-2.97 6.515-2.996 8.627-.105 7.805-.098 26.347.364 51.112-.041.868-.134 4.895 2.898 8.346 3.525 4.011 8.431 4.011 9.14 3.997 21.148-.105 42.297-.202 63.444-.309 1.088-.119 3.734-.576 6.107-2.657 3.761-3.31 3.77-8.024 3.754-8.761l-.33-52.654c.091-.428.849-4.216-1.853-7.378-2.73-3.198-6.646-3.016-7.077-2.987-17.82.196-35.643.387-53.463.583v.006z"/><path fill="#101A5B" d="M51.761 27.425c-1.58-.155-3.137-.303-4.724-.364-1.587-.064-3.144-.027-4.717-.007-1.305.014-2.612.07-3.91-.057-1.045-.098-2.112-.098-3.15.078-2.296.377-4.297 1.606-5.49 3.626-1.052 1.78-1.51 3.865-1.678 5.912-.219 2.714-.155 5.478-.169 8.199-.013 3.626-.013 7.245 0 10.87.041 10.42.21 20.835.401 31.25.034 1.949-.077 3.737.219 5.7.344 2.28 1.193 4.481 2.568 6.34 2.26 3.037 5.965 4.846 9.735 4.93 5.665.134 11.357-.064 17.029-.071l18.753-.041c6.255-.013 12.51.057 18.754.021 1.58-.007 3.151-.021 4.731-.027 1.581-.007 3.097.09 4.62-.035 1.938-.154 3.959-.996 5.517-2.131 3.383-2.475 4.94-6.62 5.025-10.701.111-5.603-.078-11.236-.126-16.839-.05-6.276-.125-12.553-.154-18.831-.014-3.078-.041-6.158-.071-9.243l-.041-4.707c0-.758-.014-1.508-.02-2.266 0-.188.07-1.212-.041-.616-.098.519-.014.148.006.02.708-4.27-.603-9.208-4.583-11.458a9.6 9.6 0 0 0-4.61-1.213c-2.423 0-4.843.07-7.266.098-12.522.148-25.044.316-37.56.512-3.026.05-6.058.09-9.082.168-.883.02-.835 3.017.078 3.017 11.94.027 23.879-.105 35.818-.232 5.89-.064 11.778-.091 17.661-.176 3.383-.05 6.915 1.718 8.044 5.098.125.387.209.779.26 1.186.027.252.02.111.027.35v.28c0 .31.013-.232 0 .05q-.013.22-.034.441c-.021.33 0 .014 0 .041-.057.337-.119.673-.135 1.017-.141 2.967.021 5.983.034 8.956.028 5.926.051 11.86.078 17.785s.057 11.97.084 17.96l.041 8.297v.218c.014.287.041-.441 0-.097-.034.316-.05.63-.091.939-.041.31.027-.105-.034.21-.034.181-.071.356-.112.538-.084.371-.189.737-.323 1.095a9.82 9.82 0 0 1-4.162 5.05c-1.833 1.108-3.7 1.488-5.806 1.495-5.958.027-11.919.125-17.877.168-11.974.091-23.95.196-35.923.252-2.78.014-5.553.057-8.33.041a12 12 0 0 1-3.412-.491c-4.05-1.213-7.174-4.538-7.693-8.781-.04-.33 0 .098-.02-.203l-.02-.42c0-.28 0-.765-.008-.28.035-1.488-.027-2.974-.057-4.461-.05-2.798-.104-5.597-.125-8.395-.034-4.972-.09-9.952-.125-14.923-.05-7.034-.034-14.074-.034-21.11 0-2.785-.323-5.456 1.038-8.024 1.095-2.061 3.201-3.206 5.469-3.506.927-.125 1.867-.125 2.8-.057 1.376.105 2.821-.104 4.206-.189 1.382-.084 2.786-.168 4.182-.316 1.523-.161 3.012-.414 4.52-.673.386-.064.364-1.22-.028-1.263l.05-.006z"/><path fill="#101A5B" d="M38.053 26.66h66.703c5.193 0 9.412 4.216 9.412 9.405v8.262h-85.52v-8.262c0-5.19 4.218-9.405 9.412-9.405z"/><path fill="#fff" d="M49.908 19.674c-.04 5.66-.084 11.32-.118 16.987 2.022-.027 4.05-.057 6.072-.077-.294-5.694-.583-11.39-.877-17.092q-2.537.096-5.075.182z"/><path fill="#101A5B" d="M49.683 19.388c-.337 1.312-.31 2.693-.33 4.04q-.03 2.209-.064 4.418c-.034 2.946-.07 5.892-.105 8.829 0 .343.125 1.303.63 1.303 2.036-.007 4.044.05 6.073-.057.519-.027.603-1.023.576-1.353-.196-2.842-.253-5.701-.4-8.543-.149-2.84-.317-5.694-.472-8.542-.02-.336-.112-1.41-.654-1.387-1.691.07-3.383.147-5.074.218-.85.034-.78 2.764.07 2.741 1.692-.05 3.383-.098 5.075-.154l-.653-1.388c.14 2.848.266 5.694.407 8.542s.378 5.694.478 8.542l.576-1.353c-2.035-.057-4.043.056-6.072.097l.63 1.304.021-8.829v-4.418c0-1.346.014-2.7-.287-4.017-.084-.37-.35-.316-.434.014l.006-.007z"/><path fill="#fff" d="M69.639 19.674c-.041 5.66-.084 11.32-.119 16.987 2.022-.027 4.05-.057 6.073-.077-.294-5.694-.583-11.39-.877-17.092q-2.537.096-5.075.182z"/><path fill="#101A5B" d="M69.413 19.388c-.337 1.312-.31 2.693-.33 4.04q-.029 2.209-.064 4.418l-.104 8.829c0 .343.125 1.303.63 1.303 2.036-.007 4.044.05 6.073-.057.519-.027.603-1.023.576-1.353-.196-2.842-.253-5.701-.401-8.543-.148-2.84-.317-5.694-.471-8.542-.02-.336-.112-1.41-.654-1.387-1.692.07-3.383.147-5.075.218-.85.034-.779 2.764.07 2.741 1.692-.05 3.384-.098 5.076-.154l-.654-1.388c.141 2.848.267 5.694.408 8.542s.378 5.694.478 8.542l.576-1.353c-2.035-.057-4.044.056-6.072.097l.63 1.304.02-8.829v-4.418c0-1.346.015-2.7-.286-4.017-.084-.37-.35-.316-.435.014l.007-.007z"/><path fill="#fff" d="M88.24 19.674c-.04 5.66-.084 11.32-.118 16.987 2.021-.027 4.05-.057 6.072-.077-.294-5.694-.583-11.39-.877-17.092q-2.537.096-5.075.182z"/><path fill="#101A5B" d="M88.015 19.388c-.337 1.312-.31 2.693-.33 4.04q-.03 2.209-.064 4.418c-.034 2.946-.07 5.892-.105 8.829 0 .343.125 1.303.63 1.303 2.036-.007 4.044.05 6.073-.057.519-.027.603-1.023.576-1.353-.196-2.842-.253-5.701-.4-8.543-.149-2.84-.317-5.694-.472-8.542-.02-.336-.112-1.41-.654-1.387-1.691.07-3.383.147-5.074.218-.85.034-.78 2.764.07 2.741 1.692-.05 3.383-.098 5.075-.154l-.653-1.388c.14 2.848.266 5.694.407 8.542s.378 5.694.478 8.542l.576-1.353c-2.035-.057-4.043.056-6.072.097l.63 1.304.021-8.829v-4.418c0-1.346.014-2.7-.287-4.017-.084-.37-.35-.316-.434.014l.006-.007z"/><path fill="#B7BFF6" d="M44.665 51.334h-9.028a.37.37 0 0 0-.37.37v9.02c0 .205.165.371.37.371h9.028a.37.37 0 0 0 .37-.37v-9.02a.37.37 0 0 0-.37-.371M60.135 51.334h-9.027a.37.37 0 0 0-.371.37v9.02c0 .205.166.371.37.371h9.028a.37.37 0 0 0 .372-.37v-9.02a.37.37 0 0 0-.372-.371M44.665 65.506h-9.028a.37.37 0 0 0-.37.371v9.02c0 .205.165.37.37.37h9.028a.37.37 0 0 0 .37-.37v-9.02a.37.37 0 0 0-.37-.37M60.135 65.506h-9.027a.37.37 0 0 0-.371.371v9.02c0 .205.166.37.37.37h9.028a.37.37 0 0 0 .372-.37v-9.02a.37.37 0 0 0-.372-.37M75.597 65.506H66.57a.37.37 0 0 0-.371.371v9.02c0 .205.166.37.37.37h9.028a.37.37 0 0 0 .371-.37v-9.02a.37.37 0 0 0-.37-.37M91.068 65.506H82.04a.37.37 0 0 0-.37.371v9.02c0 .205.165.37.37.37h9.028a.37.37 0 0 0 .37-.37v-9.02a.37.37 0 0 0-.37-.37M91.068 79.365H82.04a.37.37 0 0 0-.37.37v9.02c0 .206.165.371.37.371h9.028a.37.37 0 0 0 .37-.37v-9.02a.37.37 0 0 0-.37-.371M106.539 79.365h-9.028a.37.37 0 0 0-.371.37v9.02c0 .206.166.371.371.371h9.028a.37.37 0 0 0 .371-.37v-9.02a.37.37 0 0 0-.371-.371M60.135 79.365h-9.027a.37.37 0 0 0-.371.37v9.02c0 .206.166.371.37.371h9.028a.37.37 0 0 0 .372-.37v-9.02a.37.37 0 0 0-.372-.371M75.597 79.365H66.57a.37.37 0 0 0-.371.37v9.02c0 .206.166.371.37.371h9.028a.37.37 0 0 0 .371-.37v-9.02a.37.37 0 0 0-.37-.371"/><path fill="#101A5B" d="M35.428 51.388c-.162 1.522-.091 3.085-.098 4.607s-.02 3.155-.034 4.727c0 .118.034.435.21.442 1.586.04 3.18.09 4.764.111 1.585.02 3.181-.04 4.766.034.148 0 .155-.316.155-.393 0-1.957.027-3.97-.24-5.906-.02-.141-.104-.141-.118 0-.182 1.95-.064 3.963.02 5.912l.155-.393c-1.587 0-3.18-.134-4.772-.169q-2.389-.05-4.765-.09l.21.44c0-1.578-.014-3.148-.021-4.726-.007-1.58.064-3.085-.091-4.607-.02-.182-.134-.168-.155 0l.014.007zM35.428 65.739c-.162 1.521-.091 3.084-.098 4.606s-.02 3.155-.034 4.727c0 .119.034.435.21.442 1.586.04 3.18.09 4.764.111 1.585.02 3.181-.04 4.766.034.148 0 .155-.316.155-.393 0-1.957.027-3.97-.24-5.906-.02-.14-.104-.14-.118 0-.182 1.95-.064 3.963.02 5.912l.155-.393c-1.587 0-3.18-.134-4.772-.168q-2.389-.05-4.765-.091l.21.441c0-1.579-.014-3.149-.021-4.727s.064-3.085-.091-4.607c-.02-.182-.134-.168-.155 0l.014.007zM50.794 65.597c-.162 1.522-.091 3.085-.098 4.607s-.02 3.155-.034 4.727c0 .118.034.435.21.442 1.586.04 3.18.09 4.764.111 1.587.02 3.181-.04 4.766.034.148 0 .155-.316.155-.393 0-1.957.027-3.97-.24-5.906-.02-.141-.104-.141-.118 0-.182 1.95-.064 3.963.02 5.912l.155-.393c-1.587 0-3.18-.134-4.772-.168q-2.387-.052-4.765-.091l.21.44c0-1.578-.014-3.148-.021-4.726-.007-1.58.064-3.085-.091-4.607-.02-.182-.134-.168-.155 0l.014.007zM66.255 79.45c-.161 1.521-.09 3.084-.097 4.606s-.021 3.155-.035 4.727c0 .118.034.434.21.441 1.587.041 3.18.091 4.765.112 1.585.02 3.18-.041 4.765.034.148 0 .155-.316.155-.394 0-1.956.028-3.97-.239-5.905-.02-.141-.105-.141-.118 0-.182 1.95-.064 3.963.02 5.912l.155-.393c-1.587 0-3.18-.135-4.772-.169q-2.39-.05-4.765-.09l.21.44c0-1.578-.014-3.148-.021-4.727-.007-1.578.063-3.084-.091-4.606-.02-.182-.135-.169-.155 0l.013.007zM81.726 79.45c-.162 1.521-.09 3.084-.098 4.606-.007 1.522-.02 3.155-.034 4.727 0 .118.034.434.21.441 1.587.041 3.18.091 4.765.112 1.584.02 3.18-.041 4.765.034.148 0 .155-.316.155-.394 0-1.956.027-3.97-.239-5.905-.02-.141-.105-.141-.118 0-.183 1.95-.064 3.963.02 5.912l.155-.393c-1.587 0-3.18-.135-4.772-.169q-2.389-.05-4.766-.09l.21.44c0-1.578-.014-3.148-.02-4.727-.007-1.578.063-3.084-.092-4.606-.02-.182-.134-.169-.154 0l.013.007zM97.076 79.45c-.161 1.521-.09 3.084-.098 4.606-.006 1.522-.02 3.155-.034 4.727 0 .118.034.434.21.441 1.587.041 3.18.091 4.765.112 1.585.02 3.181-.041 4.765.034.148 0 .155-.316.155-.394 0-1.956.027-3.97-.239-5.905-.02-.141-.105-.141-.118 0-.182 1.95-.064 3.963.02 5.912l.155-.393c-1.587 0-3.181-.135-4.772-.169q-2.389-.05-4.766-.09l.21.44c0-1.578-.014-3.148-.02-4.727-.007-1.578.063-3.084-.092-4.606-.02-.182-.134-.169-.154 0l.013.007zM81.726 65.358c-.162 1.522-.09 3.085-.098 4.607-.007 1.522-.02 3.155-.034 4.727 0 .119.034.435.21.442 1.587.04 3.18.09 4.765.111 1.587.02 3.18-.04 4.765.034.148 0 .155-.316.155-.393 0-1.957.027-3.97-.239-5.906-.02-.141-.105-.141-.118 0-.183 1.95-.064 3.963.02 5.912l.155-.393c-1.587 0-3.18-.134-4.772-.168q-2.388-.052-4.766-.091l.21.44c0-1.578-.014-3.148-.02-4.726-.007-1.58.063-3.085-.092-4.607-.02-.182-.134-.168-.154 0l.013.007zM66.255 65.358c-.161 1.522-.09 3.085-.097 4.607s-.021 3.155-.035 4.727c0 .119.034.435.21.442 1.587.04 3.18.09 4.765.111 1.587.02 3.18-.04 4.765.034.148 0 .155-.316.155-.393 0-1.957.028-3.97-.239-5.906-.02-.141-.105-.141-.118 0-.182 1.95-.064 3.963.02 5.912l.155-.393c-1.587 0-3.18-.134-4.772-.168q-2.387-.052-4.765-.091l.21.44c0-1.578-.014-3.148-.021-4.726-.007-1.58.063-3.085-.091-4.607-.02-.182-.135-.168-.155 0l.013.007z"/><path fill="#B7BFF6" d="M75.597 51.334H66.57a.37.37 0 0 0-.371.37v9.02c0 .205.166.371.37.371h9.028a.37.37 0 0 0 .371-.37v-9.02a.37.37 0 0 0-.37-.371"/><path fill="#101A5B" d="M66.255 51.557c-.161 1.521-.09 3.084-.097 4.606s-.021 3.156-.035 4.728c0 .118.034.434.21.44 1.587.042 3.18.092 4.765.112 1.587.02 3.18-.04 4.765.034.148 0 .155-.316.155-.393 0-1.957.028-3.97-.239-5.906-.02-.14-.105-.14-.118 0-.182 1.95-.064 3.963.02 5.913l.155-.394c-1.587 0-3.18-.134-4.772-.168q-2.39-.05-4.765-.091l.21.441c0-1.579-.014-3.148-.021-4.727s.063-3.085-.091-4.607c-.02-.182-.135-.168-.155 0l.013.007zM50.794 79.315c-.162 1.522-.091 3.085-.098 4.607-.007 1.521-.02 3.155-.034 4.727 0 .118.034.434.21.441 1.586.041 3.18.091 4.764.111 1.587.021 3.181-.04 4.766.035.148 0 .155-.317.155-.394 0-1.956.027-3.97-.24-5.906-.02-.14-.104-.14-.118 0-.182 1.95-.064 3.963.02 5.913l.155-.394c-1.587 0-3.18-.134-4.772-.168q-2.389-.051-4.765-.09l.21.44c0-1.578-.014-3.148-.021-4.727s.064-3.085-.091-4.606c-.02-.182-.134-.169-.155 0l.014.006zM50.794 51.557c-.162 1.522-.091 3.085-.098 4.606-.007 1.522-.02 3.156-.034 4.728 0 .118.034.434.21.441 1.586.041 3.18.091 4.764.111 1.587.021 3.181-.04 4.766.035.148 0 .155-.317.155-.394 0-1.956.027-3.97-.24-5.906-.02-.14-.104-.14-.118 0-.182 1.95-.064 3.963.02 5.913l.155-.394c-1.587 0-3.18-.134-4.772-.168q-2.389-.05-4.765-.091l.21.441c0-1.578-.014-3.148-.021-4.727s.064-3.085-.091-4.607c-.02-.181-.134-.168-.155 0l.014.007z"/><path fill="#B7BFF6" d="M91.082 51.377h-9.028a.37.37 0 0 0-.371.37v9.02c0 .205.166.371.371.371h9.028a.37.37 0 0 0 .37-.37v-9.02a.37.37 0 0 0-.37-.371"/><path fill="#101A5B" d="M81.74 51.6c-.162 1.522-.091 3.085-.098 4.606-.007 1.522-.02 3.156-.034 4.728 0 .118.034.434.21.441 1.586.04 3.18.091 4.764.111s3.181-.04 4.766.035c.148 0 .155-.317.155-.394 0-1.956.027-3.97-.24-5.906-.02-.14-.104-.14-.118 0-.182 1.95-.063 3.963.02 5.913l.155-.394c-1.586 0-3.18-.134-4.772-.168q-2.387-.05-4.765-.091l.21.441c0-1.578-.014-3.148-.02-4.727-.008-1.579.063-3.085-.092-4.606-.02-.182-.134-.169-.155 0l.014.006z"/><path fill="#B7BFF6" d="M106.552 51.209h-9.027a.37.37 0 0 0-.371.37v9.02c0 .205.166.371.37.371h9.028a.37.37 0 0 0 .371-.37v-9.02a.37.37 0 0 0-.371-.371"/><path fill="#101A5B" d="M97.208 51.432c-.161 1.521-.09 3.084-.098 4.606-.006 1.522-.02 3.156-.034 4.728 0 .118.034.434.21.44 1.587.042 3.18.092 4.765.112 1.587.02 3.181-.04 4.765.034.148 0 .155-.316.155-.393 0-1.957.027-3.97-.239-5.906-.02-.14-.105-.14-.118 0-.182 1.95-.064 3.963.02 5.913l.155-.394c-1.587 0-3.181-.134-4.772-.168q-2.39-.05-4.765-.091l.209.441c0-1.579-.014-3.148-.02-4.727-.007-1.579.063-3.085-.091-4.607-.021-.182-.135-.168-.155 0l.013.007z"/><path fill="#B7BFF6" d="M106.639 65.41h-9.046c-.2 0-.362.163-.362.363v8.505c0 .2.162.362.362.362h9.046c.2 0 .362-.162.362-.362v-8.505c0-.2-.162-.362-.362-.362"/><path fill="#101A5B" d="M97.286 65.623c-.162 1.437-.091 2.916-.098 4.356s-.02 2.984-.034 4.468c0 .114.034.412.21.418 1.586.039 3.18.087 4.764.107s3.181-.038 4.766.034c.148 0 .155-.298.155-.37 0-1.85.027-3.754-.239-5.583-.021-.132-.105-.132-.119 0-.182 1.843-.064 3.747.021 5.59l.154-.371c-1.586 0-3.18-.126-4.772-.16-1.591-.034-3.18-.059-4.765-.086l.21.419c0-1.493-.014-2.978-.021-4.468s.064-2.917-.091-4.357c-.02-.173-.135-.159-.155 0l.014.007zM31.437 113.902c9.801 0 17.747-8.03 17.747-17.935s-7.946-17.935-17.747-17.935-17.748 8.03-17.748 17.935 7.946 17.935 17.748 17.935"/><path fill="#fff" d="M39.398 89.527a1.213 1.213 0 0 0-1.707 0l-9.28 9.272-3.716-3.712a1.206 1.206 0 1 0-1.708 1.706l4.515 4.511c.237.236.551.352.863.352.34.028.683-.084.943-.343l10.086-10.078a1.21 1.21 0 0 0 0-1.706l.004-.004zM36.216 108.618c1.971.106 3.344-.417 4.116-.808 3.401-1.729 5.307-6.101 4.868-11.052-.01.997-.162 5.419-3.643 8.836-1.972 1.934-4.158 2.707-5.342 3.024"/></g><defs><clipPath id="a"><path fill="#fff" d="M13.5 18h102v96h-102z"/></clipPath></defs></svg>