<svg xmlns="http://www.w3.org/2000/svg" width="132" height="132" fill="none" viewBox="0 0 132 132"><circle cx="66" cy="66" r="66" fill="#fff"/><g clip-path="url(#a)"><path fill="#fff" d="M34.983 47.515c-7.638 13.563-5.345 30.402 3.553 41.4 1.531 1.89 9.618 11.463 23.234 12.54 13.145 1.04 26.04-6.27 32.367-18.084 7.395-13.807 2.504-27.614 1.466-30.331-.488-1.279-8.759-21.944-28.976-23.493-13.89-1.069-25.749 7.486-31.655 17.965h.011z"/><path fill="#B7BFF6" d="M30.296 75.37c14.05 9.561 32.254 9.166 44.727-.613 15.805-12.38 13.752-33.017 13.616-34.154.901.944 13.613 14.557 9.275 33.159-.355 1.54-4.506 18.002-21.025 24.789-1.608.656-17.3 6.787-31.925-2.635-10.772-6.946-13.953-17.809-14.67-20.545z"/><path fill="#101A5B" d="M33.994 46.893c-4.727 7.307-5.83 16.765-4.438 25.232 1.168 7.176 4.279 14.1 9.255 19.445 4.602 4.929 10.5 8.586 16.925 10.57 8.302 2.555 17.733.847 25.207-3.317 8.081-4.501 14.237-12.218 16.755-21.145 2.19-7.725 1.787-16.191-.61-23.828-2.622-8.364-8.526-16.18-15.816-20.96-6.887-4.51-14.877-5.92-22.947-4.414s-15.816 6.38-21.107 13c-1.31 1.642-2.362 3.464-3.29 5.343-.136.281.071 1.472.125 1.38 4.46-6.408 10.242-11.8 17.515-14.798s15.7-3.095 23.191-.296c9.323 3.485 16.798 11.687 20.798 20.708 1.826 4.133 2.742 8.813 2.728 13.31-.028 9.171-4.298 17.808-11.13 23.828-12.13 10.692-30.784 11.871-43.745 1.964C31.762 84.008 26.77 68.22 31.413 54.242c.707-2.131 1.608-4.192 2.626-6.204.125-.259-.04-1.154-.051-1.145z"/><path fill="#101A5B" d="M38.247 55.905c-1.931 5.195-2.285 11.084-1.154 16.504 1.46 6.997 5.654 13.233 11.47 17.354 5.364 3.786 12.121 5.929 18.69 5.255 5.595-.577 10.804-3.115 14.989-6.835 1.922-1.703 3.581-3.607 4.93-5.787 2.748-4.433 4.538-9.504 5.065-14.69a30.05 30.05 0 0 0-5.217-20.148c-3.771-5.426-9.34-9.578-15.712-11.38-3.238-.918-6.677-1.222-10.009-.759-3.153.438-6.235 1.535-9.005 3.078-5.382 2.987-9.686 7.782-12.45 13.261-.664 1.319-1.13 2.697-1.614 4.084-.048.145-.088.367-.04.518.009.03.074.298.134.13.913-2.609 2.384-5.175 3.97-7.432a31.6 31.6 0 0 1 5.988-6.4c4.925-3.98 10.947-6.028 17.279-5.699 13.242.694 24.978 11.983 26.302 25.198.57 5.716-.939 11.466-3.584 16.505-1.106 2.106-2.393 4.055-4.024 5.789-3.139 3.348-7.043 6.042-11.376 7.557-5.96 2.075-12.646 1.901-18.498-.455-5.853-2.353-11.203-6.994-14.33-12.7-3.335-6.066-4.064-13.109-2.465-19.796.213-.881.448-1.77.726-2.638.037-.113-.02-.614-.054-.508h-.011z"/><path fill="#101A5B" d="M66.71 70.286c.272-.18.59-.273.853-.475a3.4 3.4 0 0 0 .672-.705c.388-.514.635-1.128.774-1.759.295-1.333.224-2.794-.306-4.064-1.112-2.666-4.1-4.01-6.718-2.62-2.62 1.39-3.39 4.723-2.557 7.466.757 2.504 3.215 4.726 5.957 3.743 2.354-.839 3.57-3.09 3.621-5.488.006-.117-.068-.404-.11-.131-.227 1.472-1.313 2.848-2.538 3.646-1.894 1.24-4.23.736-5.64-.98-.706-.853-1.273-2.03-1.228-3.169.046-1.14.74-2.245 1.605-2.996 1.835-1.6 4.551-1.665 6.32.077.874.858 1.585 2.166 1.463 3.422-.07.728-.362 1.435-.703 2.07-.363.673-.859 1.468-1.457 1.932v.031z"/><path fill="#101A5B" d="M61.27 70.309c-.115-.248-.243-.233-.427-.091-.153.11-.275.275-.406.406-.297.327-.575.654-.862.984-.575.664-1.128 1.352-1.693 2.017-.564.665-1.117 1.322-1.68 1.978-.6.697-1.308 1.348-1.835 2.098-.224.318-.222.796-.193 1.168.005.117.073.85.3.668.36-.273.386-.725.403-1.137.006-.136.017-.455-.082-.574-.142-.165-.097.028-.179-.006.037-.105.017-.147-.048-.119-.054.02-.094-.003-.136-.037l.042 1.876c.403-.324.738-.788 1.08-1.174.344-.39.675-.779 1.016-1.168a76 76 0 0 0 2.035-2.439c.664-.83 1.322-1.674 1.915-2.549.291-.432.657-.926.75-1.452.026-.148.046-.347-.002-.466v.02zM63.843 42.001c-.395 1.203-.358 2.683-.426 3.94a69 69 0 0 0-.107 4.408c.002 2.921.036 5.852.19 8.779l.113-2.132c-.15.853-.193 1.697-.142 2.555.026.404.153 2.334.939 1.919l.065-.029c.527-.275.553-1.776.581-2.188.043-.813.074-1.901-.331-2.646l-.06-.108.351 2.362c-.09 2.333.054-.327.032-.804-.014-.455-.051-.901-.074-1.36-.037-.656-.088-1.304-.125-1.96a152 152 0 0 1-.198-4.408c-.034-1.282-.054-2.68-.085-4.056s.04-2.919-.27-4.263c-.107-.492-.32-.466-.473-.009z"/><path fill="#101A5B" fill-rule="evenodd" d="M38.678 29.553c16.162-11.675 38.37-11.118 53.984 1.228a45.3 45.3 0 0 1 5.382 5.033c.122.16.088.387-.093.48l-6.057 3.186 19.959 12.617.916-23.675-6.238 3.28a.31.31 0 0 1-.38-.066c-2.385-2.899-5.107-5.533-8.047-7.867C79.398 8.98 52.787 8.382 33.458 22.357c-9.876 7.145-16.46 16.743-20.115 28.316l8.512 2.45c3.122-9.655 8.549-17.61 16.826-23.567zM109.505 68.007c-.774 12.118-5.379 22.583-14.305 30.862-15.028 13.941-37.74 15.89-54.875 4.658a45.16 45.16 0 0 1-15.331-17.058.296.296 0 0 1 .196-.426l6.6-1.504L15.76 67.174 8.775 89.77l7.066-1.614c.153-.045.329.063.374.219 1.61 7.057 12.788 18.286 19.296 22.572 20.61 13.537 47.641 11.215 65.731-5.539 10.696-9.922 16.279-22.57 17.169-37.056l-8.897-.346z" clip-rule="evenodd"/></g><defs><clipPath id="a"><path fill="#fff" d="M8.5 12h114v108H8.5z"/></clipPath></defs></svg>