<svg xmlns="http://www.w3.org/2000/svg" id="Layer_1" width="276" height="258" data-name="Layer 1" viewBox="0 0 1080 1080"><defs><style>.cls-2,.cls-3,.cls-4,.cls-5{fill:none}.cls-3{stroke-width:1.7px}.cls-3,.cls-4,.cls-5{stroke-miterlimit:10}.cls-4{stroke:#010102}.cls-7{fill:#010102}.cls-2{stroke-miterlimit:10;stroke-width:1.7px}.cls-2,.cls-3,.cls-5{stroke:#babcbc}.cls-8{fill:#020202}.cls-9{fill:#fff}.cls-10{fill:#2740e3}.cls-11{fill:#babcbc}.cls-12{fill:#dbdffa}</style></defs><path d="M934.9 750.3c54.3-67.6 84.4-152.6 71.8-234.2-28.3-183.8-244.2-303-482.3-266.4S116.2 465 144.5 648.8c11 71.2 53.9 141 111.6 187.5l60.8-14.4 48.6-10 37.8-8.7s19.7 3.3 30.1 3.9 52.9.2 62.3 1 20.7 6.2 27.9 7.1 40.3-10.7 44.3-8.8 65.4-11.2 65.4-11.2l62.7-21.6s79-9.3 94.2-13.9 79.2-15.4 79.2-15.4h33.2l13.8-3.2 18.4 9.1" class="cls-12"/><path d="M114.3 708s-4.9-10.8-6.7-16.5c-1.7-5.7-5.3-18.4-5.3-18.4l-4.6-17.8 5.3-.9 7.7-.9 9.9.4-.4-3.1-2.6-4.4-4.4-5.5-5.8-6.1-3.4-3.4-3.5-7-2.6-6.9-.9-3.7s4.3-.5 7 0 21 2.8 30.1 15.2c1.2-3.4 4-12.6 5.6-15.7s6.6-12.1 8-13.6 3.2-4.4 3.2-4.4L160 624s13.9-4.5 18.1 5.8v.7c.1 0-1.9-.9-4.3-.9s-5 .3-7.3 1.6-5.1 3.1-6.9 5.6c-1.9 2.5-4.6 6.1-5.3 8.4-.7 2.2-.8 2.5-.8 2.5s5.3.7 9.4 2.1 9.2 4 9.2 4 6.7 4.6 7.3 5.1c0 .7-12.8 52.4-12.8 52.4s-3.6.3-7.1 1-13.7 2.9-15.7 3.3-9.1 1.6-9.1 1.6l-13.5-6.4-6.8-3.1z" class="cls-9"/><path d="m367.4 812 55.9-12.5-58.9-25.3-19.7 1.6z" class="cls-12"/><path d="M398.46 804.67c-.13.55-.72.8-1.23.69-.28-.05-.54-.13-.82-.2-.25.45-.92.63-1.35.35-.28-.18-.58-.33-.89-.47-.01 0-.02-.01-.04-.02-.07-.03-.15-.06-.22-.09-.14-.05-.29-.11-.43-.17-.32-.13-.64-.25-.96-.4-2.49-.29-4.86-1.35-7.21-2.17-2.97-1.04-5.99-1.94-8.97-2.96-2.87-.98-5.59-2.29-8.29-3.68-2.12-1.08-5.32-2.18-6.18-4.63-.17-.49.1-.91.49-1.11-.85-.63-1.45-1.37-1.58-2.52-.14-1.28 1.86-1.26 2 0 .08.71 1.14 1.19 1.67 1.51.7.44 1.41.86 2.12 1.26 1.31.74 2.63 1.43 3.98 2.08 2.82 1.37 5.73 2.56 8.67 3.65 5.97 2.22 12.08 4.07 18.15 6.01.8.25.86 1.17.45 1.66.51.14.75.73.64 1.21" class="cls-9"/><path d="M367.4 812c17.9-4.9 37.5-10.2 55.4-14.5l-.4 3.8c-7.4-3-22.2-9.2-29.5-12.4-9.5-4.1-19.9-8.6-29.3-12.8l1 .2c-4.9.4-14.9 1-19.8 1.3l1.3-2.6c1.8 3 3.6 6 5.3 9 4.8 8.3 11.3 19.7 16 28m0 0c-8-11.4-16.6-23.7-24.2-35.2l-1.5-2.3c6.2-.7 16.3-1.7 22.6-2.3h.5l.5.2c21 8.7 43.6 18.5 64.4 27.8-6.6 1.4-13.7 2.9-20.3 4.2-13.5 2.7-28.4 5.3-42 7.7z" class="cls-7"/><path d="m143 906.6 149.6-37.5-1.4-44.8-7.6-112.4-74.2-33.1-142.5 27.5L76 858.1z" class="cls-9"/><path d="M133.06 714.75c-.44-1.68-.87-3.36-1.31-5.04a.88.88 0 0 0-.31-.48c-.03-.09-.07-.19-.14-.29a1378 1378 0 0 1-15.18-21.93c1.41-.44 2.85-.76 4.32-.93.89-.11 1.28-1 .71-1.71-6.13-7.49-14.71-12.93-19.5-21.51-.63-1.12-2.36-.12-1.73 1.01.17.31.36.61.55.92-.19.16-.32.39-.35.7-.09 1.14.4 2.04.82 3.06.37.9.62 1.85.83 2.79.45 2.04.67 4.14 1.27 6.15s1.56 3.89 2.2 5.89c.66 2.07 1.42 4.1 2.19 6.13a.87.87 0 0 0-.03.66q.75 2.28 1.62 4.53c.55 1.43 1.23 2.83 1.74 4.27.5 1.4.53 2.9 1.08 4.3.52 1.32 1.25 2.52 2 3.72.18.29.44.43.71.46.37.85 1.44 1.19 2.27 1.62l3.57 1.86c.5.26.97.06 1.25-.28.7.3 1.4.58 2.11.87 2.79 1.16 5.42 2.56 7.85 4.36.74.55 1.67-.35 1.47-1.13Z" class="cls-12"/><path d="M169.04 699.89c-.06-.57-.5-1.07-1.18-.81-3.42 1.33-7.05 1.29-10.65 1.13-3.29-.14-6.58-.34-9.84-.74-6.54-.79-13.04-2.48-18.59-6.15-1.08-.71-2.08 1.02-1.01 1.73.25.17.52.31.78.47-.31.24-.43.65-.36 1.06.55 3.49 1.67 6.87 3.27 10.01-.2.21-.29.52-.14.89.5 1.21 1.01 2.43 1.34 3.7.29 1.11.3 2.25.52 3.37.19.97.62 2 1.52 2.52.97.56 2.09.31 3.12.1 4.68-.95 9.68-.7 13.96-3.01.14.03.29.02.46-.03a62 62 0 0 1 6.41-1.59c2.1-.4 4.24-.6 6.32-1.11.88-.22 1.61-.49 1.93-1.42.32-.96.17-1.94.58-2.89.85-1.99 1.28-4.19 1.86-6.27.12-.42-.04-.75-.3-.97ZM291.01 854.57c.05-4.08.47-8.16.24-12.25 0-.08-.04-.13-.05-.2.67-.56.13-1.95-.95-1.73-11.01 2.23-22.41 1.34-33.56.89-11.13-.45-22.26-1.04-33.31-2.45-20.56-2.63-40.44-8.81-58.57-18.91-4.89-2.72-9.64-5.71-14.21-8.94-4.73-3.34-9.36-6.9-13.15-11.3-.74-.86-1.92.14-1.62 1.05 0 .03-.02.04-.03.07-.72 4.83-.12 9.7.27 14.54a5280.984 5280.984 0 0 1 3.55 46.05c.42 5.78.83 11.56 1.22 17.34.01.2.09.36.18.5-.36 3.74-.21 7.49.09 11.24.34 4.33.73 8.66 1.1 12.99.04.5.38.8.77.91.18.42.58.75 1.15.63 19.04-3.95 37.86-8.85 56.66-13.79 19.04-5 38.07-10.01 57.1-15.04 10.75-2.84 21.49-5.68 32.23-8.52.62.32 1.52.06 1.43-.82-.4-4.08-.59-8.17-.54-12.26" class="cls-12"/><path d="M498.9 808.6s20.3 4 25.9 5.8 13.8 1.2 18.8-.8 7-4.9 12.3-6.5 7.7-3.1 14.2.2c6.4 3.3 10 7.2 15.1 8.8s15.7 4.5 18.3 1c3.7-1.3 7.6.3 8.8-1s2.2-5.2 1.5-7c2.9 0 4.7 2.1 7.5 1.7s9.1.8 7.3-4.8l-2.9-8.5 70.5-23.2 7 5.3 7.7 4.8 7.7 2.4h5.1l7 1.3s5.8 5.5 7.2 6.1 6.8.3 7.6 0 1.6-.4 1.3-3.2-2.5-13.1-2.5-13.1 2.9 3.6 4.3 5 4 4.2 6.3 4.3 4.5-.3 4.8-1.4c2 1.8 3 4 6.9 3.8s6.4-1.1 5.9-4.9c1.4.9 3.9 3 5.8 1.5s2.5-5.5 1.7-8-3.5-15.6-6.2-18-9.7-9.6-13.6-10.8c-2.5-1.1-4.4-.7-5.7-.9s-5.7-2.8-7.1-3.6-2.5-1.5-3.1-1.6-2.2-.4-2.8.1c-2.1-1-10.2-1.8-12.4-2-2.3-.2-12.2-2.5-12.2-2.5s-11.4-2.3-27.7-20.1c-17-17.1-26.5-26.5-31.8-27-.7-6.1-10.1-55.1-10.1-55.1l6-.7s-14.6-84.9-16.7-94.4c-2-9.5-6.3-48.9-34.6-59.7s-38.5-14.9-41.4-15.1-4.9-.1-5.8.5c-1.8-2-20.2-22.8-26.4-25.5l-2-.5 7.1-24.4s11.5 3.7 19.1 2.7c7.7-1 20.4-4.2 26.3-19.6s10.3-53 9.5-69.8-4.7-42.2-6.2-49.3-8.5-40.7-9.1-43.9c-.6-3.1-10.2-18.5-32.2-13.9-22.1 4.6-56.6 9.1-62.9 18.2-6.2 9.1-39.8 43.2-41.5 62.6s-8.2 35.5 1 47.7c9.1 12.2 21.2 16.8 24.2 33.6s3.8 43.6 3.8 43.6-3.7-2.9-5.8-3c-2.2 0-7.4 2.2-10.6 6.8-3.3 4.5-8.2 13.1-9.3 15.4-1 2.2-3.7 9.4-3.5 13.6s.3 6.5.3 6.5-7.8 2.5-11.4 4.2c-3.6 1.6-18.3 7.2-28 12.5-9.7 5.2-23.2 12.8-29.5 17.1-6.3 4.2-17.5 10.6-23.8 17s-15.3 15.9-15.9 27-.6 14.2-.6 14.2L323.3 688s3.5-2 8.9-4.1l3-1.2s-1.8 25.5 8.9 58c10.7 32.4 14.4 44.2 14.4 44.2s5.3 2.7 12.3 5.9 15.9 7.4 28.1 10.6 26.1 7 41.7 7 34.9-1.3 43.9-.7 14.2 1.4 14.2 1.4z" class="cls-9"/><path d="M600.81 634.8s-.03-.09-.04-.14c.25-.86-.21-1.98-1.38-2.03-8.45-.35-16.64-2.93-23.8-7.4 1.3-1.39 2.42-2.94 3.34-4.61.46-.83.06-1.96-.9-2.2-7.85-2.03-14.62-7.75-17.73-15.28-.73-1.76-3.63-.99-2.89.8.68 1.64 1.51 3.2 2.46 4.68-.57.34-.82 1-.7 1.67.24 1.34.93 2.5 1.03 3.85.11 1.55.33 3.07.56 4.6.22 1.44.37 2.88.3 4.34-.08 1.57-.33 3.12-.21 4.7.02.23.08.43.17.6-.52 3.43-.52 6.85 0 10.29-.75.75-.75 2.23.57 2.5 3.01.61 5.63 1.38 7.96 3.47 1.94 1.74 3.72 3.77 6.14 4.85 1.39.63 2.88.9 4.4.95 1.5.05 3.25.07 4.71-.31 1.47-.39 2.54-1.68 3.61-2.69.8-.76 1.62-1.49 2.3-2.34 1.73-1.71 3.49-3.07 5.61-4.3.54-.31 1.1-.61 1.66-.89.63-.31 1.26-.67 1.65-1.28.17-.27.29-.58.37-.89 0 0 .06-.22.06-.26.05-.1.11-.2.17-.29.5-.77.73-1.48.57-2.4ZM650.27 632.97c-.94-4.14-1.48-8.34-1.61-12.59 0-.24-.1-.43-.22-.58h.01c1.07-.7.07-2.43-1.01-1.73-5.02 3.29-12.37 4.93-17.41.76-4.77-3.95-5.51-10.95-5.62-16.73-.08-3.88.18-7.77.8-11.6.58-3.61 1.6-7.13 2.26-10.73 1.32-7.24-.02-14.5-2.53-21.35-2.47-6.75-6.83-13.09-13.89-15.51-.78-.27-1.36.54-1.23 1.23 1.3 6.98 2.62 14.06 2.28 21.19-.15 3.16-.63 6.3-1.56 9.33-.94 3.06-2.46 5.68-4.1 8.4-.74 1.22-1.41 2.49-1.8 3.87-.47 1.67-.53 3.42-.7 5.13-.34 3.45-.98 6.87-1.38 10.31-.82 7.05-.17 14.13-.32 21.2-.16 7.88-1.93 15.7-1.31 23.59.06.77.8 1.23 1.5.86 3.57-1.88 7.15-3.71 11-4.96 3.81-1.25 7.73-2.1 11.62-3.03 8.17-1.94 16.34-3.89 24.52-5.83.54-.13.81-.72.7-1.23" class="cls-12"/><path d="M650.69 632.88c-.16.56-.62 1.05-1.36 1.12a124.7 124.7 0 0 0-25.4 4.86c-3.88 1.17-8.09 2.32-11.63 4.31-1.79 1.01-3.42 2.25-5.25 3.19-1.82.93-3.73 1.66-5.7 2.22-1.35.38-2.14-1.04-1.75-2.05a.99.99 0 0 1 .41-.74c6.8-5.17 14.81-8.43 23.02-10.63 4.45-1.19 8.97-2.08 13.51-2.88 4.55-.79 9.13-1.47 13.76-1.34 1.14.04 1.27 1.61.39 1.94" class="cls-9"/><path d="M462.5 342.82c-1.25-1.38-2.62-2.68-4.2-3.67-1.56-.97-3.27-1.67-4.97-2.34a.96.96 0 0 0-.95-.44c-1.51.17-3.05.56-4.1 1.75-1.01 1.15-1.08 2.65-.53 4.03.55 1.36 1.61 2.75 2.79 3.63 1.34.99 3.12 1.28 4.68 1.77 1.71.53 3.41 1.11 5.01 1.9.7.35 1.37.85 2.13 1.06.75.2 1.46.02 2.15-.31 3.52-1.69-.5-5.71-2.01-7.37ZM582.23 284.29s-.05-.04-.08-.06c.05-.2.05-.42-.06-.66-.76-1.67-1.53-3.35-2.37-4.98-.84-1.61-1.74-3.17-2.8-4.64-.95-1.31-2-2.76-3.31-3.72s-3.12-.85-4.66-.9c-2.03-.06-4.06 0-6.07.18-1.68.16-3.6.21-5.04 1.19-1.42.95-2.35 2.66-3.23 4.07-.95 1.54-1.8 3.15-2.57 4.78-.26.16-.46.42-.45.81 0 1.92-1.04 3.64-1.18 5.55-.13 1.95.24 3.98.42 5.91.38 4.08.72 8.16 1.24 12.22.48 3.78 1.56 7.21 2.89 10.77 1.22 3.28 2.59 6.53 4.49 9.48.01.01 0 .03.01.04.39 1.19.96 2.29 1.66 3.32-.57 0-1.19.49-1.08 1.24.03.18.06.36.1.54 1.19 2.44 2.33 4.83 3.33 7.16 1.38 2.11 2.86 4.18 3.82 6.51 2.59 6.32-.23 13.19-2.74 19.06-.41.94.41 1.79 1.37 1.36.3-.13.58-.27.86-.43 2.13-1.14 3.85-2.87 5.34-4.78 1.79-2.3 3.53-4.77 4.82-7.38 2.81-5.68 2.17-12.32 1.97-18.46-.21-6.59-.85-13.19-3.03-19.46-2.05-5.92-5.09-11.53-6.37-17.71-.69-3.37-.61-7.03 2.19-9.43 2.58-2.22 6.44-2.25 9.12-.17 1 .78 2.43-.62 1.41-1.41M533.01 276.64c-1.45-1.69-4.31-1.62-5.16.61-.07.19-.07.36-.04.51-.01 0-.02.01-.03.02-4.3 3.49-8.63 7.02-12.06 11.41-1.61 2.06-3.45 4.5-3.96 7.13-.2 1.06-.27 2.39.33 3.36.63 1 1.96 1.2 3.03 1.38 2.09.35 4.48.33 6.17-1.14.98-.85 1.44-2.03 1.89-3.21.46-1.21.94-2.4 1.57-3.54 1.26-2.31 2.86-3.78 5.33-4.7 2.24-.83 3.98-2.09 4.43-4.58.41-2.26.04-5.44-1.5-7.25M607.34 765.09a56 56 0 0 0-.33-3.18 98 98 0 0 0-.95-5.91c-1.74-9.05-4.5-17.96-4.7-27.24 0-.09-.03-.16-.05-.24.14-.57-.16-1.28-.92-1.28-16.69-.08-33.04-3.98-48.5-10.12-15.77-6.26-30.6-14.71-44.9-23.79-7.14-4.53-14.16-9.25-21.16-14.01 10.41-.14 20.75-2.12 30.46-5.9 1.07-.42.87-1.83-.27-1.96-16.21-1.86-31.01-9.33-44.16-18.69-6.7-4.78-13.03-10.06-19.18-15.52-6.16-5.48-12.25-11.09-18.13-16.87-6.7-6.59-13.06-13.85-16.5-22.73-.34-.88-1.5-.82-1.88-.24-.51-.27-1.25-.16-1.47.55-1.35 4.41-2.71 8.86-4.69 13.04-1.02 2.16-2.38 4.07-3.51 6.16-1 1.85-1.14 3.87-.91 5.93.55 4.95 1.38 9.86 1.9 14.81.4 3.84.7 7.7.96 11.55-.05.13-.08.27-.06.45 1.11 11.72 1.88 23.47 2.33 35.23-2.37-.76-4.74-1.51-7.12-2.27-.62-.2-1.27.33-1.27.96.04 2.91.07 5.83.11 8.74-.18.16-.29.4-.28.71.14 3.82.26 7.64.44 11.46.17 3.78.69 7.47 1.27 11.2 1.21 7.79 1.22 15.68 1.21 23.54 0 .18.05.33.11.46-.08.36.04.75.48.97 8.1 3.92 16.16 7.93 24.31 11.75 1.84.86 3.7 1.68 5.64 2.28 1.95.6 3.96.93 5.96 1.29s3.98.77 5.88 1.5c1.99.76 3.86 1.79 5.77 2.73 7.65 3.77 16.16 5.68 24.35 7.91 8.55 2.33 17.14 4.53 25.82 6.31 9.69 1.99 19.5 3.44 29.38 4 .49.03.79-.25.91-.61.85.18 1.72.28 2.6.28 1.11 0 1.26-1.46.46-1.88 6.47-2.09 12.66-5.03 18.79-7.96 1.87-.89 3.73-1.82 5.5-2.89 1.71-1.03 3.25-2.27 4.87-3.43 3.35-2.42 7.45-2.91 11.49-3.03 4-.12 8.03.4 11.77 1.85 3.52 1.37 6.62 3.61 9.91 5.43 1.65.91 7.49 4.51 8.28 1.04.17-.76.02-1.62-.04-2.39Z" class="cls-12"/><path d="M550.9 798.1c-.84.69-.07 2.1-.39 3.58-.87 4.01-9.24 6.45-16.8 6.51-10.21.07-14.83-4.25-27.09-8.99-8.52-3.29-14.76-4.81-25.23-6.51-26.21-4.26-32.06.87-58.86-2.71-12.33-1.65-19.86-2.72-29.23-7.16-9.29-4.41-25.94-12.3-31.14-30.14-4.92-16.85 1.79-36.28 15.15-46.17 7.21-5.34 15.69-8.68 24.47-10.34.17 0 .34-.03.51-.1.78-.14 1.56-.28 2.35-.39 1.27-.19.73-2.11-.53-1.93-.34.05-.68.11-1.02.16 0-3.97 0-7.94.01-11.91-.16-.16-.43-.4-.8-.65 0 0-.76-.51-1.7-.78-16.25-4.62-29.59-4.56-29.59-4.56-18.61.09-19.03 1.07-32.53 4.69-2 .54-4.84 1.11-6.35 2.64-1.59 1.62-.7 4.61-.4 6.58.84 5.48 2 10.92 3.02 16.36l6.3 33.53c2.25 11.95 4.55 23.95 8.95 35.33.02.06.06.09.09.14.02.27.16.53.49.7 1.93.96 3.38 2.53 5.07 3.84.87.68 1.79 1.28 2.74 1.83-.1.16-.17.33-.17.52.01.27.1.51.29.71.42.44.85.88 1.27 1.31.18.18.45.29.71.29.14 0 .27-.02.39-.09.12-.04.23-.11.32-.21.17-.19.3-.44.29-.71 0-.08-.03-.15-.05-.22 4.36 2.09 8.81 4 13.27 5.86 8.71 3.63 17.67 6.73 25.97 11.27-.66.3-.97 1.32-.15 1.77 6.93 3.85 14.92 4.59 22.68 5.12 8.64.59 17.29.84 25.95 1.02 17.36.36 34.77.4 52.05 2.25 4.96.53 9.9 1.21 14.82 2.1.72.13 1.44.27 2.17.42 4.17 1.51 8.84 3.02 12.59 3.25 6.8.3 17.6-2 24.4-6.4 4.45-2.57 8.51-3.09 11.5-2.81v-.19a65.5 65.5 0 0 0-8.05-5.86c-3.27-2.02-6.49-3.97-7.75-2.94Z" class="cls-12"/><path d="M600.67 815.43c-.85.67-2.25.32-3.21.16-1.01-.17-2.02-.37-3.02-.6-2.14-.51-4.25-1.17-6.29-1.99-4.28-1.72-7.99-4.33-11.93-6.68-2-1.2-4.1-2.19-6.21-3.18-2.09-.98-4.12-2.07-6.2-3.07-3.8-1.83-8.01-3.17-12.2-1.91-1.23.37-.71 2.3.53 1.93 1.09-.33 2.17-.45 3.23-.42-.11.47.07 1 .68 1.15 1.42.35 2.84.7 4.22 1.2 1.44.53 2.66 1.33 3.94 2.15 2.46 1.58 5.4 2.44 8.12 3.49.59.23 1.02-.13 1.15-.6 1.65.91 3.25 1.91 4.84 2.93 3.86 2.46 7.83 4.58 12.2 5.98 2.1.67 4.24 1.19 6.42 1.55 1.84.3 3.61.54 5.16-.68 1.01-.79-.41-2.2-1.41-1.41ZM440.25 477.3c0-.1 0-.19-.05-.3-.97-2.56-1.93-5.13-2.9-7.69-.18-.48-.68-.89-1.23-.7-15.5 5.44-31.06 10.94-45.47 18.93-14.12 7.83-27.1 17.56-39.92 27.31-6.41 4.88-12.77 10.09-16.88 17.14-.23.4-.15.78.07 1.06-2.67 2.62-3.47 6.32-3.77 9.93-.4 4.83-.43 9.72-.63 14.57-.41 10.22-.82 20.45-1.22 30.67-.82 20.45-1.63 40.9-2.45 61.35l-1.38 34.66c0 .24.07.43.18.58-.51.73.37 1.95 1.35 1.42a57.7 57.7 0 0 1 17.53-6.04c-.12.56.17 1.26.92 1.31 2.72.19 5.21-.8 7.67-1.84 2.7-1.14 5.42-2.04 8.31-2.56 5.73-1.04 11.61-.85 17.41-.67.42.01.69-.2.84-.48 6.84-1.08 12.49-5.76 15.77-11.78 4.06-7.45 3.99-16.31 1.99-24.37-2.16-8.68-6.34-16.97-11.48-24.25-5.23-7.41-11.96-13.52-17.61-20.58-5.71-7.14-9.51-15.48-12.02-24.22-2.42-8.42-3.8-17.49-2.12-26.19.85-4.4 2.51-8.53 4.93-12.3 2.46-3.84 5.5-7.26 8.55-10.63 6.02-6.66 12.29-13.11 19.1-18.96 13.51-11.61 29.78-21.02 47.76-23.03q3.24-.36 6.51-.39c1.19-.01 1.27-1.71.25-1.95Z" class="cls-12"/><path d="M437.4 469.5s8 19.6 15.2 29.8c7.2 10.3 20.4 26.1 20.4 26.1l12.8 12.1s3.9 3.1 6.1-5.1c2.2-8.1 8.4-27.5 8.4-27.5l6.5-15.2 3.3 1.4 15.8 47 15.9-30.4 18.2 7.9-.9-24.8s.2-17.4-5-23.9-21-23.9-26.5-25.6c0 0-5.1 15.9-4.8 18.2s2.4 7.1 2.4 7.1 3.7 7.1 4.6 8.8 3.8 7.3 4.1 10.5 0 9.4-2.1 13.5c-2 4-5.9 8.9-7.2 14.2s-2.1 8.4-1.9 10.9c-3-4.9-5.4-12.2-5.4-12.2l-7.1-21.1-3.3-1.4s-14.8-3.9-23-13.2-15.6-19.7-17.5-23.7c.5-6 1.3-20.1.2-21.7s-4.3-5.6-6.8-5.6-5.9 0-9.8 5.8-10.4 15.4-11.8 20.5c-1.2 4.6-3.2 8.4-.8 17.6" class="cls-10"/><path d="M598.3 666c2.1-12.5 2.6 18.1 5.6 23.4 3 5.2 31.1 50.9 31.9 72.8l-21.7 4.4-7.4 1.5s-11.3-84.8-8.4-102z" class="cls-8"/><path d="m844.2 833.1.5-30.9-66.3-29.3-82.1 1.3-203.1 55.2v27.2l93.6 55.7z" class="cls-9"/><path d="M834.92 833.93c-2.84-1.31-6.24-1.37-9.32-1.56-3.29-.21-6.58-.23-9.87-.1-6.53.26-13.04 1.12-19.44 2.39-13.27 2.64-26.07 7.08-38.71 11.81-12.74 4.77-25.37 9.85-38.42 13.75-12.98 3.88-26.31 6.63-39.78 8.08-7.56.81-15.17 1.22-22.78 1.21-3.35 0-6.88.16-10.19-.42-2.35-.41-5.09-1.3-5.72-3.89-.15-.61-.68-.79-1.16-.68-.2-.3-.56-.47-1.01-.29-7.23 2.88-15.14 3.31-22.43 5.99-3.66 1.35-7.07 3.22-10.81 4.36-3.73 1.14-7.57 1.86-11.32 2.93-2.03.58-4.03 1.27-5.96 2.13-1.13.5-3.99 1.43-2.93 3.16 0 .01.02.02.03.03-.02.08-.06.16-.06.26-.33 9.38-.75 18.99 1.1 28.24.08.39.55.77.96.73 1.78-.18 3.26-.96 4.84-1.75.39-.2.79-.38 1.19-.56.15.05.31.07.5.04 3.67-.65 7.38-1.4 10.93-2.54 3.41-1.1 6.31-3.13 9.63-4.4 3.42-1.32 7.14-1.68 10.68-2.61 1.48-.39 3.08-.8 4.56-1.42.17.06.35.09.56.04 12.81-3.15 25.55-6.65 38.02-10.97 4.28-1.48 8.53-3.07 12.76-4.69.08.55.5 1.01 1.17.75 7.84-2.99 15.68-5.99 23.59-8.79 3.95-1.4 7.92-2.75 11.92-4.02 1.93-.62 3.88-1.18 5.81-1.8q.555-.18 1.08-.39c.27.38.77.63 1.31.4 13.03-5.55 26.62-9.74 40.5-12.54.48-.1.7-.43.72-.8a2105 2105 0 0 1 66.46-19.66c.4-.11.59-.39.66-.69 1.13.44 2.09-1.21.94-1.74ZM612.98 812.64c-3.58-.61-7.21-1.5-10.26-3.56-1.59-1.08-2.92-2.49-4.31-3.8a80 80 0 0 0-4.39-3.84 60.3 60.3 0 0 0-9.41-6.25c-3.24-1.74-6.23-3.9-9.48-5.6-1.78-.93-3.64-1.61-5.62-1.96-2.18-.38-4.39-.52-6.5-1.24-1.22-.41-1.75 1.52-.53 1.93 1.04.35 2.11.58 3.18.76 0 .4.19.8.7.94 4.94 1.36 9.57 3.54 14.18 5.74.35.17.67.11.94-.04.5.3 1 .58 1.51.86 3.46 1.86 6.74 3.93 9.8 6.41 2.85 2.32 5.32 5.12 8.25 7.32.17.13.34.23.51.35-.21.43-.19 1.01.3 1.37 1.86 1.38 3.99 2.4 6.26 2.91 1.69.38 4.03.86 5.33-.63.44-.51.36-1.54-.44-1.67ZM626.12 806.21c-2-.34-4.05.08-6.03-.33-1.95-.41-3.79-1.82-5.4-2.93-3.39-2.33-6.34-5.12-9.17-8.09-2.7-2.83-5.38-5.69-8.5-8.07-3.07-2.34-6.47-4.22-9.97-5.83-4.01-1.84-8.16-3.34-12.31-4.83-1.21-.43-1.73 1.48-.54 1.92-.19.5-.04 1.14.62 1.33 7.71 2.3 15.05 5.98 21.29 11.09 3.19 2.61 5.93 5.64 8.73 8.66 2.68 2.9 5.54 5.76 9.06 7.62 3.75 1.97 8.16 2.85 12.24 1.38.83-.3 1.06-1.75 0-1.93Z" class="cls-12"/><path d="M620.84 796.7c-4.18-3.21-4.71-5.59-8.15-9.91 0 0-6.27-7.87-17.93-14.31-2.87-1.58-4.42-2.4-6.54-3.54-1.08-.58-2.17-1.28-3.3-1.76-.82-.35-1.49-.36-2.18.23-.91.78.25 2.03 1.2 1.54.73.11 1.65.85 2.22 1.15l2.73 1.47c1.75.94 3.52 1.86 5.24 2.86 3.21 1.85 6.01 4.24 8.64 6.83 5 4.91 9.34 10.46 14.59 15.12.77.69 1.57 1.35 2.38 1.99-.17.33-.16.75.2 1.09 1.09 1.06 4.31 6.61 6.22 6.01.32-.1 1.4-.62 1.48-4.96a27.7 27.7 0 0 1-6.81-3.81Z" class="cls-12"/><path d="m131.5 743.3-64.6-38.1L76 857.5l67.8 48z" class="cls-7"/><path d="M467.9 452.7s2.5-9.4 2.4-18.6 2.2-65-4.2-70.4c1.9 0 5.5-1.2 7.1-4.9-2.4.4-4.4 2.1-10.2 1.8s-16.4-2.6-21.1-13.1-1.7-17.5 3.3-21.7c5-4.3 20.9-4.6 25.6 4.4 1.8 3.1 3.5 1.4 4.5.8s5.8-2.6 5.2-7.4-1.4-12.5-1.4-18.3c0-3.4 1.6-6.2 4-9.2s7.9-7.5 8-12.3c0-4.8.4-17.5-.8-20.6-1.1-3.1-2-7 0-7.5s9.2-1.7 13.4-2.6 13-2.5 16.1-3.6 20.9-10.6 28.9-19.5c-3.9 5.3-13.6 15.1-19.6 17 3.6-.6 29.6-7.7 36.9-13.7-.3 1.8-5.6 6.5-8.5 7.6 5.5-.7 13.9-1.4 15.2-1.8 0 1.8 14.4-10.9 13.4-22.3s-3.3-30.6-27.3-34c-18.4-2.5-29 4.4-41 6.8-12 2.3-22.8 4.6-40 5.4s-35.4 10.1-44.5 26.9c1.4-4.8 5.8-13.3 5.8-13.3s-11.8 11.6-9.5 27c-6.4.4-11.1 0-15.6 7.8 2.5-.9 8.2-4.7 13.5-1.3-3.8 1.6-27.8 7.2-30 43.7-1.6 19.1 19.9 48.9 25 57.2s33.2 46.5 36.4 57.9c2.1 6 2.1 21.7 2.1 21.7s0 20.9 6.9 30.2z" class="cls-8"/><path d="M446.8 339.6s5-3.5 9.5-.9c4.5 2.7 10.3 9.9 10.3 9.9s2.1-2.5-.7-6.2c-2.9-3.7-6.2-8.3-12.2-8.4s-6.6 3.2-6.9 5.6" class="cls-8"/><path d="M505.1 396.8c6.3 5.6 13.8 9.7 21.5 13 7.5 3.2 15.5 5.8 23.6 6.1 9.4.7 18.4-3.2 22.7-11.8 7.2-11.6 9.5-26.3 11.1-39.9 1.7-17.7 2.1-35.7 1.1-53.5-1.7-17.6-6-35.7-8.8-53.2-.9-5.3-2.8-16.1-3.6-21.4l1-.2c3.6 14 6.7 28.2 10.3 42.1 3.5 14.1 6.7 28.5 7.2 43.1 1.3 25.9 1.7 64.3-12.1 86.9-5.5 10.5-16.6 16.2-29.4 15.1-14.2-1.3-27.9-8.5-38.5-17.7-2.6-2.4-5-5-6.9-8l.8-.7z" class="cls-7"/><path d="M504.4 397.6c6.3 5.6 13.8 9.7 21.5 13 7.5 3.2 15.5 5.8 23.6 6.1 9.4.7 18.4-3.2 22.7-11.8 7.2-11.6 9.5-26.3 11.1-39.9 1.7-17.7 2.1-35.7 1.1-53.5-1.7-17.6-6-35.7-8.8-53.2-.9-5.3-2.8-16.1-3.6-21.4l1-.2c3.6 14 6.7 28.2 10.3 42.1 3.5 14.1 6.7 28.5 7.2 43.1 1.3 25.9 1.7 64.3-12.1 86.9-5.5 10.5-16.6 16.2-29.4 15.1-14.2-1.3-27.9-8.5-38.5-17.7-2.6-2.4-5-5-6.9-8l.8-.7z" class="cls-7"/><path d="M506.1 396.8c6.3 5.6 13.8 9.7 21.5 13 7.5 3.2 15.5 5.8 23.6 6.1 9.4.7 18.4-3.2 22.7-11.8 7.2-11.6 9.5-26.3 11.1-39.9 1.7-17.7 2.1-35.7 1.1-53.5-1.7-17.6-6-35.7-8.8-53.2-.9-5.3-2.8-16.1-3.6-21.4l1-.2c3.6 14 6.7 28.2 10.3 42.1 3.5 14.1 6.7 28.5 7.2 43.1 1.3 25.9 1.7 64.3-12.1 86.9-5.5 10.5-16.6 16.2-29.4 15.1-14.2-1.3-27.9-8.5-38.5-17.7-2.6-2.4-5-5-6.9-8l.8-.7z" class="cls-7"/><path d="M525.4 436.5s-31.5-5.3-21.3-39.8c5.3 5 18.8 16.5 34.6 20.1-3.4 6.9-6.7 11.4-8.2 19.7z" class="cls-8"/><path d="M451.1 343.2c.8-.9 2-1.1 3.1-.7.4.1.7.4.9.7h-1c-1 0-1.9.2-2.9 0z" class="cls-7"/><path d="M511 300.1s7.6-12.8 12.2-15.9c4.6-3 9.7-7.9 7.5-10.5-2.2-2.7-9.1 1.7-12.8 6s-9.6 12.9-6.9 20.4" class="cls-8"/><ellipse cx="529.01" cy="320.91" class="cls-8" rx="6.5" ry="2.6" transform="translate(86.62 753.5) rotate(-75.6)"/><ellipse cx="570" cy="315.99" class="cls-8" rx="5.6" ry="2.6" transform="translate(157.19 820.31) rotate(-79.7)"/><path d="m584.2 275.1-4.48 3.49-.92.71c-1.8-1.9-3.5-3.7-5.5-5.3-6.7-5.3-13.9-4.8-18.7 2.6-3.1 4.7-3.9 10.6-3.5 16.1.5 8.5 3.5 16.6 7.2 24.2 5.6 12.5 18.2 28.2 11.2 42.2-.77 1.45-1.69 2.78-2.72 3.99a21.6 21.6 0 0 1-7.38 5.61c-1.4.6-2.8 1.1-4.4 1.4l-.4-.9-.1-.1c15.51-9.53 14.22-20.24 8.97-32.51-1-2.33-2.14-4.72-3.33-7.16-.51-1.03-1.02-2.08-1.54-3.13-6.8-13.6-12.3-29.2-8.5-44.6 1.8-6.5 5.8-14 12.5-16.3 8.5-2.8 17 3 21.6 9.7M527.8 364.1c1.6 6.3 3.9 13.7 10.1 16.5 1.8.9 3.8 1.6 6.3 2.7v1c-5.1 3.1-11.6-.4-14.5-5.1-2.9-4.6-3.7-9.9-2.9-15.2h1zM523.2 493.5c-4.8-19.1-3.3-39.4 2.1-58.3l5.7 1.9c-5.1 13.3-8 27.5-7.9 41.8 0 4.8.3 9.6 1.1 14.3l-1 .2z" class="cls-7"/><path d="M528.6 438.9c6 4.4 11.7 8.9 17.1 14.2 1.1 1.1 2.7 3 3.7 4.3l3.5 4.2c1.7 2 3.1 4.9 4.4 7.3 2.3 4.2 2.5 9.2 2.9 13.9.6 11.6 1 24.2 1.9 35.8-6.1-2.9-12.2-5.9-18.4-8.4-.7-.3-1.5-.6-2.1-.7l.5-2.6c1 .2 1.8.5 2.6.8 5.5 2 10.8 4.3 16.2 6.6l-2.5 1.6v-11c-.3-8.6-.1-18.8-1.2-27.2-.3-1.8-.6-3.5-1.1-5.1-1.1-3.3-4.5-5.4-6.6-8-1.7-1.9-4.6-5.3-6.2-7.1-5.3-5.4-11.4-10.2-17.1-15.2l2.5-3.2z" class="cls-7"/><path d="M557.2 478.9c-6.4 7.9-14 18.2-13.8 28.7v.7c-2.2 4.7-5.5 11.1-7.8 15.8-2.4 5.1-5.1 10.3-7.1 15.6l-4.7-1.7c.6-1.5 1.3-2.9 2-4.2 3.2-6.1 7.3-13.2 10.7-19.2 1.4-2.5 2.9-5.1 4.2-7.6v.6c-.2-3.1.6-5.9 1.6-8.6 2-5.3 5.2-10.1 8.7-14.5 1.7-2.2 3.5-4.3 5.5-6.4l.7.7zM524 457.4c.5 3.2 1.3 6.4 2.5 9.5s3 5.9 4.6 8.8c5.8 10 4.7 19.5-1.3 29-1.8 2.9-3.5 5.6-4.6 8.8-2.3 6.2-2.4 13.1-.6 19.5l-.5.2c-1.9-6.4-2-13.5.2-19.9 2.1-6.3 6.8-11.5 8.4-18.1 3.2-11.6-3.5-18-7.9-27.6-1.3-3.2-2.2-6.5-2.7-9.8l2-.3z" class="cls-7"/><path d="M460.4 435.1c8.3 23.9 26.1 45.6 50.4 54l.9.3.3.5c.3.4.4.6.5.9 4 7.6 5.5 16.1 8.2 24.2 3.2 10.3 7.1 20.7 8.9 31.4 2 10.6 3.6 21.5 5 32.2 3.5 21.4 4 43.2 4.9 64.8.6 17.3 1.3 34.6.8 52h-1c.2-8.6-.1-17.3-.4-25.9q-1.05-25.95-2.7-51.9c-.6-13-2.2-25.8-4.4-38.6-1.9-12.7-3.9-25.7-6.8-38.2-2.8-10.3-6.7-20.5-9.9-30.8-1.6-5.1-2.9-10.3-5.2-15.1-.4-.8-.9-1.8-1.3-2.5l1.2.8c-20.4-3.7-35.9-20.7-44.5-38.8-2.8-6.1-5-12.5-5.9-19.1z" class="cls-7"/><path d="M504.5 515.5c9.4 21.1 13.3 44.1 16.6 66.9 3.1 22.5 4.7 46.1 5.3 68.8h-.5l-1.1-17.2c-2.5-34.2-6.2-68.9-15.2-102-1.6-5.5-3.3-11-5.6-16.2l.4-.2zM461.6 429.8c-3.1-4.9-7.2.2-9.4 3.4-9.2 13.3-17.3 22-11.8 39.1 3.9 11.6 11 21.7 17.8 31.7 4.7 6.6 9.5 13.3 15.3 19 3 2.9 5.8 6.1 8.6 9 1.9 1.8 4 4.3 6.4 4.9.2 0 .3 0 .4-.1.6-.5.9-1.6 1.1-2.5 2.9-11.3 6.3-22.5 10.6-33.3 1.6-3.8 3.4-7.6 6-11l.8.6c-3.4 7.4-5.9 15.3-8.5 23-1.9 5.9-3.6 11.8-5.1 17.8-1 3.3-1.1 8.9-5.6 8.7-3.8-.6-6-3.5-8.5-5.8-2.9-3-5.7-6-8.6-8.8-6.1-5.8-11.1-12.5-16-19.3-4.8-6.8-9.4-13.7-13.5-21-4.1-7.5-7.4-15.8-7.2-24.5.1-12.3 8.7-21.7 15.1-31.3 3.4-5.1 9.7-8.9 14.7-3.5.5.6.8.9 1.2 1.6l-3.9 2.2zM554.2 466.9c3.9-3.1 9.9-1.2 14.1 0l13 4.3c3.9 1.3 9.2 3.1 13 4.5 5.2 2 10.6 3.7 15.6 6.6 11 7.7 19.6 19.1 23.2 32.1 6.4 22.2 9.9 45 13.7 67.6 1.1 6.7 3.4 20.3 4.4 27 1.7 9.9 3.6 19.9 5.4 29.8-10.2.4-20.5 2.1-30.4 4.8-8.8 2.4-17.4 5.9-24.9 11l-3.7-5.5c4.2-2.8 8.6-5.1 13.1-7.1 13.6-5.6 28.1-8.5 42.8-9.4 0 0-3.7 4.6-3.7 4.5-7.2-35.7-11.1-72.5-18.8-108.1-1.5-6.6-3-13.1-5.4-19.4-3.7-9-10.2-16.9-18-22.7l-.7-.5-.6-.4c-4.3-2.4-9-4.2-13.7-6.2-7.4-3.1-17.9-7.3-25.4-10.4-2.1-.9-4.1-1.7-6.2-2.2-2-.5-4.2-.9-6.1 0l-.7-.7z" class="cls-7"/><path d="M601.3 534.5c6.7 33.6 5.3 68 1.9 101.9-.8 9.6-3 19-3.2 28.8-.7 14-.2 29.4 1 43.4 1.1 14.5 2.2 29 3.8 43.5.6 4.8 1.1 9.6 2.2 14.3l-1 .3c-1.3-4.7-2-9.6-2.7-14.4-2.1-14.4-3.7-28.9-5.1-43.4-2.1-18-2.9-36.9-1.5-54.8 1.9-13 2.6-26.5 3.5-39.7 1.1-12.1 2.1-24.1 2.3-36.3.3-9.7-.1-19.3-.9-29-.4-4.8-.9-9.6-1.6-14.4h1zM603.9 768.1c18-4.1 37.3-8.4 55.5-11.8 2.3-.3 5.7-.9 8.1-1.1l.2 1c-5.1 1.8-10.4 3-15.7 4.1-9.4 1.8-22.6 4.4-31.9 6.1-5.3 1-10.7 1.8-16 2.7z" class="cls-7"/><path d="M611.5 682.3s2.3 18.8 1.8 22.5-.9 15.5 4 22.1 9.4 11 15 15.2c8.7-5.4 9.1-22.4 9.1-22.4l-15-13.9-3.6-.3-11.3-23.1z" class="cls-9"/><path d="M690.89 757.56c-.13.81-.24 1.51-.29 2.36-.04.87.15 1.79-.09 2.64-.11.38-.44.66-.83.72-.42.05-.76-.15-1-.48-.06-.08-.1-.17-.14-.26-6.79-4.43-23.65-8.63-41.64-14.04-15.1-4.6-26.8-14.7-31.5-25.5.08.06.15.12.23.18-1.46-3.2-2.13-6.71-2.38-10.23-.32-4.71.07-9.45.01-14.17-.06-4.71-.43-9.42-1.12-14.08-1.34-9.1-3.84-18.04-7.45-26.51a1.3 1.3 0 0 1-.08-.45c-.01-.01-.02-.02-.02-.03-.91-1.27-1.81-2.54-2.72-3.81-.33-.46-.06-1.09.36-1.37 12.99-8.62 28.58-11.53 43.66-14.24.57-.11 1.03.15 1.23.7a78.4 78.4 0 0 1 4.24 16.8c.01.11-.01.2-.02.3.08.17.15.36.21.55.46 1.35.44 2.62.29 3.6-11.86-1.05-17.94 3.46-19.81 5.03-13.22 11.11-6.22 35.2-4.72 40.38 3.32 11.43 9.66 19.23 12.74 22.54 3.09 3.32 6.51 6.35 10.29 8.86 4.04 2.68 8.47 4.66 12.92 6.56 9.47 4.07 18.94 8.12 28.42 12.17 1.11.48.27 2-.8 1.78Z" class="cls-12"/><path d="M720.5 780.39c-2.25-.76-4.44-1.73-6.65-2.62-2.24-.9-4.52-1.76-6.73-2.74-3.91-1.74-7.04-4.26-9.47-7.79-2.22-3.23-3.83-6.82-5.41-10.39-.52-1.17-2.24-.16-1.73 1.01.2.46.41.91.61 1.37-.62-.02-1.26.46-1.02 1.22.67 2.1 1.34 4.2 2.01 6.31.59 1.84 1.08 3.64 2.42 5.1 2.67 2.9 6.18 5.25 9.52 7.31 3.43 2.11 6.99 4.53 10.99 5.35 4.44.91 8.97 1.47 13.45 2.19.59.09 1.32-.25 1.27-.96-.34-4.66-5.98-4.26-9.25-5.35Z" class="cls-12"/><path d="M746.63 789.06c-9.18.38-15.03-9.05-19.05-15.91-4.03-6.87-10.82-11.26-18.46-13.18-1.25-.31-1.78 1.61-.53 1.93.81.2 1.61.44 2.4.7-.04.27.03.55.3.79 1.6 1.42 3.46 2.44 5.26 3.57 1.87 1.19 3.43 2.64 4.83 4.35 2.97 3.64 5.64 7.67 8.15 11.63 1.22 1.92 2.29 3.9 3.39 5.88 1.09 1.96 2.51 2.97 4.6 3.73 1.89.69 4.26 1.87 6.3 1.77 1.74-.08 3-1.5 2.7-3.22 0-.02-.02-.03-.02-.06h.12c1.28-.05 1.29-2.05 0-2ZM758.78 785.83c-.46-1.88-1.86-2.53-3.57-3.04-1.85-.55-3.55-1.46-5.07-2.65-3.31-2.6-5.58-6.22-7.48-9.93-1.88-3.68-3.31-7.69-5.71-11.07-2.38-3.37-5.68-5.13-9.41-6.69-1.19-.5-1.7 1.44-.53 1.93.75.31 1.46.64 2.15.99-.63.34-.9 1.25-.08 1.68 3.05 1.3 4.5 4.72 6.53 7.14 1.25 1.49 2.53 2.89 3.37 4.66.82 1.72 1.54 3.25 2.78 4.72 2.36 2.79 3.9 6.21 6.52 8.78 2.49 2.45 5.77 4.22 9.25 4.71.74.11 1.43-.42 1.23-1.23ZM768.35 783.66c-2.59-.6-4.65-1.53-6.3-3.69s-2.52-4.81-3.37-7.36c-1.9-5.66-3.79-11.32-5.68-16.98-1.7-5.09-3.55-11.1-9.26-12.88-1.23-.39-1.76 1.54-.53 1.93.03 0 .05.02.08.03-.27.51-.16 1.25.56 1.46 2.2.67 2.66 3.57 3.73 5.29.59.94 1.33 1.78 1.84 2.77.53 1.02.79 2.16 1.15 3.25 1.42 4.34 3.62 8.38 5 12.73.7 2.19.98 4.35 1.24 6.62.21 1.85.93 3.35 2.1 4.73 1.41 3.65 4.69 6.36 8.67 6.91 1.48.2 4.54.44 5.02-1.54.56-2.29-2.74-2.91-4.25-3.27" class="cls-12"/><path d="M780.9 781.69c-.01-1.29-2.01-1.29-2 0 0-.32-1.61-.93-1.96-1.15-.72-.47-1.36-1.05-1.95-1.69-1.09-1.18-1.92-2.56-2.61-4-.84-1.76-1.44-3.63-2.05-5.48-.59-1.8-1.31-3.55-1.9-5.35-.55-1.68-.68-3.44-1.23-5.12s-1.32-3.37-2.17-4.92c-1.51-2.74-3.93-5.1-7.24-5.11-.95 0-1.21 1.06-.71 1.71 1.25 1.59 2.46 3.21 3.27 5.08.84 1.91 1.52 3.9 2.27 5.85 1.43 3.7 2.68 7.43 3.88 11.21 1.05 3.3 2.28 6.61 4.42 9.37 1.95 2.51 5.21 4.68 8.33 2.73.56-.35.56-.98.29-1.41.76-.18 1.35-.72 1.34-1.71Z" class="cls-12"/><path d="M690.7 764.7c-.8-.8-2-1.4-2.9-2-4.7-2.3-9.8-3.6-14.8-5.1-9.4-2.8-18.8-5.3-28.1-8.3-9.4-3.2-18.2-8.8-24.6-16.5-5.4-6.4-8.9-14.8-7.8-23.2.3-4.5.3-10 0-14.6-.8-12.9-3.3-25.9-8.6-37.8l.4-.2c5.7 11.8 8.4 24.9 9.4 37.9.3 4.6.4 10.2.2 14.7-1.5 15 10.4 27.4 22.7 34.1 5.7 3.2 12 4.9 18.2 6.7 9.4 2.8 18.8 5.3 27.9 9 3 1.3 6.2 2.6 8.4 5l-.3.3zM706.7 760.4c7.6 2.7 14.5 7.3 19.8 13.6 3.5 5.1 6.3 10.8 8.4 16.6l-.9.5c-3.7-4.6-7.2-9.8-10.8-14.4-5.2-5.6-11.7-9.8-17-15.4z" class="cls-7"/><path d="M747.1 794c-1.5 2.9-4.8 2.7-7.5 2.4-3.9-.5-6.2-4.2-8.4-6.7-2.8-1.4-6.7-1.3-10-1.7-1.9-.2-5.7-.2-7.5-.8-.6-.2-1.8-.7-2.4-1-5.8-3.1-10.4-7.4-15.6-11.3-2.7-2-4.7-5.1-5.5-8.4s-.7-6.6 0-9.8l1 .2c-.4 3-.2 6.2.7 9.1s2.7 5.3 5.2 6.9c2.6 1.8 5.2 3.7 7.7 5.5 3.7 2.5 7.4 5.5 11.8 5.9 2.8.1 6.7.2 9.6.5 2.3.3 5.1.4 7.2 1.9 2.8 2.7 4.2 6.5 8.6 5.9 1.6-.2 2.8-.5 4.5.3l.4.9z" class="cls-7"/><path d="M725.1 752.6c5 2.7 9.5 6.3 12.8 10.9 1.4 2.1 2.6 4.3 3.9 6.6 1.6 3 3.3 5.8 4.4 9 1.2 4.7 1.7 9.6 1.2 14.4l-1 .1c-.3-1.4-.5-3-.7-4.4-.6-3.1-1.6-6.1-2.6-9-2.3-4.4-5.6-9.4-8.2-13.7-3.3-4.5-7.2-8.2-10.4-13l.7-.8z" class="cls-7"/><path d="M784.7 792.3s1.2 2.8 3.2 4.5 4.5 3.5 5.3 3.8 5.9 2.9 10.4 1 8.4-4.3-.9-5.5" class="cls-4"/><path d="M816.2 798s-3.1.8-7.8.4M770 796.6c1.8 1.2 7.4 4.8 10.4 6.1 3 1.4 7.9 5 14.3-1.5" class="cls-4"/><path d="M741.4 772.4c3.2 4.8 9.7 14.2 15.9 13.9 2.6-.8-2.3-12.2-3-14.3-3.4-8.6-7.2-17.6-12.9-24.9-1.6-1.8-3.2-3.8-5.5-3.9-4.9.1-9.9 0-14.7-1.1-15.7-3.5-27.4-15.3-38.1-26.5-9.2-9.3-18.1-19.1-30.4-23.9-1.2-.5-4-1.4-5.3-1.8v-1c12.4-2.2 22.7 7.3 30.9 15.3 5.5 5.4 10.7 11 16 16.5 7.7 7.9 16.9 14.9 27.7 17.5 4.4 1.1 9.2 1.3 13.8 1.3 3.5 0 6.4 3 8.3 5.4 5.8 8 9.4 17 12.7 26.2 1.2 3.7 2.5 7.3 3.2 11.2.2 1.6.5 3.5-.6 5-.4.7-1.3 1-2 1-7.4.2-13.6-9.9-17-15.5l.9-.5z" class="cls-7"/><path d="M647.9 637.1c4.1 13.2 7 26.9 8.9 40.6.5 3.3.9 7 1 10.4 0 1.2 0 2.3.1 3.5h-1c-3.5-15.3-7.3-31.7-9.3-47.3-.1-1.1-.5-4.1-.6-5.2l-.1-1.7 1-.2zM609 541c2.5 3.3 3.3 7.4 4 11.4.7 3.9 1.1 7.9 1.3 11.9.5 7.9-2 18.9-8.6 24l-4-5.8c5.3-4.3 8-11.6 8.5-18.3.3-3.9.4-7.7.3-11.6-.2-3.7-.4-7.8-2.3-11zM598.3 582c-6.7 1.8-13.6 2.3-20.6 2.6-6.7.2-14 0-20.7-.4l.5-.5c1.1 9.5 2.2 19 3.1 28.6.4 4.1.7 10.2 1 14.4.3 4.3.7 10.1.8 14.5l-1.2-1.8c3.6 1.5 7.1 2.9 10.7 4.8 3.2 1.7 6.2 4.6 9.5 5.2h1l1.4-.3c2.7-.5 4.2-2.8 6.3-4.7 2.8-2.6 6.3-6.1 10.5-5.3l-.1 1c-3.7 0-6.3 3.3-8.8 5.8-1.9 2-4.1 5-7.2 5.7-.3 0-1.5.4-1.8.5-1.6.4-3.4-.1-4.7-.7-2.7-1.1-5.2-3.1-7.6-4.2-3.3-1.6-6.9-3-10.5-4.3l-1.2-1.8v-7c-.2-6.6-.2-14.9-.5-21.5-.5-9.7-1.2-19.5-1.9-29.2h.6l5.1.3c8.5.4 17.2.4 25.7-.6 3.4-.4 6.8-.9 10-1.8l.3.9z" class="cls-7"/><path d="M564.5 594c11.7 1 24 1.4 34.9-3.7l.6.8c-6.8 6-18 5.9-26.6 5.2-3-.3-6-.7-9-1.4l.2-1zM437.2 468.3c-21.7 8.1-42.8 18.2-62.3 30.7-14.1 9.5-29.5 18.7-39.2 32.8-3.1 4.6-4.7 9.7-5.2 15.3-.4 4.8-.5 12.4-.7 17.4-1.2 38.5-3 83.7-4.8 122.4l-.7-.5c6.5-3.9 13.6-6.8 20.9-8.8 21.8-6.2 46.8-4.6 66.3 7.5l-.7.5c-4.8-30-6.4-60.8-8.8-91.1-.6-7-.8-14.1-1.8-21l1-.3c2.2 9.2 3.2 18.6 4.5 27.9 2.2 18.3 4.1 37.7 5.3 56.1.5 9.7 1 19.5.8 29.2l-.7-.6c-7.2-2.1-14.4-3.6-21.6-4.7-18-3-36.4-1.8-54 2.9-3.6.9-7.1 2-10.7 3.2l-.7.4c.2-25.6.8-62.8 1.3-88.4.2-8.7.6-26.3.8-35 .5-9.3-.7-19.8 3.1-28.7.8-2.1 2-4.2 3.2-6 6.7-10 16.4-17.2 26.1-23.9 14.5-9.9 29.9-18.5 45.9-25.7 10.6-4.9 21.5-9.2 32.7-12.7l.3 1z" class="cls-7"/><path d="M412.2 567.9c5.5 12.4 7.1 27.2 2.3 40.1-.8 2.2-1.9 4.3-3 6.3-1.2 2.2-2.9 4.1-5.5 4.5l-.8-.7c0-2.9 1.2-4.5 2.3-6.2 1.1-1.8 2-3.6 2.8-5.6q2.25-5.85 3-12.3c.9-8.6 0-17.4-2-25.8l.9-.4zM351 516.8c18.7-2.5 36.7 9.1 43.6 26.4-9.1-16.3-24.8-26.5-43.6-26.4M421.8 482c-18.8 9.9-36.6 21.7-53.5 34.7 15.6-14.5 33.7-26.6 53.5-34.7M403.2 681.9c3.2 17.3 3.9 34.9 3.5 52.4l-.3 7.5-1 .2c-1.5-4.9-2.1-9.9-2.8-14.9-1.1-10-1.6-20-1.4-30 0-5 .3-10 .9-15.1h1z" class="cls-7"/><path d="M390.6 739.3c8.7.3 17.6 1.2 26 4.2 15.3 6.1 30.3 13.4 45.7 18.7 2.8 1 6 1.8 8.9 2.5 15 3.9 30.5 7.5 45.7 10.4 6.1 1.1 12.2 2 18.5 2.2v1c-21 5.2-45.1-2.5-65.6-7.7-3-.8-6.3-1.8-9.3-2.8-16.6-6-31.4-14.6-47.2-21.9-7.2-2.8-14.9-4.3-22.6-5.6v-1z" class="cls-7"/><path d="M525.2 790.6c3.4-5.5 7-11.1 12.5-14.8 2-1.2 7.6-4.5 9.7-5.7 6.5-3.8 13.1-7.6 19.9-11 2.6-1.2 4.8-2.4 7.6-3.3 8.7.8 16.5 4.2 23.8 8.6 7.1 4.2 13.1 10.3 18 16.8 1.2 1.6 2.4 3.3 3.6 4.9 2.1 2.4 5.2 3.4 8.5 3.7v1c-3.4 0-7.3-.7-9.9-3.4-1.3-1.5-2.6-3.1-3.9-4.6-3.6-3.9-7.3-7.8-11.5-10.9-6.4-4.5-13.5-8.2-20.9-10.4-2.5-.7-5-1.3-7.5-1.6h.7c-7.6 3.3-18.8 9.9-26.3 13.8l-6.7 3.6c-1.8.9-4.6 2.2-6.2 3.6-3.7 3.1-7.1 6.8-10.6 10.4l-.8-.6z" class="cls-7"/><path d="M580.1 767.1c7.8 3.5 15.7 7 22.4 12.4 8.9 8.5 16.8 18.1 25.1 27.1l-.6.8c-1.2-.6-2.3-1.4-3.4-2.2-8.5-6.1-14.9-14.6-22.1-22-2.6-2.8-5.6-4.8-8.8-7-4.3-2.8-8.7-5.5-13.1-8.3l.5-.9z" class="cls-7"/><path d="M611.5 776.3c3.2 3.1 6.2 6.4 9 9.8 2.5 3.1 5 6.2 6.6 9.9 1.7 4 5.8 10.4 2.1 14.5-2.7 2.4-6.6 2.1-9.9 1.6-7-1.4-12.6-6.7-17.5-11.4-3.1-3-6.3-6-9.6-8.7-4.9-4.3-10.8-7.1-16.2-10.9-1.8-1.4-3.7-2.8-4.9-4.8l.8-.6c3.3 2.6 7.6 4.1 11.4 5.9 8.4 3.3 15.6 9.4 21.8 15.7 5.7 5.4 12.1 12.1 20.4 10.6.5-.2.7-.3.9-.8.5-2.6-1.1-5.6-2-8.3l-.6-1.6c-1.2-3.5-3.4-6.6-5.4-9.8-2.5-3.6-5-7.2-7.7-10.6l.7-.7z" class="cls-7"/><path d="M560.4 786.9c5.7 2.2 11.3 4.5 16.9 6.8 2.8 1.1 5.7 2.5 8.4 4 2.7 1.6 5.2 3.3 7.7 5.4l6.7 6.1c2 1.7 3.9 3.7 6.2 5 1.5.4 3.1.6 4.6.5.8 0 1.4-.2 1.9-.5v-.3c0-.2-.4-2.4-.4-2.6-.5-2.1-1.7-4-2.8-5.9l.8-.6c1.2 1 2.4 2.1 3.4 3.4 1.2 1.6 1.9 3.6 2.3 5.5.3 2.9-2.7 4.5-4.9 4.6-2.1.2-4 0-6-.4-3-1.2-5.3-3.7-7.7-5.7-4.5-4.1-8.3-8.5-13.5-11.7-2.5-1.6-5-3.1-7.8-4.3q-8.25-4.05-16.2-8.4z" class="cls-7"/><path d="M557.4 800.5c4.5 2 9 4 13.7 5.3 4.9 1.6 9.6 3.9 13.9 6.2 2.2 1.2 4.3 2.2 6.4 3.2 2.7 1.1 5.1 2.1 7.6 1.8 1-.3 2.4-.7 3.4-1 0 .5.2.2-.1-.4-.8-1.6-2-3-3-4.4l.7-.8c1.9 1 3.8 2.2 5.2 4 2.5 3.7-1.6 5.5-4.3 6.8-3.7 1.6-8.1.3-11.4-.9-7-2.9-13.1-7.4-19.9-10.5-4.7-2.1-9-4.9-12.8-8.4l.6-.8z" class="cls-7"/><path d="M571.7 808.8c-5.8-2-12.2-.4-17 3.2l-1.6.9c-6.9 3.6-14.5 5.7-22.4 5.7-7.7-.4-14.7-3.9-21.9-6-9.8-2.1-20-2.2-30-2.1-13.8.2-27.4 1.4-41.4.7-26.4-1.3-57.1-10.5-79.8-24l3.2-5.4c7.7 4.5 16 8 24.4 11.1 16.9 6 34.4 10.8 52.5 11.5 18.2 1 36.6-1 55 .3 6.4.5 13.1 1 19.4 3.1 6.8 2.4 13.3 6 20.5 6.2 6.9 0 14.4-1.5 20.7-4.6 5.6-3.4 12.9-4.5 18.9-1.5l-.4.9z" class="cls-7"/><path d="M336.3 681.9s1 31.9 13.5 70.9 18.2 52.8 17.6 59.2c-8.6 3.2-77.4 19.8-77.4 19.8l-6.4-119.9-39.3-18s-9.3-41.1-11.1-69.2c-1.9-28.1.7-40.7 30.3-50.3s64.2-16.5 64.2-16.5l-3.2 129 11.8-4.9z" class="cls-7"/><path d="M258 694.9c-3.9-11-5.9-22.6-7.8-34.1-1.3-8.3-2.4-17.6-3.2-26.1-.2-2.9-.5-5.8-.7-8.7 3.2 22.7 5.7 46.7 11.6 68.9z" class="cls-9"/><path d="M753.9 765.7c1.6 4.5 3.8 11.3 5.5 15.6 2.2 5 7.6 8.3 12.9 5.7l-.2.2c.3-1.3-.9-3-1.5-4.3-2.7-4.4-4.4-9.4-6.1-14.2-1.2-3.2-2.5-6.3-3.8-9.4-1.4-2.9-2.6-6.3-4.6-8.8l.6-.8c3 2.2 4.5 5.5 6.1 8.6 1.5 3.1 2.7 6.4 3.8 9.6 1.2 3.2 1.9 6.6 3.2 9.7 1.1 2.8 2.8 5.5 3.3 8.5 0 .5 0 1.4-.5 1.8-.8 1.9-2.3 3-4.2 3.5-5.5.8-10.4-3.9-12.3-8.7-.3-.7-.6-1.5-.7-2.3-1.2-4.8-2.2-9.5-2.6-14.4l.9-.3z" class="cls-7"/><path d="M765.7 767.2c2 4.5 6.4 16.4 11.1 17.5 3.5.4 2-5 1.5-7.1-.9-3.5-2.1-7.3-3.2-10.7-1.2-3.5-2.9-6.7-5.5-9.1-2.8-2.4-5.8-4.7-8.8-7-1-.8-2.1-1.3-3.4-1.4-1.4 0-3-.1-4.4-.5-2.9-.7-5-3.1-7.5-4.5-1.1-.7-2.2-1.4-3.5-.9l-1.4.4-.3-.9c.9-.3 2-1.1 3-.9 3.9.6 6.4 4 10.1 4.8 1.9.4 3.8 0 5.7.4 1 .2 2.2.8 3 1.4 3.2 2.1 6.3 4.3 9.3 6.7 4.8 3.9 6.7 10.1 8.5 15.7 1.2 4.5 4.6 11.9.7 15.9-1.3 1.1-2.8 1.4-4.4 1.2-2.8-.4-4.4-2.3-5.9-4.2-3.3-5-4.9-10.7-5.8-16.5l1-.3zM778.3 764.1c24.6-13.1 57.4-21.3 85.3-20.5 2 0 3.9.2 5.9.4v1c-19.1 3.6-38 6.9-56.9 11.4-11 2.6-23 5.7-33.9 8.6zM902.6 743.9l13.5-4.6.6-.2.7.4 97.3 49.8-.5.8-98.5-47.2 1.2.2-14.1 1.8z" class="cls-7"/><path d="M871.7 782.9S848 780 844 775c-4-5.1.4-6.1 7-6.9s17.5-.9 17.5-.9" class="cls-4"/><path d="m869.8 721.8-114.2 25.8-16.3-11.6 40.4-156.1 188.1-41 14.4 10.2-40.9 155.7-40.3 9.9z" class="cls-9"/><path d="M953 659.84q-.105-1.155-.33-1.17c-.55-.05-1.61 5.1-3.19 15.47-15.01 4.28-46.6 10.94-83.4.58-52.49-14.77-79.49-54.01-79.86-55.59-.02-.08-.18-.97-.69-1.12-.48-.14-1.15.38-1.24.65a568 568 0 0 0-18.27 66.1c-1.04 4.87-2.09 9.8-4.1 14.36-.25.1-.47.29-.58.6-2.74 7.45-5.12 15.1-6.77 22.88-.81 3.82-1.22 7.64-1.14 11.55.09 4.09.49 8.2-.15 12.27-.17 1.09 1.25 1.64 1.76.94.1 0 .2.02.31 0 26.88-6.29 53.75-12.58 80.63-18.88-.22.64.3 1.55 1.19 1.37 8.01-1.62 15.95-3.52 23.83-5.68.15.13.37.2.66.17.09-.01.18-.03.27-.04s.01 0 .02 0c3.94-.53 7.7-1.73 11.18-3.59 7.91-2.45 15.96-4.42 24.1-5.92 6.9-.85 13.56-2.69 20.25-4.56 3.66-1.02 7.34-2.03 11.07-2.78 1.7-.34 3.4-.64 5.12-.86 1.69-.21 3.53-.15 5.18-.62 3.17-.91 3.82-4.7 4.67-7.46 1.15-3.78 2.07-7.63 3.04-11.46 3.18-12.56 8.54-17.18 6.66-26.3-.08-.37-.15-.67-.19-.86Z" class="cls-12"/><path d="M780.35 580.2c-.02.07-.03.14-.05.21l.27-.06zm-.09-.06-.18-.12-.58.78.6.4c.07-.27.13-.53.2-.79l-.4.09zm-.36-.24.18.12.02-.02zm-23.76 166.76s.04.03.06.04c-.09 0-.11-.01-.06-.04-.17-.1-.41-.26-.67-.43-.03.29-.05.58-.07.87l.81.16.19.04.2-.79c-.09.03-.17.05-.23.07-.12.04-.19.07-.23.08" class="cls-7"/><path d="M933.4 778.9c0 19-25.5 23.5-57 23.5s-57-10.5-57-23.5 11.8-23.5 57-23.5 57 10.5 57 23.5Z" style="stroke-miterlimit:10;stroke:#010102;fill:#010102"/><path d="M931.5 775.7c.2.67.82 2.8 0 5.1-.53 1.49-1.47 2.5-2.48 3.39-3.97 3.51-9.94 5.94-12.1 6.78-6.29 1.5-12.79 1.49-19.22 1.11-7.14-.42-14.35-.91-21.43-1.99-6.46-.99-13.53-2.33-18.56-6.84-4.06-3.63-9.01-10.66-4.28-15.63 4.88-5.14 12.92-4.18 19.06-6.7.94-.39 1.35-1.25.89-2.2-.15-.31-.34-.56-.58-.75l31 2.83c5.88 1.57 10.57 3.37 13.85 4.79 11.72 5.05 13.36 8.45 13.85 10.11" class="cls-9"/><path d="M916.92 790.97c-4.67 1.64-10.81 3.12-18.87 4.12-.74.1-1.5.18-2.28.27-6.05.65-13.12 1.04-21.37 1.04 0 0-53.6-4.7-53.6-20.4s35.3-18.2 50.2-18.2l1.8.17c.24.19.43.44.58.75.46.95.05 1.81-.89 2.2-6.14 2.52-14.18 1.56-19.06 6.7-4.73 4.97.22 12 4.28 15.63 5.03 4.51 12.1 5.85 18.56 6.84 7.08 1.08 14.29 1.57 21.43 1.99 6.43.38 12.93.39 19.22-1.11" class="cls-12"/><path d="m642 149.3 158.5-5.8 4.4 144.9-158.3 6.1z" class="cls-9"/><path d="M640.1 147.5c54.1-2.3 108.3-4.3 162.3-6v1.9l4.4 144.9v1.9h-1.9l-158.2 6h-1.8c-1.9-49.4-3.5-99.2-4.8-148.8zm3.8 3.6c1.8 47.8 3.3 95.4 4.5 143.4l-1.9-1.7 158.2-6.3-1.9 2-4.4-144.9 2 1.9c-52.4 2.2-104.4 4-156.6 5.6 0 0 52.2-1.6 0 0z" class="cls-7"/><path d="M676.9 269.6c-.6 0-3.1.3-3.7.3l.1-.9 2.2-16.4v-.4c4.2-.1 8.4-.2 12.5-.3 7.1 0 17.1-.4 24.1-.4h12v1c-11.6.5-24.5.5-36.1.6h-12l.5-.4-1.7 16.5-.7-.8 2.8.2zM676.2 242.6c32.2-1.2 64.4-2.1 96.6-2.1l-.5.4 1.2-9.6.5.6c-8 .8-15.9.8-23.9 1-23.2.5-49.2 1.4-72.4.7v-.6l1.8-10.7v-.4c4.2-.3 8.3-.5 12.4-.7 19.8-.8 40-1.2 59.7-1.2 8.1 0 16.3 0 24.4.2.2 3.8-.6 7.5-1.6 11.2l-1-.2c0-3.6.5-7.2 1.7-10.6l.5.6c-8 .4-15.9.8-23.9 1-19.8.7-39.9 1-59.7.9-4 0-8 0-12-.2l.5-.4-1.8 10.7-.5-.6c8-.6 15.9-.8 23.9-1 23.2-.3 48.7-1.4 71.8-.7h.6v.5l-1.3 9.6v.4q-12.3.6-24.6.9c-16.1.4-32.2.8-48.3 1-8 .1-16.1.2-24.1.2v-1zM724.9 189.1c4.7-3.4 10.9-3.2 16.5-3.7l-1.7 1.7-.2-12.9 2.1 1.9-13.6 1.5c-4.1.5-8.4.8-12.4 1.7.4-.2.8-.8.8-1.3 0-.3 0 0 0 0v7.1c0 6.7-.1 14-.6 20.6l-.5-.5c2.5-.2 5.1-.4 7.5-.7 1.7-.3 3.8-.4 5-1.5 0-2.6.1-5.2.4-7.7.2-2.6.5-5.1.9-7.6h1c.7 5.1.9 10.2.8 15.3 0 2.1-2.1 3.4-3.8 3.7-4.1 1-8.2.2-12.3-.5-.5-4.7-.9-9.5-1.2-14.2-.2-3.5-.5-10.4-.7-13.9 0-.6.3-1.3.8-1.6.2-.2.5-.3.8-.4 2.1-.7 4.1-.9 6.2-1.3 6.8-1 13.7-1.8 20.5-2.4l1.9-.2v16.6c-3 0-6.9-.5-9.9-.6-2.6 0-5.4.4-7.7 1.6l-.6-.8z" class="cls-11"/><path d="m211.35 122.46 153.3-6.1 3.5 126.4-153.2 5.5z" class="cls-9"/><path d="M209.95 121.16c52-2.5 104.4-4.9 156.7-7.1v2.2l3.3 126.4v1.8h-1.8l-153.2 6h-2.3c-1.1-43.2-1.9-86.5-2.7-129.4zm2.8 2.6c1.6 41.7 3.2 83.1 4.5 124.5l-2.4-2.3 153.3-5-1.8 1.9-3.9-126.4 2.2 2.1c-50.6 2-101.1 3.6-152 5.3 0 0 50.9-1.7 0 0z" class="cls-7"/><path d="M248.05 154.26c.2-2.3.6-6.8.8-9.1v-.5c7.1-.5 14.2-.9 21.3-1.1 13.8-.7 27.6 0 41.3-.2 7.2 0 14.3-.5 21.5-.9 0 1.3-.3 9.3-.3 10.6-5.8.3-16.4.8-22.2 1-20.7.8-41.8.6-62.4.3zm.2-.2c23.8-1.6 49.3-3.1 73-3.2h10.3l-1.1 1 .9-8.6.8.9c-6.9 0-13.8 0-20.7.1-6.9.2-13.8.7-20.6 1.1-13.8.8-27.5.8-41.3.6l.7-.6zM246.45 162.36c13.4-1 27.1-1.7 40.7-2 13.6 0 28 .6 41.6-.2h.6v.7l-.6 8.2v.7h-.8c-27.4 1.3-54.8 1.7-82.2.6h-.7c.4-2.7.9-5.5 1.3-8zm.2.2-.3 7.3-.6-.6c27.4-1.7 54.8-1.8 82.2-1.2l-.8.8 1.1-8.2.6.6c-13.4-.2-27.3 1-40.7 1.5-13.8.3-27.5.2-41.5-.3zM243.05 177.36c7.8-.8 16.1-1.3 24.2-1.4 8.3-.1 16.8.9 25.1.5h.5c-.3 3.1-.5 6.3-.6 9.4-16.6 1.2-33.2 1.6-49.8.8h-1c.4-2.9 1.1-6.5 1.6-9.3m.2.3v8.3l-.9-.9c8.2-.6 16.3-1 24.5-1.1 8.2 0 16.3 0 24.5.4l-.8.7q.75-4.05 1.2-8.1l.5.5c-8.1-.2-16 1-24.1 1.1-8.3 0-16.4-.3-25-.8zM249.95 194.76c11.5-1.1 23.5-1.9 35.1-1.3-1.1 8.5-1.7 17.4-1.5 25.9v.7c-3.1.2-6.2.5-9.2.7-8.8.4-18.2.9-27 .8.5-8.8 1.6-18.1 2.7-26.8zm.2.2c.2 8 .5 17.2.3 25.1l-1.6-1.6c2.8-.1 5.6-.2 8.4-.2 8.1 0 17.2 0 25.4.3l-.8.8c.4-4.1.8-8.3 1-12.5.2-3.6 0-8.8 0-12.5l1 1.1c-11.3.9-22.4.2-33.8-.5zM298.05 192.46c10.6-1.1 22.3-2 33.1-1.5-1.1 8.8-1.8 17.9-1.6 26.7v.7h-.8c-4.7.4-11.4.6-16.2.7-5.8.2-12 .2-17.9 0 .7-8.8 2-18 3.4-26.6m.3.2c0 8 0 17.1-.4 25l-1.5-1.6h4c6.3 0 13.9.1 20.2.3 2.7.1 5.4.3 8.1.4l-.8.8c.2-2.1.4-4.3.6-6.4.6-6.2.5-13 .3-19.2l1.1 1.1c-10.8.8-20.7.2-31.7-.4z" class="cls-11"/><path d="M308.15 203.06c1.8-2 4.1-3.8 6.9-4s2.4 0 2.6 1.1-.9 1.8-1.4 2.3c-1.7 1.5-4.1 2.4-5.6 4.2s-.9 1.1-.7 1.8.8.8 1.4.9c1.9.2 4-.7 5.3-1.9s-.2-1.1-.7-.7c-1.1 1-3 1.9-4.5 1.7s-.4-.1-.5-.2v-.2c.4-.9 1.6-1.6 2.4-2.2s1.8-1.2 2.7-1.8 1.8-1.4 2.3-2.3.5-1.8-.2-2.6-1.9-.9-2.9-.9c-3.1.2-5.6 2-7.7 4.3s.3 1.2.7.7zM257.55 208.66c2.2-1.8 5-2.7 7.7-3.5s2.7-.7 4.1-1.1 2.2-.7 3-1.5 1-1.8.3-2.5-1.7-.7-2.5-.5c-1 .3-1.6 1.2-1.5 2.2s.9 2.5 1.1 3.8c.5 2.8-1.9 4.6-4.4 5.1-.6.1-.4 1.1.3 1 1.9-.4 3.8-1.4 4.7-3.2.4-.9.6-1.9.4-2.8s-.8-2.2-1.1-3.4-.2-1.1.3-1.5.9-.3 1.3-.3.8.2.8.5c.1.5-.4 1-.8 1.2-1 .6-2.1.9-3.2 1.3-1.2.3-2.4.7-3.6 1-2.7.8-5.4 1.7-7.6 3.6-.5.4.2 1.1.7.7z" class="cls-11"/><path d="m91.3 343 10.2 205.6 21.6 9.3L273.4 530l-8.3-202.3-21.2-6.4z" class="cls-7"/><path d="m112.5 354.5 148.5-23 8.3 194-146.2 25.9z" class="cls-9"/><path d="m148.1 386 5.3-20.3c.5-1.8 2.9-2.1 3.8-.5l9.8 17.6-19.5 3.2M159 368.5l-5.2 16.4M162.6 375h-5.7M147.4 402.8v8.9l85.8-12.8v-8.6zM148.5 423.9l45-8.1 1.7 16.4-46.7 8.1zM204.8 430.7v-16.2l29.5-5v16.8l-22.1 1.7-.9-8.7 16-3.5v11M152.1 452l84.5-13.7.8 31-84.9 13.7z" class="cls-5"/><path d="m162.1 463.5 6.3 8.6h-.7l10.7-13.6.3-.3c7.9-1.8 15.9-3.1 23.8-4.4 8.4-1.3 16.8-2.6 25.4-2.5l-1.6.9c-3.7 2.2-5.3 7.2-9.7 8.6-3.2.8-6.4 1.2-9.5 2.2-.8.3-2.1.7-2.5 1.3l-.9-.4c.8-1.2 1.9-1.4 3.1-1.9 3.1-1 6.4-1.5 9.5-2.2 1.9-.6 3.5-2.2 4.8-3.8 1.4-1.6 2.6-3.6 4.7-4.7l.2.9c-15.6 1.2-30.8 5.3-46 8.9l.9-.5-12.4 12-.3.4-.5-.4-8.5-6.5 2.8-2.8z" class="cls-11"/><path d="m154.7 499.4 85.6-15.3v27.2l-85.6 13.3z" class="cls-5"/><ellipse cx="177.15" cy="508.86" class="cls-2" rx="8.6" ry="5.1" transform="translate(-71.6 30.9) rotate(-8.3)"/><ellipse cx="218.53" cy="502.75" class="cls-2" rx="8.6" ry="5.1" transform="translate(-70.29 36.81) rotate(-8.3)"/><path d="M198.2 491.6v26.2M152.1 431.6s6.5-3 13.3-4 28.8-5 28.8-5" class="cls-3"/><path d="M135.5 663.6c-4-2.9-8.3-5.6-12.9-7.2-3-1-6.2-.9-9.4-.9-5.1.2-10.1.6-15.3.6l.7-1c2.2 9 4.6 18 7.1 27 1.3 4.5 2.6 8.9 4.1 13.3 1.5 4.1 2.8 8.8 5.5 12.4l-.3-.2c4.3 1.6 8.4 3.5 12.6 5.4 2.5 1.2 5 2.3 7.4 3.7h-.2.1c10.7-1.3 21-4.9 31.8-5.9l-.8.6 13.1-52.2.2.8c-3.9-2.7-8.2-5.3-12.7-7.2s-9.2-3.1-14.1-3.7v-1.7c10.2-.2 20.8 3.8 27.8 11.3l.3.4-.1.4-13.1 52.2-.2.6h-.7c-10.6.9-21.3 4.7-31.9 5.9-.4 0-.8-.2-1.2-.4l-.7-.4c-6.1-3.1-12.6-5.9-18.9-8.6-3-3.8-4.2-8.5-5.9-13-4.4-13.3-7.9-26.8-11.2-40.4l-.2-.8.9-.2c3.3-1.1 6.7-1.8 10.2-2.4 7-1.1 14.9-1.2 21 3.3 3 2 5.7 4.3 8 7l-1.2 1.2z" class="cls-7"/><path d="M174.9 663.2c-13.7 4.2-28.1 5.7-41.8 10.2l-.6-1.6q4.95-2.25 10.2-3.9c10.4-3 21-6 31.9-6.4z" class="cls-7"/><path d="M130.8 671.7s-3.4-3.4-9.7-2.7c1.2 3.4 12.4 47.9 12.4 47.9" style="fill:none;stroke-width:1.7px;stroke-miterlimit:10;stroke:#010102"/><path d="M107.4 653.5c1.4 1.6 3.5 2.7 5.4 3.8 6.1 3.4 12.5 6.4 18.9 9.4h-.6c4.4-2.7 9.2-4.3 14.2-5.7 4.9-1.4 9.9-2.5 15-3l-.4 1.4c-.5-.6-1.2-1.2-1.8-1.7-2.2-1.8-4.9-2.9-7.8-3 1.2-5.3 3.2-10.4 6.2-15 4.6-7.6 13.4-13.9 22.3-9.4l-1.1.8c-2.4-6.2-10.6-7.3-16.4-5.5-3.1 1-6.2 2.6-8.9 4.6-5.9 5.4-7.7 13.9-8.9 21.6l-.5 4.5c-3.5-13.2-9.2-30-22.8-35.5-7.4-2.6-15.1-5.7-23-6l.6-1.1c.9 2.2 4.7 11.7 5.6 13.6 1 1.6 1 3.7 2.5 5 3.4 3.5 6.9 7.2 10.1 11 2.5 3.1 5.3 6.5 6.1 10.5l-1.7.1c-.3-3.7-3-7.1-5.2-10-2.4-3.1-5.1-6-8-8.7-.8-.7-2.6-2.3-3.4-3.1-2.7-2.5-3.7-6.1-5-9.4-1-3-2.1-6.3-2.8-9.4 3.1-1.3 6.3-1.3 9.5-1.1 4.3.3 8.4 1.3 12.5 2.6 4.2 1.3 8.4 3.1 11.7 6.1 8.6 7.8 12.6 19.4 13.9 30.6h-1.7c0-2.5.4-4.8.8-7.2 1.3-7.2 4.2-15.1 11-18.8 4.3-2.6 9.2-4.4 14.4-4.1 5.4.4 12.1 4.4 11.3 10.6l-1.1-.4c-10-3.9-18 5.3-22.2 13.4-1.5 2.9-2.8 5.9-3.8 8.9l-.7-1.1c4.2.4 8 3 10.6 6.2l-1.3.4-29.2 8.7h-.3c-4.4-1.9-8.7-3.9-13-6.1-3.2-1.6-6.3-3.3-9.3-5.2-1.1-.8-2.1-1.3-2.9-2.5l1.5-.9z" class="cls-7"/><path d="M89.9 656.6c3.7-11.9 18.6-12.8 28.8-10l-.3 1.7c-1.3-.1-2.6-.3-3.9-.5-8.4-.9-19 .7-22.9 9.2l-1.6-.4zM136.8 650.6c-7.3-14.7-21-27.6-37.9-29.5l.2-1.7c13.2.5 25 8.9 32.7 19.3 2.6 3.5 4.8 7.1 6.5 11.2zM159.3 624.4c-2.4-6.9-4.8-14.7-6.9-21.8-.7-2.4-1.7-4.8-1.8-7.4l1.5.3c-5.5 8.2-11.1 16.7-14.4 26-1 3.1-1.9 6.3-1.9 9.5h-1.7c0-12.6 8.9-27.1 16.7-36.6l.6-1.3c1.8 2.7 2.6 5.7 3.5 8.7l2.1 7.3c1.4 4.9 2.7 9.8 4 14.7l-1.6.5z" class="cls-7"/><path d="M140.5 630.9c2.3-11.2 4.8-22.4 8.1-33.3l1.7.2c-.6 5.8-2.1 11.4-3.5 17s-2.9 11.1-4.6 16.6l-1.7-.4z" class="cls-7"/><path d="M167.6 707.8c10.5.7 44.2-6.5 44.2-6.5l-5.1-4.9-38.2 8.1-.8 3.3z" class="cls-8"/><path d="m136 742.5 142-32.3-.3 3.3-68.8-32.4 1.2.2-37 5.9-.2-1 36.4-8.7.6-.2.6.3 68.7 32.7 4.7 2.2-5.1 1.1-142.6 29.8z" class="cls-7"/><path d="m109.9 699.6-42.7 8.2 1.3-1.7 9.1 151.8-.7-1.3c-.1-.2 67.6 49.2 65.9 48.3l149.1-38.5-2 2.6.9-37.7h1l2.5 37.5v1.4l-1.3.4-149.5 36.8-1 .2-.8-.6L75 859.2l-.7-.5v-.8l-9-151.8v-1.4l1.3-.3 42.2-10.3 1.2 5.3z" class="cls-7"/><path d="M142.5 905.6c-3.2-35.6-6.6-79.9-8.9-115.7-.4-6.6-1.8-22.5-1.6-29 0-3.2.1-6.5.5-9.7h1c1.9 12.7 2.3 25.6 3.2 38.5 1.2 19.2 3.6 58 4.8 77.2l2.2 38.6h-1z" class="cls-7"/><path d="m779.7 579.9 15.4 10.3-39.5 157.4" class="cls-4"/><path d="M756.14 746.66s.11-.04.23-.08c-.06.26-.12.49-.16.68l-.81-.16c.02-.29.04-.58.07-.87.26.17.5.33.67.43M780.1 580l-.02.02-.18-.12zM789.41 610.16l4.9-18.1c-1.33 6.11-3.05 12.12-4.9 18.1M794.9 591.1l-.28-.19.08-.31zM794.62 590.91l-.31 1.15c.08-.39.17-.79.24-1.19z" class="cls-7"/><path d="m794.9 591.1-.28-.19.08-.31z" class="cls-7"/><path d="m796 589.9-39.4 156.61-.2.79-.19-.04-.81-.16c.02-.29.04-.58.07-.87.26.17.5.33.67.43.04 0 .11-.04.23-.08 4.03-16.17 39.23-156.18 39.23-156.18l-.3-.2-.53-.35.03-.15 1 .2zM982.5 550.3c-42.5 10.2-96.1 22.4-138.9 32.2-13.1 2.9-27.5 6.3-40.8 8.5-1.8.3-4.2.2-6 .3v-1c2.8-.2 6-.4 8.7-1.2 22.3-5.2 61.2-14.3 83.9-19.6l92.5-21.7.6 2.4z" class="cls-7"/><path d="m844.1 727.6 23-82.5 2.7 76.7z" class="cls-8"/><path d="m535.8 817.9-42.2 12.8.9-1.3c-.1 4.5-.2 9.1-.4 13.6l-.5 13.6-.2-.4c8 4.3 16 8.6 23.9 13.1 19.6 11 39.5 22.6 58.7 34.6 3.8 2.4 7.7 4.9 11.4 7.4l-1-.1c61.4-19.9 130.9-40.9 192.9-60 21.4-6.6 42.9-13.1 64.4-19.6l-1.2 1.6.6-30.9 2 1.5c-.4 0-260.3 77.7-260.7 77.3-7.6-2.6-14.2-6.8-21.1-10.7-10.2-5.8-30.7-17.7-40.8-23.8-6.8-4-13.5-8.1-20.2-12.2l.5-.9s83.3 47.1 81.7 46.6c7.6-3 16.2-5.9 24-8.6 50.2-15.9 119.8-36.5 170.5-51.7 22.4-6.6 44.8-13.1 67.1-19.7v2.1l-.7 30.9v1l-.9.3c-76.4 23.4-182.5 57-258 79.3-7.3-3.7-17.1-9.5-24.3-13.6-23.5-13.9-46.7-28.1-69.4-43.1l-.2-.2v-.3l-.5-13.6c-.2-4.8-.3-9.7-.4-14.5l1-.3 42-13.4 1 3.2z" class="cls-7"/><path d="m586.1 881.4.9 29.5" class="cls-4"/><path d="M841.4 801.2c-16.6-5-32.3-12.2-47.8-20l-7.7-3.9c-2.6-1.3-5.2-2.5-7.7-4l.4-.9c3.2 0 5.6 1.5 8.3 2.6 7.9 3.5 15.6 7.5 23.4 11.1 7.5 3.6 16 7.3 23.6 10.7 2.6 1.2 5.3 2.3 7.9 3.4l-.4.9zM688.2 835.9l-105 34.4-1 .3-.9-.5-56-32.8c-1.3-1-2.5-2.1-2.9-3.8-.3-2.4 2.1-3.6 4-4.1 1-.3 3.7-1.2 4.7-1.6 12.1-4 25.5-8.5 37.6-12.4-.5.2 8.9-4.8 8.8-4.8l.5.9-8.8 5.1c-12 4.3-25.2 9.1-37.3 13.5-1 .4-3.7 1.3-4.6 1.7-.6.2-1.6.5-2.1 1 0 0-.1 0-.1.1v.4c.2.5 1 1.3 1.7 1.7l56.9 31.1-1.9-.2 105.1-34.3 1.4 4.3z" class="cls-7"/><path d="m544.3 824.5 5.9 8.7M556 820.4l7.4 8.4M568.9 816l7.5 8.5M593.3 818.6s-7.5 2.5-9.9 3.2-9.5 2.8-11.9 5.9c-4.3-.3-8.8.3-11.3 3.2-4.4.6-8.6 1-10.7 3.6-4.9.9-15.4 6.1-15.4 6.1M544.7 846.7s10.3-4.6 11.3-5 9.5-2.2 10.2-4.4c1.7 0 9.4-1.9 10.6-3.4 2.2-.2 9.8-.5 11.5-3.5 3.9-.5 7.6-1 9.1-2.4 3.4-.2 8.7-.8 9.2-1.5s4.7-2 4.5-2.7-4-3.6-6.8-4M581.4 822.4l6.9 8.1M571.5 827.8l5.3 6.2M560.2 831l6 6.4M549.4 834.6l6.6 7.2M593.8 823l3.5 5.1" class="cls-4"/><path d="M611.1 823.9s5.6-.6 6.3-1.5c0-2.1-1.8-5.1-4-5.4" class="cls-4"/><path d="M617.4 822.4s3.6-1.2 7.6-1.5c2.5-.2-10.1-7.3-10.1-7.3" class="cls-4"/><path d="M627.7 810.2s4.7 5 7.7 6.9c0 0-.3 0-.7.2-2.1.5-8.1 2.2-9.7 3.7l7.1 6.7s9.2-1.8 9.5-3c-1.2-2-5.5-5.8-5.5-5.8l-1.2-1.7M628.7 809.4s5.6-4.2 9.4-3.4c2.3 1.3 9.1 7.6 9.1 7.6s-5.9 1.7-9.2 2.3c-1.6 1.1-2.6 1.1-2.6 1.1" class="cls-4"/><path d="M638.1 806s.9-1.3 5-2.4 7.5-1.5 7.5-1.5l6 7.4s-5.4 2.9-9.4 4M656.6 809.5s7.9-.6 8.5-1.3 4.5-1.3 4.4-2.3-4.2-4.5-5.9-5.8c-1.7-1.4-3.1-1.5-6.2-.7s-6.7 2.7-6.7 2.7M646.1 794.9l6.3 6.4M639.8 800.8l2.6 3.1" class="cls-4"/><path d="m657.5 790.2 6.2 6.9-3.1 1.8M669.1 785.5l6.8 7.1-1.4 2.6s-7 .5-10.8 1.9M674.5 795.2l4.9 6.1 8-2.1M680.7 783.4l6.3 5.1-1.6 2.3-9.5 1.8M701.3 783.9s-4.5 1.8-4.7 2.7c-1.9 0-6.1-.2-9.6 2.2" class="cls-4"/><path d="m685 791.3 6.5 5.3s7.4-1.1 8.4-1.8 3.2-1.9 2.6-2.7-5.9-5.6-5.9-5.6" class="cls-4"/><path d="M718.7 786.2s-5.3 3.8-7.8 4.6-8.5 1.4-8.5 1.4M737.1 793.4l-17.5 5.5-9-8M719.6 798.9l-11.1 3.5-8.6-7.5M691.5 796.6l-4 2.6s7 6.8 7.9 7.2 13.1-4 13.1-4M679.4 801.3s-3.4 2.2-3.5 3.5c-1.8 0-4.5-.2-6.5 1.1" class="cls-4"/><path d="M675.9 804.8s6.3 5.5 7.7 5.9c2.8-.2 11.8-4.3 11.8-4.3" class="cls-4"/><path d="m664.1 808.6 7.1 6.9s9.5-.9 12.4-4.9M653.1 811.5l6.9 7.8s9.3-1.6 11.2-3.7M644.3 814.4l6.7 7.6s7.2-1.1 9-2.7M651 822l-9.4 2.7M632.1 827.6l-10.3 3.6-6.2-8M606.1 826.8l6.1 7.2 9.6-2.8M595.6 829l5.5 8.7 11.1-3.7M585.3 832.6l6.6 7.6 9.2-2.5" class="cls-4"/><path d="m572.5 836 7.5 7.3s10.1-1 11.9-3.1" class="cls-4"/><path d="M562.7 839.7c-.2 0 6.4 7.6 6.4 7.6s5.1-.2 6.5-1.1 4.5-3 4.5-3" class="cls-4"/><path d="M555.1 852.6s3.8-1.9 7.6-3.1 6.4-2.2 6.4-2.2M575.5 846.2l6.7 7.3-15.8 5.5M589.6 841.4l7 7.3-14.4 4.8M601.1 837.7l6.6 8.5-11.1 2.5M607.7 846.2l69.7-20.7-8.4-8.6" class="cls-4"/><path d="m679.4 813.6 8 6.1-10 5.8M686.4 810l7.4 8.9-6.4.8M707.1 813.6l-13.3 5.3M699.6 805.4s3.8 3.8 5.9 4.8 4.3 2.2 5.8 2.7 3.5 1.4 4.7 2.5 4.3 2.9 5.2 4.2c.8 1.3 2.2 2.7 0 3.6s-8.5 2.8-9.7 2.9-4.7-1.4-6.8-2.9-4.2-3.2-5.7-3.4-3.4-1.5-3.4-1.5" class="cls-4"/><path d="M717.1 816.2s-7.3 1-10.6 2.7c-3.4 1.7-4 2.7-4 2.7M679.1 824.5s7.2 4.5 9.8 4.1c.9-.2 2.3-.9 3.6-1.8 2.4-1.6 4.8-3.7 4.8-3.7M710.2 826.1s-7.3 3.4-8.9 3.7-5.6 1-7.5-.7l-1.9-1.8M795.1 789.2s-18.1 5.5-20.2 6.1-6.9 2-12.5-1.3c-5.6-3.4-8.4-4.4-12.6-10.1M740.3 794.9s7.7 4.9 10.4 5.5 7.6 3.2 7.3 4-4.7 1.8-6.2 2-7.9 1.3-8.4 2.1" class="cls-4"/><path d="M752.3 807.4c-.6-.9 1.3 1.8 4.2 2.7s10.3 1.3 13.6.7c-5.8 1.2-13.9 4-15.5 4.9s-6.7 1.8-10-1.1-5.3-3.8-8.1-4.4c-2.8-.7-5.6-1.6-8.6-1.5 2.6-1.7 11.7-4.3 13.9-5.1s6.6-3.9 6.6-3.9" class="cls-4"/><path d="M736.5 813.6s-4.7 2.1-3.2 4c1.5 2 4.3 2.9 6.9 1.3s5.2-2.7 8.3-2.4M703.3 753s1.8-6.4 12.5-8.5" class="cls-4"/><path d="M696.9 775.9 625.6 798l-.3-.9 70.5-24.5zM636.7 788.6c-2.8-8.1-5.1-16.5-5.9-25.1h2.6c0 8.4 1.3 17 3.3 25.2z" class="cls-7"/><path d="M382 914.2s-2.5 10.4 3.5 14.6 29.6 20.7 51.2 28.3 41.8 13.1 57.7 4.4 20.9-24.2 12.2-44.2-24.1-38.1-50.6-45c-26.4-6.9-60 17.7-64.8 23.2s-8.7 12.6-9.2 18.7" class="cls-8"/><path d="M507.16 942.82c-.38 1.22-.9 2.39-1.56 3.48-6.36 10.51-20.77 11.42-31.47 8.47-2.94-.8-5.6-1.9-7.73-3.17-2.78-1.65-5.17-3.23-7.45-5.11-.27-.23-.53-.45-.78-.67-.17-.15-.35-.3-.52-.46-.17-.15-.34-.31-.51-.47-.66-.6-1.32-1.25-1.98-1.94-.74-.79-1.5-1.63-2.28-2.56-.31-.38-.64-.78-.97-1.19-.07-.09-.13-.17-.2-.25-.26-.33-.52-.67-.8-1.02-2.01-2.64-4.19-5.81-6.67-9.76-.66-1.05-1.35-2.16-2.06-3.32-1.07-1.75-2.19-3.63-3.38-5.65-5.2-8.92-10.58-14.19-16.89-16.76-8.97-3.67-19.84-1.9-34.81 2.56v-.1s10.1-15.2 43.9-26.1c16.5-4.9 40-.3 54.5 15.1 7.49 7.96 14.77 18.11 18.94 27.91 3.24 7.61 4.6 15.01 2.72 21.01" class="cls-9"/><path d="M504.44 921.81c-3.11 2.94-8.84 7.32-16.91 8.63-13.12 2.13-23.48-5.28-25.5-6.73-12.4-8.87-11.54-19.88-21.62-23.56-6.76-2.46-13.85.03-18.5 2.29 6.31 2.57 11.69 7.84 16.89 16.76 1.19 2.02 2.31 3.9 3.38 5.65.71 1.16 1.39 2.27 2.06 3.32 2.48 3.95 4.66 7.12 6.67 9.76.28.35.54.69.8 1.02.07.08.13.16.2.25.33.41.66.81.97 1.19.78.93 1.54 1.77 2.28 2.56.67.69 1.32 1.33 1.98 1.94.17.16.34.32.51.47.17.16.35.31.52.46.25.22.51.44.78.67 1.88 1.61 4.19 3.4 7.45 5.11 2.15 1.13 4.8 2.25 7.73 3.17 10.7 2.95 25.11 2.04 31.47-8.47.66-1.09 1.18-2.26 1.56-3.48 1.88-6 .52-13.4-2.72-21.01" class="cls-12"/><path d="M872 783.9c-8.6-1.3-17.3-2.8-25.2-6.6-2.7-1.4-5.3-4.7-2.2-7.3 3.2-2.5 7.4-2.6 11.1-2.9 4.9-.2 9.9-.5 14.8 0-4.3.2-10.4 1.1-14.7 1.5-2.4.3-4.8.6-7.1 1.3-10.6 3.6 5.4 8.4 9.1 9.6 4.7 1.5 9.4 2.9 14.1 4.3z" class="cls-7"/><path d="M566.8 807.1h-.1zM750.93 780.67c-2.11-1.64-3.83-3.69-4.97-6.11-1.22-2.6-1.82-5.44-3.05-8.04-2.13-4.49-5.54-8.28-9.69-11-1.08-.71-2.08 1.02-1.01 1.73 4.23 2.76 7.61 6.78 9.5 11.48 1.01 2.51 1.61 5.18 2.89 7.58 1.2 2.26 2.9 4.22 4.91 5.78 1 .78 2.43-.63 1.41-1.41Z" class="cls-12"/><path d="m502.8 833.5-7.06-4.18-2.53 1.12-.01 26.16 94.22 55.5-.29-3.55-.97-28.4-2.33.29-80.99-46.32zM470.66 812.58c.81-.63 4.82 2.92 7.54 6.45s5.12 8.32 4.3 8.94c-.81.63-4.82-2.91-7.54-6.45s-5.12-8.32-4.3-8.95ZM982.9 548.2 968.5 538l-.4-.3-.5.1c-31 6.7-111.2 23.9-141.2 30.5-4.2.9-25.7 5.6-29.4 6.4-.9.3-1.9.4-2.9.7-.5.2-.8 1.1-1.3 1.2-.3.2-12.4 2.6-13.2 2.8h-.5v.4l-20.8 77.9c-5.1 18.8-10.5 39.5-15.5 58.5-1.5 6.1-4 14.5-5.1 20.6 4.4 2.7 9.2 5.5 13.5 8.3.9 1.3 2.7 2.3 3.9 3.2l.3.1h.4l114.15-25.04-.11-3.14c-.11.03-.23.05-.34.08l.1-.1c-.68 0-104.94 23.91-113 26.31l-.2.79-.19-.04-.81-.16c.02-.29.04-.58.07-.87.26.17.5.33.67.43.04 0 .11-.04.23-.08 4.03-16.17 39.23-156.18 39.23-156.18l-.3-.2-.53-.35-14.2-9.5 11.03-2.55c38.7-8 90.7-18.3 129.7-26.4 15.28-3.11 30.55-6.32 45.83-9.53l-.93-.67 2.2.4-1.27.27 11.73 8.45.54-1.92 1.1 3.1-1.64-1.18c-.7 2.59-1.36 5.24-1.76 7.88-.3 2.1-.7 5.2-1 7.5-1.1 6.7-3.8 15.4-5.4 22-3.4 12.9-6.7 25.9-10.2 38.9l-20.46 76.91.86-.21-1.1 1.1.24-.89c-12.97 3.21-26.12 6.24-39.08 9.55l.19 3.24c.16-.03.3-.07.45-.1 2.6-.6 37.4-9.2 41-10.1l.2-.9 20.4-77.9c3.4-13.3 11.9-45.6 15.2-58.4 1.5-6 3.5-14.5 5.1-20.3zm-202.82 31.82-.18-.12.2.1zm.27.18-.09-.06.14-.14c-.02.07-.03.13-.05.2" class="cls-7"/><path d="M904.8 775.8s-5.8 4.9-17 4.9-16-4.6-16-4.6l-1.85-52.74-.11-3.14-2.64-75.14 29.2-6.38 4.56 74.36.19 3.24z" class="cls-9"/><path d="M903.92 758.5c-.03-.64-.06-1.28-.08-1.93-.3-6.7-.6-13.41-.89-20.11a1.65 1.65 0 0 0-.26-.8c.16-.6-.02-1.31-.53-1.69-.23-.17-.51-.27-.86-.28-12.73-.28-24.7-8-30.34-19.39-.3-.61-.82-.81-1.32-.74-.38.04-.59.24-.85.54l.08 2.38c.18.35.21.68.4 1.03-.28.24-.46.61-.41 1.11 1.6 19.04 1.28 38.17 2.32 57.24-.4.65-.4 1.59.41 2.14 1.65 1.11 3.31 2.22 5.14 3.02 1.93.85 3.95 1.2 6.03 1.5 4.24.6 8.54.76 12.69-.45.04-.01.06-.02.1-.03.87-.08 1.74-.23 2.58-.47 1.95-.56 3.91-1.43 5.71-2.36.31-.16.52-.38.63-.63.39-.24.66-.65.63-1.21-.27-6.26-.27-12.65-1.19-18.87Z" class="cls-12"/><path d="m897.22 636.58-.03-.6-30.05 6.56-1.03.19.05 1.08 2.47 70.28.08 2.38 2.16 61.61v.21l.16.15c.21.19 5.22 4.87 16.83 4.87s17.58-4.95 17.83-5.16l.2-.17zm-30.04 7 29.05-6.34 5.93 96.73 2.67 43.54c-1.12.84-6.93 4.77-16.97 4.77s-15.07-3.71-15.97-4.46l-2.25-64.26z" class="cls-7"/><path d="M750.93 442.26c3.25-2.15 10.08-10.41 10.41-11.13s1.82-2.15.33-3.58-2.87-.72-4.68.33c-1.76.72-9.31 6.83-12.18 8.98s-10.03 8.6-10.03 8.6-3.97 3.25-2.48 5.01 2.87 1.1 4.68.39c2.09-.72 10.75-6.45 13.94-8.6Zm-9.32-60.62h-1.76c-8.6 0-29.43 1.43-34.11 1.82-5.01.33-21.16 3.25-24.03 3.97s-1.43 2.48-1.43 2.48 2.87 3.25 4.3 4.3c1.43 1.1 3.58 4.3 6.45 2.87 3.25-1.43 19.01-2.87 24.03-3.58 3.2-.44 6.45-.44 9.7 0 0 0-13.61 17.91-15.76 21.16-2.15 2.87-14 19.01-16.53 22.59-2.15 3.58-7.88 12.56-10.41 16.86-2.15 4.3 1.76 3.97 1.76 3.97s9.31.33 11.46.33c1.76 0 2.15-1.43 2.53-2.15.83-1.87 1.76-3.64 2.87-5.4 1.82-2.87 5.73-9.31 10.03-16.53s9.7-14 13.61-19.4 8.6-11.46 9.7-12.89 5.4-7.16 6.45-8.6c1.05-1.43 1.43-1.43 2.87-1.43 1.82 0 12.89.72 17.58 1.1 5.01.39 11.85.72 16.15 1.1 4.3.39 2.87-1.82 2.87-1.82.17-1.87-.22-3.75-1.1-5.4-1.43-2.87-2.53-2.53-2.53-2.53-5.62-1.71-28.21-2.81-34.66-2.81Zm168.62 101.17c1.1.72 3.58 1.43 3.25 3.58 0 0-2.15 5.01-3.25 5.4s-2.87.33-6.45-1.1-21.16-5.73-25.84-6.83c-4.3-.72-14.71-2.48-14.71-2.48s-1.43-.72-3.58 2.87c-2.15 3.25-8.98 13.28-8.98 13.28-.22.83-.94 1.43-1.82 1.43-1.43 0-6.83-.33-8.98-1.43s-2.87-1.1-1.43-3.25c1.43-2.15 6.12-11.85 8.27-13.61s-1.1-1.43-2.15-1.76c-1.1 0-21.88-1.43-27.99-1.1-6.12 0-27.61 0-35.54.72s-36.26 3.25-43.42 4.3c-7.55 1.1-37.69 5.4-41.6 6.45-3.97.72-12.18 2.15-12.18 2.15-2.76.61-5.62.39-8.27-.72-3.97-1.76-10.41-4.3-5.01-6.12s32.29-7.16 40.56-8.27c8.27-1.1 34.44-5.01 45.18-5.4 10.75-.72 40.56-2.15 51.63-2.15s26.17.72 33.01 1.43c6.45.33 10.75.72 12.18 1.1s1.43-.72 2.87-2.15c1.43-1.43 5.4-6.83 5.4-6.83s1.43-1.82-1.43-.33c-2.87 1.76-6.83 1.76-8.98-.33-2.15-2.15-2.87-3.58-3.97-3.25s-5.01 2.48-7.16 3.25-11.13 2.87-16.53-1.1c-5.4-3.58-5.73-5.4-6.45-6.83-.72-1.76-1.1-1.76-2.87-.72-1.82 1.43-7.88 4.3-10.41 5.4-2.31 1.27-4.9 1.87-7.55 1.76-3.58-.33-7.55-1.43-9.31-4.3s-1.82-5.01-3.58-3.58-11.85 7.16-17.19 8.6c-6.12.72-7.55 1.43-10.41.72-3.25-.72-6.45-1.82-7.55-3.58s-1.43-2.15-2.87-1.1c-1.43 1.05-5.4 3.97-8.27 3.58s-10.41-2.15-14.71-9.7c-3.97-7.55-1.1-10.75 2.48-14.33 3.58-3.97 10.41-9.31 10.41-9.31s8.27-5.73 10.75-7.16c2.87-1.43 7.16-3.97 10.03-3.97s6.83 0 10.75 3.25c3.91 3.25 6.12 6.45 6.83 7.88.33 1.1 2.15 5.73-.72 8.98s-10.75 10.75-10.75 10.75-3.25 1.82-1.82 4.3c1.43 2.15 6.83-1.43 8.27-2.87 1.82-1.1 11.13-9.31 14-11.85 2.87-2.87 20.83-20.44 22.59-21.88 1.43-1.82 16.48-16.53 19.01-17.96 2.15-1.43 2.87-2.48 7.16-1.76 2.26.39 4.41 1.1 6.45 2.15 0 0 4.3 1.76.72 4.3-3.25 2.87-14.71 12.18-17.58 15.04s-11.08 11.13-13.56 14c-2.87 2.87-10.03 11.85-11.13 13.61s-1.82 3.58 0 5.01 5.01 0 8.27-2.87c3.25-2.87 13.28-11.13 16.53-14.71s22.26-21.16 24.03-22.59c1.76-1.43 10.41-8.6 10.41-8.6s1.1-1.43 3.58-1.43 5.01.33 6.45 1.1l4.3 2.15s1.82.72-1.1 2.87-18.68 14.33-22.98 19.01c-3.97 4.68-12.56 14-15.76 17.91-3.25 4.3-5.4 6.45-2.87 8.98 2.48 2.87 5.4 2.15 6.83 1.76s6.45-3.97 9.7-7.55c3.58-3.58 14.33-15.1 15.76-16.53 1.1-1.43 5.4-5.4 5.4-5.4s.72-1.76 3.25-1.76 3.58.33 6.12.72c2.15.72 7.16 1.43 4.68 4.3-2.87 2.87-9.7 9.7-11.13 11.46s-7.16 8.27-8.27 10.03-2.48 3.97-1.1 5.01c1.38 1.05 5.4-.33 8.98-2.53 5.07-2.59 9.75-5.84 14-9.7 4.68-4.3 12.18-11.13 12.18-11.13s1.1-2.87 6.83-1.76c5.4 1.1 6.83 1.76 6.83 1.76s4.3 1.1 1.43 3.58-12.18 10.75-15.81 14.33c-3.58 3.25-14.71 14.71-16.53 16.86s-7.16 7.16-5.01 7.55 18.63 3.58 22.26 4.68c3.31 1.27 15.87 5.95 16.97 6.34Z" class="cls-10"/></svg>