<svg xmlns="http://www.w3.org/2000/svg" width="303" height="303" fill="none" viewBox="0 0 303 303"><path fill="#DBDFFA" d="M262.291 206.657c15.234-18.965 23.679-42.812 20.144-65.706-7.94-51.566-68.512-85.008-135.312-74.74S32.6 126.615 40.54 178.181c3.086 19.976 15.122 39.558 31.31 52.604l17.058-4.04 13.635-2.805 10.605-2.441s5.527.926 8.445 1.094c2.917.168 14.841.056 17.478.281 2.637.224 5.808 1.739 7.828 1.991 2.02.253 11.306-3.001 12.428-2.468s18.349-3.143 18.349-3.143l17.59-6.06s22.164-2.609 26.429-3.899 22.22-4.321 22.22-4.321h9.314l3.872-.898 5.162 2.553"/><path fill="#fff" d="m170.157 59.394 2.469 15.851v8.922l.308 1.655 1.122 1.01 1.403 2.329v2.721l-1.094 3.339-2.413 2.805-2.441.87-2.777-.028.421 10.408 3.002 10.549 2.469 2.301 4.853 1.487 11.475 4.657 8.978 2.216 7.406 6.594 3.339 9.342 2.693 8.781 2.301 18.377 1.543 10.324-.982 8.108-4.096 26.513-5.892 7.799-5.499 3.563-21.097 6.902-26.148 4.096-13.551 1.263-6.116 2.076-7.884 1.459-7.378-2.61 12.569 9.876-.814 4.797-40.933 13.832h-3.114L38.66 232.889l-.757-6.565-1.655-4.825-12.513-32.489-2.75-8.837-.645-3.703 2.497-.449 29.206 19.639 9.398 26.68.646-.561 3.31-2.272 1.571-.561.87-3.535 1.88-2.301 2.665-2.076 3.199-1.319 3.703-.589 4.994 2.581 9.342 3.143 6.79-1.74 6.284-4.208 7.659-5.331 3.647-4.096 4.433-3.03 1.88-1.038.252-1.683 1.796-13.607-.898-1.487.561-6.06.982-21.07 1.066-7.35 3.844-7.07 4.629-4.77 5.92-3.984 5.218-2.385 4.377-1.823-1.403-3.591-2.637.589-5.639.729-7.182-5.779-7.575-11.447-2.666-11.39-1.374-13.383.785-12.008 18.713-10.717 17.843 2.581zM226.352 189.066l6.284-1.991 6.032-.337 2.133.337-3.115-4.405-7.322-1.347-3.226-2.469-2.918-3.31-1.571-4.124-.477-2.694 2.497 2.694 4.012.645 5.723.757-.449-1.318-1.683-2.75-.477-5.414.028-5.752 1.094-5.695.561-2.02.73 1.992 1.15 3.815 1.543 3.086 3.254 3.199.505-1.796.87-4.208 1.01-3.872 1.403-4.601.14-3.142.056-5.387.253-1.318 1.459 5.022 1.318 3.759 1.263 2.918 2.889 6.032 1.487 4.713.73 2.553v3.563l.252 1.207 2.105-2.638 3.31-3.507 4.04-5.022 2.329-5.33.954-1.178.252 7.406-.168 5.471-.056 3.647-1.712 4.966-1.739 2.89-3.367 2.862 3.058-.253 4.433.982 1.487.729 2.862 2.666 1.487 2.412 2.665 5.05-3.507-2.609-3.227-.982-4.713.702-7.07.954-3.226-.702-2.75-1.178-2.272 2.048-1.207 2.693 2.862-1.655 2.665-.449 3.76.702 6.032 1.627 1.487.673.056 7.379-1.375.617.196 2.525-.645 19.919-17.983 7.379-16.834-7.94-.757-23.033-1.571-.73z"/><path fill="#fff" d="m18.573 77.209 64.219-6.369 4.77 59.001-63.575 5.695z"/><path fill="#2740E3" d="m56.335 152.286 20.229-1.572 2.58 23.764-20.143 1.543z"/><path fill="#fff" d="m230.644 41.55 4.237 7.576-.673 9.819-3.872 6.004-9.202 4.404-8.838-1.43-6.677-6.762-2.244-7.94 2.777-9.51 5.555-4.742 6.341-2.328 10.212 2.974zM253.145 54.091l8.052-1.852 8.276 2.33 6.397 7.322 1.459 8.977-3.03 9.147-7.491 5.33-7.883.982-7.351-2.974-4.91-4.377-2.777-8.108.252-5.92 4.096-7.266z"/><path fill="#DBDFFA" d="M138.482 105.657c-3.282-2.216-2.721-6.004-2.553-9.483.196-3.563.673-7.238.084-10.8-.421-2.554-1.851-6.005-4.489-7.043-2.749-1.066-5.274 2.16-6.396 4.265a1.4 1.4 0 0 0-.113.308c-.981.59-.701 2.525.786 2.637 2.525.169 3.759 2.722 4.293 4.882.617 2.469.897 5.078 1.29 7.603.617 3.9 1.066 10.24 6.425 10.24 1.459 0 1.823-1.851.701-2.609zM151.696 82.203c-.42-2.693-3.002-3.507-5.386-3.591.112-.758-.337-1.656-1.319-1.74-1.403-.112-2.918-.084-4.04.87-.982.814-1.543 2.132-1.094 3.395.982 2.777 4.825 1.767 6.902 2.974 1.122.645 2.244 1.543 3.619.925 1.094-.477 1.487-1.711 1.318-2.833M173.103 123.501c-1.094-1.067-1.684-2.75-2.357-4.097-.87-1.739-1.739-3.45-2.609-5.19 0-.056-.056-.112-.084-.14-.169-2.722-.449-5.443-.618-8.08-.056-.786-.617-1.235-1.234-1.319.309-1.066.533-2.132.701-3.198.028-.253-.028-.477-.224-.617l.196-.982c.056-.309-.084-.618-.392-.702-.281-.084-.646.084-.702.393-.365 2.02-.757 4.012-1.122 6.032v.533c.365 5.415 1.15 11.054.533 16.469-.281 2.441-.982 4.938-2.413 6.986-1.599 2.272-4.096 2.917-6.677 3.45-1.515.309-1.206 2.974.365 2.75h.056c.28.477.813.813 1.543.645.14-.028.252-.056.393-.084 1.346-.196 2.693.393 3.984.589 1.458.225 2.777.056 4.096-.673 2.412-1.347 4.713-3.395 6.228-5.695.729-1.123 1.291-2.385 1.543-3.704.309-1.627-.028-2.3-1.178-3.395zM172.457 89.974c.057-.112.057-.224 0-.365-.056-.252-.28-.392-.533-.42-1.178-.14-2.328.392-3.198 1.178-.87.813-1.431 1.88-1.964 2.918a.66.66 0 0 0 0 .56c-.14.197-.252.394-.336.646-.141.393.308.842.701.701 1.206-.448 2.244-1.15 3.254-1.935.477-.393.926-.786 1.403-1.179.365-.336.645-.757.645-1.234 0 0 .057-.056.057-.084.196-.225.224-.561 0-.786zM191.086 156.101c0-.589-.364-.926-.785-1.038l.252-.757c.141-.477.309-.954.449-1.431.197-.702-.87-.982-1.094-.309a79 79 0 0 1-4.349 11.335c-1.739 3.675-3.787 7.182-6.088 10.548a80 80 0 0 1-7.631 9.511 78 78 0 0 1-8.978 8.221 76 76 0 0 1-10.1 6.705c-.448.252-.869.477-1.318.701-.561.309-.169 1.179.421 1.038a119 119 0 0 0 17.534-6.032c.898-.392 1.768-.785 2.638-1.178-2.834 3.591-5.836 7.042-9.034 10.296a122 122 0 0 1-11.84 10.633 110 110 0 0 1-7.21 5.275c-.365.252-.281.729 0 .954a290 290 0 0 0 .196 4.825c0 .365.337.646.702.533 8.669-2.44 17.114-5.639 25.53-8.837l7.323-2.778c.28-.112.477-.364.393-.701a.6.6 0 0 0-.225-.309c1.403-.589 2.834-1.122 4.293-1.487 1.599-.42 3.226-.645 4.881-.617a.56.56 0 0 0 .561-.561c.057-.926.169-1.88.337-2.805a9.96 9.96 0 0 0 .701-5.443c.281-.898.309-2.048.449-2.75.337-1.683.674-3.366.954-5.05.589-3.338.954-6.705.533-10.072v-.028c.421-4.769.337-9.539.197-14.308a1.03 1.03 0 0 0 .336-.786v-13.27z"/><path fill="#DBDFFA" d="M159.748 173.973c.141-4.714.253-9.427.365-14.14.028-1.459-2.216-1.459-2.244 0-.141 4.909-.253 9.791-.393 14.701-.112 4.629-.73 9.567.364 14.112.337 1.402 2.497.813 2.161-.59-1.094-4.488-.421-9.482-.281-14.055zM141.484 185.924c-.028-.645-.505-1.066-1.122-1.122-.112 0-.225 0-.309-.028.141-.084.225-.253.225-.449a77 77 0 0 0-.926-10.128c-.14-.87-.281-1.711-.449-2.581-.14-.758-.252-1.515-.533-2.217-.561-1.402-1.852-2.3-2.721-3.507a16 16 0 0 1-.954-1.486 302 302 0 0 1-1.038-5.415c-.028-.197-.169-.337-.309-.365.084-1.15.224-2.3.337-3.451.028-.308-.281-.561-.561-.561-.281 0-.533.253-.562.561-.42 3.844-.813 7.744-.168 11.587.168.954.393 1.908.673 2.806.281.898.702 1.767.842 2.693.253 1.627-.645 3.086-1.88 4.068-1.346 1.066-3.058 1.487-4.713 1.852-.28 0-.561.084-.842.168-.673.225-.42 1.235.309 1.094.224-.056.421-.084.645-.14.814-.084 1.628.224 2.357.561 1.066.505 2.104 1.066 3.17 1.599l3.704 1.88c.392.309.841.561 1.29.701h.14c.309.169.646.337.982.505a23.9 23.9 0 0 1-8.108-2.833 71 71 0 0 0-1.936-1.207c-.505-.28-.981-.168-1.29.141-1.319-.561-2.441 1.374-1.122 1.936 8.472 3.591 12.204 13.915 7.322 21.939-2.385 3.9-6.34 6.509-10.24 8.669a73 73 0 0 1-13.607 5.864c-5.359 1.683-10.886 2.693-16.497 3.086-1.122.084-1.459 1.487-.617 2.048-.084.056-.196.112-.28.168h-.113c-.056 0-.112.056-.168.056-.112.028-.253.056-.365.085-.056 0-.112 0-.168.028h-.084c-.393.028-.814.056-1.207.028-.505-.197-1.038-.253-1.57-.281a7.8 7.8 0 0 1-1.796-.196c-1.29-.337-2.525-.926-3.9-.982-1.29-.056-2.329.561-3.395 1.178-1.122.673-2.272.954-3.563.533-.701-.224-.982.87-.308 1.094 1.262.421 2.609.281 3.787-.28 1.01-.505 1.908-1.319 3.086-1.375.87-.056 1.712.224 2.553.505.056.196.197.393.393.421.757.112 1.459.449 2.216.617.814.196 1.684.225 2.525.225.814 0 1.656 0 2.441-.253a5 5 0 0 0 1.852-1.038c5.387 1.234 10.914.14 16.104-1.683h.477a71 71 0 0 0 6.032-1.768c.168.168.421.281.729.281 3.339.084 6.565-1.74 9.455-3.199a72 72 0 0 0 8.809-5.33c.589-.421.589-1.094.309-1.571a38 38 0 0 0 2.749-2.469c.842-.814 0-1.992-.925-1.908 1.094-1.992 1.795-4.208 2.132-6.537.757-4.854.869-9.847.645-14.757zM77.18 213.531c-.308 0-.588.056-.869.168-.28.112-.505.281-.757.477-.477.337-.954.673-1.375 1.094-.42.393-.758.842-1.094 1.291-.28.365-.505.729-.674 1.15-.14.225-.252.477-.364.702a25 25 0 0 0-.926 1.683c-.365.729-.645 1.487-.673 2.272-.113.421-.197.87-.31 1.291-.224.729-.504 1.459-.925 2.104-.14.197-.449.758-.73.786-.196 0-.28-.393-.336-.561-.196-.702-1.29-.393-1.094.308.112.393.252.786.56 1.066.366.337.899.393 1.348.197.841-.393 1.374-1.431 1.739-2.245.309-.729.533-1.487.73-2.272a.42.42 0 0 0 .112-.365v-.14a5.4 5.4 0 0 1 .505-1.263c.112-.224.224-.421.252-.673.028-.197.028-.393.14-.477a.47.47 0 0 0 .14-.505l.085-.168c.084-.085.14-.169.196-.281v-.028c0-.056.028-.112.056-.14.085-.141.14-.253.225-.365.393-.645.898-1.15 1.43-1.683.393-.421.842-1.319 1.516-1.263.505.028.645-.533.449-.87.168-.112.364-.14.56-.14.73 0 .73-1.122 0-1.122z"/><path fill="#DBDFFA" d="M74.179 210.473c-.28-.14-.617-.056-.758.196-.196.309-.392.617-.617.898-.168.196-.337.421-.505.617 0 0-.028.056-.056.084-.505.085-.842.505-1.178.898-.393.477-.786.954-1.123 1.459-.308.505-.56 1.038-.813 1.543s-.477 1.038-.449 1.599c-.42.898-.786 1.88-.673 2.89-.169.87-.309 1.768-.646 2.581-.084.168-.168.365-.28.533-.056.112-.14.197-.197.309l-.056.056v-.028c-.112-.225-.196-.449-.28-.673a.583.583 0 0 0-.702-.393.583.583 0 0 0-.392.701c.112.337.252.645.392.954s.337.589.674.701c.73.197 1.262-.561 1.57-1.094.59-.982.758-2.132.983-3.226 0 0 .028-.028.028-.056a.54.54 0 0 0 .084-.281v-.28c0-.085 0-.141-.056-.225 0-.028 0-.056-.028-.084v-.365c0-.112.056-.224.084-.336.056-.225.14-.421.224-.618 0-.056.057-.112.057-.168 0-.028 0-.056.028-.084l.084-.196c.112-.113.14-.281.14-.449v-.085c-.056-.392.224-.841.393-1.178.224-.449.449-.898.701-1.318.253-.421.533-.758.842-1.123.14-.196.309-.364.449-.561.084-.084.196-.224.28-.224a.51.51 0 0 0 .477-.281c.056 0 .112-.056.169-.112.477-.533.925-1.122 1.29-1.739.14-.253.056-.618-.196-.758zM138.482 105.657c-3.282-2.216-2.721-6.004-2.553-9.483.196-3.563.673-7.238.084-10.8-.421-2.554-1.851-6.005-4.489-7.043-2.749-1.066-5.274 2.16-6.396 4.265a1.4 1.4 0 0 0-.113.308c-.981.59-.701 2.525.786 2.637 2.525.169 3.759 2.722 4.293 4.882.617 2.469.897 5.078 1.29 7.603.617 3.9 1.066 10.24 6.425 10.24 1.459 0 1.823-1.851.701-2.609zM30.16 184.97a.64.64 0 0 0-.169-.449.51.51 0 0 0-.533-.14c0-.056-.056-.084-.084-.14a.6.6 0 0 0-.252-.14c0-.085 0-.169-.084-.253-.14-.252-.506-.365-.758-.196a58 58 0 0 0-4.377 3.479c-.224.196-.196.589 0 .785 0 0 .056.056.085.056l-.225.197c-.224.196-.196.589 0 .785a.56.56 0 0 0 .393.169c0 .224.168.42.364.505-.224.196-.364.476-.196.757.14.224.533.393.758.196a64 64 0 0 0 5.639-4.713c.42-.393-.056-1.122-.561-.954zM32.46 185.98c-.224-.224-.56-.196-.785 0-1.543 1.235-3.114 2.497-4.658 3.732-.224.196-.196.589 0 .785.225.225.562.197.786 0 1.543-1.234 3.114-2.497 4.657-3.731.225-.197.197-.589 0-.786"/><path fill="#fff" d="M56.672 221.134c-.224-.225-.56-.196-.785 0a139 139 0 0 0-6.677 5.527c-.534.477.252 1.262.785.785a128 128 0 0 1 6.677-5.527c.253-.196.197-.589 0-.785M55.13 224.725a36.3 36.3 0 0 0-6.706 5.359c-.505.505.28 1.318.786.785a36 36 0 0 1 6.48-5.162c.618-.393.056-1.347-.56-.982"/><path fill="#DBDFFA" d="M68.625 240.858h-.03l.03-.029z"/><path fill="#DBDFFA" d="M212.353 187.467c-1.908-1.683-4.63-2.16-7.098-2.356-2.722-.225-5.471.056-8.165.505-1.571.252-3.114.561-4.657.869-.168.028-.28.141-.365.253h-.084c-.729-.056-.701 1.066 0 1.122 3.199.281 6.621.673 9.455 2.301 1.403.813 2.581 1.935 3.339 3.366.869 1.627 1.122 3.507 1.122 5.331-.028 3.563-.982 7.266-2.413 10.521-1.403 3.226-3.479 6.2-6.284 8.332-3.283 2.525-7.351 3.816-11.167 5.162-4.208 1.487-8.472 2.862-12.709 4.181-8.557 2.665-17.198 5.162-25.783 7.715-4.348 1.29-8.697 2.581-13.046 3.9-2.16.645-4.292 1.29-6.452 1.907-2.076.59-4.181 1.123-6.313 1.179-.926 0-1.852-.056-2.777-.225a14.4 14.4 0 0 0-2.329-.813c-1.936-.505-3.872-.393-5.807.196-1.01.309-1.964.701-2.946 1.094-1.01.421-2.048.814-3.002 1.347-1.88.982-3.956 2.946-6.257 2.132-.42-.14-.673.197-.673.533-.42-.168-.898.337-.673.814-.758.449-1.543.785-2.385 1.066.196-.084.393-.196.561-.337.702-.477 1.29-1.122 1.908-1.739a27 27 0 0 1 1.824-1.74 28.8 28.8 0 0 1 8.613-5.218 30.7 30.7 0 0 1 5.498-1.515c.309-.056.477-.421.393-.701-.084-.309-.393-.449-.701-.393a30 30 0 0 0-3.9.954.54.54 0 0 0-.505-.112l-2.525.841c-.056 0-.112.056-.168.084-.112 0-.225 0-.365.056a53 53 0 0 0-5.527 3.367 35 35 0 0 0-2.61 1.964c-.813.645-1.57 1.347-2.384 1.992s-1.74 1.206-2.805 1.206c-.113 0-.197 0-.28.057h-.029c-.505-.505-1.29.28-.785.785.42.421.925.673 1.458.786-.028 0-.084 0-.112.056-.841.364-1.711.729-2.553 1.094-.056 0-.084.056-.14.112-.421-.365-.842-.729-1.263-1.122.113-.393-.168-.87-.645-.702-.028 0-.056.001-.084.029-1.206-1.038-2.413-2.105-3.647-3.115l-.702-.561c-.084-.224-.28-.421-.533-.421a123 123 0 0 0-2.272-1.739.33.33 0 0 0-.14-.252 301 301 0 0 1-12.289-10.072c-.14-.141-.308-.253-.449-.393a9.5 9.5 0 0 0 2.189-.982c.252-.14.364-.505.196-.758-.084-.112-.168-.196-.309-.224 0-.168-.028-.337-.168-.449a63.5 63.5 0 0 0-6.537-4.741c-.309-.197-.59-.057-.73.196-.027-.112-.084-.224-.112-.337-.42-1.262-.87-2.497-1.29-3.731 0-.056 0-.14-.028-.225-1.235-3.563-2.47-7.098-3.844-10.576.14-.169.196-.393.056-.618-1.038-2.076-1.403-4.404-2.272-6.537-.421-1.038-.982-1.963-1.571-2.917-.533-.87-1.066-1.824-1.123-2.862a.561.561 0 0 0-.953-.393 5.16 5.16 0 0 0-1.403 2.189c-.112.392.168.645.449.673.14 1.29.589 2.497.982 3.731.028.112.084.225.112.337-.561-1.319-1.15-2.637-1.74-3.956-.112-.28-.533-.337-.757-.196-.056.028-.112.084-.168.14s-.14.112-.169.168a227 227 0 0 0-8.81 13.074c-.252.421.17.954.646.814 1.767-.449 3.563-.898 5.33-1.347a48 48 0 0 0-6.957 6.341c-.786.897-1.571 1.795-2.3 2.749-.197.225-.225.561 0 .786.111.084.252.168.392.168 1.122 5.359 6.228 8.501 10.409 11.391 1.234.869 2.497 1.711 3.731 2.581 0 .084.084.168.168.224 4.63 4.096 9.315 8.136 13.804 12.401.673.645 1.346 1.318 2.02 1.964-1.179-.842-2.413-1.628-3.563-2.525-2.834-2.217-4.994-5.163-7.912-7.323-1.487-1.094-3.17-2.048-4.264-3.591-.253-.365-.73-.281-.954-.028-1.515-1.319-3.03-2.637-4.517-3.956-2.076-1.824-4.153-3.619-6.229-5.443-.112-.084-.224-.14-.336-.14a.55.55 0 0 0-.505-.309c-.617 0-.702.814-.28 1.038v.057c0 1.15.196 2.3.588 3.394-.056.028-.084.084-.112.141-.056.084-.056.168-.084.252v.028c-.084.281.084.645.393.701h.196c6.06 4.686 11.98 9.596 17.843 14.561l5.05 4.293c.113.112.253.14.393.14 4.994 3.703 8.725 8.781 13.523 12.681 1.206.982 2.553 1.852 4.068 2.273 0 .056.056.084.112.14a29.5 29.5 0 0 1 3.956 3.759c.168.197.449.197.673.085.056.224.113.477.14.701.169.701 1.235.421 1.095-.309a26 26 0 0 1-.673-6.256c0-.393-.31-.561-.618-.533-.056-.056-.14-.084-.224-.112a7.4 7.4 0 0 1-1.178-.449c.308-.197.448-.73.028-1.01a70 70 0 0 1-9.988-7.996c-.87-.842-1.74-1.711-2.581-2.581-.505-.533-1.29.28-.786.785.084.113.197.197.28.309-.055.028-.112.084-.14.112a11 11 0 0 0-1.122-1.122.7.7 0 0 0 .309-.337c.14-.112.224-.308.168-.561-.196-.841-.673-1.599-1.122-2.328-.393-.674-.814-1.459-.673-2.273.056-.28-.056-.533-.309-.645-.168-.505-.42-.954-.645-1.431a51 51 0 0 1-.982-2.16 75 75 0 0 1-1.796-4.377c-.084-.224-.252-.365-.449-.393a37 37 0 0 1-.168-.785c0-.084-.056-.14-.112-.197a73 73 0 0 0-1.431-4.629.5.5 0 0 0 .224.056c.337 2.048 1.543 3.732 2.525 5.527 1.094 2.02 1.992 4.124 2.806 6.257.477 1.234.898 2.497 1.347 3.731.252.673 1.318.393 1.094-.309-.533-1.486-1.038-2.973-1.627-4.432l.056.056c2.076 1.403 3.843 3.254 5.695 4.938 1.936 1.795 3.9 3.591 5.836 5.386.196.169.392.197.589.112a151 151 0 0 0 6.79 5.275c.167.14.42.084.616-.028h.225c1.346-.225 2.609-.702 3.871-1.178 1.319-.506 2.638-.982 3.956-1.487q3.915-1.473 7.828-3.03c1.487-.59 2.974-1.151 4.461-1.74.28-.112.477-.365.392-.701a.6.6 0 0 0-.392-.393 134 134 0 0 1-1.992-2.132c.028 0 .056 0 .112-.028 1.347-.421 2.721-.982 4.124-1.123.701-.056 1.431-.056 2.104.113.73.196 1.375.477 2.132.505.842.028 1.712 0 2.553-.056.898 0 1.824-.057 2.722-.057.729 0 .729-1.15 0-1.122h-1.207c0-.056-.056-.112-.084-.14-.533-.589-1.038-1.178-1.571-1.739-.449-.505-.87-1.095-1.487-1.375-.645-.309-1.403-.225-2.104-.225-.757 0-1.515.113-2.244.337-1.403.421-2.778 1.066-4.068 1.739-.674.337-1.291.758-1.908 1.179-.197.14-.393.28-.617.421a.66.66 0 0 0-.59.14.6.6 0 0 0-.14.252c-.14.057-.308.141-.477.169-1.459.421-3.058.196-4.545 0h-.196l-.056-.056c0-.056 0-.085-.056-.141 1.963.477 3.843-.617 5.47-1.627 1.824-1.122 3.816-1.964 5.836-2.693 1.88-.674 3.816-1.094 5.807-.674.786.169 1.515.421 2.245.702.056.084.168.14.309.196.084 0 .168.028.28.056.701.309 1.431.646 2.132.982 1.824.87 3.676 1.74 5.696 2.048.308.056.589-.084.701-.392a.54.54 0 0 0-.168-.562c2.384-.42 4.713-1.374 7.07-1.935 3.45-.842 7.014-.646 10.549-.87 1.963-.112 3.955-.365 5.835-.954a.64.64 0 0 0 .309-.224c4.853-.533 9.735-1.039 14.589-1.572 2.272-.252 4.545-.505 6.817-.729.309-.028.561-.224.561-.561s-.196-.505-.421-.561c1.375-.281 2.75-.561 4.125-.87 5.751-1.262 11.446-2.777 17.113-4.489 1.515-.477 3.058-.926 4.545-1.459 1.403-.505 2.75-1.122 3.9-2.076.225-.168.197-.561.028-.757a187 187 0 0 0 5.275-14.842c.14-.421-.225-.673-.533-.701l1.094-2.946.084-.252a.49.49 0 0 0 .421-.281 14.3 14.3 0 0 0 1.15-3.872c.028-.28-.056-.617-.393-.701-.224-.056-.533.056-.645.281.533-1.515.87-3.087 1.206-4.63a649 649 0 0 1 1.628-7.21c.308-1.375.617-2.749.925-4.152.365-.14.59-.589.225-.898zM92.92 249.246c.28-.113.337-.533.197-.758-.057-.084-.14-.14-.197-.196.253 0 .477 0 .73-.056-.14.196-.169.477.056.673l1.963 1.852c-1.066.392-2.104.785-3.17 1.15-.645-.561-1.29-1.094-1.964-1.655l2.357-1.01zm-1.655 3.114c-.814.28-1.656.533-2.497.785-.084 0-.197.056-.28.084a461 461 0 0 1-3.844-3.114c.925-.364 1.823-.729 2.75-1.094 1.29 1.122 2.58 2.245 3.87 3.339m-4.826-4.181c-.926.365-1.851.73-2.777 1.123-.393-.337-.786-.646-1.179-.982.87-.393 1.712-.814 2.497-1.403.505.421.982.842 1.487 1.262zm-2.356-2.019c-.786.561-1.684.981-2.582 1.346-.505-.421-.982-.813-1.458-1.234.87-.421 1.683-.898 2.525-1.347.505.421 1.01.842 1.543 1.263zm-4.826-3.816h.14c.028 0 .056.056.112.084.029 0 .057.028.085.056.028.141.14.253.252.337q.884.631 1.768 1.347a43 43 0 0 1-2.525 1.318 72 72 0 0 1-2.245-1.908c.337-.196.674-.364 1.01-.561.253-.14.505-.28.786-.421.168-.084.42-.252.617-.224zm-2.3-1.908c.448.337.897.702 1.346 1.066-.14.084-.308.141-.449.253l-1.711.954c-.084.028-.14.084-.225.112-.449-.365-.897-.758-1.346-1.122.757-.365 1.515-.758 2.272-1.151.056 0 .084-.056.14-.084zm-2.946-1.431c.028 0 .224-.084.056-.028.14-.056.252-.112.336-.252.056-.084.056-.169.085-.281.477.393.981.786 1.459 1.179 0 0 .056.056.084.056-.786.42-1.572.813-2.385 1.178a30 30 0 0 1-1.038-.898c.196-.084.365-.196.533-.336.196-.141.393-.309.561-.449l.056-.056c.056-.028.084-.057.14-.085.029 0 .085-.056.14-.084zm-.225-1.122a2.8 2.8 0 0 0-.645.337 9 9 0 0 0-.59.477s-.027 0-.027.028c-.028 0-.056.056-.112.084-.085.056-.197.112-.281.168h-.056c-.056 0-.084.028-.14.056h-.365c-.309-.28-.645-.561-.982-.813a5 5 0 0 0 .757-.421c.45-.281.926-.617 1.375-.898.365.309.758.617 1.122.926zm-2.02-1.683-1.01.673c-.196.14-.393.253-.617.337h-.056c-.056 0-.112.056-.168.056-.113.028-.253.056-.365.084-.337-.28-.645-.561-.982-.842a9 9 0 0 0 2.356-1.094c.281.253.59.477.87.73zm-4.348-7.631c.42.336.813.645 1.234.982-.084.056-.168.084-.252.14-.113.056-.253.112-.365.168h-.028c-.028 0-.084 0-.113.056-.056 0-.112.056-.196.085-.393.14-.757.252-1.15.336-.337-.308-.701-.589-1.038-.898.645-.28 1.262-.561 1.908-.841zm-3.76.224a194 194 0 0 0-1.206-3.759 75 75 0 0 1 3.927 2.721c-.617.281-1.206.533-1.823.786-.337-.281-.758-.085-.898.224zm1.403 4.629c-.393-1.318-.786-2.665-1.207-3.984l1.431 1.263s-.056 0-.084.028c-.056 0-.112.056-.168.112-.084.056-.197.14-.28.225a.6.6 0 0 0-.113.168.5.5 0 0 0-.056.224c0 .085 0 .141.056.225 0 .056.056.14.112.168.113.084.253.169.393.169s.28-.057.393-.169l.028-.028.168-.084c.056 0 .14-.056.197-.056s.112 0 .14-.056c.056 0 .112-.056.14-.084.337.308.702.617 1.066.897-.73.281-1.43.561-2.132.898-.056 0-.084.056-.112.084zm2.244 7.07a51 51 0 0 0-.982-2.16c.056-.112.056-.224 0-.365-.308-1.206-.673-2.384-1.01-3.591.14 0 .281 0 .421-.056.225-.084.421-.196.645-.28.113-.057.225-.085.31-.141.055 0 .111-.056.168-.056.42-.168.841-.337 1.29-.505 0 0 .056 0 .056-.028.561.477 1.15.982 1.712 1.459-.057.028-.14.084-.197.112-.112.056-.224.14-.365.197-.056.028-.14.056-.196.084 0 0-.112.056-.14.056-.505.224-1.066.365-1.6.477l-.42-.365c-.561-.477-1.347.337-.786.786 1.122.953 2.273 1.907 3.395 2.861a7.6 7.6 0 0 0-2.329 1.515zm1.571 1.375c-.392-.281-.785.056-.813.449l-.337-.842c.112 0 .225-.056.337-.14.168-.14.337-.309.505-.449.028 0 .084-.056.14-.084.084-.056.197-.14.28-.197.169-.112.365-.224.562-.336.112-.056.196-.112.308-.14.056 0 .113-.057.169-.085h.056c.14-.056.252-.112.337-.252v-.028c.673.561 1.346 1.15 2.048 1.739-.898.393-1.796.786-2.722 1.151l-.926-.674zm3.62 3.002c-.561-.505-1.123-1.038-1.712-1.515.898-.365 1.796-.729 2.665-1.15.478.392.926.785 1.403 1.178l-2.104 1.178a.53.53 0 0 0-.252.309m.757.673s.056 0 .084-.028l2.441-1.346c.73.617 1.431 1.206 2.16 1.823-1.038.421-2.104.758-3.254.926l-1.43-1.347zm3.9 3.619-1.431-1.346c1.094-.225 2.16-.617 3.198-1.066.477.392.926.785 1.403 1.178-1.038.393-2.076.786-3.086 1.178h-.056zm2.216 2.049c-.42-.393-.87-.786-1.29-1.207 1.066-.421 2.16-.813 3.226-1.234.393.336.814.673 1.206 1.01a64 64 0 0 0-3.142 1.431m4.433 3.366a235 235 0 0 1-3.114-2.497c-.084-.056-.169-.112-.253-.112 1.01-.477 2.02-.926 3.03-1.375.758.618 1.543 1.263 2.3 1.88.45.365.927.729 1.376 1.122a53 53 0 0 1-3.03.73.46.46 0 0 0-.337.252zm3.956 2.862c-.028 0-.084 0-.112.028a55 55 0 0 1-2.862-2.188c1.178-.281 2.329-.562 3.479-.87.898.701 1.767 1.403 2.665 2.104-1.038.393-2.076.729-3.17.926m4.377-1.375h-.029l-.168-.168c-.814-.617-1.599-1.235-2.385-1.852.898-.28 1.824-.561 2.722-.87a78 78 0 0 0 2.384 1.908 69 69 0 0 1-2.553.954zm3.759-1.431a78 78 0 0 1-2.385-1.879c1.038-.365 2.048-.758 3.086-1.151l2.076 1.936c-.925.365-1.851.702-2.777 1.066zm9.006-6.088a.44.44 0 0 0 .224-.14c.589.645 1.207 1.319 1.824 1.964-.842.337-1.683.645-2.525.982a51 51 0 0 1-2.525-1.768c.982-.364 1.992-.701 2.974-1.038zm-4.209 1.487a82 82 0 0 0 2.497 1.796c-1.122.421-2.216.869-3.338 1.29a135 135 0 0 1-2.076-1.936c.897-.336 1.795-.701 2.693-1.038l.253-.084zm-1.627-1.346c.197.168.421.364.618.533-.954.364-1.88.729-2.806 1.094l-1.347-1.263a5.5 5.5 0 0 0 1.824-.785l.28-.113c.281.085.505.225.786.309.224.084.449.14.673.196zm107.593-39.811c-.224.561-.421 1.15-.617 1.711.196-.617.421-1.206.673-1.795 0 .028 0 .056-.028.084z"/><path fill="#DBDFFA" d="M89.497 234.797c-2.974-1.768-6.004-3.535-8.81-5.583.337-.028.702-.056 1.067-.056 1.122-.028 2.244-.056 3.338 0 .113 0 .197 0 .281-.056.084.084.224.14.393.14.168 0 .224-.028.308-.084.225 0 .45.028.674.056.14 0 .308-.056.392-.169.113-.084.169-.252.169-.392a.55.55 0 0 0-.168-.393c-.113-.112-.253-.14-.393-.168-.45-.028-.926-.085-1.375-.113 0-.056.028-.112.028-.168 0-.281-.252-.589-.561-.561h-.28c-.337 0-.674.028-.983 0-.364-.617-.813-1.15-1.318-1.655a.52.52 0 0 0-.645-.085h-.085a36 36 0 0 0-3.338 1.123c-.253 0-.505 0-.786.028-.112-.028-.224 0-.336 0-.169 0-.309 0-.477.028-.646.056-1.347.056-1.88.477-.561.449-1.038 1.01-1.543 1.515a.5.5 0 0 0-.14.533c-.225.084-.45.168-.702.224.477-.28.87-.757 1.178-1.178 1.039-1.319 1.6-2.946 1.964-4.601 0-.028.029-.056.056-.112a19.4 19.4 0 0 1 1.544-2.918.57.57 0 0 0 .617.28c.196-.028.393-.084.589-.14h.14c1.094 0 2.217-.084 3.255-.365.954-.28 1.907-.925 2.945-.813.281 0 .506-.225.562-.477.308 0 .617.028.925.056.45.028.814.056 1.207-.112.28-.113.337-.533.196-.758-.168-.28-.477-.336-.757-.196-.113.056-.337 0-.45 0-.224 0-.42-.028-.644-.056-.421-.028-.87-.056-1.291-.056-.842 0-1.683 0-2.525.196-1.487.309-2.721 1.262-4.18 1.627.14-.168.252-.336.392-.505a6 6 0 0 1 .534-.617l.168-.168c.084 0 .168-.056.224-.141h.028c.281 0 .477-.224.533-.449h.028l.758-.505.758-.42c.14-.056.252-.141.392-.197.056-.028.14-.056.197-.084h.056l.084-.028c.28-.112.505-.365.393-.701-.084-.253-.393-.505-.702-.393-1.15.477-2.216 1.094-3.17 1.908-.337.196-.617.505-.87.813-.42.505-.813 1.038-1.178 1.571a18.8 18.8 0 0 0-1.767 3.311c-.057.056-.113.14-.113.224-.28 1.375-.701 2.75-1.515 3.928a9 9 0 0 1-.617.786c-.14.168-.42.533-.673.533s-.645-.197-.87-.309c-.337-.168-.59-.393-.87-.645-.505-.533-1.29.28-.785.785.589.618 1.43 1.123 2.3 1.263.253.028.45 0 .674-.056-.14.14-.197.365-.14.561-.478-.421-1.179.168-.926.617-1.15.533-2.301 1.066-3.451 1.627-.28.141-.337.533-.197.758.169.28.505.337.758.196l3.787-1.767c.365.308.758.617 1.123.898a9.9 9.9 0 0 0-2.553 1.571c-.225.196-.197.617 0 .785.252.225.56.197.785 0 .056-.056.112-.084.14-.112h.028s.028 0 .056-.028c.113-.084.225-.14.31-.225.224-.14.42-.28.644-.42.225-.141.45-.253.702-.365.112-.056.224-.112.365-.168h.084c.056 0 .112-.057.168-.085.084-.028.14-.084.224-.14.393.309.786.589 1.179.898-.842.365-1.627.785-2.413 1.29-.252.141-.365.505-.196.758.168.252.505.365.757.196.533-.308 1.066-.617 1.6-.897.42-.225.869-.421 1.29-.59.813.59 1.627 1.179 2.469 1.712-.898.421-1.768.785-2.75 1.094a.583.583 0 0 0-.392.701.583.583 0 0 0 .7.393 19.6 19.6 0 0 0 3.536-1.459c.673.421 1.375.87 2.048 1.291-1.01.505-2.076.926-3.142 1.318-.674.225-.393 1.319.308 1.095a29 29 0 0 0 3.984-1.712c.73.421 1.46.814 2.189 1.207-.562.196-1.095.505-1.6.841-.673.421-1.262.786-2.048.898-.308.056-.477.421-.392.701.084.337.392.421.7.393.814-.112 1.516-.533 2.217-.926.674-.42 1.29-.813 2.02-.954.14 0 .28-.14.337-.28.056 0 .112.056.14.084.645.337 1.207-.645.561-.982a61 61 0 0 1-2.974-1.599c.758-.449 1.516-.898 2.245-1.403.028 0 .056-.028.084-.056.393.225.758.449 1.15.673.618.365 1.179-.617.561-.982a147 147 0 0 1-7.21-4.488c.45-.141.898-.309 1.347-.477.084 0 .14-.056.196-.113 2.104 1.375 4.265 2.666 6.425 3.956.617.365 1.178-.589.561-.982zm-15.627-3.535a.55.55 0 0 0-.308.224c-.169-.14-.337-.28-.533-.421.028 0 .056 0 .084-.028.673 0 1.318-.084 1.964-.196a9 9 0 0 1-1.207.421m1.964 1.543a.54.54 0 0 0-.505.112c-.084-.056-.168-.14-.28-.196-.197-.141-.393-.309-.59-.449.898-.281 1.768-.702 2.638-1.122.449.336.925.645 1.402.954l-1.262.42c-.449.141-.954.393-1.403.281m2.357 1.655c-.14 0-.28.14-.337.281-.337-.225-.673-.477-.982-.702a.9.9 0 0 0-.14-.196c.14-.028.308-.084.477-.14a108 108 0 0 1 2.469-.842c.392.281.813.533 1.206.814-.112.056-.224.112-.337.14h-.028c-.028 0-.056 0-.112.056-.056 0-.112.056-.168.056-.14.056-.28.084-.421.14-.533.169-1.066.281-1.6.365zm6.088 1.431c.365.224.757.449 1.122.701a26 26 0 0 1-2.413 1.459c-.533-.308-1.066-.645-1.599-.954 0 0 .056 0 .056-.028.225-.14.45-.28.674-.392.112-.057.252-.141.364-.197.056 0 .084-.056.14-.056h.085a9 9 0 0 1 1.487-.449zm-2.497-1.431c.028 0 .084-.056.112-.084.365.224.73.477 1.094.701-.73.253-1.43.562-2.076.982a.63.63 0 0 0-.28.505c-.562-.364-1.15-.729-1.712-1.122a10.7 10.7 0 0 0 2.89-1.01zm-1.964-2.833c-.505-.337-1.01-.702-1.543-1.038.505-.225 1.01-.393 1.543-.534h.056c.505.365 1.01.702 1.515 1.067-.533.196-1.066.364-1.599.561z"/><path fill="#DBDFFA" d="M104.563 227.615a33.8 33.8 0 0 0-8.894 4.713c-1.346.982-2.637 2.076-3.76 3.311-1.262 1.346-2.02 3.002-3.03 4.545a52 52 0 0 1-1.767 2.525c-.28.392-.56.841-.897 1.178-.113.112-.225.252-.393.281-.084 0-.253-.057-.225 0-.112-.281-.364-.477-.701-.393-.252.084-.505.421-.393.701.309.786 1.207 1.038 1.936.645.393-.196.645-.533.898-.897.28-.393.561-.786.87-1.179.589-.785 1.15-1.599 1.683-2.412.533-.814.982-1.656 1.459-2.469.954-1.571 2.328-2.806 3.731-3.984 1.347-1.122 2.806-2.104 4.32-3.002 1.712-1.01 3.536-1.824 5.415-2.497.674-.225.393-1.319-.308-1.094zM107.284 233.254h-.168v-.084c-.084-.337-.393-.449-.701-.393-4.209.617-8.165 2.749-11.082 5.863a19 19 0 0 0-2.076 2.694c-.842.954-1.572 1.964-2.357 2.946-.533.645-1.122 1.458-1.908 1.795-.477.197-1.347.084-1.29-.589.056-.729-1.067-.701-1.123 0-.056.786.505 1.431 1.207 1.683.73.281 1.515.056 2.132-.336.73-.505 1.29-1.179 1.824-1.852.56-.701 1.094-1.403 1.655-2.104l.505-.589c.056-.056.14-.113.168-.197l.028-.056c2.16-2.356 4.91-4.068 7.659-5.695 1.684-1.01 3.507-1.908 5.499-1.964.73 0 .73-1.15 0-1.122zM213.952 186.008c-.084-.056-.141-.112-.225-.168.141-.084.253-.224.253-.477a886 886 0 0 0-1.992-22.837c-.225-2.16-.421-4.293-.673-6.453a.56.56 0 0 0-.337-.505c-.954-4.741-1.992-9.567-4.433-13.803-2.216-3.844-5.443-7.014-9.118-9.483a38 38 0 0 0-6.677-3.535c-.197-.084-.393 0-.533.14a90 90 0 0 0-7.856-3.507 103 103 0 0 0-5.583-1.992c-.337-.112-.561.084-.645.337-.449.084-.702.757-.197 1.01 5.135 2.609 10.241 5.471 14.758 9.034 4.18 3.31 7.911 7.238 10.549 11.895 2.356 4.153 3.703 8.782 3.759 13.579a30.45 30.45 0 0 1-2.806 13.074c-1.907 4.096-4.685 7.744-8.248 10.549-.421.337-.87.645-1.318.982-.281.196-.309.533-.169.786 0 .056-.028.14-.028.196 0 .281.253.589.561.561 2.862-.365 5.724-.785 8.613-.982 2.694-.196 5.443-.14 8.024.673a12.9 12.9 0 0 1 3.76 1.908c.252.197.617.028.757-.196.168-.281.028-.589-.196-.758zM266.724 155.456a.5.5 0 0 0-.168-.365c.112-1.122.196-2.244.14-3.395 0-.729-1.15-.729-1.122 0 .084 3.03-.477 6.088-1.066 9.062-.281 1.431-.617 2.862-1.15 4.209a20 20 0 0 1-.73 1.543c-.365.645-.757 1.262-1.122 1.908-.056.112-.14.224-.225.336a122 122 0 0 1-2.468 3.704c-.365.533-.758 1.094-1.207 1.543-.505.505-1.094.841-1.683 1.178-1.235.701-2.301 1.655-3.339 2.637a49 49 0 0 0-2.918 2.974 55 55 0 0 0-3.843 4.713c.112-1.346-.169-2.665-.365-3.984.253 0 .505-.14.561-.42.169-.898.645-1.684.842-2.581.084-.449.112-.898.224-1.347.141-.477.337-.898.561-1.347.113-.224.057-.421-.056-.589l3.058-4.208 1.179-1.628c.392-.533.841-1.066 1.178-1.627.337-.589.281-1.234.281-1.879v-1.992c0-.169-.057-.309-.169-.393-.084-.084-.196-.14-.308-.197 0-3.899-.926-7.799-2.722-11.278a24 24 0 0 0-1.936-3.142c-.168-.253-.477-.365-.757-.197-.253.141-.393.534-.196.758 2.468 3.367 4.04 7.407 4.432 11.587q.127 1.431.084 2.862c-1.458 1.122-2.861 2.3-3.955 3.843a7.8 7.8 0 0 0-.842 1.487 14 14 0 0 1-.393-1.823v-.029q.168-7.953-.336-15.907c-.085-1.515-.225-3.002-.337-4.517a.545.545 0 0 0-.561-.561c-.337 0-.589.252-.561.561 0 .224.028.449.056.673 0 .056-.028.113-.056.197-.281 5.695-.169 11.39.28 17.086a19.6 19.6 0 0 0-1.459-2.273 15.3 15.3 0 0 0-2.3-2.357c-.225-.196-.561-.224-.786 0-.196.197-.224.618 0 .786.056.056.14.112.197.168-.197.141-.281.421-.141.702.73 1.234 1.459 2.469 2.189 3.675.42.729.897 1.431 1.29 2.188.169.702.309 1.431.449 2.104a62 62 0 0 1 1.01 6.425l-.421.589c-.617-4.769-1.655-9.539-4.264-13.635a18.5 18.5 0 0 0-2.806-3.45.54.54 0 0 0-.421-.169c-1.01-1.403-1.907-2.833-2.525-4.461-.533-1.402-.813-2.945-.589-4.46.056-.309-.084-.618-.393-.702-.252-.084-.645.084-.701.393-.421 2.89.617 5.667 2.104 8.08 1.459 2.357 3.339 4.405 4.854 6.733.842 1.291 1.543 2.637 1.936 4.124.028.141.112.225.196.309.505 1.627.87 3.283 1.15 4.966.281 1.599.449 3.198.618 4.797 0 .056 0 .113.028.141-.085 1.907.673 3.787.505 5.667a.56.56 0 0 0-.309-.309 29 29 0 0 0-1.599-9.763 25.5 25.5 0 0 0-2.132-5.836c-1.123-2.244-2.638-4.292-4.04-6.368-.758-1.122-1.515-2.245-2.301-3.367-.028-.112-.112-.196-.196-.28 0 0 0-.029-.028-.057-.393-.589-1.375-.028-.982.562.056.084.084.14.14.224.786 5.892 5.162 10.324 7.631 15.543.673 1.431 1.206 2.974 1.403 4.573 0 .14.056.252.14.336.056.73.225 1.431.365 2.133.14.729.28 1.487.14 2.216a.6.6 0 0 0 .281.645c0 .421-.028.842-.056 1.263 0 .084 0 .168.028.252a2.3 2.3 0 0 0-.898-.561h-.168s0-.028-.029-.056v-.168c-.252-1.403-.757-2.75-1.43-3.984.056-.112.084-.225.028-.365a15.4 15.4 0 0 0-3.171-6.256 9 9 0 0 0-1.374-1.347c-.028-.112-.113-.196-.225-.28a13.2 13.2 0 0 0-6.873-2.02c-.281 0-.449.14-.505.336l-2.273-.252c-.168-.112-.365-.225-.533-.337-.252-.196-.617-.028-.757.196-.028.057-.057.141-.085.197-.897-.73-1.627-1.599-2.132-2.637-.308-.646-1.262-.085-.982.561 1.515 3.226 4.994 4.769 8.164 5.891 1.768.646 3.592 1.235 5.247 2.189a12.3 12.3 0 0 1 3.675 3.338c1.01 1.431 1.74 3.03 2.076 4.742a.47.47 0 0 0 .028.505c.197.28.365.561.533.869-.028.281-.056.562-.084.814-.056.449-.14.926.112 1.375.337.589 1.066.841 1.768.954a.9.9 0 0 0 .196.14c.141.168.393.196.589.14.225 0 .421-.084.618-.196.14 0 .28-.056.42-.084.421-.141.702-.477.87-.87.337-.758.477-1.627.533-2.469.169-.337.365-.701.561-1.038a.51.51 0 0 0 .702-.224c1.318-2.217 2.665-4.489 4.629-6.201a13 13 0 0 1 1.908-1.346c0 .084 0 .196.056.28a.556.556 0 0 0 .757.197c.365-.169.73-.337 1.094-.533h.253c.056 0 .14.056.196.056.421 0 .786-.253.898-.674.056-.084.14-.14.197-.224 3.927-2.273 7.322-5.499 8.472-10.044.365-1.515.449-3.086.197-4.629 0-.084-.056-.169-.141-.225.169-1.122.281-2.216.365-3.338a32 32 0 0 0 0-4.04z"/><path fill="#DBDFFA" d="M262.628 164.406c-.196-.197-.617-.225-.786 0-1.627 2.02-3.31 4.011-5.218 5.807-1.683 1.571-3.591 2.89-5.218 4.545-.87.898-1.656 1.88-2.189 3.03a.5.5 0 0 0-.056.196c-.505.505.281 1.319.786.786 3.226-3.339 7.294-5.751 10.212-9.371a16 16 0 0 0 1.992-3.142c.084-.168.056-.365 0-.505.14-.196.309-.365.449-.561.196-.224.224-.561 0-.785zM275.029 186.626c-1.543-2.189-4.377-2.946-6.902-3.199a15.6 15.6 0 0 0-4.433.197c-1.431.252-2.833.701-4.264.869-.758.084-1.571.141-2.301-.056-.589-.168-1.15-.645-1.122-1.29 0-.197-.084-.365-.224-.449.084-.056.196-.084.28-.112.786-.365 1.543-.73 2.301-1.123a.54.54 0 0 0 .28-.477c.084 0 .169 0 .253-.028a48 48 0 0 1 4.489-.196c1.262 0 2.749.028 3.759.898.533.477 1.347-.309.786-.786-1.038-.898-2.385-1.178-3.732-1.234-1.543-.056-3.114.028-4.629.14-1.627.112-3.114.449-4.601 1.122a24 24 0 0 0-3.76 2.217c-1.262.925-2.412 2.02-3.226 3.394-.365.618.617 1.179.982.561.589-1.01 1.403-1.879 2.329-2.637 0 .309.252.617.561.645 1.29.085 2.497.674 3.787.898 1.291.225 2.637.253 3.928.141 2.749-.253 5.415-1.039 8.164-1.403.14 0 .281-.084.365-.169q1.305.127 2.525.505c1.29.393 2.609 1.01 3.423 2.133.421.589 1.374 0 .982-.561M264.62 196.726a12.95 12.95 0 0 1-.225-5.584c.057-.392-.252-.841-.701-.701-1.262.449-2.525 1.01-3.787 1.515-.141-.084-.281-.14-.449-.084-1.179.365-2.329.701-3.507 1.066-.141.056-.281.14-.337.281h-.028a.55.55 0 0 0-.281.084h-1.486a.546.546 0 0 0-.562.561c0 .337.197.477.421.561a.57.57 0 0 0 .309.084c.505 0 .982-.028 1.459-.112h.308c.309 0 .618.084.898.14.14.028.309.056.449.112.028 0 .112 0 .112.028v.057c.112.392-.196.953-.393 1.262a3.9 3.9 0 0 1-1.01 1.038c-.953.673-2.076.954-3.17 1.319-1.066.364-2.104.813-3.03 1.431a11.2 11.2 0 0 0-2.749 2.637c-.197.252-.028.617.196.757a.54.54 0 0 0 .281.084.77.77 0 0 0 .505 0c1.038-.448 2.048-.981 3.114-1.43 1.01-.449 2.02-.842 3.058-1.235 2.104-.785 4.208-1.459 6.369-2.104l3.703-1.094c.308 0 .645-.281.533-.702z"/><path fill="#DBDFFA" d="M263.47 199.251c.084-.337-.225-.814-.702-.73-4.433.814-8.473 2.918-12.709 4.405a32 32 0 0 1-3.675 1.066c-.365.084-.477.421-.365.701-.309.113-.617.197-.926.309a.76.76 0 0 0-.28-.224c-4.265-1.487-8.164-3.872-12.373-5.499a34 34 0 0 0-3.647-1.151h-.337l-.589-.336c-.617-.365-1.206.617-.561.982a102 102 0 0 0 12.99 6.256c1.262.505 2.525.982 3.815 1.431.337.112.561-.084.646-.337.112.056.224.056.364 0 4.012-1.346 8.052-2.693 12.064-4.04-1.403 1.852-2.777 3.704-4.04 5.611-1.262 1.88-2.497 3.872-2.946 6.117-.084.476.393.897.814.645a920 920 0 0 0 6.902-4.068c-1.095 1.318-2.133 2.721-3.199 4.068a1355 1355 0 0 0-5.947 7.575c-1.123 1.431-2.245 2.861-3.367 4.264-.197.225-.225.561 0 .786.224.224.617.224.785 0 .141-.169.281-.337.421-.533a.6.6 0 0 0 .309 0 50.4 50.4 0 0 0 12.232-4.461 66 66 0 0 0 1.936-1.066c.14.14.365.196.533.14.309-.084.449-.393.393-.701.112-.084.252-.141.364-.225.59-.364.085-1.29-.505-1.01-.112-1.431 0-2.861.169-4.292 0 1.122-.028 2.244-.14 3.338-.029.309.28.561.561.561.28 0 .533-.252.561-.561.252-2.272.14-4.545.112-6.817l-.084-7.07c0-1.319-.028-2.665-.056-3.984 0-.084 0-.168-.056-.253.084-.028.196-.056.28-.084.421-.14.477-.617.281-.897z"/><path fill="#DBDFFA" d="M243.382 196.473c-2.245-.561-4.209-1.851-6.116-3.114-.141-.084-.281-.112-.421-.056-.281-.14-.702-.056-.814.337-.336.925.702 1.767 1.235 2.412a67 67 0 0 1 1.851 2.301 66 66 0 0 1 3.479 4.882c.141.224.365.28.589.252 0 .758 1.123.758 1.123.028v-6.593c0-.533-.59-.673-.926-.421zm-1.852 1.992c.084.056.168.14.281.196l.028.029c.028.14.056.252.084.392-.14-.196-.253-.42-.393-.617"/><path fill="#000" d="M161.376 55.185s7.266-2.805 11.587 1.487c4.292 4.293 5.639 12.485.925 26.877l-.673 1.908s-4.236-.87-5.835.814-1.347 4.713-5.191 4.629l-.168-6.621s-4.236-2.16-5.443-9.988.73-9.651.73-9.651-3.592-.645-6.313-.084-2.553-.253-12.232 3.507-19.892.477-21.883-1.684c-1.992-2.16-6.06-9.033 4.152-17.254 10.212-8.22 34.087-7.266 40.344 6.06"/><path fill="#000" d="M161.712 53.923s3.283-1.908 2.329-6.621-6.874-6.397-6.313-5.022 5.191 3.76 3.984 11.67zM165.696 52.464s-1.599.814.084-1.038 7.351-.87 9.175 2.469c0 0 1.346 1.206-1.347 0-2.722-1.207-5.022-3.199-7.912-1.431M165.5 97.718c1.122.224 2.216.364 3.254.252s1.01-.168 1.459-.365c.225-.084.449-.224.645-.336a1.2 1.2 0 0 0 .309-.225c.084-.084.225-.14.309-.252a9.2 9.2 0 0 0 2.076-2.441 7.9 7.9 0 0 0 1.066-3.002c.14-1.066 0-2.104-.393-3.086-.365-.954-1.066-1.684-1.992-2.02s-2.02-.309-3.086-.112q-.8.168-1.599.42c-.505.169-1.066.393-1.515.618a.696.696 0 0 1-.926-.309c-.168-.337 0-.757.337-.926.589-.28 1.122-.477 1.711-.673a14 14 0 0 1 1.768-.449c1.206-.196 2.497-.252 3.787.196a4.5 4.5 0 0 1 1.683 1.095c.477.477.814 1.066 1.067 1.683.477 1.178.617 2.497.476 3.731-.14 1.263-.589 2.441-1.178 3.535s-1.403 2.048-2.357 2.862c-.112.112-.252.196-.364.28s-.253.197-.393.281l-.449.253c-.14.084-.309.14-.449.196-.617.224-1.262.365-1.908.365a5.98 5.98 0 0 1-3.478-1.15c-.085-.057-.113-.197-.029-.281a.3.3 0 0 1 .197-.084z"/><path fill="#000" d="M166.762 94.8c-.14-1.74.365-3.563 1.599-4.826 1.347-1.487 3.423-1.543 4.545.197.085.112-.056.252-.168.196h-.056c-1.375-.842-2.441-.701-3.535.393-1.15 1.094-1.683 2.469-2.104 4.012v.056c-.056.14-.281.112-.281 0zM167.295 98.644c.169 4.769.477 9.538 1.656 14.168.673 2.553 1.627 4.993 2.973 7.238 1.039 1.795 2.273 3.423 3.507 5.134.085.112-.028.281-.168.225-.561-.253-1.15-.534-1.655-.898-5.359-3.732-7.267-11.419-7.715-17.591-.197-2.778-.113-5.555.168-8.305.084-.785 1.234-.729 1.262.057zM152.286 131.244c4.208 6.537 11.923 6.817 17.506 1.767 1.712-1.486 3.086-3.338 4.237-5.274.028-.056.112-.084.196-.056.056.028.084.112.056.196a13.8 13.8 0 0 1-3.282 6.509c-3.395 3.984-9.736 5.948-14.505 3.086-2.357-1.374-3.984-3.647-4.433-6.116 0-.14.169-.224.253-.112zM130.122 77.798c.926-.645 1.627-.196 2.413.393 1.206.954 2.104 2.272 2.693 3.675.729 1.796 1.234 3.535 1.262 5.443.141 4.32-.813 8.557-.673 12.821.028 2.357.758 4.489 3.03 5.499.477.253 1.066.505 1.543.786.112.056.056.224-.056.224-.533.028-1.094.028-1.627-.056-3.114-.421-3.732-3.844-3.76-6.453-.028-3.226.449-6.396.618-9.595.112-2.104.196-4.292-.505-6.284-.758-2.637-2.582-4.994-5.05-6.229-.057-.028-.085-.14 0-.168l.14-.084zM142.971 112.671c3.704-.28 5.724-3.9 6.677-7.126.057-.168.281-.112.281.084.253 3.676-2.806 8.389-6.902 7.323-.168 0-.224-.253-.028-.281zM151.276 80.576s-1.347-2.778-4.012-3.984c-2.666-1.207-4.237-.197-4.209.589 0 .701.702 1.627 3.423 1.767 0 0 .982.225 1.908.814.982.645 1.936 1.74 1.936 1.74s.421.42.869.028c.309-.281.057-.954.057-.954z"/><path fill="#000" d="M124.37 83.802s.674-2.44 1.656-3.843 2.721-3.17 4.04-3.002.982 1.487-.814 2.721-4.882 4.489-4.882 4.489zM146.488 92.575c.611-.109.925-1.211.702-2.462-.223-1.25-.898-2.177-1.508-2.068-.611.109-.925 1.21-.702 2.462.223 1.25.898 2.176 1.508 2.068M131.675 93.508c.61-.109.924-1.21.701-2.462-.223-1.25-.898-2.177-1.508-2.068s-.924 1.211-.702 2.462c.223 1.25.898 2.177 1.509 2.068"/><path fill="#000" d="M124.511 70.28c-.393 9.51.056 19.19 2.384 28.476 1.487 6.2 4.629 11.923 8.81 16.721 3.17 3.619 7.575 6.481 12.428 4.348 4.321-1.964 8.08-5.358 9.736-9.875.028-.112.196-.112.224 0 .393.898.14 1.851-.252 2.665-.646 1.599-1.628 3.03-2.778 4.293-1.15 1.262-2.497 2.356-3.9 3.31-1.543 1.038-3.114 1.964-4.965 2.385-4.798 1.038-9.427-2.076-12.261-5.583-2.16-2.581-3.647-5.583-5.162-8.557-3.535-7.519-4.629-15.655-5.302-23.791-.253-4.826-.449-9.736.813-14.449 0-.084.084-.14.168-.112.057 0 .113.084.113.14z"/><path fill="#000" d="M155.035 132.563c-.196-2.161-.954-4.237-1.824-6.173-.869-1.935-2.048-3.871-3.254-5.611-.084-.14.112-.308.224-.168 1.824 1.739 3.395 3.787 4.545 6.032.646 1.29 1.319 2.609 1.319 4.068 0 .309 0 .589-.056.898 0 .308-.112.617-.701.954l-.141.084c-.056.028-.14 0-.14-.084z"/><path fill="#000" d="M156.718 113.288s3.704 4.069 2.105 8.109-5.387 4.096-5.387 4.096l-3.395-5.219.505-.869zM135.424 152.426c6.565 23.567 9.258 48.143 8.585 72.608 0 .084-.056.14-.14.14s-.14-.056-.14-.14c-.057-.758-.113-1.543-.169-2.301-.112-2.244-.308-4.629-.421-6.873-.617-9.118-1.402-18.18-2.497-27.242-.673-5.948-1.374-12.176-2.328-18.068-.617-4.012-1.627-9.511-2.357-13.523-.224-1.262-.617-3.254-.813-4.517 0-.084.028-.168.112-.168.056 0 .14.028.168.112z"/><path fill="#000" d="M133.657 154.362c-.365 3.703.449 7.659 2.749 10.605.73.954 1.599 1.739 2.553 2.412.337.225.421.702.169 1.01a.753.753 0 0 1-1.123.113c-3.086-2.497-4.741-6.397-4.909-10.297-.056-1.318 0-2.609.252-3.899.028-.169.309-.141.281.056z"/><path fill="#000" d="M150.967 124.707c-4.405 2.385-8.753 4.461-12.681 7.491-2.722 2.02-5.162 4.461-6.958 7.322-1.459 2.273-2.469 4.854-3.086 7.491-.253 2.048-.673 5.555-.842 8.108-.505 6.201-.533 12.485-.729 18.713-.056 2.02-.168 4.265-.309 6.285l-.645-.842c5.078 0 10.016 1.824 14.308 4.405.814.701.954 1.683.898 2.946 0 .056-.056.112-.112.056-2.469-1.319-4.938-2.609-7.491-3.704-2.553-1.094-5.19-1.992-7.884-2.749h-.112v-.14c.14-11.138-.14-22.333 1.375-33.414.645-2.806 1.711-5.527 3.226-7.996 4.545-7.491 12.738-11.812 20.902-14.281.084 0 .14 0 .168.085 0 .084 0 .14-.084.168zM141.4 191.844c-.252 6.453-1.29 12.99-3.591 19.05-2.834 3.451-6.537 6.088-10.521 8.052-4.012 1.795-8.248 3.086-12.457 4.292-1.374.365-2.861.73-4.264 1.01-1.431.253-2.806.758-4.405.365h-.056c-.14-.056-.14-.253 0-.281 11.082-2.974 22.192-6.873 31.535-13.691 2.02-5.667 3.31-12.513 3.479-18.825 0-.084.056-.14.14-.14s.14.056.14.14z"/><path fill="#000" d="M136.266 199.363c-2.301-2.217-5.219-3.451-8.389-3.283a12 12 0 0 0-3.956.842 13.6 13.6 0 0 0-2.637 1.291c-1.234.869-2.16 1.907-3.254 2.973-4.91 4.994-10.858 8.754-16.974 11.98-5.218 3.086-10.52 2.75-15.655-.336l.14.084c-1.01-.449-2.02-.926-3.058-1.375-1.823-.729-3.731-1.908-5.667-1.599-.954.14-1.823.701-2.665 1.178-1.038.589-2.076 1.038-2.974 1.543-2.665 1.375-3.114 3.451-3.591 6.229-.253 1.122-.814 2.244-1.235 3.282-.308.701-.364 1.263-.196 2.048.056.309.084.561.196.73.28.196.73.336 1.01.084.084-.056.169-.197.253-.309.252-.505.449-1.066.645-1.655.365-1.15.73-2.357.926-3.535.112-1.038.477-2.02.842-2.974.533-1.319 1.29-2.609 2.356-3.619l.59-.617c1.15-1.207 2.384-2.61 4.096-3.002.168-.057.252.224.056.28-1.066.281-1.936.982-2.722 1.768a93 93 0 0 0-2.272 2.469c-1.375 1.711-2.132 3.927-2.385 6.116a31 31 0 0 1-.785 3.282c-.421 1.375-.898 3.311-2.778 2.553-.617-.196-.842-.87-.898-1.459-.449-1.487.28-2.777.786-4.124.701-1.543.56-3.31 1.206-4.882.926-3.058 3.732-3.983 6.228-5.386 2.077-1.403 4.04-1.964 6.453-1.066 2.133.757 4.18 1.683 6.229 2.581 3.956 2.385 8.64 3.03 12.821.813 5.555-3.002 11.054-6.284 15.711-10.577 1.347-1.234 2.581-2.553 3.872-3.815.982-.954 2.132-1.768 3.395-2.301 4.068-1.627 8.304-2.076 12.007.814.982.786 1.852 1.711 2.525 2.777.028.057 0 .141-.056.197-.084.056-.14 0-.196-.056z"/><path fill="#000" d="M67.25 226.549c.224.505.616 1.122 1.206 1.01.476-.141.87-.477 1.15-.87.701-.982.813-2.301 1.15-3.451.42-1.487.954-2.974 1.655-4.377.533-1.01 1.29-1.879 2.048-2.721a24 24 0 0 1 1.936-1.796c.702-.589 1.487-1.122 2.441-1.206h.056c.14 0 .197.168.084.253-1.403.897-2.553 2.244-3.675 3.506a36 36 0 0 0-1.6 1.992c-.925 1.431-1.514 3.058-2.075 4.658-.421 1.206-.645 2.553-1.515 3.591-.561.645-1.656 1.318-2.441.673-.365-.308-.561-.729-.673-1.178 0-.084 0-.14.084-.169.084 0 .168.028.168.113zM69.466 228.344c.477.505.785 1.038 1.346 1.095.112 0 .112-.057.253-.057.617-.084 1.15-.392 1.683-.813 1.235-1.15 1.571-2.974 2.104-4.545.309-.982.533-2.273 1.179-3.086 1.206-1.74 2.609-3.142 4.376-4.237.87-.533 1.796-1.066 2.834-1.262.14 0 .252.196.084.252-.87.421-1.627 1.038-2.385 1.656a24 24 0 0 0-2.132 1.992c-.954 1.066-2.16 2.076-2.469 3.506-.617 2.329-.757 5.079-2.609 6.818-.898.814-2.385 1.403-3.535.757-.673-.448-.898-1.262-.982-2.02 0-.112.14-.196.225-.084l.056.084z"/><path fill="#000" d="M95.838 224.136c-1.122 1.599-2.834 2.834-4.798 3.03-1.964.14-3.815-.617-5.61-1.319-.786-.252-1.796-.925-2.61-.617-1.627 1.01-3.367 1.908-5.274 2.245a2.6 2.6 0 0 1-1.46-.197c-.476-.168-.925-.336-1.318-.673v-.028l.197-.169c.589-.476.981-.841 1.57-.392.14.084.365.224.506.224 1.402 0 2.805-.645 4.04-1.29.448-.225.841-.505 1.262-.758.617-.309 1.178-.224 1.74-.112 1.935.617 3.675 1.487 5.667 1.908 2.188.533 4.32-.421 5.863-2.048.085-.141.337 0 .225.14zM90.199 219.731c-1.235-1.122-1.908-1.122-3.395-.505-1.178.505-2.525.87-3.76 1.207-1.206.336-2.412.673-3.59 1.094-.954.336-1.824.673-2.581 1.29 0 0-.029.056-.085.028-.112-.028-.336-.252-1.01-.785l-.196-.168v-.029c2.3-2.076 6.284-2.216 9.202-2.721 1.29-.14 2.525-.814 3.844-.645.673.196 1.178.645 1.627 1.122.028.056 0 .112-.084.056zM123.95 195.295c.056-.056 1.823-15.515 1.991-15.487l.197.084c.589.225.757.421.842.589.028.141 0 .337 0 .477-.197 2.161-.421 4.63-.73 6.762-.337 2.497-.757 5.218-1.347 7.659-.112.617-1.01.505-.953-.112zM159.608 157.616l.561 31.956c0 .084-.056.14-.14.14s-.14-.056-.14-.14c-.056-.505-.141-1.487-.197-1.992a146 146 0 0 1-.392-5.976c-.337-7.603-.421-15.375-.029-22.978l.057-1.01c0-.084.056-.14.14-.14s.14.056.14.14M162.077 158.682l.561 31.956c0 .084-.056.14-.14.14s-.14-.056-.14-.14c-.057-.505-.141-1.487-.197-1.992a148 148 0 0 1-.393-5.976c-.336-7.603-.42-15.375-.028-22.978l.056-1.01c0-.084.057-.14.141-.14s.14.056.14.14M191.76 174.001c0 7.519-.253 15.037-.982 22.528-.365 3.732-.842 7.491-1.768 11.138a31 31 0 0 1-.982 3.143c-.056.14-.112.308-.196.448 0 0-.028.029-.056 0-.224-.168-.505-.336-.701-.505 0 0-.057-.056-.085-.056l-.112-.112c-.112-.14-.14-.224-.084-.28l.14-.421c2.581-9.231 3.058-18.854 3.255-28.421.056-3.731.084-7.434-.056-11.194v-.477a102 102 0 0 1-.113-2.974c-.14-5.106 0-10.24.505-15.346 0-.084.057-.168.169-.14.056 0 .112.056.112.14.281 5.667.617 11.335.814 17.002 0 .785.056 1.543.056 2.328 0 1.066.056 2.133.056 3.199z"/><path fill="#000" d="M191.704 170.83c-.169 0-.365-.028-.589-.14a7.4 7.4 0 0 1-.982-.87c-2.75-2.749-3.507-7.07-3.816-10.801-.084-1.403-.112-2.806-.028-4.208 0-.169.281-.169.281 0 .224 3.563 1.066 8.809 3.45 12.036.477.645 1.01 1.206 1.628 1.655 0 .785.056 1.543.056 2.328"/><path fill="#000" d="M191.984 186.429c6.509-1.683 16.834-4.264 22.332.758l-.224.112c-1.066-11.334-2.048-22.697-4.208-33.891-.758-3.675-1.599-7.463-3.339-10.83-2.076-4.601-5.022-7.967-9.623-10.212-1.15-.589-2.525-1.066-3.703-1.571l-16.974-7.266c-.056-.028-.112-.112-.084-.169.028-.056.112-.112.196-.084 3.086.617 6.06 1.487 8.978 2.441 2.862.926 5.892 2.02 8.669 3.142.533.225 1.627.646 2.189.87 5.863 2.329 9.791 6.172 12.316 11.952 1.291 2.412 2.441 6.705 3.058 9.931 1.515 8.024 2.188 16.132 2.974 24.212.28 3.311.617 8.108 1.038 11.363.14 1.262-1.347 1.964-2.273 1.094-1.01-.224-1.683-.645-2.496-1.066-.141-.056-.674-.309-.842-.365-2.076-.785-4.208-1.038-6.537-1.066-3.76-.112-7.631.449-11.363.954-.084 0-.168-.028-.168-.112 0-.056.028-.141.112-.141zM84.391 243.971c1.122-.617 1.459-1.908 1.964-3.002 1.038-2.356 2.245-4.685 3.731-6.789 3.03-4.349 7.183-8.333 12.597-9.483a10.7 10.7 0 0 1 4.125-.056c.364.084.897.224 1.234.309 2.16.589 4.321 1.234 6.425 1.907 2.693.87 5.302 1.852 8.024 2.385 2.104.393 4.152.224 6.284-.056 4.966-.617 9.876-1.88 14.701-3.17 9.707-2.581 19.134-6.285 28.224-10.605 4.18-1.88 8.361-4.293 13.046-4.601 3.367-.281 6.817.168 9.847 1.683.056.028.085.112.056.196 0 .056-.084.084-.14.084-11.98-1.627-18.629 3.03-28.953 7.575a134 134 0 0 1-29.094 9.231c-3.759.729-7.547 1.402-11.362 1.431-1.291 0-2.553-.169-3.816-.421-5.022-.982-9.763-2.89-14.645-4.293-2.469-.617-5.05 0-7.294 1.094-4.601 2.217-8.024 6.257-10.69 10.493-.673 1.066-1.262 2.188-1.851 3.339-.561 1.122-1.122 2.497-2.357 3.03-.084 0-.14 0-.168-.084-.028-.085 0-.169.112-.197"/><path fill="#000" d="M84.756 244.588c.926.87 1.824.954 2.469-.196 3.226-5.779 5.807-9.707 11.643-13.242 2.02-1.235 4.18-2.301 6.425-3.086.084-.028.168 0 .196.084 0 .056 0 .14-.056.168-4.152 2.104-8.22 4.601-11.53 7.912-2.554 2.553-4.321 5.723-6.341 8.669-.59.758-1.46 1.038-2.301.477a3.6 3.6 0 0 1-.701-.617c-.056-.056-.028-.14 0-.197.056-.056.14-.028.196 0zM87 245.963c.393.449 1.123 1.403 1.572 1.207.196-.141.448-.253.673-.393 1.15-.758 2.946-2.946 3.928-3.984 4.32-4.685 8.136-8.108 14.617-9.314.084 0 .168 0 .168.112 0 .084-.028.14-.112.168-2.217.617-4.349 1.487-6.285 2.75-3.9 2.497-6.649 6.312-9.679 9.763-1.823 1.992-4.404 3.535-5.162-.253 0-.14.14-.196.224-.112zM91.49 247.562c1.486.926 3.366-.589 4.516-1.487.786-.645 1.6-1.43 2.385-2.104 1.066-.926 2.244-1.683 3.423-2.469 1.908-1.262 3.956-2.497 6.116-3.282 2.188-.786 4.433-1.207 6.649-1.487.084 0 .14.056.14.112 0 .084-.028.14-.112.14-2.188.449-4.349 1.038-6.369 1.936-4.124 1.796-7.238 5.191-10.8 7.828-1.628 1.15-4.602 2.861-6.23.898-.083-.113.057-.281.17-.197l.055.056z"/><path fill="#000" d="M98.531 246.384c2.076 1.122 8.978-3.619 11.447-4.377 3.507-1.346 6.817-.505 10.044 1.123 2.525 1.374 5.022 1.711 7.883.953 1.6-.364 3.227-1.01 4.938-1.543 1.515-.505 4.04-1.094 5.359-1.066 2.777-.336 5.499-.645 8.248-.954 8.192-.897 16.385-1.964 24.521-3.394.645-.113 2.384-.449 3.03-.561.701-.141 2.272-.534 3.002-.674 2.188-.617 4.488-1.318 6.621-2.076a123 123 0 0 0 2.861-1.178c2.918-1.179 6.678-2.75 9.623-3.788 1.067-.364 2.834-.954 3.928-1.29l.982-.309c.533-.112.954.253 1.431.786l-.028.252c-.337-.449-.309-.926-.253-1.431.197-1.346 1.067-2.469 1.459-3.759 1.628-5.106 2.834-10.353 4.096-15.571 1.431-6.116 2.834-12.204 4.04-18.376.141-.842.337-1.684.393-2.553 0 0 .056.028.084 0-.084 0-.14-.057-.14-.141 0-.112.14-.196.225-.112.028 0 0 0 .028.056.084.225 0 .505 0 .73-1.179 6.845-2.806 13.607-4.377 20.368-1.263 5.218-2.469 10.465-4.096 15.599-.365 1.262-1.235 2.413-1.459 3.731-.028.365-.084.842.14 1.151v.224c-.028 0-15.374 6.228-15.374 6.228-1.122.449-2.75 1.151-3.872 1.515-1.88.674-4.068 1.151-6.004 1.571-7.435 1.515-14.981 2.469-22.5 3.395-5.471.673-10.97 1.207-16.469 1.852-1.739.056-3.423.505-5.078 1.038-3.283 1.066-6.705 2.609-10.24 1.992-1.768-.225-3.339-1.122-4.938-1.824l-.617-.252-.309-.113-.309-.084-.617-.196c-.196-.056-.421-.084-.617-.14-5.443-1.431-9.623 3.787-14.869 4.124-.898.028-1.936-.112-2.497-.898-.028-.056 0-.14.028-.168.084-.056.14 0 .224.028zM153.492 242.063c5.022 2.217 9.791 4.966 14.505 7.772 4.629 2.833 9.258 5.807 13.719 8.949 2.974 2.105 5.92 4.265 8.781 6.565.056.057.084.141.028.225-.056.056-.112.056-.168.028-3.17-1.796-6.284-3.675-9.399-5.611a839 839 0 0 1-9.258-5.808 2033 2033 0 0 1-18.348-11.867c-.056-.056-.084-.14-.028-.197s.14-.084.196-.056zM227.222 197.231c.533.925.393 1.907.477 2.889l.112 2.89c.253 5.583.449 11.84.505 17.423l-.364-.59c.364-.28.561-.28.757-.168l.561.224 1.094.449c4.966 2.077 10.381 4.377 15.235 6.706h-1.375c0-.028 18.46-7.239 18.46-7.239l-.729 1.066c-.056-1.907-.028-3.787 0-5.695.056-3.619.252-7.743.477-11.362.056-.898.252-3.367.28-4.265l.056-.701c0-.225.113-.477.954-.673l.197-.057c.028 0 .084 0 .084.057l-.701 22.753a.16.16 0 0 1-.085.14l-18.264 7.659c-.112.112-17.198-8.164-17.31-8.136-.253-.028-.589-23.258-.673-23.37 0-.085.056-.141.14-.141s.112.056.14.141z"/><path fill="#000" d="M264.676 190.217c0-.084-.112-.112-.168-.084-.14.028-.253.056-.393.112-.421.112-.842.224-1.234.337-6.229 1.711-12.401 3.422-18.517 5.106-5.808-2.245-11.643-4.461-17.535-6.706-.168-.056-.336-.14-.505-.196-.056 0-.112-.056-.168-.056-.084-.028-.197 0-.197.112l-.476 8.08c0 .056.028.112.084.14 0 0 .561.225 1.431.59.168.056.336.14.505.224 4.292 1.824 14.448 6.172 16.693 7.042.28.112.448.168.448.168l.337-.112 17.787-6.172 1.235-.421.982-.337c.056 0 .084-.084.084-.14 0 0-.337-7.631-.365-7.659zm-.701 4.825v.954c0 .253 0 .505-.028.73l.533-.197-.842 1.263c.225-.365.281-.702.309-1.066l-19.05 6.705-.224.084c.084.056.168.084.252.112.056.028.14.056.196.085h-.196l-.757-.029.476-.168c-.14-.056-.308-.14-.505-.224-.505-.225-1.066-.477-1.43-.646-3.844-1.711-8.024-3.366-11.924-4.825-.786-.281-2.89-1.066-3.647-1.319l-.617-.224a.7.7 0 0 0-.421.056c-.056.196-.169.393-.421.589l-.084-.14c.196-.197.336-.365.505-.449.056-.14.056-.281.056-.393a51 51 0 0 0 0-5.078v-1.824c-.084-.028-.14-.056-.225-.084l.141-.084h.056v.168c5.92 2.61 11.923 5.247 17.955 7.856.028 0 .085.028.113.056.056 0 .14-.056.224-.056 6.397-2.048 12.737-4.124 19.022-6.172.14-.056.28-.084.421-.14.056 0 .084-.029.14-.057.056-.084.168-.196.336-.308l.169.14c-.169.056-.337.112-.533.168-.169.225-.084.449-.112.674-.057 1.262 0 2.553.028 3.815z"/><path fill="#000" d="M245.121 227.615c-.757-7.772-.813-15.655-.953-23.455v-7.827c0-.084.056-.14.14-.14s.14.056.14.14c.477 6.453.73 13.074.954 19.555.112 3.927.168 7.827 0 11.727 0 .084-.056.14-.14.14-.056 0-.141-.056-.141-.14M245.121 187.299c.028-3.844.393-7.799 1.964-11.334 2.133-3.816 4.742-7.351 7.631-10.605 1.375-1.543 2.946-2.862 4.321-4.377 2.441-2.581 4.489-5.583 5.723-8.922.365-.954.618-1.964 1.094-2.889.141-.197.253-.449.562-.421.757.168.561 3.366.589 4.04.168 2.609.252 5.386.224 8.052-.084 2.665-.056 5.47-1.066 7.967-.477 1.263-.898 2.525-1.543 3.732-1.319 2.385-3.451 4.208-5.751 5.583-1.123.701-2.413 1.347-3.535 1.908-2.638 1.683-5.106 3.731-7.07 6.2-.618.842-1.207 1.711-1.628 2.665 0 .449-.224 1.571-.701 2.104-.505.674-1.431.618-2.188.449a3.85 3.85 0 0 1-1.964-1.122c-.505-.561-.87-1.234-1.122-1.936-.113-.365-.365-1.206-.533-1.543-1.347-3.058-4.097-4.545-7.323-4.741-4.854-.561-7.884-3.788-9.707-8.136-.281-.59-.561-1.459-.786-2.076l-.308-1.067c-.085-.308-.253-.757-.309-1.066-.084-.477-.365-2.104.561-1.683.73.477 1.122 1.291 1.683 1.88 2.666 3.002 7.07.954 10.381 2.441 1.375.589 2.441 1.683 3.479 2.749 3.03 3.311 4.489 7.743 4.854 12.12 0 .084-.057.14-.141.14-.056 0-.14-.028-.14-.084-.112-.365-.224-.729-.309-1.094-.673-2.385-1.459-4.826-2.637-7.014-.87-1.711-1.88-3.423-3.282-4.769-.618-.59-1.319-1.151-2.105-1.459-3.647-1.403-7.687 1.038-10.857-2.385-.645-.701-.982-1.291-1.319-1.796.113 0 .225 0 .309-.056.084-.028.14-.112.168-.168v-.028c-.14.309-.084.757 0 1.094 0 .112.113.365.141.505 1.318 4.349 3.955 8.922 8.557 10.24 1.374.421 2.861.421 4.264.786 2.862.729 5.19 3.03 6.088 5.807.365 1.207.309 2.862 1.683 3.423.561.197 1.179.112 1.768.14.14 0 .252-.028.365-.14.196-.168.336-.393.477-.645.168-.309.364-.701.476-1.066 1.179-4.237 4.882-7.772 8.445-10.128 3.844-1.964 8.052-4.096 9.735-8.277.365-.869.758-1.823 1.095-2.749.28-.87.42-1.824.505-2.75.392-3.927.308-7.967.084-11.923 0-1.122.028-2.469-.169-3.367.197.281.646.337.926.14 0 0-.028.057-.056.085-.393.645-.757 1.992-1.038 2.721-.196.505-.365.982-.589 1.459-1.263 2.89-3.142 5.527-5.274 7.855-1.375 1.515-2.89 2.862-4.209 4.433-2.581 3.058-4.741 6.453-6.93 9.82-1.991 3.394-2.525 7.434-3.282 11.306 0 .084-.084.168-.168.14-.056 0-.113-.056-.113-.14z"/><path fill="#000" d="M228.737 174.59c1.908.617 3.815 1.375 5.667 2.132 1.347.673 2.441 1.712 3.423 2.806.701.982 1.234 1.964 1.767 3.03.674 1.374 1.291 2.833 1.572 4.376 0 .085-.029.141-.113.169-.084 0-.14-.028-.168-.113-.365-1.458-1.01-2.861-1.739-4.208-.562-.954-1.151-1.992-1.824-2.833a16 16 0 0 0-3.255-2.582 97 97 0 0 1-5.386-2.749c-.028 0 0-.084 0-.056zM248.516 187.243c1.796-3.227 5.471-4.714 8.781-5.808 2.525-.841 5.303-1.515 7.912-.701.87.252 1.684.617 2.497 1.01.056 0 .056.084.056.14s-.084.056-.14.056c-.842-.28-1.683-.589-2.525-.729-2.581-.561-5.05.168-7.519 1.038-2.441.841-4.854 1.795-6.93 3.366-.673.505-1.318 1.095-1.823 1.796-.028.084-.141.112-.225.056-.056-.028-.056-.112-.056-.168z"/><path fill="#000" d="M258.111 176.694c2.694-.421 5.471-.729 8.136-.168 1.6.393 3.058 1.318 4.265 2.441 1.599 1.543 2.609 3.535 3.535 5.47.477.982 1.01 1.908 1.543 2.862.252.505.589.954.673 1.543a.584.584 0 0 1-.393.617c-.42.113-.729-.28-.982-.505-2.525-2.889-4.432-4.152-8.388-3.366-3.198.505-6.341 1.767-9.623 1.683-2.189-.252-4.377-.786-6.229-1.964-.028 0-.028-.056 0-.084.73-.533 1.151-.898 1.684-.561 1.459.617 3.058 1.01 4.629 1.206 3.086.141 6.256-.898 9.371-1.262 1.122-.112 2.272-.253 3.506-.028 2.385.364 4.153 2.132 5.668 3.815.084.084.168.169.252.225.056.056.14.084.084.056-.028 0-.224 0-.28.028-.056 0-.084.084-.112.168v.084-.056c-.646-1.346-1.543-2.581-2.245-3.956l-.393-.729c-.813-1.543-1.795-3.17-3.086-4.321-.785-.729-1.767-1.262-2.777-1.739-.758-.337-1.515-.421-2.357-.505-.982-.084-2.02-.056-3.086 0-.814 0-1.599.309-2.385 0a2.04 2.04 0 0 1-.898-.673l-.112-.113c-.056-.056 0-.14.056-.168zM250.115 178.013c1.375-2.581 3.984-4.096 6.341-5.611 2.273-1.628 4.068-3.928 5.274-6.453 0-.056.085-.056.113-.056.056 0 .056.056.056.112-1.066 3.479-3.619 6.425-6.846 8.136-1.739 1.122-3.479 2.301-4.797 3.928 0 .028-.084.056-.112.028 0 0-.029-.056 0-.084zM236.48 174.562c-3.619-2.385-5.162-6.173-5.274-10.409-.168-3.339.14-6.705.785-9.988.281-1.206.674-3.226.954-4.404.084-.393.421-.814.898-.59.225.113.281.337.337.505.168.674.224 1.319.393 1.964.785 3.199 2.272 6.341 4.685 8.585 5.078 4.629 6.537 11.84 6.481 18.461 0 .898.028 2.637 0 3.507v.561c0-.056 0 .168-.253 0-.084-.14.14-.309.225-.14-.253-.141-.253.056-.225 0 0-.169-.028-.309-.056-.449-.309-2.132-.477-4.293-.617-6.453-.505-5.078-1.936-10.296-5.555-14.028l-.673-.673c-2.077-1.964-3.479-4.489-4.321-7.182-.196-.674-.393-1.347-.505-2.02-.084-.646-.084-1.347-.253-1.964 0-.056-.028-.084-.028-.084s0 .056.085.084c.112.056.224 0 .28-.056-.28 1.15-.701 3.282-.982 4.517-.589 3.226-.842 6.509-.673 9.791.14 2.581.561 5.05 2.132 7.154.701 1.038 1.515 2.02 2.385 3.058v.056c.14.113 0 .281-.14.197z"/><path fill="#000" d="M243.887 187.664c-.056-3.704-.252-7.491-1.262-11.082-.365-1.179-1.039-2.245-1.628-3.311-2.216-3.731-5.022-7.182-6.789-11.166-.084-.224-.281-.673-.337-.898-.084-.308-.196-.617-.224-.926 0-.056.084-.084.112 0 .309 1.179 1.01 2.273 1.655 3.311a34 34 0 0 0 2.104 3.086c.646.842 1.656 2.132 2.245 3.002 1.403 2.104 2.609 4.349 3.31 6.789.618 2.441.786 4.966.87 7.463.028 1.235.056 2.497 0 3.732 0 .056-.084.056-.084 0zM240.156 162.105c.112-4.91 2.328-9.679 3.31-14.449.112-.589.225-1.206.225-1.795v-1.852c-.028-2.02-.113-4.04.056-6.06.168-.617-.113-1.374.392-1.851.169-.141.477-.113.59.084.364.561.336 1.234.477 1.851.953 3.255 1.767 6.565 2.973 9.708 1.712 3.871 4.012 7.799 5.275 11.867.645 2.413.757 4.938.589 7.407-.056.617-.982.617-1.038-.028-.056-1.936-.196-3.9-.477-5.808-.252-1.599-.673-3.17-1.178-4.713-1.038-2.918-2.666-5.555-4.012-8.361-1.263-3.03-2.189-6.172-3.142-9.314-.197-.589-.253-1.291-.393-1.824v-.056s-.028 0-.028-.028l.056.056c.28.337.954.365 1.178-.084-.056.253-.028.982-.14 1.347-.225 2.497-.337 5.134-.449 7.659-.365 3.17-1.796 6.032-2.497 9.09-.449 1.795-.729 3.591-.982 5.415-.028.308-.084.589-.112.897 0 .337-.168.702-.561.954-.056.056-.169 0-.169-.084z"/><path fill="#000" d="M245.121 146.871c.562 3.928.842 8.108 1.038 12.064.169 3.03.169 6.06.029 9.09a37 37 0 0 1-.281 3.03s0 .056-.056.028c0 0-.028 0-.028-.056v-1.515c0-5.499-.253-11.11-.505-16.609l-.281-6.032c0-.056.056-.056.084 0M267.594 52.689c-11.363-4.854-23.567 3.366-24.436 15.262a22 22 0 0 0-.057 1.403c0 .505 0 1.01.057 1.487.308 4.152 2.02 7.855 4.601 10.717a19 19 0 0 0 1.879 1.795c4.77 3.956 11.503 5.415 17.956 2.666 6.537-2.75 10.885-9.624 10.801-16.666.084-7.041-4.292-13.915-10.801-16.664m-.73 31.59c-5.723 2.076-11.614 1.038-15.935-2.16-.645-.477-1.263-.982-1.824-1.571-2.805-2.806-4.601-6.677-4.685-11.222 0-6.397 4.433-12.485 10.268-14.898 10.493-4.405 21.715 3.731 21.715 14.898.141 6.593-3.17 12.653-9.567 14.953zM225.903 37.23c-11.11-4.742-23.061 3.787-23.033 15.683 0 3.423.982 6.565 2.637 9.202.168.28.365.561.561.814 4.293 5.975 12.26 8.893 19.835 5.667 6.145-2.581 10.241-9.062 10.185-15.683.056-6.621-4.04-13.102-10.185-15.683m-.701 29.767c-10.128 3.703-20.901-3.086-21.098-14.056 0-6.032 4.181-11.727 9.651-14.028 9.876-4.152 20.425 3.507 20.453 14.028.14 6.2-3.002 11.924-9.006 14.056"/><path fill="#000" d="M272.083 64.107v-1.711c0-.674-.561-1.235-1.207-1.235h-19.33c-.645 0-1.234.561-1.234 1.206v13.074c0 .365-.056.87.168 1.179a1.26 1.26 0 0 0 1.066.617h19.33c.646 0 1.235-.561 1.235-1.206V64.107zm-1.235 12.877c-5.302.197-10.633-.42-15.907-.477-.674 0-1.599.113-2.273.225-.589 0-1.402.309-1.795-.309-.169-.224-.084-.701-.112-.954.028-1.88.084-3.815.112-5.695 0-1.487.056-5.386.084-6.817 0-.197-.056-.702.084-.842a.63.63 0 0 1 .505-.28h4.545c2.637 0 6.425-.113 9.09-.197 1.515-.028 3.03-.112 4.545-.112h1.122c.477 0 .842.449.814.898-.14 2.076-.253 4.18-.168 6.256 0 2.272.168 4.545.224 6.817v.562c.028.505-.393.925-.898.954z"/><path fill="#000" d="m253.173 72.44 4.63-4.854a.135.135 0 0 1 .196 0l3.395 2.693-1.151-.084 6.902-4.741c.14-.112.309.112.168.224l-6.032 5.808c-.308.364-.897.308-1.15-.085l-2.357-3.647h.197c0 .758-.365 1.207-.758 1.6-1.178 1.206-2.44 2.356-3.871 3.282-.141.112-.337-.056-.197-.197zM204.216 115.28c8.557-12.905 18.236-28.055 18.321-44.019 0-.084.056-.14.14-.14s.14.056.14.14c.309 2.02.421 4.096.253 6.144-.59 8.22-4.181 15.936-8.193 23.034a111 111 0 0 1-10.436 14.982c-.056.056-.141.084-.197.028a.137.137 0 0 1 0-.197zM250.929 82.119c-.084.28-.252.533-.505.701-.252.168-.505.337-.757.533-10.044 6.958-17.395 17.367-21.07 29.038-1.319 4.04-2.301 8.192-3.03 12.4 0 .084-.084.14-.169.112-.084 0-.112-.084-.112-.168.533-4.236 1.319-8.473 2.469-12.597 2.273-8.248 6.144-16.132 11.727-22.64 2.497-2.918 5.303-5.584 8.305-7.968l1.094-.842c.084-.056.14-.112.224-.14a16.4 16.4 0 0 0 1.824 1.57M231.599 65.061c3.507-.393 7.042.28 10.156 1.992.645.365 1.346.785 1.908 1.29.477.646.084 1.656-.281 2.33l-.084.195c0 .029-.056.057-.112 0-3.199-3.001-7.547-4.348-11.7-5.526-.14-.028-.112-.253 0-.253h.057zM183.624 92.78c3.478-13.888 8.528-24.913 22.416-30.89.056 0 .112 0 .112.057v.196c0 1.038-.308 1.29-.673 1.459-.702.393-1.375.842-2.048 1.263-11.615 7.294-15.038 15.57-19.527 27.97 0 .085-.112.141-.196.085-.056 0-.113-.112-.084-.168zM218.637 43.851c.337 1.767.533 3.535.645 5.303.028 1.318.337 2.693-.084 3.983l-.196.674c-.056.224-.112.449-.365.673l-.224-.112c-.393-1.235.336-1.6 1.066-2.329a49 49 0 0 1 3.675-3.114c.673-.477 1.347-.954 2.076-1.375.14-.084.281.112.169.225l-6.79 6.79s-.056.027-.084 0l-.14-.113c-.309-.225-.281-.449-.309-.673-.056-.674 0-1.319.028-1.992.056-1.684.225-6.2.281-7.94 0-.168.28-.168.28 0zM191.619 124.258c11.251-.056 22.557.898 33.611 3.086 4.601.982 9.23 2.217 13.439 4.321.589.308.897.954.813 1.571a23 23 0 0 0-.168 2.777c0 1.88.112 6.341.14 8.277l.14 5.527c.057 1.823.141 3.675.197 5.499 0 .084-.056.14-.14.168-.085 0-.141-.056-.141-.112l-2.525-21.827.084.112c-14.645-5.219-30.103-7.687-45.506-9.118-.084 0-.14-.084-.14-.141 0-.084.084-.14.14-.14zM226.24 188.814c3.311-1.375 6.677-2.413 10.212-2.974.926-.084 1.964-.393 2.89.168.393.253.758.59.814 1.095v.14c0 .084-.085.14-.169.112-.196-.14-.477-.196-.757-.224-2.02-.141-4.04.336-6.032.673-2.301.421-4.573.926-6.902 1.319-.168 0-.224-.225-.056-.281zM247.45 189.74c1.515-2.188 4.461-3.395 7.126-2.778.309.057.73.197 1.038.253 2.722.673 5.443 1.459 8.108 2.413a.554.554 0 0 1 .365.729.577.577 0 0 1-.701.337l-8.08-2.385c-1.319-.449-2.694-.701-4.068-.337-.674.141-1.319.421-1.908.73a8 8 0 0 0-1.656 1.206c-.112.112-.336-.056-.196-.196z"/><path fill="#000" d="M246.749 191.367c.813-1.038 2.272-1.992 3.675-1.515 1.571.589 3.114 1.234 4.601 1.992.084.056.028.196-.056.168-.73-.168-1.431-.392-2.16-.617-.87-.28-1.768-.589-2.638-.898-1.178-.364-2.3.365-3.31.982-.084.056-.168-.056-.112-.112M234.544 190.469c1.515-.841 3.143-1.459 4.882-1.711a9 9 0 0 1 1.739-.056c.197 0 .365.196.337.392 0 .225-.224.365-.421.337-2.188-.308-4.432.309-6.396 1.235a.145.145 0 0 1-.141-.253zM83.241 70.11l-65.033 6.762c.169.112 5.163 59.506 5.583 59.422l29.375-2.553.953-.084 33.863-2.946c.085 0 .14-.084.14-.14-.168-.141-4.46-60.544-4.881-60.46m3.591 60.573-.084-1.599c-.28 0-.59 0-.898.056-1.234.112-4.77.392-6.032.505-17.001 1.374-37.201 3.282-54.147 4.909-.393 0-.785.057-1.15.197.056.449.084.898.112 1.346l-.954-.785c.225-.281.505-.449.814-.561-1.6-16.946-3.816-40.428-5.555-57.262 16.02-1.122 32.488-2.525 48.452-4.264 4.489-.477 10.885-1.262 15.43-1.852-.084-.364-.28-.701-.645-1.038l1.15.982c-.168 0-.337.028-.505.056.056.253.084.533.112.814l.14 1.88.281 3.76c1.235 16.496 2.497 34.62 3.367 51.229.393 0 .785.112 1.15.336l-1.066 1.263z"/><path fill="#2740E3" d="m44.244 86.636-5.443.308.112 2.105 2.918-.169q-.59 1.432-2.104 1.515-1.305.084-2.02-.589c-.477-.449-.758-1.122-.814-2.02-.056-.814.112-1.459.533-1.964.393-.505.954-.785 1.684-.813.392 0 .757.028 1.038.168.308.14.533.337.73.59l3.141-.197c-.28-1.094-.87-1.936-1.767-2.497-.898-.59-2.02-.842-3.339-.758-1.066.056-1.964.337-2.75.842a4.83 4.83 0 0 0-1.767 1.992c-.392.813-.56 1.767-.505 2.805s.337 1.964.814 2.75c.505.785 1.15 1.375 1.992 1.767.841.393 1.767.561 2.833.505.87-.056 1.628-.252 2.273-.617a5.2 5.2 0 0 0 1.6-1.29c.42-.505.729-1.067.897-1.628l-.168-2.833zM53.025 87.393a3.2 3.2 0 0 0-1.178-.87 14 14 0 0 0-1.684-.589c-.448-.14-.813-.252-1.038-.336a2 2 0 0 1-.589-.337.64.64 0 0 1-.252-.505c0-.253.056-.42.168-.561a.72.72 0 0 1 .533-.225c.28 0 .533.056.73.197.196.14.308.392.336.701l3.17-.196c-.112-1.038-.533-1.796-1.318-2.329-.758-.533-1.768-.757-2.974-.673-.758.056-1.43.196-1.992.505-.59.28-1.01.673-1.347 1.178-.308.505-.449 1.094-.393 1.768.029.673.225 1.206.562 1.599.336.393.73.673 1.15.87.449.196 1.01.364 1.711.56.674.169 1.15.337 1.431.478.28.14.449.392.477.701 0 .253-.056.42-.224.561-.169.14-.393.225-.646.253-.308 0-.533-.056-.73-.225-.195-.168-.336-.42-.364-.785l-3.114.168c.112 1.066.59 1.88 1.403 2.413s1.852.757 3.058.701c.813-.056 1.487-.224 2.076-.561.59-.309 1.01-.73 1.29-1.263.281-.504.393-1.094.365-1.71-.028-.618-.224-1.123-.56-1.488zM62.536 83.353l-.14-2.328-8.473.504.14 2.33 2.778-.17.477 8.165 2.917-.168-.477-8.165 2.806-.168zM67.502 88.796c-.337-.28-.758-.393-1.263-.365s-.925.197-1.206.505c-.309.309-.42.674-.393 1.123 0 .42.197.785.533 1.038.337.252.758.392 1.263.336.505-.028.897-.196 1.206-.505.309-.308.421-.673.393-1.094 0-.449-.197-.785-.533-1.066zm-.14-8.585-3.17.197.757 7.07 2.497-.14zM47.694 106.695v-.168l-.112-1.459c-.084-1.347-.252-3.787-.337-5.106.029-.617-.392-1.122-1.01-1.038-1.346.056-12.288.449-13.887.505-.533 0-.926.533-.842 1.038v.168l.14 1.459.225 2.918c.056.673.14 1.908.197 2.553 0 .449.42.814.87.814h.729c.645-.056 12.204-.589 13.13-.646.533 0 .925-.533.841-1.01zm-14.448.477a.36.36 0 0 1 .112.281c0-.084-.056-.197-.112-.281m13.86-.421c0 .085 0 .169-.085.225 0 0 0 .028-.084 0-.168-.112-.309-.477-.197-.673 0 0 0-.028.057-.028-1.936.056-3.9.028-5.836.168-2.581.112-5.246.365-7.8.589.029.056.085.084.113.14a.43.43 0 0 0-.28-.112h.168c-.169-.196-.393-.393-.421-.617a42 42 0 0 1-.28-5.611v-.505.056c0 .028.027.084.055.14.028.14 0 .253-.112.281 4.657-.225 9.343-.674 14-1.066 0 0 .028 0 .056.056v.056c.084.589.196 1.767.252 2.356.169 1.515.393 3.03.365 4.545z"/><path fill="#2740E3" d="m35.799 103.216 8.697-.645v1.375l-8.697.589zM74.01 114.327l-.28-1.6-.14-.785c-.028-.337-.337-.645-.617-.786-.926-.533-2.357-.252-3.339-.224-6.705.421-28.42 1.767-35.49 2.188-.758.056-1.88.309-2.076 1.235-.029.196.14.869.168 1.094l.617 3.17 1.15 5.751c.253 1.235 1.936 1.235 2.89 1.123 2.497-.169 7.94-.533 10.493-.702l25.811-1.739c.786-.084 1.908-.365 2.048-1.291-.309-2.076-.898-5.358-1.234-7.434m-1.627-2.161v.056-.056m1.684 9.427v.224-.252c-.028 0-.084.056-.169 0-.112-.056-.252-.225-.364-.421-.14-.196-.225-.421-.309-.589s-.112-.253-.168-.253c-4.265.141-8.613.337-12.906.646-4.152.308-8.725.757-12.877 1.178l-6.425.701c-.533.085-1.066 0-1.6.393-.476.337-.953.87-1.57.926l-.814.084c-.561.056-1.122.14-1.571-.112v.112c-.028-.084-.056-.112-.056-.112h.028c-.561-2.862-.954-5.779-1.29-8.669a2 2 0 0 0-.225-.253c-.056-.028-.084 0-.056-.056 0 0 .056-.056.112-.224v-.056c.028-.085.056-.197.056-.309v-.196.224c.028.281.056.589.112.87.084.084.14.196.197.252.056.084.112.112.168.112 12.316-.869 24.745-2.468 37.033-3.563.337-.028.786 0 1.038.113v-.056.056c.365 1.767.842 3.647 1.123 5.386.224 1.263.392 2.553.533 3.844.028 0 .028 0 0 .056z"/><path fill="#2740E3" d="m43.514 118.058 23.062-1.88.084 1.852-23.062 1.851zM72.664 104.535l-.14-1.711-.28-3.395c0-.28-.085-1.01-.113-1.263v-.224c0-.645-.701-.982-1.234-.926-2.638.084-14.59.421-17.48.505-.476 0-1.037.365-1.037.898 0 .168 0 .28.028.449l.168 1.683.337 3.395.168 1.683c0 .337.28.646.59.758.252.14.645.084.897.084 2.245-.084 14.505-.533 17.03-.617.477 0 1.066-.365 1.038-.898 0-.168 0-.281-.028-.421zm-.701.477s-.028.028-.084 0c-.169-.112-.365-.589-.281-.786-2.273.029-4.545 0-6.818.113-3.282.14-6.93.421-10.212.701h-.364c.084.168-.225.617-.281.505a52 52 0 0 1-.477-6.902v-.28.28c0 .028.028.085.056.14.028.141 0 .281 0 .281 5.78-.252 11.671-.757 17.45-1.178h.225c.112 0 .168.084.14.056v.084c.169 1.627.45 3.255.59 4.882q.084 1.01.084 2.02c0 .673 0 .056-.056.112z"/><path fill="#2740E3" d="m57.767 101.337 10.913-.617v1.346l-10.914.617z"/><path fill="#000" d="M76.816 150.658v-.14h-.14l-20.312 1.74c0 .112 2.497 23.819 2.525 23.903.897 0 1.795-.028 2.665-.056 3.282-.141 6.846-.393 10.1-.73 2.469-.224 5.218-.561 7.687-.954 0-.196-2.525-23.566-2.497-23.791zm2.16 23.539c-.785 0-1.57.028-2.356.056-3.283.14-6.846.393-10.1.701-1.459.141-3.535.337-5.022.562l-2.357.336v.141l-.14-.141h.14c-.14-2.777-.392-5.863-.673-8.641-.477-4.882-1.15-9.932-1.88-14.785 5.05-.084 10.184-.365 15.178-.954 1.6-.196 3.199-.393 4.798-.645v-.141l.14.113h-.14c.14 2.833.393 5.947.645 8.753.056.729.196 2.216.28 2.974.365 3.423.646 8.332 1.544 11.643h.168l-.14.14c0-.056-.028-.112-.028-.14z"/><path fill="#F2F4F8" d="M62.059 163.059c2.329.982 4.04 2.974 5.499 4.994l-1.88.056a66 66 0 0 1 1.627-2.778c1.123-1.823 2.329-3.619 3.732-5.218.73-.785 1.515-1.599 2.525-2.048.14-.056.28.168.112.253-.42.252-.814.617-1.15 1.01-1.656 1.991-2.75 4.404-3.788 6.761-.42.954-.813 1.936-1.15 2.89-.365.869-1.459.841-1.88.056-.813-2.104-1.936-4.293-3.76-5.696-.14-.084 0-.308.141-.252z"/><path fill="#000" d="M56.055 150.715c-2.385-3.395-2.777-9.062-2.918-13.131 0-1.515 0-3.001.084-4.516 0-.253.225-.449.477-.421.253 0 .45.224.45.449 0 .729 0 1.487.027 2.244.056 2.862.169 6.032.561 8.866.309 2.188.618 4.404 1.431 6.48.028.057-.056.113-.084.057zM89.834 130.262c12.513 6.733 16.16 19.022 14.757 32.46 0 .085-.084.141-.14.141-.084 0-.14-.085-.14-.141-.113-6.957-.674-14.084-3.872-20.312-1.01-2.02-2.329-3.956-3.787-5.667-1.993-2.329-4.377-4.349-6.958-6.2-.056-.028-.085-.141-.056-.197.028-.056.112-.084.168-.028zM95.136 106.976c5.191-2.553 11.475-3.086 17.002-1.347.73.253 1.515.505 2.216.842 1.768.786 3.507 1.767 5.05 2.946 3.087 2.3 5.668 5.274 7.632 8.501.056.056.028.168-.028.196-.057.028-.141 0-.169-.028-8.164-10.184-18.769-15.038-31.618-10.858-.085 0-.14 0-.169-.084 0-.084 0-.14.084-.168M21.294 177.143c6.93 5.639 14.028 11.054 21.435 16.076a137 137 0 0 0 4.994 3.226c.392.225.897.561 1.234.842.393.308.758.673 1.066 1.094s.393.926.561 1.403c.309.898 1.15 3.31 1.487 4.208 3.367 9.287 6.79 18.741 10.409 27.915 2.16 5.555 4.994 10.83 7.07 16.413.673 1.88 1.234 3.815 1.374 5.807 0 .113-.14.197-.224.113l-33.638-28.308c-5.135-13.243-10.24-26.513-14.926-39.895-1.094-3.087-2.076-6.313-2.076-9.595s.056-.113.084-.141l2.974-.926c.112-.168 29.094 20.06 29.178 20.004 1.767 4.012 3.17 8.192 4.6 12.345 4.097 11.923 8.445 25.334 12.542 37.201 0 .084 0 .14-.085.169-.056 0-.14 0-.168-.057-1.038-1.963-1.796-4.012-2.497-6.088-1.992-5.751-4.349-12.821-6.284-18.6-2.778-8.137-5.415-16.75-8.978-24.605l.308.421c-.56-.309-1.402-.73-1.963-1.038-3.62-1.992-9.483-6.032-12.99-8.333a749 749 0 0 1-10.942-7.435l-3.619-2.525 1.403.225-3.395-.505.112-.14c.225.084.393.224.533.392.169.365.169.786.309 1.151.253.953.505 2.132.758 3.058.673 2.581 1.627 5.134 2.524 7.659a615 615 0 0 0 13.944 36.668s-.393-.533-.365-.533l2.133 1.74c8.865 7.294 18.488 15.711 27.101 23.286 1.375 1.234 2.946 2.329 3.676 4.18l-.225.112a8.7 8.7 0 0 1-1.459-2.665c-1.936-6.649-5.386-12.653-7.855-19.134a776 776 0 0 1-11.195-30.861c-.168-.505-.56-1.655-.729-2.188-.224-.702-.954-1.291-1.571-1.712-6.116-3.843-11.924-8.164-17.563-12.653-3.114-2.469-6.2-4.994-9.202-7.603a.135.135 0 0 1 0-.196.136.136 0 0 1 .196 0z"/><path fill="#000" d="M38.857 231.851s2.3 1.207 4.994 3.507c2.693 2.301 41.859 35.491 41.859 35.491v-1.291l43.514-16.721v5.358l-42.953 16.076-47.386-40.652s-.73-1.038 0-1.768z"/><path fill="#000" d="M69.858 250.929c2.862 1.711 5.555 3.844 8.108 5.976 1.908 1.655 3.844 3.254 5.359 5.274.505.674 1.01 1.375 1.403 2.189h-.14c.14-.309.308-.505.533-.674 0-.14 4.18-1.851 4.544-2.048 6.453-2.805 13.467-5.611 20.06-8.136 2.694-1.01 5.499-2.02 8.305-2.609.084 0 .14.028.168.112 0 .056 0 .14-.084.168 0 0-32.096 12.99-32.124 12.99l-1.346.421c-.253.112-14.842-13.439-15.01-13.467a.135.135 0 0 1 0-.196.136.136 0 0 1 .196 0zM38.184 226.605c.533 2.048.814 4.18.477 6.284-.028.14-.253.14-.28 0l-.478-6.256c0-.197.253-.197.28 0zM129.14 252.949c-.645.281-.982.084-1.263-.14l-.954-.646c-1.879-1.29-3.703-2.665-5.527-4.011-1.739-1.347-3.703-2.778-5.47-4.097a28 28 0 0 0-1.88-1.262c-.084-.056-.056-.196.028-.225.954-.168 1.739.057 2.497.505l1.88 1.291c2.497 1.739 4.881 3.619 7.266 5.499a226 226 0 0 1 2.693 2.104 5.4 5.4 0 0 1 .87.758c.056.056.028.14-.028.196l-.112.056zM81.978 224.921l10.942 6.397c.028 0 .056.056 0 .084-.42.365-.842.702-1.29.477l-2.133-1.066a49 49 0 0 1-5.499-3.17l-1.318-.87-.337-.224c-.477-.309-.59-.618-.561-1.403 0-.084 0-.309.14-.253zM61.442 222.34l3.731-3.142h.028l1.43-.645h.113l1.403.533c.056 0 .112.112.084.168-.028.084-.112.084-.168.084h-1.6.534l-1.46.562.141-.085-4.04 2.806c-.14.112-.309-.084-.168-.225z"/><path fill="#000" d="M87.393 258.392c-.028 0-.056 0-.084-.028l-18.881-15.599a.136.136 0 0 1 0-.197.136.136 0 0 1 .196 0l18.825 15.543 20.677-7.687-4.124-3.816a.135.135 0 0 1 0-.196.135.135 0 0 1 .196 0l4.293 3.984c.028.028.056.084.028.14 0 .056-.028.084-.084.112l-20.986 7.8h-.056z"/><path fill="#000" d="M91.77 256.764c-.028 0-.056 0-.084-.028l-25.783-21.238a.135.135 0 0 1 0-.196.136.136 0 0 1 .196 0l25.783 21.238a.135.135 0 0 1 0 .196c-.028.028-.056.056-.112.056zM96.006 255.193c-.028 0-.056 0-.084-.028l-32.32-26.372a.135.135 0 0 1 0-.196.136.136 0 0 1 .196 0l32.32 26.372a.135.135 0 0 1 0 .196c-.028.028-.056.057-.112.057zM86.552 240.717h-.085l-24.324-16.104c-.056-.056-.084-.14-.028-.197s.14-.084.197-.028l24.324 16.104c.056.056.084.141.028.197a.2.2 0 0 1-.112.056zM88.207 237.827h-.084l-13.832-9.006c-.056-.056-.084-.14-.028-.196s.14-.084.197-.056l13.83 9.006c.057.056.085.14.029.196-.028.056-.084.056-.112.056M104.535 252.023c-.028 0-.056 0-.084-.028l-6.761-5.471a.135.135 0 0 1 0-.196.136.136 0 0 1 .196 0l6.761 5.471a.135.135 0 0 1 0 .196c-.028.028-.056.056-.112.056zM100.102 253.679c-.028 0-.056 0-.084-.028l-5.948-5.079a.135.135 0 0 1 0-.196.136.136 0 0 1 .197 0l5.948 5.078a.137.137 0 0 1 0 .197c-.028.028-.057.056-.113.056zM89.217 235.358h-.084l-11.98-7.827c-.056-.056-.084-.141-.028-.197s.14-.084.196-.056l11.98 7.828c.056.056.084.14.028.196-.028.056-.084.056-.112.056M62.087 224.192c-.056 0-.112-.028-.14-.112 0-.084 0-.14.084-.169l3.535-1.01c.084 0 .14 0 .168.085q.042.126-.084.168l-3.535 1.01h-.028z"/><path fill="#000" d="M64.808 226.324c-.056 0-.084 0-.112-.056s0-.14.056-.196l1.122-.645c.056-.029.14 0 .197.056s0 .14-.056.196l-1.123.645h-.084M64.528 229.494a.15.15 0 0 1-.14-.084c-.029-.056 0-.14.056-.196l2.58-1.15c.057-.028.17 0 .197.056.028.056 0 .14-.056.196l-2.581 1.15h-.056zM64.808 231.571a.15.15 0 0 1-.14-.084c-.028-.085 0-.141.084-.197l4.938-1.964c.056 0 .168 0 .168.084.028.085 0 .141-.084.197l-4.938 1.964h-.056zM65.454 233.955c-.057 0-.113-.028-.113-.084-.028-.056 0-.14.056-.196l12.205-5.611c.056-.028.14 0 .196.056s0 .14-.056.196l-12.204 5.611h-.056zM67.277 236.593c-.056 0-.112 0-.112-.085-.028-.056 0-.14.056-.196l7.126-3.9c.056-.028.14 0 .197.056s0 .141-.056.197l-7.126 3.899h-.056zM69.325 238.276c-.056 0-.112 0-.112-.084-.028-.056 0-.14.056-.196l7.491-3.984c.056-.028.14 0 .197.056.028.056 0 .14-.057.196l-7.49 3.984h-.057zM67.782 240.745c-.056 0-.084 0-.112-.056-.028-.057 0-.141.056-.197l2.665-1.543c.057-.028.14 0 .197.056s0 .14-.056.197l-2.665 1.543h-.085M71.177 239.819c-.056 0-.112 0-.112-.084-.028-.056 0-.14.056-.197l3.675-1.851c.056-.028.14 0 .197.056.028.056 0 .14-.057.196l-3.675 1.852h-.056zM75.694 238.613c-.056 0-.112 0-.112-.085-.028-.056 0-.14.056-.196l3.731-2.076c.056-.028.14 0 .197.056.028.056 0 .14-.056.196l-3.732 2.077h-.056zM69.326 243.466a.15.15 0 0 1-.14-.084c-.029-.056 0-.14.083-.196l8.024-3.507c.056-.028.14 0 .197.084s0 .14-.084.196l-8.024 3.507zM71.99 245.683c-.055 0-.111 0-.14-.084-.028-.057 0-.141.057-.197l7.995-3.984c.056-.028.14 0 .197.056.028.056 0 .141-.056.197l-7.996 3.984h-.056zM74.572 247.815a.15.15 0 0 1-.14-.084c-.029-.056 0-.141.055-.197l8.024-3.563c.056-.028.14 0 .197.056.028.056 0 .141-.056.197l-8.024 3.563h-.056zM77.069 249.891c-.056 0-.113 0-.14-.084-.029-.056 0-.141.055-.197l7.828-3.731c.056-.028.14 0 .196.056.028.056 0 .14-.056.196l-7.827 3.732h-.056zM79.846 251.799a.15.15 0 0 1-.14-.084c-.028-.056 0-.141.056-.197l7.743-3.479c.056-.028.14 0 .197.056.028.057 0 .141-.056.197l-7.744 3.479h-.056zM83.858 255.502a.15.15 0 0 1-.14-.084c0-.084 0-.14.084-.168l21.154-7.491c.084 0 .14 0 .168.084 0 .084 0 .14-.084.168l-21.154 7.491h-.056zM89.722 250.059c-.056 0-.085 0-.113-.056s0-.14.056-.196l2.75-1.571c.056-.028.14 0 .196.056.028.056 0 .14-.056.196l-2.75 1.571h-.083M81.305 242.989a.15.15 0 0 1-.14-.084c-.028-.056 0-.14.084-.196l5.246-2.273c.056-.028.14 0 .197.084.028.056 0 .141-.084.197l-5.247 2.272zM78.556 240.969a.15.15 0 0 1-.14-.084c-.028-.056 0-.14.056-.196l4.713-2.105c.056-.028.14 0 .196.057.028.056 0 .14-.056.196l-4.713 2.104h-.056zM73.674 231.991a.15.15 0 0 1-.14-.084c-.029-.056 0-.14.056-.196l6.172-2.778c.056-.028.14 0 .196.056.028.057 0 .141-.056.197l-6.172 2.777h-.056zM75.694 233.535a.16.16 0 0 1-.14-.085c0-.084 0-.14.084-.168l7.126-2.385c.084 0 .14 0 .168.085q.042.126-.084.168l-7.126 2.385h-.056zM78.163 235.162a.15.15 0 0 1-.14-.084c-.028-.085 0-.141.084-.197l3.479-1.431c.056 0 .14 0 .168.084.028.085 0 .141-.084.197l-3.479 1.431h-.056zM80.912 237.014c-.056 0-.112 0-.112-.085-.028-.056 0-.14.056-.196l3.339-1.768c.056-.028.14 0 .196.057.028.056 0 .14-.056.196l-3.338 1.767h-.057z"/><path fill="#000" d="M83.269 238.865c-.056 0-.084 0-.112-.056s0-.14.028-.196l3.338-2.105c.056-.056.14 0 .197.056.028.057 0 .141-.028.197l-3.339 2.104zM107.537 245.43c.842.168 1.487.673 2.16 1.122.449.309 1.487 1.123 1.936 1.459l1.263 1.01c.112.084 0 .253-.113.225-1.15-.141-2.104-.73-2.917-1.487-.758-.758-1.487-1.627-2.469-2.104-.14-.057-.056-.281.084-.253h.084zM214.232 182.67s7.772 1.459 9.118 2.497 0 58.608 0 58.608l-20.256 9.623-.561-25.194-.224-1.094.785-2.329 1.459-4.208 1.347-5.022 1.795-7.295 1.459-6.256.505-1.852.758-3.815.897-4.18.87-4.489 2.048.28.87-1.823-.87-3.423z"/><path fill="#fff" d="M221.835 189.347v49.939h-.28l-.141-1.571c-.056-.954-.224-3.675-.28-4.685-.589-13.495-.561-27.074.196-40.569.028-.757.14-2.356.225-3.114z"/><path fill="#000" d="M143.504 225.034s-12.961-6.706-13.831-7.772l5.611-3.955 1.796-1.852.617-.702 1.543-4.909 1.403-6.958.617-5.359.224 1.852.421 2.525.73 5.022.336 7.856.561 7.35.365 6.902-.365-.084z"/></svg>